<?xml version="1.0" encoding="utf-8" standalone="no"?>
<!DOCTYPE svg PUBLIC "-//W3C//DTD SVG 1.1//EN"
  "http://www.w3.org/Graphics/SVG/1.1/DTD/svg11.dtd">
<!-- Created with matplotlib (http://matplotlib.org/) -->
<svg height="511.2pt" version="1.1" viewBox="0 0 936.72 511.2" width="936.72pt" xmlns="http://www.w3.org/2000/svg" xmlns:xlink="http://www.w3.org/1999/xlink">
 <defs>
  <style type="text/css">
*{stroke-linecap:butt;stroke-linejoin:round;}
  </style>
 </defs>
 <g id="figure_1">
  <g id="patch_1">
   <path d="M 0 511.2 
L 936.72 511.2 
L 936.72 0 
L 0 0 
z
" style="fill:#ffffff;"/>
  </g>
  <g id="axes_1">
   <g id="patch_2">
    <path d="M 117.09 454.968 
L 843.048 454.968 
L 843.048 61.344 
L 117.09 61.344 
z
" style="fill:#ffffff;"/>
   </g>
   <g id="matplotlib.axis_1">
    <g id="xtick_1">
     <g id="line2d_1">
      <path clip-path="url(#p00b18a7b27)" d="M 117.09 454.968 
L 117.09 61.344 
" style="fill:none;stroke:#cccccc;stroke-linecap:round;stroke-opacity:0.5;"/>
     </g>
     <g id="line2d_2">
      <defs>
       <path d="M 0 0 
L 0 6 
" id="mfaecf4cfa3" style="stroke:#262626;stroke-width:1.25;"/>
      </defs>
      <g>
       <use style="fill:#262626;stroke:#262626;stroke-width:1.25;" x="117.09" xlink:href="#mfaecf4cfa3" y="454.968"/>
      </g>
     </g>
     <g id="text_1">
      <!-- 0.0 -->
      <defs>
       <path d="M 31.78125 66.40625 
Q 24.171875 66.40625 20.328125 58.90625 
Q 16.5 51.421875 16.5 36.375 
Q 16.5 21.390625 20.328125 13.890625 
Q 24.171875 6.390625 31.78125 6.390625 
Q 39.453125 6.390625 43.28125 13.890625 
Q 47.125 21.390625 47.125 36.375 
Q 47.125 51.421875 43.28125 58.90625 
Q 39.453125 66.40625 31.78125 66.40625 
z
M 31.78125 74.21875 
Q 44.046875 74.21875 50.515625 64.515625 
Q 56.984375 54.828125 56.984375 36.375 
Q 56.984375 17.96875 50.515625 8.265625 
Q 44.046875 -1.421875 31.78125 -1.421875 
Q 19.53125 -1.421875 13.0625 8.265625 
Q 6.59375 17.96875 6.59375 36.375 
Q 6.59375 54.828125 13.0625 64.515625 
Q 19.53125 74.21875 31.78125 74.21875 
z
" id="DejaVuSans-30"/>
       <path d="M 10.6875 12.40625 
L 21 12.40625 
L 21 0 
L 10.6875 0 
z
" id="DejaVuSans-2e"/>
      </defs>
      <g style="fill:#262626;" transform="translate(106.156602 474.915852)scale(0.1375 -0.1375)">
       <use xlink:href="#DejaVuSans-30"/>
       <use x="63.623047" xlink:href="#DejaVuSans-2e"/>
       <use x="95.410156" xlink:href="#DejaVuSans-30"/>
      </g>
     </g>
    </g>
    <g id="xtick_2">
     <g id="line2d_3">
      <path clip-path="url(#p00b18a7b27)" d="M 262.2816 454.968 
L 262.2816 61.344 
" style="fill:none;stroke:#cccccc;stroke-linecap:round;stroke-opacity:0.5;"/>
     </g>
     <g id="line2d_4">
      <g>
       <use style="fill:#262626;stroke:#262626;stroke-width:1.25;" x="262.2816" xlink:href="#mfaecf4cfa3" y="454.968"/>
      </g>
     </g>
     <g id="text_2">
      <!-- 0.2 -->
      <defs>
       <path d="M 19.1875 8.296875 
L 53.609375 8.296875 
L 53.609375 0 
L 7.328125 0 
L 7.328125 8.296875 
Q 12.9375 14.109375 22.625 23.890625 
Q 32.328125 33.6875 34.8125 36.53125 
Q 39.546875 41.84375 41.421875 45.53125 
Q 43.3125 49.21875 43.3125 52.78125 
Q 43.3125 58.59375 39.234375 62.25 
Q 35.15625 65.921875 28.609375 65.921875 
Q 23.96875 65.921875 18.8125 64.3125 
Q 13.671875 62.703125 7.8125 59.421875 
L 7.8125 69.390625 
Q 13.765625 71.78125 18.9375 73 
Q 24.125 74.21875 28.421875 74.21875 
Q 39.75 74.21875 46.484375 68.546875 
Q 53.21875 62.890625 53.21875 53.421875 
Q 53.21875 48.921875 51.53125 44.890625 
Q 49.859375 40.875 45.40625 35.40625 
Q 44.1875 33.984375 37.640625 27.21875 
Q 31.109375 20.453125 19.1875 8.296875 
z
" id="DejaVuSans-32"/>
      </defs>
      <g style="fill:#262626;" transform="translate(251.348202 474.915852)scale(0.1375 -0.1375)">
       <use xlink:href="#DejaVuSans-30"/>
       <use x="63.623047" xlink:href="#DejaVuSans-2e"/>
       <use x="95.410156" xlink:href="#DejaVuSans-32"/>
      </g>
     </g>
    </g>
    <g id="xtick_3">
     <g id="line2d_5">
      <path clip-path="url(#p00b18a7b27)" d="M 407.4732 454.968 
L 407.4732 61.344 
" style="fill:none;stroke:#cccccc;stroke-linecap:round;stroke-opacity:0.5;"/>
     </g>
     <g id="line2d_6">
      <g>
       <use style="fill:#262626;stroke:#262626;stroke-width:1.25;" x="407.4732" xlink:href="#mfaecf4cfa3" y="454.968"/>
      </g>
     </g>
     <g id="text_3">
      <!-- 0.4 -->
      <defs>
       <path d="M 37.796875 64.3125 
L 12.890625 25.390625 
L 37.796875 25.390625 
z
M 35.203125 72.90625 
L 47.609375 72.90625 
L 47.609375 25.390625 
L 58.015625 25.390625 
L 58.015625 17.1875 
L 47.609375 17.1875 
L 47.609375 0 
L 37.796875 0 
L 37.796875 17.1875 
L 4.890625 17.1875 
L 4.890625 26.703125 
z
" id="DejaVuSans-34"/>
      </defs>
      <g style="fill:#262626;" transform="translate(396.539802 474.915852)scale(0.1375 -0.1375)">
       <use xlink:href="#DejaVuSans-30"/>
       <use x="63.623047" xlink:href="#DejaVuSans-2e"/>
       <use x="95.410156" xlink:href="#DejaVuSans-34"/>
      </g>
     </g>
    </g>
    <g id="xtick_4">
     <g id="line2d_7">
      <path clip-path="url(#p00b18a7b27)" d="M 552.6648 454.968 
L 552.6648 61.344 
" style="fill:none;stroke:#cccccc;stroke-linecap:round;stroke-opacity:0.5;"/>
     </g>
     <g id="line2d_8">
      <g>
       <use style="fill:#262626;stroke:#262626;stroke-width:1.25;" x="552.6648" xlink:href="#mfaecf4cfa3" y="454.968"/>
      </g>
     </g>
     <g id="text_4">
      <!-- 0.6 -->
      <defs>
       <path d="M 33.015625 40.375 
Q 26.375 40.375 22.484375 35.828125 
Q 18.609375 31.296875 18.609375 23.390625 
Q 18.609375 15.53125 22.484375 10.953125 
Q 26.375 6.390625 33.015625 6.390625 
Q 39.65625 6.390625 43.53125 10.953125 
Q 47.40625 15.53125 47.40625 23.390625 
Q 47.40625 31.296875 43.53125 35.828125 
Q 39.65625 40.375 33.015625 40.375 
z
M 52.59375 71.296875 
L 52.59375 62.3125 
Q 48.875 64.0625 45.09375 64.984375 
Q 41.3125 65.921875 37.59375 65.921875 
Q 27.828125 65.921875 22.671875 59.328125 
Q 17.53125 52.734375 16.796875 39.40625 
Q 19.671875 43.65625 24.015625 45.921875 
Q 28.375 48.1875 33.59375 48.1875 
Q 44.578125 48.1875 50.953125 41.515625 
Q 57.328125 34.859375 57.328125 23.390625 
Q 57.328125 12.15625 50.6875 5.359375 
Q 44.046875 -1.421875 33.015625 -1.421875 
Q 20.359375 -1.421875 13.671875 8.265625 
Q 6.984375 17.96875 6.984375 36.375 
Q 6.984375 53.65625 15.1875 63.9375 
Q 23.390625 74.21875 37.203125 74.21875 
Q 40.921875 74.21875 44.703125 73.484375 
Q 48.484375 72.75 52.59375 71.296875 
z
" id="DejaVuSans-36"/>
      </defs>
      <g style="fill:#262626;" transform="translate(541.731402 474.915852)scale(0.1375 -0.1375)">
       <use xlink:href="#DejaVuSans-30"/>
       <use x="63.623047" xlink:href="#DejaVuSans-2e"/>
       <use x="95.410156" xlink:href="#DejaVuSans-36"/>
      </g>
     </g>
    </g>
    <g id="xtick_5">
     <g id="line2d_9">
      <path clip-path="url(#p00b18a7b27)" d="M 697.8564 454.968 
L 697.8564 61.344 
" style="fill:none;stroke:#cccccc;stroke-linecap:round;stroke-opacity:0.5;"/>
     </g>
     <g id="line2d_10">
      <g>
       <use style="fill:#262626;stroke:#262626;stroke-width:1.25;" x="697.8564" xlink:href="#mfaecf4cfa3" y="454.968"/>
      </g>
     </g>
     <g id="text_5">
      <!-- 0.8 -->
      <defs>
       <path d="M 31.78125 34.625 
Q 24.75 34.625 20.71875 30.859375 
Q 16.703125 27.09375 16.703125 20.515625 
Q 16.703125 13.921875 20.71875 10.15625 
Q 24.75 6.390625 31.78125 6.390625 
Q 38.8125 6.390625 42.859375 10.171875 
Q 46.921875 13.96875 46.921875 20.515625 
Q 46.921875 27.09375 42.890625 30.859375 
Q 38.875 34.625 31.78125 34.625 
z
M 21.921875 38.8125 
Q 15.578125 40.375 12.03125 44.71875 
Q 8.5 49.078125 8.5 55.328125 
Q 8.5 64.0625 14.71875 69.140625 
Q 20.953125 74.21875 31.78125 74.21875 
Q 42.671875 74.21875 48.875 69.140625 
Q 55.078125 64.0625 55.078125 55.328125 
Q 55.078125 49.078125 51.53125 44.71875 
Q 48 40.375 41.703125 38.8125 
Q 48.828125 37.15625 52.796875 32.3125 
Q 56.78125 27.484375 56.78125 20.515625 
Q 56.78125 9.90625 50.3125 4.234375 
Q 43.84375 -1.421875 31.78125 -1.421875 
Q 19.734375 -1.421875 13.25 4.234375 
Q 6.78125 9.90625 6.78125 20.515625 
Q 6.78125 27.484375 10.78125 32.3125 
Q 14.796875 37.15625 21.921875 38.8125 
z
M 18.3125 54.390625 
Q 18.3125 48.734375 21.84375 45.5625 
Q 25.390625 42.390625 31.78125 42.390625 
Q 38.140625 42.390625 41.71875 45.5625 
Q 45.3125 48.734375 45.3125 54.390625 
Q 45.3125 60.0625 41.71875 63.234375 
Q 38.140625 66.40625 31.78125 66.40625 
Q 25.390625 66.40625 21.84375 63.234375 
Q 18.3125 60.0625 18.3125 54.390625 
z
" id="DejaVuSans-38"/>
      </defs>
      <g style="fill:#262626;" transform="translate(686.923002 474.915852)scale(0.1375 -0.1375)">
       <use xlink:href="#DejaVuSans-30"/>
       <use x="63.623047" xlink:href="#DejaVuSans-2e"/>
       <use x="95.410156" xlink:href="#DejaVuSans-38"/>
      </g>
     </g>
    </g>
    <g id="xtick_6">
     <g id="line2d_11">
      <path clip-path="url(#p00b18a7b27)" d="M 843.048 454.968 
L 843.048 61.344 
" style="fill:none;stroke:#cccccc;stroke-linecap:round;stroke-opacity:0.5;"/>
     </g>
     <g id="line2d_12">
      <g>
       <use style="fill:#262626;stroke:#262626;stroke-width:1.25;" x="843.048" xlink:href="#mfaecf4cfa3" y="454.968"/>
      </g>
     </g>
     <g id="text_6">
      <!-- 1.0 -->
      <defs>
       <path d="M 12.40625 8.296875 
L 28.515625 8.296875 
L 28.515625 63.921875 
L 10.984375 60.40625 
L 10.984375 69.390625 
L 28.421875 72.90625 
L 38.28125 72.90625 
L 38.28125 8.296875 
L 54.390625 8.296875 
L 54.390625 0 
L 12.40625 0 
z
" id="DejaVuSans-31"/>
      </defs>
      <g style="fill:#262626;" transform="translate(832.114602 474.915852)scale(0.1375 -0.1375)">
       <use xlink:href="#DejaVuSans-31"/>
       <use x="63.623047" xlink:href="#DejaVuSans-2e"/>
       <use x="95.410156" xlink:href="#DejaVuSans-30"/>
      </g>
     </g>
    </g>
    <g id="text_7">
     <!-- Runtime (min) -->
     <defs>
      <path d="M 44.390625 34.1875 
Q 47.5625 33.109375 50.5625 29.59375 
Q 53.5625 26.078125 56.59375 19.921875 
L 66.609375 0 
L 56 0 
L 46.6875 18.703125 
Q 43.0625 26.03125 39.671875 28.421875 
Q 36.28125 30.8125 30.421875 30.8125 
L 19.671875 30.8125 
L 19.671875 0 
L 9.8125 0 
L 9.8125 72.90625 
L 32.078125 72.90625 
Q 44.578125 72.90625 50.734375 67.671875 
Q 56.890625 62.453125 56.890625 51.90625 
Q 56.890625 45.015625 53.6875 40.46875 
Q 50.484375 35.9375 44.390625 34.1875 
z
M 19.671875 64.796875 
L 19.671875 38.921875 
L 32.078125 38.921875 
Q 39.203125 38.921875 42.84375 42.21875 
Q 46.484375 45.515625 46.484375 51.90625 
Q 46.484375 58.296875 42.84375 61.546875 
Q 39.203125 64.796875 32.078125 64.796875 
z
" id="DejaVuSans-52"/>
      <path d="M 8.5 21.578125 
L 8.5 54.6875 
L 17.484375 54.6875 
L 17.484375 21.921875 
Q 17.484375 14.15625 20.5 10.265625 
Q 23.53125 6.390625 29.59375 6.390625 
Q 36.859375 6.390625 41.078125 11.03125 
Q 45.3125 15.671875 45.3125 23.6875 
L 45.3125 54.6875 
L 54.296875 54.6875 
L 54.296875 0 
L 45.3125 0 
L 45.3125 8.40625 
Q 42.046875 3.421875 37.71875 1 
Q 33.40625 -1.421875 27.6875 -1.421875 
Q 18.265625 -1.421875 13.375 4.4375 
Q 8.5 10.296875 8.5 21.578125 
z
M 31.109375 56 
z
" id="DejaVuSans-75"/>
      <path d="M 54.890625 33.015625 
L 54.890625 0 
L 45.90625 0 
L 45.90625 32.71875 
Q 45.90625 40.484375 42.875 44.328125 
Q 39.84375 48.1875 33.796875 48.1875 
Q 26.515625 48.1875 22.3125 43.546875 
Q 18.109375 38.921875 18.109375 30.90625 
L 18.109375 0 
L 9.078125 0 
L 9.078125 54.6875 
L 18.109375 54.6875 
L 18.109375 46.1875 
Q 21.34375 51.125 25.703125 53.5625 
Q 30.078125 56 35.796875 56 
Q 45.21875 56 50.046875 50.171875 
Q 54.890625 44.34375 54.890625 33.015625 
z
" id="DejaVuSans-6e"/>
      <path d="M 18.3125 70.21875 
L 18.3125 54.6875 
L 36.8125 54.6875 
L 36.8125 47.703125 
L 18.3125 47.703125 
L 18.3125 18.015625 
Q 18.3125 11.328125 20.140625 9.421875 
Q 21.96875 7.515625 27.59375 7.515625 
L 36.8125 7.515625 
L 36.8125 0 
L 27.59375 0 
Q 17.1875 0 13.234375 3.875 
Q 9.28125 7.765625 9.28125 18.015625 
L 9.28125 47.703125 
L 2.6875 47.703125 
L 2.6875 54.6875 
L 9.28125 54.6875 
L 9.28125 70.21875 
z
" id="DejaVuSans-74"/>
      <path d="M 9.421875 54.6875 
L 18.40625 54.6875 
L 18.40625 0 
L 9.421875 0 
z
M 9.421875 75.984375 
L 18.40625 75.984375 
L 18.40625 64.59375 
L 9.421875 64.59375 
z
" id="DejaVuSans-69"/>
      <path d="M 52 44.1875 
Q 55.375 50.25 60.0625 53.125 
Q 64.75 56 71.09375 56 
Q 79.640625 56 84.28125 50.015625 
Q 88.921875 44.046875 88.921875 33.015625 
L 88.921875 0 
L 79.890625 0 
L 79.890625 32.71875 
Q 79.890625 40.578125 77.09375 44.375 
Q 74.3125 48.1875 68.609375 48.1875 
Q 61.625 48.1875 57.5625 43.546875 
Q 53.515625 38.921875 53.515625 30.90625 
L 53.515625 0 
L 44.484375 0 
L 44.484375 32.71875 
Q 44.484375 40.625 41.703125 44.40625 
Q 38.921875 48.1875 33.109375 48.1875 
Q 26.21875 48.1875 22.15625 43.53125 
Q 18.109375 38.875 18.109375 30.90625 
L 18.109375 0 
L 9.078125 0 
L 9.078125 54.6875 
L 18.109375 54.6875 
L 18.109375 46.1875 
Q 21.1875 51.21875 25.484375 53.609375 
Q 29.78125 56 35.6875 56 
Q 41.65625 56 45.828125 52.96875 
Q 50 49.953125 52 44.1875 
z
" id="DejaVuSans-6d"/>
      <path d="M 56.203125 29.59375 
L 56.203125 25.203125 
L 14.890625 25.203125 
Q 15.484375 15.921875 20.484375 11.0625 
Q 25.484375 6.203125 34.421875 6.203125 
Q 39.59375 6.203125 44.453125 7.46875 
Q 49.3125 8.734375 54.109375 11.28125 
L 54.109375 2.78125 
Q 49.265625 0.734375 44.1875 -0.34375 
Q 39.109375 -1.421875 33.890625 -1.421875 
Q 20.796875 -1.421875 13.15625 6.1875 
Q 5.515625 13.8125 5.515625 26.8125 
Q 5.515625 40.234375 12.765625 48.109375 
Q 20.015625 56 32.328125 56 
Q 43.359375 56 49.78125 48.890625 
Q 56.203125 41.796875 56.203125 29.59375 
z
M 47.21875 32.234375 
Q 47.125 39.59375 43.09375 43.984375 
Q 39.0625 48.390625 32.421875 48.390625 
Q 24.90625 48.390625 20.390625 44.140625 
Q 15.875 39.890625 15.1875 32.171875 
z
" id="DejaVuSans-65"/>
      <path id="DejaVuSans-20"/>
      <path d="M 31 75.875 
Q 24.46875 64.65625 21.28125 53.65625 
Q 18.109375 42.671875 18.109375 31.390625 
Q 18.109375 20.125 21.3125 9.0625 
Q 24.515625 -2 31 -13.1875 
L 23.1875 -13.1875 
Q 15.875 -1.703125 12.234375 9.375 
Q 8.59375 20.453125 8.59375 31.390625 
Q 8.59375 42.28125 12.203125 53.3125 
Q 15.828125 64.359375 23.1875 75.875 
z
" id="DejaVuSans-28"/>
      <path d="M 8.015625 75.875 
L 15.828125 75.875 
Q 23.140625 64.359375 26.78125 53.3125 
Q 30.421875 42.28125 30.421875 31.390625 
Q 30.421875 20.453125 26.78125 9.375 
Q 23.140625 -1.703125 15.828125 -13.1875 
L 8.015625 -13.1875 
Q 14.5 -2 17.703125 9.0625 
Q 20.90625 20.125 20.90625 31.390625 
Q 20.90625 42.671875 17.703125 53.65625 
Q 14.5 64.65625 8.015625 75.875 
z
" id="DejaVuSans-29"/>
     </defs>
     <g style="fill:#262626;" transform="translate(426.033844 493.173078)scale(0.15 -0.15)">
      <use xlink:href="#DejaVuSans-52"/>
      <use x="69.419922" xlink:href="#DejaVuSans-75"/>
      <use x="132.798828" xlink:href="#DejaVuSans-6e"/>
      <use x="196.177734" xlink:href="#DejaVuSans-74"/>
      <use x="235.386719" xlink:href="#DejaVuSans-69"/>
      <use x="263.169922" xlink:href="#DejaVuSans-6d"/>
      <use x="360.582031" xlink:href="#DejaVuSans-65"/>
      <use x="422.105469" xlink:href="#DejaVuSans-20"/>
      <use x="453.892578" xlink:href="#DejaVuSans-28"/>
      <use x="492.90625" xlink:href="#DejaVuSans-6d"/>
      <use x="590.318359" xlink:href="#DejaVuSans-69"/>
      <use x="618.101562" xlink:href="#DejaVuSans-6e"/>
      <use x="681.480469" xlink:href="#DejaVuSans-29"/>
     </g>
    </g>
   </g>
   <g id="matplotlib.axis_2">
    <g id="ytick_1">
     <g id="line2d_13">
      <path clip-path="url(#p00b18a7b27)" d="M 117.09 450.443586 
L 843.048 450.443586 
" style="fill:none;stroke:#cccccc;stroke-linecap:round;stroke-opacity:0.5;"/>
     </g>
     <g id="line2d_14">
      <defs>
       <path d="M 0 0 
L -6 0 
" id="m974a6da0b3" style="stroke:#262626;stroke-width:1.25;"/>
      </defs>
      <g>
       <use style="fill:#262626;stroke:#262626;stroke-width:1.25;" x="117.09" xlink:href="#m974a6da0b3" y="450.443586"/>
      </g>
     </g>
     <g id="text_8">
      <!-- 0.00 -->
      <g style="fill:#262626;" transform="translate(76.974766 455.667512)scale(0.1375 -0.1375)">
       <use xlink:href="#DejaVuSans-30"/>
       <use x="63.623047" xlink:href="#DejaVuSans-2e"/>
       <use x="95.410156" xlink:href="#DejaVuSans-30"/>
       <use x="159.033203" xlink:href="#DejaVuSans-30"/>
      </g>
     </g>
    </g>
    <g id="ytick_2">
     <g id="line2d_15">
      <path clip-path="url(#p00b18a7b27)" d="M 117.09 405.199448 
L 843.048 405.199448 
" style="fill:none;stroke:#cccccc;stroke-linecap:round;stroke-opacity:0.5;"/>
     </g>
     <g id="line2d_16">
      <g>
       <use style="fill:#262626;stroke:#262626;stroke-width:1.25;" x="117.09" xlink:href="#m974a6da0b3" y="405.199448"/>
      </g>
     </g>
     <g id="text_9">
      <!-- 0.05 -->
      <defs>
       <path d="M 10.796875 72.90625 
L 49.515625 72.90625 
L 49.515625 64.59375 
L 19.828125 64.59375 
L 19.828125 46.734375 
Q 21.96875 47.46875 24.109375 47.828125 
Q 26.265625 48.1875 28.421875 48.1875 
Q 40.625 48.1875 47.75 41.5 
Q 54.890625 34.8125 54.890625 23.390625 
Q 54.890625 11.625 47.5625 5.09375 
Q 40.234375 -1.421875 26.90625 -1.421875 
Q 22.3125 -1.421875 17.546875 -0.640625 
Q 12.796875 0.140625 7.71875 1.703125 
L 7.71875 11.625 
Q 12.109375 9.234375 16.796875 8.0625 
Q 21.484375 6.890625 26.703125 6.890625 
Q 35.15625 6.890625 40.078125 11.328125 
Q 45.015625 15.765625 45.015625 23.390625 
Q 45.015625 31 40.078125 35.4375 
Q 35.15625 39.890625 26.703125 39.890625 
Q 22.75 39.890625 18.8125 39.015625 
Q 14.890625 38.140625 10.796875 36.28125 
z
" id="DejaVuSans-35"/>
      </defs>
      <g style="fill:#262626;" transform="translate(76.974766 410.423374)scale(0.1375 -0.1375)">
       <use xlink:href="#DejaVuSans-30"/>
       <use x="63.623047" xlink:href="#DejaVuSans-2e"/>
       <use x="95.410156" xlink:href="#DejaVuSans-30"/>
       <use x="159.033203" xlink:href="#DejaVuSans-35"/>
      </g>
     </g>
    </g>
    <g id="ytick_3">
     <g id="line2d_17">
      <path clip-path="url(#p00b18a7b27)" d="M 117.09 359.95531 
L 843.048 359.95531 
" style="fill:none;stroke:#cccccc;stroke-linecap:round;stroke-opacity:0.5;"/>
     </g>
     <g id="line2d_18">
      <g>
       <use style="fill:#262626;stroke:#262626;stroke-width:1.25;" x="117.09" xlink:href="#m974a6da0b3" y="359.95531"/>
      </g>
     </g>
     <g id="text_10">
      <!-- 0.10 -->
      <g style="fill:#262626;" transform="translate(76.974766 365.179236)scale(0.1375 -0.1375)">
       <use xlink:href="#DejaVuSans-30"/>
       <use x="63.623047" xlink:href="#DejaVuSans-2e"/>
       <use x="95.410156" xlink:href="#DejaVuSans-31"/>
       <use x="159.033203" xlink:href="#DejaVuSans-30"/>
      </g>
     </g>
    </g>
    <g id="ytick_4">
     <g id="line2d_19">
      <path clip-path="url(#p00b18a7b27)" d="M 117.09 314.711172 
L 843.048 314.711172 
" style="fill:none;stroke:#cccccc;stroke-linecap:round;stroke-opacity:0.5;"/>
     </g>
     <g id="line2d_20">
      <g>
       <use style="fill:#262626;stroke:#262626;stroke-width:1.25;" x="117.09" xlink:href="#m974a6da0b3" y="314.711172"/>
      </g>
     </g>
     <g id="text_11">
      <!-- 0.15 -->
      <g style="fill:#262626;" transform="translate(76.974766 319.935098)scale(0.1375 -0.1375)">
       <use xlink:href="#DejaVuSans-30"/>
       <use x="63.623047" xlink:href="#DejaVuSans-2e"/>
       <use x="95.410156" xlink:href="#DejaVuSans-31"/>
       <use x="159.033203" xlink:href="#DejaVuSans-35"/>
      </g>
     </g>
    </g>
    <g id="ytick_5">
     <g id="line2d_21">
      <path clip-path="url(#p00b18a7b27)" d="M 117.09 269.467034 
L 843.048 269.467034 
" style="fill:none;stroke:#cccccc;stroke-linecap:round;stroke-opacity:0.5;"/>
     </g>
     <g id="line2d_22">
      <g>
       <use style="fill:#262626;stroke:#262626;stroke-width:1.25;" x="117.09" xlink:href="#m974a6da0b3" y="269.467034"/>
      </g>
     </g>
     <g id="text_12">
      <!-- 0.20 -->
      <g style="fill:#262626;" transform="translate(76.974766 274.69096)scale(0.1375 -0.1375)">
       <use xlink:href="#DejaVuSans-30"/>
       <use x="63.623047" xlink:href="#DejaVuSans-2e"/>
       <use x="95.410156" xlink:href="#DejaVuSans-32"/>
       <use x="159.033203" xlink:href="#DejaVuSans-30"/>
      </g>
     </g>
    </g>
    <g id="ytick_6">
     <g id="line2d_23">
      <path clip-path="url(#p00b18a7b27)" d="M 117.09 224.222897 
L 843.048 224.222897 
" style="fill:none;stroke:#cccccc;stroke-linecap:round;stroke-opacity:0.5;"/>
     </g>
     <g id="line2d_24">
      <g>
       <use style="fill:#262626;stroke:#262626;stroke-width:1.25;" x="117.09" xlink:href="#m974a6da0b3" y="224.222897"/>
      </g>
     </g>
     <g id="text_13">
      <!-- 0.25 -->
      <g style="fill:#262626;" transform="translate(76.974766 229.446822)scale(0.1375 -0.1375)">
       <use xlink:href="#DejaVuSans-30"/>
       <use x="63.623047" xlink:href="#DejaVuSans-2e"/>
       <use x="95.410156" xlink:href="#DejaVuSans-32"/>
       <use x="159.033203" xlink:href="#DejaVuSans-35"/>
      </g>
     </g>
    </g>
    <g id="ytick_7">
     <g id="line2d_25">
      <path clip-path="url(#p00b18a7b27)" d="M 117.09 178.978759 
L 843.048 178.978759 
" style="fill:none;stroke:#cccccc;stroke-linecap:round;stroke-opacity:0.5;"/>
     </g>
     <g id="line2d_26">
      <g>
       <use style="fill:#262626;stroke:#262626;stroke-width:1.25;" x="117.09" xlink:href="#m974a6da0b3" y="178.978759"/>
      </g>
     </g>
     <g id="text_14">
      <!-- 0.30 -->
      <defs>
       <path d="M 40.578125 39.3125 
Q 47.65625 37.796875 51.625 33 
Q 55.609375 28.21875 55.609375 21.1875 
Q 55.609375 10.40625 48.1875 4.484375 
Q 40.765625 -1.421875 27.09375 -1.421875 
Q 22.515625 -1.421875 17.65625 -0.515625 
Q 12.796875 0.390625 7.625 2.203125 
L 7.625 11.71875 
Q 11.71875 9.328125 16.59375 8.109375 
Q 21.484375 6.890625 26.8125 6.890625 
Q 36.078125 6.890625 40.9375 10.546875 
Q 45.796875 14.203125 45.796875 21.1875 
Q 45.796875 27.640625 41.28125 31.265625 
Q 36.765625 34.90625 28.71875 34.90625 
L 20.21875 34.90625 
L 20.21875 43.015625 
L 29.109375 43.015625 
Q 36.375 43.015625 40.234375 45.921875 
Q 44.09375 48.828125 44.09375 54.296875 
Q 44.09375 59.90625 40.109375 62.90625 
Q 36.140625 65.921875 28.71875 65.921875 
Q 24.65625 65.921875 20.015625 65.03125 
Q 15.375 64.15625 9.8125 62.3125 
L 9.8125 71.09375 
Q 15.4375 72.65625 20.34375 73.4375 
Q 25.25 74.21875 29.59375 74.21875 
Q 40.828125 74.21875 47.359375 69.109375 
Q 53.90625 64.015625 53.90625 55.328125 
Q 53.90625 49.265625 50.4375 45.09375 
Q 46.96875 40.921875 40.578125 39.3125 
z
" id="DejaVuSans-33"/>
      </defs>
      <g style="fill:#262626;" transform="translate(76.974766 184.202684)scale(0.1375 -0.1375)">
       <use xlink:href="#DejaVuSans-30"/>
       <use x="63.623047" xlink:href="#DejaVuSans-2e"/>
       <use x="95.410156" xlink:href="#DejaVuSans-33"/>
       <use x="159.033203" xlink:href="#DejaVuSans-30"/>
      </g>
     </g>
    </g>
    <g id="ytick_8">
     <g id="line2d_27">
      <path clip-path="url(#p00b18a7b27)" d="M 117.09 133.734621 
L 843.048 133.734621 
" style="fill:none;stroke:#cccccc;stroke-linecap:round;stroke-opacity:0.5;"/>
     </g>
     <g id="line2d_28">
      <g>
       <use style="fill:#262626;stroke:#262626;stroke-width:1.25;" x="117.09" xlink:href="#m974a6da0b3" y="133.734621"/>
      </g>
     </g>
     <g id="text_15">
      <!-- 0.35 -->
      <g style="fill:#262626;" transform="translate(76.974766 138.958546)scale(0.1375 -0.1375)">
       <use xlink:href="#DejaVuSans-30"/>
       <use x="63.623047" xlink:href="#DejaVuSans-2e"/>
       <use x="95.410156" xlink:href="#DejaVuSans-33"/>
       <use x="159.033203" xlink:href="#DejaVuSans-35"/>
      </g>
     </g>
    </g>
    <g id="ytick_9">
     <g id="line2d_29">
      <path clip-path="url(#p00b18a7b27)" d="M 117.09 88.490483 
L 843.048 88.490483 
" style="fill:none;stroke:#cccccc;stroke-linecap:round;stroke-opacity:0.5;"/>
     </g>
     <g id="line2d_30">
      <g>
       <use style="fill:#262626;stroke:#262626;stroke-width:1.25;" x="117.09" xlink:href="#m974a6da0b3" y="88.490483"/>
      </g>
     </g>
     <g id="text_16">
      <!-- 0.40 -->
      <g style="fill:#262626;" transform="translate(76.974766 93.714409)scale(0.1375 -0.1375)">
       <use xlink:href="#DejaVuSans-30"/>
       <use x="63.623047" xlink:href="#DejaVuSans-2e"/>
       <use x="95.410156" xlink:href="#DejaVuSans-34"/>
       <use x="159.033203" xlink:href="#DejaVuSans-30"/>
      </g>
     </g>
    </g>
    <g id="ytick_10">
     <g id="line2d_31">
      <path clip-path="url(#p00b18a7b27)" d="M 117.09 450.443586 
L 843.048 450.443586 
" style="fill:none;stroke:#cccccc;stroke-linecap:round;stroke-opacity:0.2;"/>
     </g>
     <g id="line2d_32">
      <defs>
       <path d="M 0 0 
L -4 0 
" id="m92c7402b6b" style="stroke:#262626;"/>
      </defs>
      <g>
       <use style="fill:#262626;stroke:#262626;" x="117.09" xlink:href="#m92c7402b6b" y="450.443586"/>
      </g>
     </g>
    </g>
    <g id="ytick_11">
     <g id="line2d_33">
      <path clip-path="url(#p00b18a7b27)" d="M 117.09 441.394759 
L 843.048 441.394759 
" style="fill:none;stroke:#cccccc;stroke-linecap:round;stroke-opacity:0.2;"/>
     </g>
     <g id="line2d_34">
      <g>
       <use style="fill:#262626;stroke:#262626;" x="117.09" xlink:href="#m92c7402b6b" y="441.394759"/>
      </g>
     </g>
    </g>
    <g id="ytick_12">
     <g id="line2d_35">
      <path clip-path="url(#p00b18a7b27)" d="M 117.09 432.345931 
L 843.048 432.345931 
" style="fill:none;stroke:#cccccc;stroke-linecap:round;stroke-opacity:0.2;"/>
     </g>
     <g id="line2d_36">
      <g>
       <use style="fill:#262626;stroke:#262626;" x="117.09" xlink:href="#m92c7402b6b" y="432.345931"/>
      </g>
     </g>
    </g>
    <g id="ytick_13">
     <g id="line2d_37">
      <path clip-path="url(#p00b18a7b27)" d="M 117.09 423.297103 
L 843.048 423.297103 
" style="fill:none;stroke:#cccccc;stroke-linecap:round;stroke-opacity:0.2;"/>
     </g>
     <g id="line2d_38">
      <g>
       <use style="fill:#262626;stroke:#262626;" x="117.09" xlink:href="#m92c7402b6b" y="423.297103"/>
      </g>
     </g>
    </g>
    <g id="ytick_14">
     <g id="line2d_39">
      <path clip-path="url(#p00b18a7b27)" d="M 117.09 414.248276 
L 843.048 414.248276 
" style="fill:none;stroke:#cccccc;stroke-linecap:round;stroke-opacity:0.2;"/>
     </g>
     <g id="line2d_40">
      <g>
       <use style="fill:#262626;stroke:#262626;" x="117.09" xlink:href="#m92c7402b6b" y="414.248276"/>
      </g>
     </g>
    </g>
    <g id="ytick_15">
     <g id="line2d_41">
      <path clip-path="url(#p00b18a7b27)" d="M 117.09 405.199448 
L 843.048 405.199448 
" style="fill:none;stroke:#cccccc;stroke-linecap:round;stroke-opacity:0.2;"/>
     </g>
     <g id="line2d_42">
      <g>
       <use style="fill:#262626;stroke:#262626;" x="117.09" xlink:href="#m92c7402b6b" y="405.199448"/>
      </g>
     </g>
    </g>
    <g id="ytick_16">
     <g id="line2d_43">
      <path clip-path="url(#p00b18a7b27)" d="M 117.09 396.150621 
L 843.048 396.150621 
" style="fill:none;stroke:#cccccc;stroke-linecap:round;stroke-opacity:0.2;"/>
     </g>
     <g id="line2d_44">
      <g>
       <use style="fill:#262626;stroke:#262626;" x="117.09" xlink:href="#m92c7402b6b" y="396.150621"/>
      </g>
     </g>
    </g>
    <g id="ytick_17">
     <g id="line2d_45">
      <path clip-path="url(#p00b18a7b27)" d="M 117.09 387.101793 
L 843.048 387.101793 
" style="fill:none;stroke:#cccccc;stroke-linecap:round;stroke-opacity:0.2;"/>
     </g>
     <g id="line2d_46">
      <g>
       <use style="fill:#262626;stroke:#262626;" x="117.09" xlink:href="#m92c7402b6b" y="387.101793"/>
      </g>
     </g>
    </g>
    <g id="ytick_18">
     <g id="line2d_47">
      <path clip-path="url(#p00b18a7b27)" d="M 117.09 378.052966 
L 843.048 378.052966 
" style="fill:none;stroke:#cccccc;stroke-linecap:round;stroke-opacity:0.2;"/>
     </g>
     <g id="line2d_48">
      <g>
       <use style="fill:#262626;stroke:#262626;" x="117.09" xlink:href="#m92c7402b6b" y="378.052966"/>
      </g>
     </g>
    </g>
    <g id="ytick_19">
     <g id="line2d_49">
      <path clip-path="url(#p00b18a7b27)" d="M 117.09 369.004138 
L 843.048 369.004138 
" style="fill:none;stroke:#cccccc;stroke-linecap:round;stroke-opacity:0.2;"/>
     </g>
     <g id="line2d_50">
      <g>
       <use style="fill:#262626;stroke:#262626;" x="117.09" xlink:href="#m92c7402b6b" y="369.004138"/>
      </g>
     </g>
    </g>
    <g id="ytick_20">
     <g id="line2d_51">
      <path clip-path="url(#p00b18a7b27)" d="M 117.09 359.95531 
L 843.048 359.95531 
" style="fill:none;stroke:#cccccc;stroke-linecap:round;stroke-opacity:0.2;"/>
     </g>
     <g id="line2d_52">
      <g>
       <use style="fill:#262626;stroke:#262626;" x="117.09" xlink:href="#m92c7402b6b" y="359.95531"/>
      </g>
     </g>
    </g>
    <g id="ytick_21">
     <g id="line2d_53">
      <path clip-path="url(#p00b18a7b27)" d="M 117.09 350.906483 
L 843.048 350.906483 
" style="fill:none;stroke:#cccccc;stroke-linecap:round;stroke-opacity:0.2;"/>
     </g>
     <g id="line2d_54">
      <g>
       <use style="fill:#262626;stroke:#262626;" x="117.09" xlink:href="#m92c7402b6b" y="350.906483"/>
      </g>
     </g>
    </g>
    <g id="ytick_22">
     <g id="line2d_55">
      <path clip-path="url(#p00b18a7b27)" d="M 117.09 341.857655 
L 843.048 341.857655 
" style="fill:none;stroke:#cccccc;stroke-linecap:round;stroke-opacity:0.2;"/>
     </g>
     <g id="line2d_56">
      <g>
       <use style="fill:#262626;stroke:#262626;" x="117.09" xlink:href="#m92c7402b6b" y="341.857655"/>
      </g>
     </g>
    </g>
    <g id="ytick_23">
     <g id="line2d_57">
      <path clip-path="url(#p00b18a7b27)" d="M 117.09 332.808828 
L 843.048 332.808828 
" style="fill:none;stroke:#cccccc;stroke-linecap:round;stroke-opacity:0.2;"/>
     </g>
     <g id="line2d_58">
      <g>
       <use style="fill:#262626;stroke:#262626;" x="117.09" xlink:href="#m92c7402b6b" y="332.808828"/>
      </g>
     </g>
    </g>
    <g id="ytick_24">
     <g id="line2d_59">
      <path clip-path="url(#p00b18a7b27)" d="M 117.09 323.76 
L 843.048 323.76 
" style="fill:none;stroke:#cccccc;stroke-linecap:round;stroke-opacity:0.2;"/>
     </g>
     <g id="line2d_60">
      <g>
       <use style="fill:#262626;stroke:#262626;" x="117.09" xlink:href="#m92c7402b6b" y="323.76"/>
      </g>
     </g>
    </g>
    <g id="ytick_25">
     <g id="line2d_61">
      <path clip-path="url(#p00b18a7b27)" d="M 117.09 314.711172 
L 843.048 314.711172 
" style="fill:none;stroke:#cccccc;stroke-linecap:round;stroke-opacity:0.2;"/>
     </g>
     <g id="line2d_62">
      <g>
       <use style="fill:#262626;stroke:#262626;" x="117.09" xlink:href="#m92c7402b6b" y="314.711172"/>
      </g>
     </g>
    </g>
    <g id="ytick_26">
     <g id="line2d_63">
      <path clip-path="url(#p00b18a7b27)" d="M 117.09 305.662345 
L 843.048 305.662345 
" style="fill:none;stroke:#cccccc;stroke-linecap:round;stroke-opacity:0.2;"/>
     </g>
     <g id="line2d_64">
      <g>
       <use style="fill:#262626;stroke:#262626;" x="117.09" xlink:href="#m92c7402b6b" y="305.662345"/>
      </g>
     </g>
    </g>
    <g id="ytick_27">
     <g id="line2d_65">
      <path clip-path="url(#p00b18a7b27)" d="M 117.09 296.613517 
L 843.048 296.613517 
" style="fill:none;stroke:#cccccc;stroke-linecap:round;stroke-opacity:0.2;"/>
     </g>
     <g id="line2d_66">
      <g>
       <use style="fill:#262626;stroke:#262626;" x="117.09" xlink:href="#m92c7402b6b" y="296.613517"/>
      </g>
     </g>
    </g>
    <g id="ytick_28">
     <g id="line2d_67">
      <path clip-path="url(#p00b18a7b27)" d="M 117.09 287.56469 
L 843.048 287.56469 
" style="fill:none;stroke:#cccccc;stroke-linecap:round;stroke-opacity:0.2;"/>
     </g>
     <g id="line2d_68">
      <g>
       <use style="fill:#262626;stroke:#262626;" x="117.09" xlink:href="#m92c7402b6b" y="287.56469"/>
      </g>
     </g>
    </g>
    <g id="ytick_29">
     <g id="line2d_69">
      <path clip-path="url(#p00b18a7b27)" d="M 117.09 278.515862 
L 843.048 278.515862 
" style="fill:none;stroke:#cccccc;stroke-linecap:round;stroke-opacity:0.2;"/>
     </g>
     <g id="line2d_70">
      <g>
       <use style="fill:#262626;stroke:#262626;" x="117.09" xlink:href="#m92c7402b6b" y="278.515862"/>
      </g>
     </g>
    </g>
    <g id="ytick_30">
     <g id="line2d_71">
      <path clip-path="url(#p00b18a7b27)" d="M 117.09 269.467034 
L 843.048 269.467034 
" style="fill:none;stroke:#cccccc;stroke-linecap:round;stroke-opacity:0.2;"/>
     </g>
     <g id="line2d_72">
      <g>
       <use style="fill:#262626;stroke:#262626;" x="117.09" xlink:href="#m92c7402b6b" y="269.467034"/>
      </g>
     </g>
    </g>
    <g id="ytick_31">
     <g id="line2d_73">
      <path clip-path="url(#p00b18a7b27)" d="M 117.09 260.418207 
L 843.048 260.418207 
" style="fill:none;stroke:#cccccc;stroke-linecap:round;stroke-opacity:0.2;"/>
     </g>
     <g id="line2d_74">
      <g>
       <use style="fill:#262626;stroke:#262626;" x="117.09" xlink:href="#m92c7402b6b" y="260.418207"/>
      </g>
     </g>
    </g>
    <g id="ytick_32">
     <g id="line2d_75">
      <path clip-path="url(#p00b18a7b27)" d="M 117.09 251.369379 
L 843.048 251.369379 
" style="fill:none;stroke:#cccccc;stroke-linecap:round;stroke-opacity:0.2;"/>
     </g>
     <g id="line2d_76">
      <g>
       <use style="fill:#262626;stroke:#262626;" x="117.09" xlink:href="#m92c7402b6b" y="251.369379"/>
      </g>
     </g>
    </g>
    <g id="ytick_33">
     <g id="line2d_77">
      <path clip-path="url(#p00b18a7b27)" d="M 117.09 242.320552 
L 843.048 242.320552 
" style="fill:none;stroke:#cccccc;stroke-linecap:round;stroke-opacity:0.2;"/>
     </g>
     <g id="line2d_78">
      <g>
       <use style="fill:#262626;stroke:#262626;" x="117.09" xlink:href="#m92c7402b6b" y="242.320552"/>
      </g>
     </g>
    </g>
    <g id="ytick_34">
     <g id="line2d_79">
      <path clip-path="url(#p00b18a7b27)" d="M 117.09 233.271724 
L 843.048 233.271724 
" style="fill:none;stroke:#cccccc;stroke-linecap:round;stroke-opacity:0.2;"/>
     </g>
     <g id="line2d_80">
      <g>
       <use style="fill:#262626;stroke:#262626;" x="117.09" xlink:href="#m92c7402b6b" y="233.271724"/>
      </g>
     </g>
    </g>
    <g id="ytick_35">
     <g id="line2d_81">
      <path clip-path="url(#p00b18a7b27)" d="M 117.09 224.222897 
L 843.048 224.222897 
" style="fill:none;stroke:#cccccc;stroke-linecap:round;stroke-opacity:0.2;"/>
     </g>
     <g id="line2d_82">
      <g>
       <use style="fill:#262626;stroke:#262626;" x="117.09" xlink:href="#m92c7402b6b" y="224.222897"/>
      </g>
     </g>
    </g>
    <g id="ytick_36">
     <g id="line2d_83">
      <path clip-path="url(#p00b18a7b27)" d="M 117.09 215.174069 
L 843.048 215.174069 
" style="fill:none;stroke:#cccccc;stroke-linecap:round;stroke-opacity:0.2;"/>
     </g>
     <g id="line2d_84">
      <g>
       <use style="fill:#262626;stroke:#262626;" x="117.09" xlink:href="#m92c7402b6b" y="215.174069"/>
      </g>
     </g>
    </g>
    <g id="ytick_37">
     <g id="line2d_85">
      <path clip-path="url(#p00b18a7b27)" d="M 117.09 206.125241 
L 843.048 206.125241 
" style="fill:none;stroke:#cccccc;stroke-linecap:round;stroke-opacity:0.2;"/>
     </g>
     <g id="line2d_86">
      <g>
       <use style="fill:#262626;stroke:#262626;" x="117.09" xlink:href="#m92c7402b6b" y="206.125241"/>
      </g>
     </g>
    </g>
    <g id="ytick_38">
     <g id="line2d_87">
      <path clip-path="url(#p00b18a7b27)" d="M 117.09 197.076414 
L 843.048 197.076414 
" style="fill:none;stroke:#cccccc;stroke-linecap:round;stroke-opacity:0.2;"/>
     </g>
     <g id="line2d_88">
      <g>
       <use style="fill:#262626;stroke:#262626;" x="117.09" xlink:href="#m92c7402b6b" y="197.076414"/>
      </g>
     </g>
    </g>
    <g id="ytick_39">
     <g id="line2d_89">
      <path clip-path="url(#p00b18a7b27)" d="M 117.09 188.027586 
L 843.048 188.027586 
" style="fill:none;stroke:#cccccc;stroke-linecap:round;stroke-opacity:0.2;"/>
     </g>
     <g id="line2d_90">
      <g>
       <use style="fill:#262626;stroke:#262626;" x="117.09" xlink:href="#m92c7402b6b" y="188.027586"/>
      </g>
     </g>
    </g>
    <g id="ytick_40">
     <g id="line2d_91">
      <path clip-path="url(#p00b18a7b27)" d="M 117.09 178.978759 
L 843.048 178.978759 
" style="fill:none;stroke:#cccccc;stroke-linecap:round;stroke-opacity:0.2;"/>
     </g>
     <g id="line2d_92">
      <g>
       <use style="fill:#262626;stroke:#262626;" x="117.09" xlink:href="#m92c7402b6b" y="178.978759"/>
      </g>
     </g>
    </g>
    <g id="ytick_41">
     <g id="line2d_93">
      <path clip-path="url(#p00b18a7b27)" d="M 117.09 169.929931 
L 843.048 169.929931 
" style="fill:none;stroke:#cccccc;stroke-linecap:round;stroke-opacity:0.2;"/>
     </g>
     <g id="line2d_94">
      <g>
       <use style="fill:#262626;stroke:#262626;" x="117.09" xlink:href="#m92c7402b6b" y="169.929931"/>
      </g>
     </g>
    </g>
    <g id="ytick_42">
     <g id="line2d_95">
      <path clip-path="url(#p00b18a7b27)" d="M 117.09 160.881103 
L 843.048 160.881103 
" style="fill:none;stroke:#cccccc;stroke-linecap:round;stroke-opacity:0.2;"/>
     </g>
     <g id="line2d_96">
      <g>
       <use style="fill:#262626;stroke:#262626;" x="117.09" xlink:href="#m92c7402b6b" y="160.881103"/>
      </g>
     </g>
    </g>
    <g id="ytick_43">
     <g id="line2d_97">
      <path clip-path="url(#p00b18a7b27)" d="M 117.09 151.832276 
L 843.048 151.832276 
" style="fill:none;stroke:#cccccc;stroke-linecap:round;stroke-opacity:0.2;"/>
     </g>
     <g id="line2d_98">
      <g>
       <use style="fill:#262626;stroke:#262626;" x="117.09" xlink:href="#m92c7402b6b" y="151.832276"/>
      </g>
     </g>
    </g>
    <g id="ytick_44">
     <g id="line2d_99">
      <path clip-path="url(#p00b18a7b27)" d="M 117.09 142.783448 
L 843.048 142.783448 
" style="fill:none;stroke:#cccccc;stroke-linecap:round;stroke-opacity:0.2;"/>
     </g>
     <g id="line2d_100">
      <g>
       <use style="fill:#262626;stroke:#262626;" x="117.09" xlink:href="#m92c7402b6b" y="142.783448"/>
      </g>
     </g>
    </g>
    <g id="ytick_45">
     <g id="line2d_101">
      <path clip-path="url(#p00b18a7b27)" d="M 117.09 133.734621 
L 843.048 133.734621 
" style="fill:none;stroke:#cccccc;stroke-linecap:round;stroke-opacity:0.2;"/>
     </g>
     <g id="line2d_102">
      <g>
       <use style="fill:#262626;stroke:#262626;" x="117.09" xlink:href="#m92c7402b6b" y="133.734621"/>
      </g>
     </g>
    </g>
    <g id="ytick_46">
     <g id="line2d_103">
      <path clip-path="url(#p00b18a7b27)" d="M 117.09 124.685793 
L 843.048 124.685793 
" style="fill:none;stroke:#cccccc;stroke-linecap:round;stroke-opacity:0.2;"/>
     </g>
     <g id="line2d_104">
      <g>
       <use style="fill:#262626;stroke:#262626;" x="117.09" xlink:href="#m92c7402b6b" y="124.685793"/>
      </g>
     </g>
    </g>
    <g id="ytick_47">
     <g id="line2d_105">
      <path clip-path="url(#p00b18a7b27)" d="M 117.09 115.636966 
L 843.048 115.636966 
" style="fill:none;stroke:#cccccc;stroke-linecap:round;stroke-opacity:0.2;"/>
     </g>
     <g id="line2d_106">
      <g>
       <use style="fill:#262626;stroke:#262626;" x="117.09" xlink:href="#m92c7402b6b" y="115.636966"/>
      </g>
     </g>
    </g>
    <g id="ytick_48">
     <g id="line2d_107">
      <path clip-path="url(#p00b18a7b27)" d="M 117.09 106.588138 
L 843.048 106.588138 
" style="fill:none;stroke:#cccccc;stroke-linecap:round;stroke-opacity:0.2;"/>
     </g>
     <g id="line2d_108">
      <g>
       <use style="fill:#262626;stroke:#262626;" x="117.09" xlink:href="#m92c7402b6b" y="106.588138"/>
      </g>
     </g>
    </g>
    <g id="ytick_49">
     <g id="line2d_109">
      <path clip-path="url(#p00b18a7b27)" d="M 117.09 97.53931 
L 843.048 97.53931 
" style="fill:none;stroke:#cccccc;stroke-linecap:round;stroke-opacity:0.2;"/>
     </g>
     <g id="line2d_110">
      <g>
       <use style="fill:#262626;stroke:#262626;" x="117.09" xlink:href="#m92c7402b6b" y="97.53931"/>
      </g>
     </g>
    </g>
    <g id="ytick_50">
     <g id="line2d_111">
      <path clip-path="url(#p00b18a7b27)" d="M 117.09 88.490483 
L 843.048 88.490483 
" style="fill:none;stroke:#cccccc;stroke-linecap:round;stroke-opacity:0.2;"/>
     </g>
     <g id="line2d_112">
      <g>
       <use style="fill:#262626;stroke:#262626;" x="117.09" xlink:href="#m92c7402b6b" y="88.490483"/>
      </g>
     </g>
    </g>
    <g id="ytick_51">
     <g id="line2d_113">
      <path clip-path="url(#p00b18a7b27)" d="M 117.09 79.441655 
L 843.048 79.441655 
" style="fill:none;stroke:#cccccc;stroke-linecap:round;stroke-opacity:0.2;"/>
     </g>
     <g id="line2d_114">
      <g>
       <use style="fill:#262626;stroke:#262626;" x="117.09" xlink:href="#m92c7402b6b" y="79.441655"/>
      </g>
     </g>
    </g>
    <g id="ytick_52">
     <g id="line2d_115">
      <path clip-path="url(#p00b18a7b27)" d="M 117.09 70.392828 
L 843.048 70.392828 
" style="fill:none;stroke:#cccccc;stroke-linecap:round;stroke-opacity:0.2;"/>
     </g>
     <g id="line2d_116">
      <g>
       <use style="fill:#262626;stroke:#262626;" x="117.09" xlink:href="#m92c7402b6b" y="70.392828"/>
      </g>
     </g>
    </g>
    <g id="text_17">
     <!-- Computationl Time (s) -->
     <defs>
      <path d="M 64.40625 67.28125 
L 64.40625 56.890625 
Q 59.421875 61.53125 53.78125 63.8125 
Q 48.140625 66.109375 41.796875 66.109375 
Q 29.296875 66.109375 22.65625 58.46875 
Q 16.015625 50.828125 16.015625 36.375 
Q 16.015625 21.96875 22.65625 14.328125 
Q 29.296875 6.6875 41.796875 6.6875 
Q 48.140625 6.6875 53.78125 8.984375 
Q 59.421875 11.28125 64.40625 15.921875 
L 64.40625 5.609375 
Q 59.234375 2.09375 53.4375 0.328125 
Q 47.65625 -1.421875 41.21875 -1.421875 
Q 24.65625 -1.421875 15.125 8.703125 
Q 5.609375 18.84375 5.609375 36.375 
Q 5.609375 53.953125 15.125 64.078125 
Q 24.65625 74.21875 41.21875 74.21875 
Q 47.75 74.21875 53.53125 72.484375 
Q 59.328125 70.75 64.40625 67.28125 
z
" id="DejaVuSans-43"/>
      <path d="M 30.609375 48.390625 
Q 23.390625 48.390625 19.1875 42.75 
Q 14.984375 37.109375 14.984375 27.296875 
Q 14.984375 17.484375 19.15625 11.84375 
Q 23.34375 6.203125 30.609375 6.203125 
Q 37.796875 6.203125 41.984375 11.859375 
Q 46.1875 17.53125 46.1875 27.296875 
Q 46.1875 37.015625 41.984375 42.703125 
Q 37.796875 48.390625 30.609375 48.390625 
z
M 30.609375 56 
Q 42.328125 56 49.015625 48.375 
Q 55.71875 40.765625 55.71875 27.296875 
Q 55.71875 13.875 49.015625 6.21875 
Q 42.328125 -1.421875 30.609375 -1.421875 
Q 18.84375 -1.421875 12.171875 6.21875 
Q 5.515625 13.875 5.515625 27.296875 
Q 5.515625 40.765625 12.171875 48.375 
Q 18.84375 56 30.609375 56 
z
" id="DejaVuSans-6f"/>
      <path d="M 18.109375 8.203125 
L 18.109375 -20.796875 
L 9.078125 -20.796875 
L 9.078125 54.6875 
L 18.109375 54.6875 
L 18.109375 46.390625 
Q 20.953125 51.265625 25.265625 53.625 
Q 29.59375 56 35.59375 56 
Q 45.5625 56 51.78125 48.09375 
Q 58.015625 40.1875 58.015625 27.296875 
Q 58.015625 14.40625 51.78125 6.484375 
Q 45.5625 -1.421875 35.59375 -1.421875 
Q 29.59375 -1.421875 25.265625 0.953125 
Q 20.953125 3.328125 18.109375 8.203125 
z
M 48.6875 27.296875 
Q 48.6875 37.203125 44.609375 42.84375 
Q 40.53125 48.484375 33.40625 48.484375 
Q 26.265625 48.484375 22.1875 42.84375 
Q 18.109375 37.203125 18.109375 27.296875 
Q 18.109375 17.390625 22.1875 11.75 
Q 26.265625 6.109375 33.40625 6.109375 
Q 40.53125 6.109375 44.609375 11.75 
Q 48.6875 17.390625 48.6875 27.296875 
z
" id="DejaVuSans-70"/>
      <path d="M 34.28125 27.484375 
Q 23.390625 27.484375 19.1875 25 
Q 14.984375 22.515625 14.984375 16.5 
Q 14.984375 11.71875 18.140625 8.90625 
Q 21.296875 6.109375 26.703125 6.109375 
Q 34.1875 6.109375 38.703125 11.40625 
Q 43.21875 16.703125 43.21875 25.484375 
L 43.21875 27.484375 
z
M 52.203125 31.203125 
L 52.203125 0 
L 43.21875 0 
L 43.21875 8.296875 
Q 40.140625 3.328125 35.546875 0.953125 
Q 30.953125 -1.421875 24.3125 -1.421875 
Q 15.921875 -1.421875 10.953125 3.296875 
Q 6 8.015625 6 15.921875 
Q 6 25.140625 12.171875 29.828125 
Q 18.359375 34.515625 30.609375 34.515625 
L 43.21875 34.515625 
L 43.21875 35.40625 
Q 43.21875 41.609375 39.140625 45 
Q 35.0625 48.390625 27.6875 48.390625 
Q 23 48.390625 18.546875 47.265625 
Q 14.109375 46.140625 10.015625 43.890625 
L 10.015625 52.203125 
Q 14.9375 54.109375 19.578125 55.046875 
Q 24.21875 56 28.609375 56 
Q 40.484375 56 46.34375 49.84375 
Q 52.203125 43.703125 52.203125 31.203125 
z
" id="DejaVuSans-61"/>
      <path d="M 9.421875 75.984375 
L 18.40625 75.984375 
L 18.40625 0 
L 9.421875 0 
z
" id="DejaVuSans-6c"/>
      <path d="M -0.296875 72.90625 
L 61.375 72.90625 
L 61.375 64.59375 
L 35.5 64.59375 
L 35.5 0 
L 25.59375 0 
L 25.59375 64.59375 
L -0.296875 64.59375 
z
" id="DejaVuSans-54"/>
      <path d="M 44.28125 53.078125 
L 44.28125 44.578125 
Q 40.484375 46.53125 36.375 47.5 
Q 32.28125 48.484375 27.875 48.484375 
Q 21.1875 48.484375 17.84375 46.4375 
Q 14.5 44.390625 14.5 40.28125 
Q 14.5 37.15625 16.890625 35.375 
Q 19.28125 33.59375 26.515625 31.984375 
L 29.59375 31.296875 
Q 39.15625 29.25 43.1875 25.515625 
Q 47.21875 21.78125 47.21875 15.09375 
Q 47.21875 7.46875 41.1875 3.015625 
Q 35.15625 -1.421875 24.609375 -1.421875 
Q 20.21875 -1.421875 15.453125 -0.5625 
Q 10.6875 0.296875 5.421875 2 
L 5.421875 11.28125 
Q 10.40625 8.6875 15.234375 7.390625 
Q 20.0625 6.109375 24.8125 6.109375 
Q 31.15625 6.109375 34.5625 8.28125 
Q 37.984375 10.453125 37.984375 14.40625 
Q 37.984375 18.0625 35.515625 20.015625 
Q 33.0625 21.96875 24.703125 23.78125 
L 21.578125 24.515625 
Q 13.234375 26.265625 9.515625 29.90625 
Q 5.8125 33.546875 5.8125 39.890625 
Q 5.8125 47.609375 11.28125 51.796875 
Q 16.75 56 26.8125 56 
Q 31.78125 56 36.171875 55.265625 
Q 40.578125 54.546875 44.28125 53.078125 
z
" id="DejaVuSans-73"/>
     </defs>
     <g style="fill:#262626;" transform="translate(69.855234 341.895844)rotate(-90)scale(0.15 -0.15)">
      <use xlink:href="#DejaVuSans-43"/>
      <use x="69.824219" xlink:href="#DejaVuSans-6f"/>
      <use x="131.005859" xlink:href="#DejaVuSans-6d"/>
      <use x="228.417969" xlink:href="#DejaVuSans-70"/>
      <use x="291.894531" xlink:href="#DejaVuSans-75"/>
      <use x="355.273438" xlink:href="#DejaVuSans-74"/>
      <use x="394.482422" xlink:href="#DejaVuSans-61"/>
      <use x="455.761719" xlink:href="#DejaVuSans-74"/>
      <use x="494.970703" xlink:href="#DejaVuSans-69"/>
      <use x="522.753906" xlink:href="#DejaVuSans-6f"/>
      <use x="583.935547" xlink:href="#DejaVuSans-6e"/>
      <use x="647.314453" xlink:href="#DejaVuSans-6c"/>
      <use x="675.097656" xlink:href="#DejaVuSans-20"/>
      <use x="706.884766" xlink:href="#DejaVuSans-54"/>
      <use x="767.921875" xlink:href="#DejaVuSans-69"/>
      <use x="795.705078" xlink:href="#DejaVuSans-6d"/>
      <use x="893.117188" xlink:href="#DejaVuSans-65"/>
      <use x="954.640625" xlink:href="#DejaVuSans-20"/>
      <use x="986.427734" xlink:href="#DejaVuSans-28"/>
      <use x="1025.441406" xlink:href="#DejaVuSans-73"/>
      <use x="1077.541016" xlink:href="#DejaVuSans-29"/>
     </g>
    </g>
   </g>
   <g id="patch_3">
    <path clip-path="url(#p00b18a7b27)" d="M 190.774737 102.335189 
C 191.833632 102.335189 192.849299 101.953812 193.598051 101.275053 
C 194.346803 100.596293 194.767506 99.675569 194.767506 98.715658 
C 194.767506 97.755747 194.346803 96.835022 193.598051 96.156263 
C 192.849299 95.477504 191.833632 95.096127 190.774737 95.096127 
C 189.715842 95.096127 188.700175 95.477504 187.951423 96.156263 
C 187.202671 96.835022 186.781968 97.755747 186.781968 98.715658 
C 186.781968 99.675569 187.202671 100.596293 187.951423 101.275053 
C 188.700175 101.953812 189.715842 102.335189 190.774737 102.335189 
z
" style="fill:none;stroke:#000000;stroke-linejoin:miter;"/>
   </g>
   <g id="patch_4">
    <path clip-path="url(#p00b18a7b27)" d="M 169.358976 78.084331 
C 170.417871 78.084331 171.433538 77.702954 172.18229 77.024195 
C 172.931042 76.345435 173.351745 75.424711 173.351745 74.4648 
C 173.351745 73.504889 172.931042 72.584165 172.18229 71.905405 
C 171.433538 71.226646 170.417871 70.845269 169.358976 70.845269 
C 168.300081 70.845269 167.284414 71.226646 166.535662 71.905405 
C 165.78691 72.584165 165.366207 73.504889 165.366207 74.4648 
C 165.366207 75.424711 165.78691 76.345435 166.535662 77.024195 
C 167.284414 77.702954 168.300081 78.084331 169.358976 78.084331 
z
" style="fill:none;stroke:#000000;stroke-linejoin:miter;"/>
   </g>
   <g id="line2d_117">
    <path clip-path="url(#p00b18a7b27)" d="M 183.962831 133.301931 
L 184.555697 162.740634 
L 185.765627 129.738539 
L 186.370592 130.428263 
L 186.987656 125.585959 
L 187.580522 142.921169 
L 188.197586 150.195303 
L 188.790452 138.874302 
L 190.012481 159.504737 
L 191.210312 98.749953 
L 191.815277 107.35262 
L 192.420242 148.98737 
L 193.025207 130.957691 
L 193.642271 146.352311 
L 194.235137 166.591824 
L 194.840102 123.129533 
L 195.445067 143.092898 
L 196.062131 138.102596 
L 196.654997 142.528305 
L 197.864927 155.545892 
L 198.469892 124.729252 
L 199.074857 138.783043 
L 199.679822 148.876048 
L 200.284787 176.69389 
L 200.889752 164.938602 
L 201.494717 165.701246 
L 202.099682 177.723837 
L 202.704647 178.535454 
L 203.358009 161.09561 
L 203.914577 170.371604 
L 204.507443 149.632435 
L 205.124507 154.757791 
L 205.729472 154.445614 
L 206.334437 164.021056 
L 206.951501 167.539358 
L 207.544367 149.315728 
L 208.149332 163.473722 
L 208.754297 152.979655 
L 209.964227 173.810945 
L 210.557093 107.300411 
L 211.174157 143.082974 
L 211.767023 153.086447 
L 212.384087 173.541269 
L 212.989052 187.244913 
L 213.606116 198.333346 
L 214.198982 132.032512 
L 214.803947 181.581068 
L 216.013877 200.303276 
L 216.618842 182.080724 
L 217.211708 152.736299 
L 217.828772 178.74537 
L 218.433737 167.667724 
L 219.050801 179.157867 
L 219.619468 167.5879 
L 220.236532 197.885252 
L 220.853597 156.721464 
L 222.051427 190.95393 
L 222.656393 176.845772 
L 223.261357 186.379792 
L 223.878422 206.196022 
L 224.471288 187.92989 
L 225.088352 200.519664 
L 225.693317 172.961358 
L 226.298282 203.527307 
L 227.508212 199.168479 
L 228.113177 163.582024 
L 228.718142 187.910905 
L 229.335206 182.922976 
L 229.928072 209.067964 
L 230.520938 161.935274 
L 231.138002 180.62663 
L 231.742967 176.04602 
L 232.347932 191.715064 
L 232.940797 191.133858 
L 234.174926 199.686904 
L 234.767792 214.389644 
L 235.372757 217.298694 
L 235.965622 212.751739 
L 236.582687 175.156521 
L 237.187652 203.53529 
L 237.792617 214.648533 
L 238.42178 173.205576 
L 239.002547 172.730515 
L 239.680108 169.767098 
L 240.224576 208.534868 
L 240.817442 203.281147 
L 241.422407 192.028966 
L 242.027372 212.995095 
L 242.632337 190.67433 
L 243.249401 205.560449 
L 243.866465 211.961696 
L 244.447232 215.582906 
L 245.657162 210.836823 
L 246.298425 184.167369 
L 246.867092 183.618093 
L 247.459957 217.305813 
L 248.064923 213.835837 
L 248.681987 220.726384 
L 249.286952 213.318059 
L 249.891917 203.148898 
L 250.508981 215.073542 
L 251.706812 233.969421 
L 252.323876 206.794703 
L 252.916742 193.894693 
L 253.521707 219.315655 
L 254.102473 218.447082 
L 254.719537 219.671412 
L 255.324503 240.054824 
L 255.941567 234.522365 
L 256.57073 232.220195 
L 257.163596 210.829704 
L 258.373526 224.137895 
L 258.978491 215.821084 
L 259.571357 236.941036 
L 260.176322 219.206274 
L 260.769188 217.43008 
L 261.398351 260.186467 
L 262.003316 200.995588 
L 262.584083 191.930373 
L 263.201147 225.240978 
L 264.411077 254.910955 
L 265.016042 259.058142 
L 265.621007 249.240207 
L 266.238071 234.93141 
L 266.843036 193.510459 
L 267.435902 257.517105 
L 268.052966 245.016217 
L 268.645832 239.191429 
L 269.855762 229.057649 
L 270.460727 252.38916 
L 271.065692 194.944488 
L 271.658558 187.588804 
L 272.263523 206.555014 
L 272.880587 245.647906 
L 273.485552 242.754821 
L 274.090517 242.293351 
L 274.695482 253.228824 
L 275.300447 248.852952 
L 276.498277 253.142959 
L 277.115342 256.027846 
L 277.720307 268.875214 
L 278.337371 269.466128 
L 278.930237 253.033578 
L 279.535202 251.51692 
L 280.164365 260.979099 
L 280.745132 242.014614 
L 281.350097 247.143637 
L 282.560027 236.924856 
L 283.152893 239.795935 
L 283.782056 236.927444 
L 284.374922 249.631992 
L 284.979887 273.385277 
L 285.596951 257.74428 
L 286.177718 208.328836 
L 286.806881 259.138829 
L 288.004712 269.168406 
L 288.609677 238.538166 
L 289.214642 252.211821 
L 289.819607 245.507458 
L 290.412472 268.85364 
L 291.017437 241.118858 
L 291.634502 244.111399 
L 292.251566 206.694383 
L 292.844432 260.805643 
L 294.054362 250.629146 
L 294.659327 208.278784 
L 295.264292 213.712649 
L 295.869257 204.772348 
L 296.462122 204.691013 
L 297.079187 260.456143 
L 297.696251 251.907843 
L 298.289117 254.20613 
L 298.894082 236.065128 
L 299.499047 212.145507 
L 300.721076 252.865301 
L 301.313942 252.369312 
L 301.906807 264.64583 
L 302.511773 244.188203 
L 303.116737 233.893481 
L 304.338767 253.99794 
L 304.931632 226.12681 
L 305.548697 205.924404 
L 306.758627 200.057115 
L 307.375691 253.720282 
L 307.980656 260.08248 
L 308.585621 241.489716 
L 309.178487 250.495387 
L 309.783452 247.545347 
L 310.388417 253.810677 
L 310.981282 251.539357 
L 311.610446 230.689082 
L 312.796177 265.228546 
L 313.413242 218.57178 
L 314.030306 250.760317 
L 314.635271 248.194079 
L 315.216038 262.95097 
L 315.821002 229.433254 
L 316.450166 255.186888 
L 317.043032 246.768895 
L 317.635897 250.997632 
L 318.857927 192.428087 
L 319.462892 185.286633 
L 320.067857 219.189015 
L 324.230016 243.219958 
L 327.920303 267.710645 
L 331.441199 258.537991 
L 335.615457 223.935098 
L 339.293644 258.395818 
L 343.225917 257.919893 
L 347.15819 255.132737 
L 350.412901 239.765084 
L 354.260479 210.281506 
L 358.108056 212.308176 
L 361.919335 243.696098 
L 365.81531 268.325075 
L 368.949029 259.822943 
L 372.917599 239.59508 
L 376.765177 239.377829 
L 379.947292 247.094664 
L 384.290941 249.642132 
L 388.090121 235.847877 
L 391.538422 252.619787 
L 395.410198 265.928194 
L 398.507619 263.639615 
L 402.330998 251.854339 
L 405.646206 272.312829 
L 409.638975 255.459369 
L 413.18407 254.854 
L 416.027405 220.570835 
L 418.943336 233.755838 
L 422.016559 250.579526 
L 425.610051 255.721925 
L 428.550181 261.293217 
L 431.284622 228.76532 
L 434.551433 263.008789 
L 438.326415 259.595768 
L 441.387538 249.525201 
L 444.932633 254.068703 
L 448.598721 248.08664 
L 451.938127 231.605765 
L 455.664712 227.836987 
L 458.943622 244.67513 
L 462.60971 248.718977 
L 466.554082 235.306799 
L 470.55895 258.135203 
L 474.406528 245.67401 
L 477.31036 216.845422 
L 480.855454 191.149391 
L 483.5294 242.093359 
L 487.15919 242.192816 
L 490.655887 217.395561 
L 493.354031 239.326267 
L 496.923325 243.95132 
L 500.214335 242.51427 
L 503.832025 242.74576 
L 506.893148 237.401643 
L 510.49874 201.656187 
L 513.584061 251.351231 
L 516.826673 238.661354 
L 520.081385 227.131299 
L 523.578083 234.920407 
L 527.219972 245.054187 
L 529.954414 241.047232 
L 533.330119 246.333746 
L 536.161355 230.210353 
L 539.391868 244.257887 
L 542.513487 238.637622 
L 545.453617 238.510982 
L 548.127562 246.382503 
L 551.878346 232.092692 
L 554.757979 449.584938 
L 564.631008 449.570483 
L 571.15253 449.372217 
L 574.044263 449.753215 
L 577.601457 449.360567 
L 580.384296 449.549556 
L 583.505916 449.233711 
L 589.156289 449.770259 
L 595.339031 449.348701 
L 597.722593 449.396812 
L 601.497575 449.603707 
L 607.958601 449.664546 
L 610.523653 449.724953 
L 613.923556 449.211059 
L 616.79109 449.415797 
L 620.021603 449.338562 
L 625.841366 449.516116 
L 628.382219 449.377611 
L 631.540137 449.676196 
L 634.189883 449.468006 
L 637.589787 449.499936 
L 640.542016 449.364019 
L 643.639437 449.602844 
L 649.168817 449.243636 
L 651.600776 449.718697 
L 654.879686 449.651817 
L 657.553632 449.806503 
L 662.974118 449.33964 
L 668.866477 449.747606 
L 672.121189 449.757746 
L 674.770936 449.030268 
L 677.698966 449.660878 
L 680.082528 449.226592 
L 682.417693 222.87279 
L 685.539313 224.560315 
L 687.886577 267.662535 
L 691.044494 271.342642 
L 693.415957 279.544678 
L 696.501278 265.741578 
L 699.151025 256.964377 
L 701.788673 247.795175 
L 704.450518 261.581879 
L 706.821981 260.243638 
L 709.544324 245.905716 
L 711.734297 219.586194 
L 714.396143 277.966534 
L 716.549819 251.875266 
L 718.679295 251.313261 
L 721.740418 246.175392 
L 723.894094 267.450246 
L 726.761628 270.67514 
L 729.084693 270.942012 
L 731.940128 264.084688 
L 734.093804 263.456019 
L 736.961338 263.408988 
L 740.615326 256.49924 
L 743.301371 263.118385 
L 745.999515 254.75368 
L 748.237885 275.980208 
L 751.105419 241.285194 
L 753.355889 224.2997 
L 756.017735 262.756372 
L 758.159311 237.353533 
L 760.373483 261.860616 
L 762.902237 249.14075 
L 764.765529 249.857226 
L 766.882906 262.488422 
L 769.76254 249.758632 
L 771.698428 262.536532 
L 774.662756 257.505455 
L 776.804332 260.58192 
L 778.982206 268.499825 
L 781.801343 264.350913 
L 784.305898 272.002594 
L 787.076638 276.552353 
L 788.927831 266.029376 
L 790.960514 248.219537 
L 794.408814 258.446517 
L 796.538291 254.039578 
L 799.13964 237.619541 
L 801.535302 258.883392 
L 803.725275 272.52555 
L 806.592809 254.952809 
L 808.601293 258.663768 
L 810.936458 262.154671 
L 810.936458 262.154671 
" style="fill:none;stroke:#ff7f0e;stroke-linecap:round;"/>
   </g>
   <g id="line2d_118">
    <path clip-path="url(#p00b18a7b27)" d="M 166.733428 76.579344 
L 167.229499 126.651072 
L 167.822365 112.494156 
L 168.439429 124.779088 
L 169.032295 87.249887 
L 169.649359 74.314712 
L 170.254324 148.514035 
L 171.452155 120.050048 
L 172.081319 153.177921 
L 172.674184 123.41086 
L 173.279149 101.037669 
L 173.884114 113.890431 
L 174.489079 158.095949 
L 175.094044 114.251581 
L 175.68691 113.149361 
L 176.291875 132.908419 
L 177.513904 117.761685 
L 178.10677 156.225476 
L 178.723834 152.750754 
L 179.328799 141.072269 
L 179.933764 140.672286 
L 180.550829 157.924004 
L 181.143694 159.710985 
L 181.748659 149.093083 
L 182.353624 174.400133 
L 182.94649 137.234671 
L 184.785584 167.90396 
L 185.390548 164.516182 
L 185.983414 159.074766 
L 186.588379 178.326401 
L 187.193344 140.117832 
L 187.798309 155.397463 
L 188.403274 153.759558 
L 189.625304 175.000972 
L 190.218169 140.315882 
L 190.823134 91.219734 
L 191.440199 119.908091 
L 192.033064 157.83706 
L 192.638029 166.261525 
L 193.242994 109.207776 
L 193.83586 172.690603 
L 194.465023 156.39548 
L 195.662854 170.783238 
L 196.267819 140.655027 
L 196.884884 117.133663 
L 197.477749 159.623395 
L 198.082714 167.972782 
L 198.687679 167.811623 
L 199.292644 191.415399 
L 199.897609 160.27299 
L 200.502574 167.747333 
L 201.724603 197.694537 
L 202.317469 177.422231 
L 202.934533 148.036169 
L 203.539498 134.48117 
L 204.132364 160.19705 
L 204.737329 160.965303 
L 205.342294 127.926963 
L 205.959359 165.074519 
L 206.552224 122.511436 
L 207.253984 195.66571 
L 207.750055 130.895126 
L 209.577049 193.284794 
L 210.182014 168.261443 
L 210.77488 154.366006 
L 211.404044 181.470824 
L 211.996909 155.301674 
L 212.613973 173.60556 
L 213.811804 172.519736 
L 214.416769 155.520651 
L 215.021734 204.922719 
L 216.231664 171.290013 
L 216.836629 183.271613 
L 217.441594 179.450196 
L 218.058658 193.284147 
L 218.651524 161.529897 
L 219.861454 162.337846 
L 220.466419 135.100131 
L 221.071384 171.105339 
L 221.66425 199.482597 
L 222.269215 143.165172 
L 222.886279 140.483297 
L 223.491244 137.015694 
L 224.096209 218.795504 
L 224.689075 192.780823 
L 225.923204 214.373248 
L 226.516069 193.968045 
L 227.121034 138.739464 
L 227.725999 205.354201 
L 228.343063 207.18131 
L 228.935929 202.443209 
L 229.540894 179.470044 
L 230.145859 161.260436 
L 230.762923 154.606772 
L 231.960754 160.655715 
L 232.565719 159.209819 
L 233.182784 217.872349 
L 233.775649 186.309245 
L 234.380614 204.213147 
L 234.997679 199.026306 
L 235.578445 174.244369 
L 236.195509 177.090206 
L 236.800474 199.502446 
L 238.022503 211.580914 
L 239.220334 236.287773 
L 240.430264 121.043535 
L 241.035229 187.851145 
L 241.628095 229.354509 
L 242.245159 247.332842 
L 243.455089 217.905141 
L 244.13265 184.717509 
L 244.665019 203.071231 
L 245.282083 211.152884 
L 245.874949 229.048804 
L 246.467815 239.51353 
L 247.084879 234.32863 
L 247.689844 206.349629 
L 248.294809 216.965805 
L 248.887675 229.719974 
L 250.109704 236.070522 
L 250.714669 176.423351 
L 251.331734 187.176092 
L 251.924599 230.29104 
L 252.529564 249.341605 
L 253.158728 212.64128 
L 254.344459 228.691321 
L 254.961524 229.055923 
L 256.195652 234.237156 
L 256.764319 226.737572 
L 257.369284 228.178074 
L 257.974249 230.951423 
L 258.579214 184.494864 
L 259.184179 190.73862 
L 259.789144 181.662618 
L 260.394109 189.603823 
L 260.999074 209.015323 
L 262.209004 203.023121 
L 262.813969 199.293393 
L 263.418934 183.899419 
L 264.023899 213.265634 
L 264.628864 225.33051 
L 265.233829 232.277366 
L 265.838794 232.449959 
L 266.455858 208.457202 
L 267.048724 251.090616 
L 267.702086 225.58379 
L 268.258654 228.030723 
L 268.863619 227.131299 
L 269.468584 237.480388 
L 270.073549 255.628725 
L 270.678514 232.222136 
L 271.283479 256.348221 
L 271.888444 197.884389 
L 272.493409 238.895433 
L 273.086275 241.469005 
L 273.751736 206.806784 
L 274.308304 227.505825 
L 274.925369 232.346834 
L 275.518234 237.902809 
L 276.123199 225.964788 
L 276.728164 259.013915 
L 277.369427 225.984636 
L 277.938094 255.251394 
L 278.543059 195.854699 
L 279.148024 224.467115 
L 280.345855 234.258946 
L 280.962919 246.121888 
L 281.579983 245.397215 
L 282.172849 197.467362 
L 282.777814 225.287146 
L 283.382779 215.886238 
L 283.987744 237.50563 
L 284.58061 208.60822 
L 285.197674 209.756609 
L 286.395505 217.368378 
L 287.617534 261.532905 
L 288.815365 227.616069 
L 289.444529 228.864777 
L 290.037394 240.053745 
L 290.642359 249.31248 
L 291.247324 246.217893 
L 292.469353 232.886187 
L 293.062219 209.842474 
L 293.679283 222.134309 
L 294.308447 210.750096 
L 294.877114 203.046852 
L 295.482079 204.910853 
L 296.074945 221.634006 
L 296.692009 204.22415 
L 297.296974 225.471605 
L 298.531103 231.683647 
L 299.09977 213.802181 
L 299.704735 239.244717 
L 300.321799 233.28617 
L 300.926764 237.275866 
L 301.531729 247.186138 
L 302.136694 243.217369 
L 302.741659 209.001732 
L 303.334525 239.625068 
L 303.93949 232.552435 
L 305.161519 210.053252 
L 305.814881 207.473639 
L 306.371449 248.546169 
L 306.976414 230.736976 
L 307.581379 192.337476 
L 308.186344 201.676682 
L 308.803408 199.648934 
L 309.372076 238.934482 
L 310.606204 219.713913 
L 311.211169 235.485001 
L 311.816134 244.225311 
L 312.421099 226.588279 
L 313.026064 230.93891 
L 313.631029 233.86263 
L 314.235994 235.827166 
L 314.840959 213.388822 
L 315.445924 244.352813 
L 316.667954 220.660368 
L 317.260819 211.949183 
L 317.865784 248.562349 
L 318.45865 224.533348 
L 319.063615 221.555261 
L 319.692778 202.191655 
L 320.273545 214.497299 
L 320.890609 191.179379 
L 325.53674 186.544618 
L 329.456914 197.359492 
L 333.48598 247.314504 
L 336.897983 227.650587 
L 340.951249 220.943635 
L 345.488486 204.569551 
L 348.247127 193.703763 
L 351.828519 191.598132 
L 354.901741 218.367474 
L 358.313744 238.145302 
L 361.725747 255.256788 
L 365.670119 229.01709 
L 369.227313 231.592173 
L 372.663514 247.824084 
L 376.523191 224.497103 
L 379.596413 237.426885 
L 383.056813 208.018385 
L 386.468815 194.105688 
L 389.227456 194.278496 
L 393.026636 204.639451 
L 396.148255 174.818239 
L 399.681251 224.166588 
L 402.63348 234.029829 
L 406.166476 218.946522 
L 408.876719 204.766091 
L 411.949941 171.208463 
L 414.986865 239.582567 
L 417.733406 230.313693 
L 420.419451 190.040914 
L 423.468475 223.775881 
L 426.251314 224.998269 
L 429.25194 232.768608 
L 432.046878 229.036722 
L 435.483079 182.573692 
L 438.07233 184.464229 
L 441.798914 221.34254 
L 445.259314 253.465923 
L 448.804409 221.406831 
L 451.732439 449.672528 
L 454.49108 449.772201 
L 457.709494 449.513527 
L 460.976305 449.467143 
L 463.831739 449.658937 
L 480.347284 449.520431 
L 483.214818 449.753863 
L 491.914215 449.626576 
L 494.527664 232.132388 
L 497.370999 192.842525 
L 500.407923 221.924609 
L 504.09821 223.015826 
L 507.425517 233.08359 
L 510.123661 249.916123 
L 513.753451 231.329832 
L 516.524191 195.566038 
L 520.456463 238.204199 
L 523.021515 250.820077 
L 526.736 265.001371 
L 529.918116 237.769912 
L 533.366417 257.087349 
L 535.919369 211.963422 
L 539.343471 170.6484 
L 542.283601 192.794415 
L 545.623007 211.452332 
L 548.478442 216.59581 
L 551.745253 208.227222 
L 554.407099 196.657471 
L 558.182081 210.873068 
L 561.182707 248.547031 
L 563.614666 248.102821 
L 566.373307 208.841868 
L 569.664317 204.091038 
L 572.410858 449.672528 
L 574.988008 449.344171 
L 577.831344 449.591194 
L 581.35224 449.08636 
L 584.679548 449.754941 
L 588.10365 449.432625 
L 590.632403 449.480735 
L 594.213796 449.22465 
L 601.521773 449.116133 
L 603.711747 449.41105 
L 606.095309 449.422053 
L 608.454672 449.715245 
L 611.757781 449.493463 
L 615.218181 449.720639 
L 618.243006 449.511586 
L 620.445079 449.617299 
L 623.71189 449.507918 
L 626.494729 449.728837 
L 629.519554 449.71805 
L 635.907984 449.376748 
L 638.92071 449.703379 
L 641.776144 449.391202 
L 647.20873 449.689788 
L 649.701186 449.795716 
L 653.161586 449.273624 
L 655.775035 449.314183 
L 658.836158 449.546751 
L 661.062429 449.189269 
L 664.123552 449.781046 
L 666.349823 449.486991 
L 668.98747 449.845337 
L 672.726154 240.805818 
L 675.436397 243.337753 
L 678.267633 257.926365 
L 680.251919 232.529567 
L 682.889566 252.553771 
L 685.261029 244.953652 
L 688.636733 232.43011 
L 691.008196 213.074703 
L 693.428056 260.767457 
L 696.150399 240.860832 
L 698.20728 222.610449 
L 701.038516 245.061522 
L 703.627766 225.089743 
L 706.446903 237.122906 
L 708.721571 249.650114 
L 710.935743 227.566448 
L 714.347746 240.067337 
L 716.997493 449.484402 
L 719.707736 449.605649 
L 721.558929 449.507918 
L 724.378066 449.215589 
L 728.479728 449.620966 
L 730.548709 449.400263 
L 732.399901 449.382141 
L 734.541478 246.481313 
L 737.275919 236.361772 
L 739.574786 256.112848 
L 742.708505 263.493127 
L 745.297755 259.223615 
L 748.116892 234.126697 
L 750.778738 217.306892 
L 753.307492 210.549241 
L 755.775749 214.567846 
L 758.316602 218.991828 
L 761.014746 234.565729 
L 761.014746 234.565729 
" style="fill:none;stroke:#ffdead;stroke-linecap:round;"/>
   </g>
   <g id="patch_5">
    <path d="M 117.09 454.968 
L 117.09 61.344 
" style="fill:none;stroke:#262626;stroke-linecap:square;stroke-linejoin:miter;stroke-width:1.25;"/>
   </g>
   <g id="patch_6">
    <path d="M 843.048 454.968 
L 843.048 61.344 
" style="fill:none;stroke:#262626;stroke-linecap:square;stroke-linejoin:miter;stroke-width:1.25;"/>
   </g>
   <g id="patch_7">
    <path d="M 117.09 454.968 
L 843.048 454.968 
" style="fill:none;stroke:#262626;stroke-linecap:square;stroke-linejoin:miter;stroke-width:1.25;"/>
   </g>
   <g id="patch_8">
    <path d="M 117.09 61.344 
L 843.048 61.344 
" style="fill:none;stroke:#262626;stroke-linecap:square;stroke-linejoin:miter;stroke-width:1.25;"/>
   </g>
   <g id="text_18">
    <!-- 0.388 -->
    <g style="fill:#262626;" transform="translate(204.20496 102.063724)scale(0.12 -0.12)">
     <use xlink:href="#DejaVuSans-30"/>
     <use x="63.623047" xlink:href="#DejaVuSans-2e"/>
     <use x="95.410156" xlink:href="#DejaVuSans-33"/>
     <use x="159.033203" xlink:href="#DejaVuSans-38"/>
     <use x="222.65625" xlink:href="#DejaVuSans-38"/>
    </g>
   </g>
   <g id="text_19">
    <!-- 0.415 -->
    <g style="fill:#262626;" transform="translate(182.42622 78.536772)scale(0.12 -0.12)">
     <use xlink:href="#DejaVuSans-30"/>
     <use x="63.623047" xlink:href="#DejaVuSans-2e"/>
     <use x="95.410156" xlink:href="#DejaVuSans-34"/>
     <use x="159.033203" xlink:href="#DejaVuSans-31"/>
     <use x="222.65625" xlink:href="#DejaVuSans-35"/>
    </g>
   </g>
   <g id="legend_1">
    <g id="patch_9">
     <path d="M 618.544875 112.708844 
L 833.423 112.708844 
Q 836.173 112.708844 836.173 109.958844 
L 836.173 70.969 
Q 836.173 68.219 833.423 68.219 
L 618.544875 68.219 
Q 615.794875 68.219 615.794875 70.969 
L 615.794875 109.958844 
Q 615.794875 112.708844 618.544875 112.708844 
z
" style="fill:#ffffff;opacity:0.8;stroke:#cccccc;stroke-linejoin:miter;"/>
    </g>
    <g id="line2d_119">
     <path d="M 621.294875 79.354352 
L 648.794875 79.354352 
" style="fill:none;stroke:#ff7f0e;stroke-linecap:round;"/>
    </g>
    <g id="line2d_120"/>
    <g id="text_20">
     <!-- Own Vessel ATC Case -->
     <defs>
      <path d="M 39.40625 66.21875 
Q 28.65625 66.21875 22.328125 58.203125 
Q 16.015625 50.203125 16.015625 36.375 
Q 16.015625 22.609375 22.328125 14.59375 
Q 28.65625 6.59375 39.40625 6.59375 
Q 50.140625 6.59375 56.421875 14.59375 
Q 62.703125 22.609375 62.703125 36.375 
Q 62.703125 50.203125 56.421875 58.203125 
Q 50.140625 66.21875 39.40625 66.21875 
z
M 39.40625 74.21875 
Q 54.734375 74.21875 63.90625 63.9375 
Q 73.09375 53.65625 73.09375 36.375 
Q 73.09375 19.140625 63.90625 8.859375 
Q 54.734375 -1.421875 39.40625 -1.421875 
Q 24.03125 -1.421875 14.8125 8.828125 
Q 5.609375 19.09375 5.609375 36.375 
Q 5.609375 53.65625 14.8125 63.9375 
Q 24.03125 74.21875 39.40625 74.21875 
z
" id="DejaVuSans-4f"/>
      <path d="M 4.203125 54.6875 
L 13.1875 54.6875 
L 24.421875 12.015625 
L 35.59375 54.6875 
L 46.1875 54.6875 
L 57.421875 12.015625 
L 68.609375 54.6875 
L 77.59375 54.6875 
L 63.28125 0 
L 52.6875 0 
L 40.921875 44.828125 
L 29.109375 0 
L 18.5 0 
z
" id="DejaVuSans-77"/>
      <path d="M 28.609375 0 
L 0.78125 72.90625 
L 11.078125 72.90625 
L 34.1875 11.53125 
L 57.328125 72.90625 
L 67.578125 72.90625 
L 39.796875 0 
z
" id="DejaVuSans-56"/>
      <path d="M 34.1875 63.1875 
L 20.796875 26.90625 
L 47.609375 26.90625 
z
M 28.609375 72.90625 
L 39.796875 72.90625 
L 67.578125 0 
L 57.328125 0 
L 50.6875 18.703125 
L 17.828125 18.703125 
L 11.1875 0 
L 0.78125 0 
z
" id="DejaVuSans-41"/>
     </defs>
     <g style="fill:#262626;" transform="translate(659.794875 84.166852)scale(0.1375 -0.1375)">
      <use xlink:href="#DejaVuSans-4f"/>
      <use x="78.710938" xlink:href="#DejaVuSans-77"/>
      <use x="160.498047" xlink:href="#DejaVuSans-6e"/>
      <use x="223.876953" xlink:href="#DejaVuSans-20"/>
      <use x="255.664062" xlink:href="#DejaVuSans-56"/>
      <use x="323.962891" xlink:href="#DejaVuSans-65"/>
      <use x="385.486328" xlink:href="#DejaVuSans-73"/>
      <use x="437.585938" xlink:href="#DejaVuSans-73"/>
      <use x="489.685547" xlink:href="#DejaVuSans-65"/>
      <use x="551.208984" xlink:href="#DejaVuSans-6c"/>
      <use x="578.992188" xlink:href="#DejaVuSans-20"/>
      <use x="610.779297" xlink:href="#DejaVuSans-41"/>
      <use x="679.078125" xlink:href="#DejaVuSans-54"/>
      <use x="740.083984" xlink:href="#DejaVuSans-43"/>
      <use x="809.908203" xlink:href="#DejaVuSans-20"/>
      <use x="841.695312" xlink:href="#DejaVuSans-43"/>
      <use x="911.519531" xlink:href="#DejaVuSans-61"/>
      <use x="972.798828" xlink:href="#DejaVuSans-73"/>
      <use x="1024.898438" xlink:href="#DejaVuSans-65"/>
     </g>
    </g>
    <g id="line2d_121">
     <path d="M 621.294875 99.536773 
L 648.794875 99.536773 
" style="fill:none;stroke:#ffdead;stroke-linecap:round;"/>
    </g>
    <g id="line2d_122"/>
    <g id="text_21">
     <!-- Own Vessel no ATC Case -->
     <g style="fill:#262626;" transform="translate(659.794875 104.349273)scale(0.1375 -0.1375)">
      <use xlink:href="#DejaVuSans-4f"/>
      <use x="78.710938" xlink:href="#DejaVuSans-77"/>
      <use x="160.498047" xlink:href="#DejaVuSans-6e"/>
      <use x="223.876953" xlink:href="#DejaVuSans-20"/>
      <use x="255.664062" xlink:href="#DejaVuSans-56"/>
      <use x="323.962891" xlink:href="#DejaVuSans-65"/>
      <use x="385.486328" xlink:href="#DejaVuSans-73"/>
      <use x="437.585938" xlink:href="#DejaVuSans-73"/>
      <use x="489.685547" xlink:href="#DejaVuSans-65"/>
      <use x="551.208984" xlink:href="#DejaVuSans-6c"/>
      <use x="578.992188" xlink:href="#DejaVuSans-20"/>
      <use x="610.779297" xlink:href="#DejaVuSans-6e"/>
      <use x="674.158203" xlink:href="#DejaVuSans-6f"/>
      <use x="735.339844" xlink:href="#DejaVuSans-20"/>
      <use x="767.126953" xlink:href="#DejaVuSans-41"/>
      <use x="835.425781" xlink:href="#DejaVuSans-54"/>
      <use x="896.431641" xlink:href="#DejaVuSans-43"/>
      <use x="966.255859" xlink:href="#DejaVuSans-20"/>
      <use x="998.042969" xlink:href="#DejaVuSans-43"/>
      <use x="1067.867188" xlink:href="#DejaVuSans-61"/>
      <use x="1129.146484" xlink:href="#DejaVuSans-73"/>
      <use x="1181.246094" xlink:href="#DejaVuSans-65"/>
     </g>
    </g>
   </g>
  </g>
 </g>
 <defs>
  <clipPath id="p00b18a7b27">
   <rect height="393.624" width="725.958" x="117.09" y="61.344"/>
  </clipPath>
 </defs>
</svg>
