<?xml version="1.0" encoding="utf-8" standalone="no"?>
<!DOCTYPE svg PUBLIC "-//W3C//DTD SVG 1.1//EN"
  "http://www.w3.org/Graphics/SVG/1.1/DTD/svg11.dtd">
<!-- Created with matplotlib (http://matplotlib.org/) -->
<svg height="511.2pt" version="1.1" viewBox="0 0 936.72 511.2" width="936.72pt" xmlns="http://www.w3.org/2000/svg" xmlns:xlink="http://www.w3.org/1999/xlink">
 <defs>
  <style type="text/css">
*{stroke-linecap:butt;stroke-linejoin:round;}
  </style>
 </defs>
 <g id="figure_1">
  <g id="patch_1">
   <path d="M 0 511.2 
L 936.72 511.2 
L 936.72 0 
L 0 0 
z
" style="fill:#ffffff;"/>
  </g>
  <g id="axes_1">
   <g id="patch_2">
    <path d="M 117.09 454.968 
L 843.048 454.968 
L 843.048 61.344 
L 117.09 61.344 
z
" style="fill:#ffffff;"/>
   </g>
   <g id="matplotlib.axis_1">
    <g id="xtick_1">
     <g id="line2d_1">
      <path clip-path="url(#pc35fcf5877)" d="M 117.09 454.968 
L 117.09 61.344 
" style="fill:none;stroke:#cccccc;stroke-linecap:round;stroke-opacity:0.5;"/>
     </g>
     <g id="line2d_2">
      <defs>
       <path d="M 0 0 
L 0 6 
" id="md49d395688" style="stroke:#262626;stroke-width:1.25;"/>
      </defs>
      <g>
       <use style="fill:#262626;stroke:#262626;stroke-width:1.25;" x="117.09" xlink:href="#md49d395688" y="454.968"/>
      </g>
     </g>
     <g id="text_1">
      <!-- 0.0 -->
      <defs>
       <path d="M 31.78125 66.40625 
Q 24.171875 66.40625 20.328125 58.90625 
Q 16.5 51.421875 16.5 36.375 
Q 16.5 21.390625 20.328125 13.890625 
Q 24.171875 6.390625 31.78125 6.390625 
Q 39.453125 6.390625 43.28125 13.890625 
Q 47.125 21.390625 47.125 36.375 
Q 47.125 51.421875 43.28125 58.90625 
Q 39.453125 66.40625 31.78125 66.40625 
z
M 31.78125 74.21875 
Q 44.046875 74.21875 50.515625 64.515625 
Q 56.984375 54.828125 56.984375 36.375 
Q 56.984375 17.96875 50.515625 8.265625 
Q 44.046875 -1.421875 31.78125 -1.421875 
Q 19.53125 -1.421875 13.0625 8.265625 
Q 6.59375 17.96875 6.59375 36.375 
Q 6.59375 54.828125 13.0625 64.515625 
Q 19.53125 74.21875 31.78125 74.21875 
z
" id="DejaVuSans-30"/>
       <path d="M 10.6875 12.40625 
L 21 12.40625 
L 21 0 
L 10.6875 0 
z
" id="DejaVuSans-2e"/>
      </defs>
      <g style="fill:#262626;" transform="translate(106.156602 474.915852)scale(0.1375 -0.1375)">
       <use xlink:href="#DejaVuSans-30"/>
       <use x="63.623047" xlink:href="#DejaVuSans-2e"/>
       <use x="95.410156" xlink:href="#DejaVuSans-30"/>
      </g>
     </g>
    </g>
    <g id="xtick_2">
     <g id="line2d_3">
      <path clip-path="url(#pc35fcf5877)" d="M 238.083 454.968 
L 238.083 61.344 
" style="fill:none;stroke:#cccccc;stroke-linecap:round;stroke-opacity:0.5;"/>
     </g>
     <g id="line2d_4">
      <g>
       <use style="fill:#262626;stroke:#262626;stroke-width:1.25;" x="238.083" xlink:href="#md49d395688" y="454.968"/>
      </g>
     </g>
     <g id="text_2">
      <!-- 0.2 -->
      <defs>
       <path d="M 19.1875 8.296875 
L 53.609375 8.296875 
L 53.609375 0 
L 7.328125 0 
L 7.328125 8.296875 
Q 12.9375 14.109375 22.625 23.890625 
Q 32.328125 33.6875 34.8125 36.53125 
Q 39.546875 41.84375 41.421875 45.53125 
Q 43.3125 49.21875 43.3125 52.78125 
Q 43.3125 58.59375 39.234375 62.25 
Q 35.15625 65.921875 28.609375 65.921875 
Q 23.96875 65.921875 18.8125 64.3125 
Q 13.671875 62.703125 7.8125 59.421875 
L 7.8125 69.390625 
Q 13.765625 71.78125 18.9375 73 
Q 24.125 74.21875 28.421875 74.21875 
Q 39.75 74.21875 46.484375 68.546875 
Q 53.21875 62.890625 53.21875 53.421875 
Q 53.21875 48.921875 51.53125 44.890625 
Q 49.859375 40.875 45.40625 35.40625 
Q 44.1875 33.984375 37.640625 27.21875 
Q 31.109375 20.453125 19.1875 8.296875 
z
" id="DejaVuSans-32"/>
      </defs>
      <g style="fill:#262626;" transform="translate(227.149602 474.915852)scale(0.1375 -0.1375)">
       <use xlink:href="#DejaVuSans-30"/>
       <use x="63.623047" xlink:href="#DejaVuSans-2e"/>
       <use x="95.410156" xlink:href="#DejaVuSans-32"/>
      </g>
     </g>
    </g>
    <g id="xtick_3">
     <g id="line2d_5">
      <path clip-path="url(#pc35fcf5877)" d="M 359.076 454.968 
L 359.076 61.344 
" style="fill:none;stroke:#cccccc;stroke-linecap:round;stroke-opacity:0.5;"/>
     </g>
     <g id="line2d_6">
      <g>
       <use style="fill:#262626;stroke:#262626;stroke-width:1.25;" x="359.076" xlink:href="#md49d395688" y="454.968"/>
      </g>
     </g>
     <g id="text_3">
      <!-- 0.4 -->
      <defs>
       <path d="M 37.796875 64.3125 
L 12.890625 25.390625 
L 37.796875 25.390625 
z
M 35.203125 72.90625 
L 47.609375 72.90625 
L 47.609375 25.390625 
L 58.015625 25.390625 
L 58.015625 17.1875 
L 47.609375 17.1875 
L 47.609375 0 
L 37.796875 0 
L 37.796875 17.1875 
L 4.890625 17.1875 
L 4.890625 26.703125 
z
" id="DejaVuSans-34"/>
      </defs>
      <g style="fill:#262626;" transform="translate(348.142602 474.915852)scale(0.1375 -0.1375)">
       <use xlink:href="#DejaVuSans-30"/>
       <use x="63.623047" xlink:href="#DejaVuSans-2e"/>
       <use x="95.410156" xlink:href="#DejaVuSans-34"/>
      </g>
     </g>
    </g>
    <g id="xtick_4">
     <g id="line2d_7">
      <path clip-path="url(#pc35fcf5877)" d="M 480.069 454.968 
L 480.069 61.344 
" style="fill:none;stroke:#cccccc;stroke-linecap:round;stroke-opacity:0.5;"/>
     </g>
     <g id="line2d_8">
      <g>
       <use style="fill:#262626;stroke:#262626;stroke-width:1.25;" x="480.069" xlink:href="#md49d395688" y="454.968"/>
      </g>
     </g>
     <g id="text_4">
      <!-- 0.6 -->
      <defs>
       <path d="M 33.015625 40.375 
Q 26.375 40.375 22.484375 35.828125 
Q 18.609375 31.296875 18.609375 23.390625 
Q 18.609375 15.53125 22.484375 10.953125 
Q 26.375 6.390625 33.015625 6.390625 
Q 39.65625 6.390625 43.53125 10.953125 
Q 47.40625 15.53125 47.40625 23.390625 
Q 47.40625 31.296875 43.53125 35.828125 
Q 39.65625 40.375 33.015625 40.375 
z
M 52.59375 71.296875 
L 52.59375 62.3125 
Q 48.875 64.0625 45.09375 64.984375 
Q 41.3125 65.921875 37.59375 65.921875 
Q 27.828125 65.921875 22.671875 59.328125 
Q 17.53125 52.734375 16.796875 39.40625 
Q 19.671875 43.65625 24.015625 45.921875 
Q 28.375 48.1875 33.59375 48.1875 
Q 44.578125 48.1875 50.953125 41.515625 
Q 57.328125 34.859375 57.328125 23.390625 
Q 57.328125 12.15625 50.6875 5.359375 
Q 44.046875 -1.421875 33.015625 -1.421875 
Q 20.359375 -1.421875 13.671875 8.265625 
Q 6.984375 17.96875 6.984375 36.375 
Q 6.984375 53.65625 15.1875 63.9375 
Q 23.390625 74.21875 37.203125 74.21875 
Q 40.921875 74.21875 44.703125 73.484375 
Q 48.484375 72.75 52.59375 71.296875 
z
" id="DejaVuSans-36"/>
      </defs>
      <g style="fill:#262626;" transform="translate(469.135602 474.915852)scale(0.1375 -0.1375)">
       <use xlink:href="#DejaVuSans-30"/>
       <use x="63.623047" xlink:href="#DejaVuSans-2e"/>
       <use x="95.410156" xlink:href="#DejaVuSans-36"/>
      </g>
     </g>
    </g>
    <g id="xtick_5">
     <g id="line2d_9">
      <path clip-path="url(#pc35fcf5877)" d="M 601.062 454.968 
L 601.062 61.344 
" style="fill:none;stroke:#cccccc;stroke-linecap:round;stroke-opacity:0.5;"/>
     </g>
     <g id="line2d_10">
      <g>
       <use style="fill:#262626;stroke:#262626;stroke-width:1.25;" x="601.062" xlink:href="#md49d395688" y="454.968"/>
      </g>
     </g>
     <g id="text_5">
      <!-- 0.8 -->
      <defs>
       <path d="M 31.78125 34.625 
Q 24.75 34.625 20.71875 30.859375 
Q 16.703125 27.09375 16.703125 20.515625 
Q 16.703125 13.921875 20.71875 10.15625 
Q 24.75 6.390625 31.78125 6.390625 
Q 38.8125 6.390625 42.859375 10.171875 
Q 46.921875 13.96875 46.921875 20.515625 
Q 46.921875 27.09375 42.890625 30.859375 
Q 38.875 34.625 31.78125 34.625 
z
M 21.921875 38.8125 
Q 15.578125 40.375 12.03125 44.71875 
Q 8.5 49.078125 8.5 55.328125 
Q 8.5 64.0625 14.71875 69.140625 
Q 20.953125 74.21875 31.78125 74.21875 
Q 42.671875 74.21875 48.875 69.140625 
Q 55.078125 64.0625 55.078125 55.328125 
Q 55.078125 49.078125 51.53125 44.71875 
Q 48 40.375 41.703125 38.8125 
Q 48.828125 37.15625 52.796875 32.3125 
Q 56.78125 27.484375 56.78125 20.515625 
Q 56.78125 9.90625 50.3125 4.234375 
Q 43.84375 -1.421875 31.78125 -1.421875 
Q 19.734375 -1.421875 13.25 4.234375 
Q 6.78125 9.90625 6.78125 20.515625 
Q 6.78125 27.484375 10.78125 32.3125 
Q 14.796875 37.15625 21.921875 38.8125 
z
M 18.3125 54.390625 
Q 18.3125 48.734375 21.84375 45.5625 
Q 25.390625 42.390625 31.78125 42.390625 
Q 38.140625 42.390625 41.71875 45.5625 
Q 45.3125 48.734375 45.3125 54.390625 
Q 45.3125 60.0625 41.71875 63.234375 
Q 38.140625 66.40625 31.78125 66.40625 
Q 25.390625 66.40625 21.84375 63.234375 
Q 18.3125 60.0625 18.3125 54.390625 
z
" id="DejaVuSans-38"/>
      </defs>
      <g style="fill:#262626;" transform="translate(590.128602 474.915852)scale(0.1375 -0.1375)">
       <use xlink:href="#DejaVuSans-30"/>
       <use x="63.623047" xlink:href="#DejaVuSans-2e"/>
       <use x="95.410156" xlink:href="#DejaVuSans-38"/>
      </g>
     </g>
    </g>
    <g id="xtick_6">
     <g id="line2d_11">
      <path clip-path="url(#pc35fcf5877)" d="M 722.055 454.968 
L 722.055 61.344 
" style="fill:none;stroke:#cccccc;stroke-linecap:round;stroke-opacity:0.5;"/>
     </g>
     <g id="line2d_12">
      <g>
       <use style="fill:#262626;stroke:#262626;stroke-width:1.25;" x="722.055" xlink:href="#md49d395688" y="454.968"/>
      </g>
     </g>
     <g id="text_6">
      <!-- 1.0 -->
      <defs>
       <path d="M 12.40625 8.296875 
L 28.515625 8.296875 
L 28.515625 63.921875 
L 10.984375 60.40625 
L 10.984375 69.390625 
L 28.421875 72.90625 
L 38.28125 72.90625 
L 38.28125 8.296875 
L 54.390625 8.296875 
L 54.390625 0 
L 12.40625 0 
z
" id="DejaVuSans-31"/>
      </defs>
      <g style="fill:#262626;" transform="translate(711.121602 474.915852)scale(0.1375 -0.1375)">
       <use xlink:href="#DejaVuSans-31"/>
       <use x="63.623047" xlink:href="#DejaVuSans-2e"/>
       <use x="95.410156" xlink:href="#DejaVuSans-30"/>
      </g>
     </g>
    </g>
    <g id="xtick_7">
     <g id="line2d_13">
      <path clip-path="url(#pc35fcf5877)" d="M 843.048 454.968 
L 843.048 61.344 
" style="fill:none;stroke:#cccccc;stroke-linecap:round;stroke-opacity:0.5;"/>
     </g>
     <g id="line2d_14">
      <g>
       <use style="fill:#262626;stroke:#262626;stroke-width:1.25;" x="843.048" xlink:href="#md49d395688" y="454.968"/>
      </g>
     </g>
     <g id="text_7">
      <!-- 1.2 -->
      <g style="fill:#262626;" transform="translate(832.114602 474.915852)scale(0.1375 -0.1375)">
       <use xlink:href="#DejaVuSans-31"/>
       <use x="63.623047" xlink:href="#DejaVuSans-2e"/>
       <use x="95.410156" xlink:href="#DejaVuSans-32"/>
      </g>
     </g>
    </g>
    <g id="text_8">
     <!-- Runtime (min) -->
     <defs>
      <path d="M 44.390625 34.1875 
Q 47.5625 33.109375 50.5625 29.59375 
Q 53.5625 26.078125 56.59375 19.921875 
L 66.609375 0 
L 56 0 
L 46.6875 18.703125 
Q 43.0625 26.03125 39.671875 28.421875 
Q 36.28125 30.8125 30.421875 30.8125 
L 19.671875 30.8125 
L 19.671875 0 
L 9.8125 0 
L 9.8125 72.90625 
L 32.078125 72.90625 
Q 44.578125 72.90625 50.734375 67.671875 
Q 56.890625 62.453125 56.890625 51.90625 
Q 56.890625 45.015625 53.6875 40.46875 
Q 50.484375 35.9375 44.390625 34.1875 
z
M 19.671875 64.796875 
L 19.671875 38.921875 
L 32.078125 38.921875 
Q 39.203125 38.921875 42.84375 42.21875 
Q 46.484375 45.515625 46.484375 51.90625 
Q 46.484375 58.296875 42.84375 61.546875 
Q 39.203125 64.796875 32.078125 64.796875 
z
" id="DejaVuSans-52"/>
      <path d="M 8.5 21.578125 
L 8.5 54.6875 
L 17.484375 54.6875 
L 17.484375 21.921875 
Q 17.484375 14.15625 20.5 10.265625 
Q 23.53125 6.390625 29.59375 6.390625 
Q 36.859375 6.390625 41.078125 11.03125 
Q 45.3125 15.671875 45.3125 23.6875 
L 45.3125 54.6875 
L 54.296875 54.6875 
L 54.296875 0 
L 45.3125 0 
L 45.3125 8.40625 
Q 42.046875 3.421875 37.71875 1 
Q 33.40625 -1.421875 27.6875 -1.421875 
Q 18.265625 -1.421875 13.375 4.4375 
Q 8.5 10.296875 8.5 21.578125 
z
M 31.109375 56 
z
" id="DejaVuSans-75"/>
      <path d="M 54.890625 33.015625 
L 54.890625 0 
L 45.90625 0 
L 45.90625 32.71875 
Q 45.90625 40.484375 42.875 44.328125 
Q 39.84375 48.1875 33.796875 48.1875 
Q 26.515625 48.1875 22.3125 43.546875 
Q 18.109375 38.921875 18.109375 30.90625 
L 18.109375 0 
L 9.078125 0 
L 9.078125 54.6875 
L 18.109375 54.6875 
L 18.109375 46.1875 
Q 21.34375 51.125 25.703125 53.5625 
Q 30.078125 56 35.796875 56 
Q 45.21875 56 50.046875 50.171875 
Q 54.890625 44.34375 54.890625 33.015625 
z
" id="DejaVuSans-6e"/>
      <path d="M 18.3125 70.21875 
L 18.3125 54.6875 
L 36.8125 54.6875 
L 36.8125 47.703125 
L 18.3125 47.703125 
L 18.3125 18.015625 
Q 18.3125 11.328125 20.140625 9.421875 
Q 21.96875 7.515625 27.59375 7.515625 
L 36.8125 7.515625 
L 36.8125 0 
L 27.59375 0 
Q 17.1875 0 13.234375 3.875 
Q 9.28125 7.765625 9.28125 18.015625 
L 9.28125 47.703125 
L 2.6875 47.703125 
L 2.6875 54.6875 
L 9.28125 54.6875 
L 9.28125 70.21875 
z
" id="DejaVuSans-74"/>
      <path d="M 9.421875 54.6875 
L 18.40625 54.6875 
L 18.40625 0 
L 9.421875 0 
z
M 9.421875 75.984375 
L 18.40625 75.984375 
L 18.40625 64.59375 
L 9.421875 64.59375 
z
" id="DejaVuSans-69"/>
      <path d="M 52 44.1875 
Q 55.375 50.25 60.0625 53.125 
Q 64.75 56 71.09375 56 
Q 79.640625 56 84.28125 50.015625 
Q 88.921875 44.046875 88.921875 33.015625 
L 88.921875 0 
L 79.890625 0 
L 79.890625 32.71875 
Q 79.890625 40.578125 77.09375 44.375 
Q 74.3125 48.1875 68.609375 48.1875 
Q 61.625 48.1875 57.5625 43.546875 
Q 53.515625 38.921875 53.515625 30.90625 
L 53.515625 0 
L 44.484375 0 
L 44.484375 32.71875 
Q 44.484375 40.625 41.703125 44.40625 
Q 38.921875 48.1875 33.109375 48.1875 
Q 26.21875 48.1875 22.15625 43.53125 
Q 18.109375 38.875 18.109375 30.90625 
L 18.109375 0 
L 9.078125 0 
L 9.078125 54.6875 
L 18.109375 54.6875 
L 18.109375 46.1875 
Q 21.1875 51.21875 25.484375 53.609375 
Q 29.78125 56 35.6875 56 
Q 41.65625 56 45.828125 52.96875 
Q 50 49.953125 52 44.1875 
z
" id="DejaVuSans-6d"/>
      <path d="M 56.203125 29.59375 
L 56.203125 25.203125 
L 14.890625 25.203125 
Q 15.484375 15.921875 20.484375 11.0625 
Q 25.484375 6.203125 34.421875 6.203125 
Q 39.59375 6.203125 44.453125 7.46875 
Q 49.3125 8.734375 54.109375 11.28125 
L 54.109375 2.78125 
Q 49.265625 0.734375 44.1875 -0.34375 
Q 39.109375 -1.421875 33.890625 -1.421875 
Q 20.796875 -1.421875 13.15625 6.1875 
Q 5.515625 13.8125 5.515625 26.8125 
Q 5.515625 40.234375 12.765625 48.109375 
Q 20.015625 56 32.328125 56 
Q 43.359375 56 49.78125 48.890625 
Q 56.203125 41.796875 56.203125 29.59375 
z
M 47.21875 32.234375 
Q 47.125 39.59375 43.09375 43.984375 
Q 39.0625 48.390625 32.421875 48.390625 
Q 24.90625 48.390625 20.390625 44.140625 
Q 15.875 39.890625 15.1875 32.171875 
z
" id="DejaVuSans-65"/>
      <path id="DejaVuSans-20"/>
      <path d="M 31 75.875 
Q 24.46875 64.65625 21.28125 53.65625 
Q 18.109375 42.671875 18.109375 31.390625 
Q 18.109375 20.125 21.3125 9.0625 
Q 24.515625 -2 31 -13.1875 
L 23.1875 -13.1875 
Q 15.875 -1.703125 12.234375 9.375 
Q 8.59375 20.453125 8.59375 31.390625 
Q 8.59375 42.28125 12.203125 53.3125 
Q 15.828125 64.359375 23.1875 75.875 
z
" id="DejaVuSans-28"/>
      <path d="M 8.015625 75.875 
L 15.828125 75.875 
Q 23.140625 64.359375 26.78125 53.3125 
Q 30.421875 42.28125 30.421875 31.390625 
Q 30.421875 20.453125 26.78125 9.375 
Q 23.140625 -1.703125 15.828125 -13.1875 
L 8.015625 -13.1875 
Q 14.5 -2 17.703125 9.0625 
Q 20.90625 20.125 20.90625 31.390625 
Q 20.90625 42.671875 17.703125 53.65625 
Q 14.5 64.65625 8.015625 75.875 
z
" id="DejaVuSans-29"/>
     </defs>
     <g style="fill:#262626;" transform="translate(426.033844 493.173078)scale(0.15 -0.15)">
      <use xlink:href="#DejaVuSans-52"/>
      <use x="69.419922" xlink:href="#DejaVuSans-75"/>
      <use x="132.798828" xlink:href="#DejaVuSans-6e"/>
      <use x="196.177734" xlink:href="#DejaVuSans-74"/>
      <use x="235.386719" xlink:href="#DejaVuSans-69"/>
      <use x="263.169922" xlink:href="#DejaVuSans-6d"/>
      <use x="360.582031" xlink:href="#DejaVuSans-65"/>
      <use x="422.105469" xlink:href="#DejaVuSans-20"/>
      <use x="453.892578" xlink:href="#DejaVuSans-28"/>
      <use x="492.90625" xlink:href="#DejaVuSans-6d"/>
      <use x="590.318359" xlink:href="#DejaVuSans-69"/>
      <use x="618.101562" xlink:href="#DejaVuSans-6e"/>
      <use x="681.480469" xlink:href="#DejaVuSans-29"/>
     </g>
    </g>
   </g>
   <g id="matplotlib.axis_2">
    <g id="ytick_1">
     <g id="line2d_15">
      <path clip-path="url(#pc35fcf5877)" d="M 117.09 454.968 
L 843.048 454.968 
" style="fill:none;stroke:#cccccc;stroke-linecap:round;stroke-opacity:0.5;"/>
     </g>
     <g id="line2d_16">
      <defs>
       <path d="M 0 0 
L -6 0 
" id="md147f092c1" style="stroke:#262626;stroke-width:1.25;"/>
      </defs>
      <g>
       <use style="fill:#262626;stroke:#262626;stroke-width:1.25;" x="117.09" xlink:href="#md147f092c1" y="454.968"/>
      </g>
     </g>
     <g id="text_9">
      <!-- 0.15 -->
      <defs>
       <path d="M 10.796875 72.90625 
L 49.515625 72.90625 
L 49.515625 64.59375 
L 19.828125 64.59375 
L 19.828125 46.734375 
Q 21.96875 47.46875 24.109375 47.828125 
Q 26.265625 48.1875 28.421875 48.1875 
Q 40.625 48.1875 47.75 41.5 
Q 54.890625 34.8125 54.890625 23.390625 
Q 54.890625 11.625 47.5625 5.09375 
Q 40.234375 -1.421875 26.90625 -1.421875 
Q 22.3125 -1.421875 17.546875 -0.640625 
Q 12.796875 0.140625 7.71875 1.703125 
L 7.71875 11.625 
Q 12.109375 9.234375 16.796875 8.0625 
Q 21.484375 6.890625 26.703125 6.890625 
Q 35.15625 6.890625 40.078125 11.328125 
Q 45.015625 15.765625 45.015625 23.390625 
Q 45.015625 31 40.078125 35.4375 
Q 35.15625 39.890625 26.703125 39.890625 
Q 22.75 39.890625 18.8125 39.015625 
Q 14.890625 38.140625 10.796875 36.28125 
z
" id="DejaVuSans-35"/>
      </defs>
      <g style="fill:#262626;" transform="translate(76.974766 460.191926)scale(0.1375 -0.1375)">
       <use xlink:href="#DejaVuSans-30"/>
       <use x="63.623047" xlink:href="#DejaVuSans-2e"/>
       <use x="95.410156" xlink:href="#DejaVuSans-31"/>
       <use x="159.033203" xlink:href="#DejaVuSans-35"/>
      </g>
     </g>
    </g>
    <g id="ytick_2">
     <g id="line2d_17">
      <path clip-path="url(#pc35fcf5877)" d="M 117.09 379.271077 
L 843.048 379.271077 
" style="fill:none;stroke:#cccccc;stroke-linecap:round;stroke-opacity:0.5;"/>
     </g>
     <g id="line2d_18">
      <g>
       <use style="fill:#262626;stroke:#262626;stroke-width:1.25;" x="117.09" xlink:href="#md147f092c1" y="379.271077"/>
      </g>
     </g>
     <g id="text_10">
      <!-- 0.20 -->
      <g style="fill:#262626;" transform="translate(76.974766 384.495003)scale(0.1375 -0.1375)">
       <use xlink:href="#DejaVuSans-30"/>
       <use x="63.623047" xlink:href="#DejaVuSans-2e"/>
       <use x="95.410156" xlink:href="#DejaVuSans-32"/>
       <use x="159.033203" xlink:href="#DejaVuSans-30"/>
      </g>
     </g>
    </g>
    <g id="ytick_3">
     <g id="line2d_19">
      <path clip-path="url(#pc35fcf5877)" d="M 117.09 303.574154 
L 843.048 303.574154 
" style="fill:none;stroke:#cccccc;stroke-linecap:round;stroke-opacity:0.5;"/>
     </g>
     <g id="line2d_20">
      <g>
       <use style="fill:#262626;stroke:#262626;stroke-width:1.25;" x="117.09" xlink:href="#md147f092c1" y="303.574154"/>
      </g>
     </g>
     <g id="text_11">
      <!-- 0.25 -->
      <g style="fill:#262626;" transform="translate(76.974766 308.79808)scale(0.1375 -0.1375)">
       <use xlink:href="#DejaVuSans-30"/>
       <use x="63.623047" xlink:href="#DejaVuSans-2e"/>
       <use x="95.410156" xlink:href="#DejaVuSans-32"/>
       <use x="159.033203" xlink:href="#DejaVuSans-35"/>
      </g>
     </g>
    </g>
    <g id="ytick_4">
     <g id="line2d_21">
      <path clip-path="url(#pc35fcf5877)" d="M 117.09 227.877231 
L 843.048 227.877231 
" style="fill:none;stroke:#cccccc;stroke-linecap:round;stroke-opacity:0.5;"/>
     </g>
     <g id="line2d_22">
      <g>
       <use style="fill:#262626;stroke:#262626;stroke-width:1.25;" x="117.09" xlink:href="#md147f092c1" y="227.877231"/>
      </g>
     </g>
     <g id="text_12">
      <!-- 0.30 -->
      <defs>
       <path d="M 40.578125 39.3125 
Q 47.65625 37.796875 51.625 33 
Q 55.609375 28.21875 55.609375 21.1875 
Q 55.609375 10.40625 48.1875 4.484375 
Q 40.765625 -1.421875 27.09375 -1.421875 
Q 22.515625 -1.421875 17.65625 -0.515625 
Q 12.796875 0.390625 7.625 2.203125 
L 7.625 11.71875 
Q 11.71875 9.328125 16.59375 8.109375 
Q 21.484375 6.890625 26.8125 6.890625 
Q 36.078125 6.890625 40.9375 10.546875 
Q 45.796875 14.203125 45.796875 21.1875 
Q 45.796875 27.640625 41.28125 31.265625 
Q 36.765625 34.90625 28.71875 34.90625 
L 20.21875 34.90625 
L 20.21875 43.015625 
L 29.109375 43.015625 
Q 36.375 43.015625 40.234375 45.921875 
Q 44.09375 48.828125 44.09375 54.296875 
Q 44.09375 59.90625 40.109375 62.90625 
Q 36.140625 65.921875 28.71875 65.921875 
Q 24.65625 65.921875 20.015625 65.03125 
Q 15.375 64.15625 9.8125 62.3125 
L 9.8125 71.09375 
Q 15.4375 72.65625 20.34375 73.4375 
Q 25.25 74.21875 29.59375 74.21875 
Q 40.828125 74.21875 47.359375 69.109375 
Q 53.90625 64.015625 53.90625 55.328125 
Q 53.90625 49.265625 50.4375 45.09375 
Q 46.96875 40.921875 40.578125 39.3125 
z
" id="DejaVuSans-33"/>
      </defs>
      <g style="fill:#262626;" transform="translate(76.974766 233.101157)scale(0.1375 -0.1375)">
       <use xlink:href="#DejaVuSans-30"/>
       <use x="63.623047" xlink:href="#DejaVuSans-2e"/>
       <use x="95.410156" xlink:href="#DejaVuSans-33"/>
       <use x="159.033203" xlink:href="#DejaVuSans-30"/>
      </g>
     </g>
    </g>
    <g id="ytick_5">
     <g id="line2d_23">
      <path clip-path="url(#pc35fcf5877)" d="M 117.09 152.180308 
L 843.048 152.180308 
" style="fill:none;stroke:#cccccc;stroke-linecap:round;stroke-opacity:0.5;"/>
     </g>
     <g id="line2d_24">
      <g>
       <use style="fill:#262626;stroke:#262626;stroke-width:1.25;" x="117.09" xlink:href="#md147f092c1" y="152.180308"/>
      </g>
     </g>
     <g id="text_13">
      <!-- 0.35 -->
      <g style="fill:#262626;" transform="translate(76.974766 157.404233)scale(0.1375 -0.1375)">
       <use xlink:href="#DejaVuSans-30"/>
       <use x="63.623047" xlink:href="#DejaVuSans-2e"/>
       <use x="95.410156" xlink:href="#DejaVuSans-33"/>
       <use x="159.033203" xlink:href="#DejaVuSans-35"/>
      </g>
     </g>
    </g>
    <g id="ytick_6">
     <g id="line2d_25">
      <path clip-path="url(#pc35fcf5877)" d="M 117.09 76.483385 
L 843.048 76.483385 
" style="fill:none;stroke:#cccccc;stroke-linecap:round;stroke-opacity:0.5;"/>
     </g>
     <g id="line2d_26">
      <g>
       <use style="fill:#262626;stroke:#262626;stroke-width:1.25;" x="117.09" xlink:href="#md147f092c1" y="76.483385"/>
      </g>
     </g>
     <g id="text_14">
      <!-- 0.40 -->
      <g style="fill:#262626;" transform="translate(76.974766 81.70731)scale(0.1375 -0.1375)">
       <use xlink:href="#DejaVuSans-30"/>
       <use x="63.623047" xlink:href="#DejaVuSans-2e"/>
       <use x="95.410156" xlink:href="#DejaVuSans-34"/>
       <use x="159.033203" xlink:href="#DejaVuSans-30"/>
      </g>
     </g>
    </g>
    <g id="ytick_7">
     <g id="line2d_27">
      <path clip-path="url(#pc35fcf5877)" d="M 117.09 454.968 
L 843.048 454.968 
" style="fill:none;stroke:#cccccc;stroke-linecap:round;stroke-opacity:0.2;"/>
     </g>
     <g id="line2d_28">
      <defs>
       <path d="M 0 0 
L -4 0 
" id="m86b569925a" style="stroke:#262626;"/>
      </defs>
      <g>
       <use style="fill:#262626;stroke:#262626;" x="117.09" xlink:href="#m86b569925a" y="454.968"/>
      </g>
     </g>
    </g>
    <g id="ytick_8">
     <g id="line2d_29">
      <path clip-path="url(#pc35fcf5877)" d="M 117.09 439.828615 
L 843.048 439.828615 
" style="fill:none;stroke:#cccccc;stroke-linecap:round;stroke-opacity:0.2;"/>
     </g>
     <g id="line2d_30">
      <g>
       <use style="fill:#262626;stroke:#262626;" x="117.09" xlink:href="#m86b569925a" y="439.828615"/>
      </g>
     </g>
    </g>
    <g id="ytick_9">
     <g id="line2d_31">
      <path clip-path="url(#pc35fcf5877)" d="M 117.09 424.689231 
L 843.048 424.689231 
" style="fill:none;stroke:#cccccc;stroke-linecap:round;stroke-opacity:0.2;"/>
     </g>
     <g id="line2d_32">
      <g>
       <use style="fill:#262626;stroke:#262626;" x="117.09" xlink:href="#m86b569925a" y="424.689231"/>
      </g>
     </g>
    </g>
    <g id="ytick_10">
     <g id="line2d_33">
      <path clip-path="url(#pc35fcf5877)" d="M 117.09 409.549846 
L 843.048 409.549846 
" style="fill:none;stroke:#cccccc;stroke-linecap:round;stroke-opacity:0.2;"/>
     </g>
     <g id="line2d_34">
      <g>
       <use style="fill:#262626;stroke:#262626;" x="117.09" xlink:href="#m86b569925a" y="409.549846"/>
      </g>
     </g>
    </g>
    <g id="ytick_11">
     <g id="line2d_35">
      <path clip-path="url(#pc35fcf5877)" d="M 117.09 394.410462 
L 843.048 394.410462 
" style="fill:none;stroke:#cccccc;stroke-linecap:round;stroke-opacity:0.2;"/>
     </g>
     <g id="line2d_36">
      <g>
       <use style="fill:#262626;stroke:#262626;" x="117.09" xlink:href="#m86b569925a" y="394.410462"/>
      </g>
     </g>
    </g>
    <g id="ytick_12">
     <g id="line2d_37">
      <path clip-path="url(#pc35fcf5877)" d="M 117.09 379.271077 
L 843.048 379.271077 
" style="fill:none;stroke:#cccccc;stroke-linecap:round;stroke-opacity:0.2;"/>
     </g>
     <g id="line2d_38">
      <g>
       <use style="fill:#262626;stroke:#262626;" x="117.09" xlink:href="#m86b569925a" y="379.271077"/>
      </g>
     </g>
    </g>
    <g id="ytick_13">
     <g id="line2d_39">
      <path clip-path="url(#pc35fcf5877)" d="M 117.09 364.131692 
L 843.048 364.131692 
" style="fill:none;stroke:#cccccc;stroke-linecap:round;stroke-opacity:0.2;"/>
     </g>
     <g id="line2d_40">
      <g>
       <use style="fill:#262626;stroke:#262626;" x="117.09" xlink:href="#m86b569925a" y="364.131692"/>
      </g>
     </g>
    </g>
    <g id="ytick_14">
     <g id="line2d_41">
      <path clip-path="url(#pc35fcf5877)" d="M 117.09 348.992308 
L 843.048 348.992308 
" style="fill:none;stroke:#cccccc;stroke-linecap:round;stroke-opacity:0.2;"/>
     </g>
     <g id="line2d_42">
      <g>
       <use style="fill:#262626;stroke:#262626;" x="117.09" xlink:href="#m86b569925a" y="348.992308"/>
      </g>
     </g>
    </g>
    <g id="ytick_15">
     <g id="line2d_43">
      <path clip-path="url(#pc35fcf5877)" d="M 117.09 333.852923 
L 843.048 333.852923 
" style="fill:none;stroke:#cccccc;stroke-linecap:round;stroke-opacity:0.2;"/>
     </g>
     <g id="line2d_44">
      <g>
       <use style="fill:#262626;stroke:#262626;" x="117.09" xlink:href="#m86b569925a" y="333.852923"/>
      </g>
     </g>
    </g>
    <g id="ytick_16">
     <g id="line2d_45">
      <path clip-path="url(#pc35fcf5877)" d="M 117.09 318.713538 
L 843.048 318.713538 
" style="fill:none;stroke:#cccccc;stroke-linecap:round;stroke-opacity:0.2;"/>
     </g>
     <g id="line2d_46">
      <g>
       <use style="fill:#262626;stroke:#262626;" x="117.09" xlink:href="#m86b569925a" y="318.713538"/>
      </g>
     </g>
    </g>
    <g id="ytick_17">
     <g id="line2d_47">
      <path clip-path="url(#pc35fcf5877)" d="M 117.09 303.574154 
L 843.048 303.574154 
" style="fill:none;stroke:#cccccc;stroke-linecap:round;stroke-opacity:0.2;"/>
     </g>
     <g id="line2d_48">
      <g>
       <use style="fill:#262626;stroke:#262626;" x="117.09" xlink:href="#m86b569925a" y="303.574154"/>
      </g>
     </g>
    </g>
    <g id="ytick_18">
     <g id="line2d_49">
      <path clip-path="url(#pc35fcf5877)" d="M 117.09 288.434769 
L 843.048 288.434769 
" style="fill:none;stroke:#cccccc;stroke-linecap:round;stroke-opacity:0.2;"/>
     </g>
     <g id="line2d_50">
      <g>
       <use style="fill:#262626;stroke:#262626;" x="117.09" xlink:href="#m86b569925a" y="288.434769"/>
      </g>
     </g>
    </g>
    <g id="ytick_19">
     <g id="line2d_51">
      <path clip-path="url(#pc35fcf5877)" d="M 117.09 273.295385 
L 843.048 273.295385 
" style="fill:none;stroke:#cccccc;stroke-linecap:round;stroke-opacity:0.2;"/>
     </g>
     <g id="line2d_52">
      <g>
       <use style="fill:#262626;stroke:#262626;" x="117.09" xlink:href="#m86b569925a" y="273.295385"/>
      </g>
     </g>
    </g>
    <g id="ytick_20">
     <g id="line2d_53">
      <path clip-path="url(#pc35fcf5877)" d="M 117.09 258.156 
L 843.048 258.156 
" style="fill:none;stroke:#cccccc;stroke-linecap:round;stroke-opacity:0.2;"/>
     </g>
     <g id="line2d_54">
      <g>
       <use style="fill:#262626;stroke:#262626;" x="117.09" xlink:href="#m86b569925a" y="258.156"/>
      </g>
     </g>
    </g>
    <g id="ytick_21">
     <g id="line2d_55">
      <path clip-path="url(#pc35fcf5877)" d="M 117.09 243.016615 
L 843.048 243.016615 
" style="fill:none;stroke:#cccccc;stroke-linecap:round;stroke-opacity:0.2;"/>
     </g>
     <g id="line2d_56">
      <g>
       <use style="fill:#262626;stroke:#262626;" x="117.09" xlink:href="#m86b569925a" y="243.016615"/>
      </g>
     </g>
    </g>
    <g id="ytick_22">
     <g id="line2d_57">
      <path clip-path="url(#pc35fcf5877)" d="M 117.09 227.877231 
L 843.048 227.877231 
" style="fill:none;stroke:#cccccc;stroke-linecap:round;stroke-opacity:0.2;"/>
     </g>
     <g id="line2d_58">
      <g>
       <use style="fill:#262626;stroke:#262626;" x="117.09" xlink:href="#m86b569925a" y="227.877231"/>
      </g>
     </g>
    </g>
    <g id="ytick_23">
     <g id="line2d_59">
      <path clip-path="url(#pc35fcf5877)" d="M 117.09 212.737846 
L 843.048 212.737846 
" style="fill:none;stroke:#cccccc;stroke-linecap:round;stroke-opacity:0.2;"/>
     </g>
     <g id="line2d_60">
      <g>
       <use style="fill:#262626;stroke:#262626;" x="117.09" xlink:href="#m86b569925a" y="212.737846"/>
      </g>
     </g>
    </g>
    <g id="ytick_24">
     <g id="line2d_61">
      <path clip-path="url(#pc35fcf5877)" d="M 117.09 197.598462 
L 843.048 197.598462 
" style="fill:none;stroke:#cccccc;stroke-linecap:round;stroke-opacity:0.2;"/>
     </g>
     <g id="line2d_62">
      <g>
       <use style="fill:#262626;stroke:#262626;" x="117.09" xlink:href="#m86b569925a" y="197.598462"/>
      </g>
     </g>
    </g>
    <g id="ytick_25">
     <g id="line2d_63">
      <path clip-path="url(#pc35fcf5877)" d="M 117.09 182.459077 
L 843.048 182.459077 
" style="fill:none;stroke:#cccccc;stroke-linecap:round;stroke-opacity:0.2;"/>
     </g>
     <g id="line2d_64">
      <g>
       <use style="fill:#262626;stroke:#262626;" x="117.09" xlink:href="#m86b569925a" y="182.459077"/>
      </g>
     </g>
    </g>
    <g id="ytick_26">
     <g id="line2d_65">
      <path clip-path="url(#pc35fcf5877)" d="M 117.09 167.319692 
L 843.048 167.319692 
" style="fill:none;stroke:#cccccc;stroke-linecap:round;stroke-opacity:0.2;"/>
     </g>
     <g id="line2d_66">
      <g>
       <use style="fill:#262626;stroke:#262626;" x="117.09" xlink:href="#m86b569925a" y="167.319692"/>
      </g>
     </g>
    </g>
    <g id="ytick_27">
     <g id="line2d_67">
      <path clip-path="url(#pc35fcf5877)" d="M 117.09 152.180308 
L 843.048 152.180308 
" style="fill:none;stroke:#cccccc;stroke-linecap:round;stroke-opacity:0.2;"/>
     </g>
     <g id="line2d_68">
      <g>
       <use style="fill:#262626;stroke:#262626;" x="117.09" xlink:href="#m86b569925a" y="152.180308"/>
      </g>
     </g>
    </g>
    <g id="ytick_28">
     <g id="line2d_69">
      <path clip-path="url(#pc35fcf5877)" d="M 117.09 137.040923 
L 843.048 137.040923 
" style="fill:none;stroke:#cccccc;stroke-linecap:round;stroke-opacity:0.2;"/>
     </g>
     <g id="line2d_70">
      <g>
       <use style="fill:#262626;stroke:#262626;" x="117.09" xlink:href="#m86b569925a" y="137.040923"/>
      </g>
     </g>
    </g>
    <g id="ytick_29">
     <g id="line2d_71">
      <path clip-path="url(#pc35fcf5877)" d="M 117.09 121.901538 
L 843.048 121.901538 
" style="fill:none;stroke:#cccccc;stroke-linecap:round;stroke-opacity:0.2;"/>
     </g>
     <g id="line2d_72">
      <g>
       <use style="fill:#262626;stroke:#262626;" x="117.09" xlink:href="#m86b569925a" y="121.901538"/>
      </g>
     </g>
    </g>
    <g id="ytick_30">
     <g id="line2d_73">
      <path clip-path="url(#pc35fcf5877)" d="M 117.09 106.762154 
L 843.048 106.762154 
" style="fill:none;stroke:#cccccc;stroke-linecap:round;stroke-opacity:0.2;"/>
     </g>
     <g id="line2d_74">
      <g>
       <use style="fill:#262626;stroke:#262626;" x="117.09" xlink:href="#m86b569925a" y="106.762154"/>
      </g>
     </g>
    </g>
    <g id="ytick_31">
     <g id="line2d_75">
      <path clip-path="url(#pc35fcf5877)" d="M 117.09 91.622769 
L 843.048 91.622769 
" style="fill:none;stroke:#cccccc;stroke-linecap:round;stroke-opacity:0.2;"/>
     </g>
     <g id="line2d_76">
      <g>
       <use style="fill:#262626;stroke:#262626;" x="117.09" xlink:href="#m86b569925a" y="91.622769"/>
      </g>
     </g>
    </g>
    <g id="text_15">
     <!-- Computationl Time (s) -->
     <defs>
      <path d="M 64.40625 67.28125 
L 64.40625 56.890625 
Q 59.421875 61.53125 53.78125 63.8125 
Q 48.140625 66.109375 41.796875 66.109375 
Q 29.296875 66.109375 22.65625 58.46875 
Q 16.015625 50.828125 16.015625 36.375 
Q 16.015625 21.96875 22.65625 14.328125 
Q 29.296875 6.6875 41.796875 6.6875 
Q 48.140625 6.6875 53.78125 8.984375 
Q 59.421875 11.28125 64.40625 15.921875 
L 64.40625 5.609375 
Q 59.234375 2.09375 53.4375 0.328125 
Q 47.65625 -1.421875 41.21875 -1.421875 
Q 24.65625 -1.421875 15.125 8.703125 
Q 5.609375 18.84375 5.609375 36.375 
Q 5.609375 53.953125 15.125 64.078125 
Q 24.65625 74.21875 41.21875 74.21875 
Q 47.75 74.21875 53.53125 72.484375 
Q 59.328125 70.75 64.40625 67.28125 
z
" id="DejaVuSans-43"/>
      <path d="M 30.609375 48.390625 
Q 23.390625 48.390625 19.1875 42.75 
Q 14.984375 37.109375 14.984375 27.296875 
Q 14.984375 17.484375 19.15625 11.84375 
Q 23.34375 6.203125 30.609375 6.203125 
Q 37.796875 6.203125 41.984375 11.859375 
Q 46.1875 17.53125 46.1875 27.296875 
Q 46.1875 37.015625 41.984375 42.703125 
Q 37.796875 48.390625 30.609375 48.390625 
z
M 30.609375 56 
Q 42.328125 56 49.015625 48.375 
Q 55.71875 40.765625 55.71875 27.296875 
Q 55.71875 13.875 49.015625 6.21875 
Q 42.328125 -1.421875 30.609375 -1.421875 
Q 18.84375 -1.421875 12.171875 6.21875 
Q 5.515625 13.875 5.515625 27.296875 
Q 5.515625 40.765625 12.171875 48.375 
Q 18.84375 56 30.609375 56 
z
" id="DejaVuSans-6f"/>
      <path d="M 18.109375 8.203125 
L 18.109375 -20.796875 
L 9.078125 -20.796875 
L 9.078125 54.6875 
L 18.109375 54.6875 
L 18.109375 46.390625 
Q 20.953125 51.265625 25.265625 53.625 
Q 29.59375 56 35.59375 56 
Q 45.5625 56 51.78125 48.09375 
Q 58.015625 40.1875 58.015625 27.296875 
Q 58.015625 14.40625 51.78125 6.484375 
Q 45.5625 -1.421875 35.59375 -1.421875 
Q 29.59375 -1.421875 25.265625 0.953125 
Q 20.953125 3.328125 18.109375 8.203125 
z
M 48.6875 27.296875 
Q 48.6875 37.203125 44.609375 42.84375 
Q 40.53125 48.484375 33.40625 48.484375 
Q 26.265625 48.484375 22.1875 42.84375 
Q 18.109375 37.203125 18.109375 27.296875 
Q 18.109375 17.390625 22.1875 11.75 
Q 26.265625 6.109375 33.40625 6.109375 
Q 40.53125 6.109375 44.609375 11.75 
Q 48.6875 17.390625 48.6875 27.296875 
z
" id="DejaVuSans-70"/>
      <path d="M 34.28125 27.484375 
Q 23.390625 27.484375 19.1875 25 
Q 14.984375 22.515625 14.984375 16.5 
Q 14.984375 11.71875 18.140625 8.90625 
Q 21.296875 6.109375 26.703125 6.109375 
Q 34.1875 6.109375 38.703125 11.40625 
Q 43.21875 16.703125 43.21875 25.484375 
L 43.21875 27.484375 
z
M 52.203125 31.203125 
L 52.203125 0 
L 43.21875 0 
L 43.21875 8.296875 
Q 40.140625 3.328125 35.546875 0.953125 
Q 30.953125 -1.421875 24.3125 -1.421875 
Q 15.921875 -1.421875 10.953125 3.296875 
Q 6 8.015625 6 15.921875 
Q 6 25.140625 12.171875 29.828125 
Q 18.359375 34.515625 30.609375 34.515625 
L 43.21875 34.515625 
L 43.21875 35.40625 
Q 43.21875 41.609375 39.140625 45 
Q 35.0625 48.390625 27.6875 48.390625 
Q 23 48.390625 18.546875 47.265625 
Q 14.109375 46.140625 10.015625 43.890625 
L 10.015625 52.203125 
Q 14.9375 54.109375 19.578125 55.046875 
Q 24.21875 56 28.609375 56 
Q 40.484375 56 46.34375 49.84375 
Q 52.203125 43.703125 52.203125 31.203125 
z
" id="DejaVuSans-61"/>
      <path d="M 9.421875 75.984375 
L 18.40625 75.984375 
L 18.40625 0 
L 9.421875 0 
z
" id="DejaVuSans-6c"/>
      <path d="M -0.296875 72.90625 
L 61.375 72.90625 
L 61.375 64.59375 
L 35.5 64.59375 
L 35.5 0 
L 25.59375 0 
L 25.59375 64.59375 
L -0.296875 64.59375 
z
" id="DejaVuSans-54"/>
      <path d="M 44.28125 53.078125 
L 44.28125 44.578125 
Q 40.484375 46.53125 36.375 47.5 
Q 32.28125 48.484375 27.875 48.484375 
Q 21.1875 48.484375 17.84375 46.4375 
Q 14.5 44.390625 14.5 40.28125 
Q 14.5 37.15625 16.890625 35.375 
Q 19.28125 33.59375 26.515625 31.984375 
L 29.59375 31.296875 
Q 39.15625 29.25 43.1875 25.515625 
Q 47.21875 21.78125 47.21875 15.09375 
Q 47.21875 7.46875 41.1875 3.015625 
Q 35.15625 -1.421875 24.609375 -1.421875 
Q 20.21875 -1.421875 15.453125 -0.5625 
Q 10.6875 0.296875 5.421875 2 
L 5.421875 11.28125 
Q 10.40625 8.6875 15.234375 7.390625 
Q 20.0625 6.109375 24.8125 6.109375 
Q 31.15625 6.109375 34.5625 8.28125 
Q 37.984375 10.453125 37.984375 14.40625 
Q 37.984375 18.0625 35.515625 20.015625 
Q 33.0625 21.96875 24.703125 23.78125 
L 21.578125 24.515625 
Q 13.234375 26.265625 9.515625 29.90625 
Q 5.8125 33.546875 5.8125 39.890625 
Q 5.8125 47.609375 11.28125 51.796875 
Q 16.75 56 26.8125 56 
Q 31.78125 56 36.171875 55.265625 
Q 40.578125 54.546875 44.28125 53.078125 
z
" id="DejaVuSans-73"/>
     </defs>
     <g style="fill:#262626;" transform="translate(69.855234 341.895844)rotate(-90)scale(0.15 -0.15)">
      <use xlink:href="#DejaVuSans-43"/>
      <use x="69.824219" xlink:href="#DejaVuSans-6f"/>
      <use x="131.005859" xlink:href="#DejaVuSans-6d"/>
      <use x="228.417969" xlink:href="#DejaVuSans-70"/>
      <use x="291.894531" xlink:href="#DejaVuSans-75"/>
      <use x="355.273438" xlink:href="#DejaVuSans-74"/>
      <use x="394.482422" xlink:href="#DejaVuSans-61"/>
      <use x="455.761719" xlink:href="#DejaVuSans-74"/>
      <use x="494.970703" xlink:href="#DejaVuSans-69"/>
      <use x="522.753906" xlink:href="#DejaVuSans-6f"/>
      <use x="583.935547" xlink:href="#DejaVuSans-6e"/>
      <use x="647.314453" xlink:href="#DejaVuSans-6c"/>
      <use x="675.097656" xlink:href="#DejaVuSans-20"/>
      <use x="706.884766" xlink:href="#DejaVuSans-54"/>
      <use x="767.921875" xlink:href="#DejaVuSans-69"/>
      <use x="795.705078" xlink:href="#DejaVuSans-6d"/>
      <use x="893.117188" xlink:href="#DejaVuSans-65"/>
      <use x="954.640625" xlink:href="#DejaVuSans-20"/>
      <use x="986.427734" xlink:href="#DejaVuSans-28"/>
      <use x="1025.441406" xlink:href="#DejaVuSans-73"/>
      <use x="1077.541016" xlink:href="#DejaVuSans-29"/>
     </g>
    </g>
   </g>
   <g id="patch_3">
    <path clip-path="url(#pc35fcf5877)" d="M 190.290765 87.837923 
C 191.333616 87.837923 192.333895 87.439128 193.071302 86.729367 
C 193.808708 86.019607 194.223038 85.05683 194.223038 84.053077 
C 194.223038 83.049324 193.808708 82.086547 193.071302 81.376787 
C 192.333895 80.667026 191.333616 80.268231 190.290765 80.268231 
C 189.247914 80.268231 188.247635 80.667026 187.510228 81.376787 
C 186.772822 82.086547 186.358493 83.049324 186.358493 84.053077 
C 186.358493 85.05683 186.772822 86.019607 187.510228 86.729367 
C 188.247635 87.439128 189.247914 87.837923 190.290765 87.837923 
z
" style="fill:none;stroke:#000000;stroke-linejoin:miter;"/>
   </g>
   <g id="patch_4">
    <path clip-path="url(#pc35fcf5877)" d="M 234.45321 76.483385 
C 235.496061 76.483385 236.49634 76.084589 237.233747 75.374829 
C 237.971153 74.665068 238.385483 73.702291 238.385483 72.698538 
C 238.385483 71.694786 237.971153 70.732009 237.233747 70.022248 
C 236.49634 69.312488 235.496061 68.913692 234.45321 68.913692 
C 233.410359 68.913692 232.41008 69.312488 231.672673 70.022248 
C 230.935267 70.732009 230.520938 71.694786 230.520938 72.698538 
C 230.520938 73.702291 230.935267 74.665068 231.672673 75.374829 
C 232.41008 76.084589 233.410359 76.483385 234.45321 76.483385 
z
" style="fill:none;stroke:#000000;stroke-linejoin:miter;"/>
   </g>
   <g id="line2d_77">
    <path clip-path="url(#pc35fcf5877)" d="M 174.702833 193.436797 
L 175.186805 174.424422 
L 175.690943 174.085489 
L 176.174915 179.842658 
L 176.699218 172.771266 
L 177.203356 175.346652 
L 177.707493 195.742552 
L 178.21163 168.129796 
L 178.715768 155.285353 
L 179.229988 181.400884 
L 179.784539 183.84741 
L 180.228181 209.405633 
L 181.740593 261.002142 
L 182.254813 213.600967 
L 182.758951 257.872697 
L 183.253006 246.197374 
L 183.757143 215.490185 
L 184.251198 254.804252 
L 185.269556 215.268922 
L 185.773693 257.468432 
L 186.771885 182.043016 
L 187.316354 185.826144 
L 187.78016 241.314789 
L 188.29438 255.44133 
L 188.798518 211.158772 
L 189.302656 198.995804 
L 190.300848 83.50049 
L 190.845316 206.473266 
L 191.319206 204.845738 
L 191.823343 145.06755 
L 192.327481 150.710298 
L 192.821535 178.777131 
L 193.345838 160.045215 
L 193.839893 187.255149 
L 194.333948 194.335926 
L 195.342223 218.699761 
L 195.84636 195.10042 
L 196.36058 213.91716 
L 196.854635 214.095831 
L 197.378938 186.258924 
L 197.883076 202.968432 
L 198.377131 230.467488 
L 198.871185 137.117965 
L 199.375323 136.284167 
L 200.383598 254.057805 
L 200.887735 215.77317 
L 201.401956 199.021432 
L 201.89601 209.083303 
L 202.420313 164.534002 
L 202.914368 233.566613 
L 203.408423 207.05909 
L 203.922643 243.893062 
L 204.426781 222.539198 
L 205.435055 249.567213 
L 205.939193 225.603311 
L 206.443331 242.942317 
L 206.947468 254.808583 
L 207.94566 110.787668 
L 208.480046 133.605911 
L 208.964018 252.353033 
L 209.972293 223.766792 
L 210.476431 225.188579 
L 210.970485 205.171316 
L 211.484705 288.3727 
L 211.988843 274.008292 
L 212.513146 250.365276 
L 212.987035 260.42065 
L 214.50953 196.79292 
L 215.517806 212.943675 
L 216.01186 130.312954 
L 216.515998 142.192936 
L 217.020135 171.522375 
L 217.524273 187.485436 
L 218.02841 173.598205 
L 218.532548 225.193271 
L 219.046768 231.996476 
L 219.540823 202.106841 
L 220.569263 176.772769 
L 221.063318 228.066441 
L 221.567455 256.153126 
L 222.071593 227.017517 
L 222.575731 231.460464 
L 223.079868 156.658411 
L 223.584005 153.476266 
L 224.07806 233.383611 
L 224.582198 215.461669 
L 225.590473 212.092913 
L 226.104693 220.298414 
L 227.123051 260.988787 
L 227.607023 195.750132 
L 228.121243 279.731171 
L 228.615298 194.39801 
L 229.139601 143.290589 
L 229.633655 146.630108 
L 230.641931 148.957159 
L 231.640123 188.570816 
L 232.184591 167.940658 
L 232.65848 184.613348 
L 233.162618 188.532916 
L 233.686921 173.096844 
L 234.191059 187.032803 
L 234.675031 195.466786 
L 235.693388 160.11163 
L 236.187443 194.158699 
L 236.69158 84.189184 
L 237.185635 176.338184 
L 237.689773 178.350126 
L 238.19391 142.625717 
L 238.698048 138.501851 
L 239.232434 154.785797 
L 239.726488 175.755248 
L 240.734763 187.373541 
L 241.238901 172.683555 
L 241.722873 213.437095 
L 242.237093 206.287016 
L 242.741231 161.668411 
L 243.235285 171.58121 
L 243.739423 168.135933 
L 244.253643 206.582274 
L 245.261918 204.924425 
L 245.766056 211.509977 
L 246.270193 212.374455 
L 246.784413 214.575535 
L 247.278468 107.70695 
L 247.772523 194.033088 
L 248.27666 160.245182 
L 248.790881 208.280909 
L 249.295018 209.893278 
L 249.799156 224.925084 
L 250.797348 226.744999 
L 251.321651 237.666296 
L 251.815706 190.068402 
L 252.319843 175.426783 
L 252.834063 198.794754 
L 253.328118 142.200155 
L 253.832255 227.422866 
L 254.336393 151.305146 
L 254.840531 252.527012 
L 255.858888 232.505417 
L 256.352943 247.832482 
L 256.836915 231.893966 
L 257.351135 242.822842 
L 257.855273 213.323756 
L 258.35941 283.231313 
L 258.873631 238.343079 
L 259.367685 206.224932 
L 259.881905 252.652984 
L 260.880098 205.325803 
L 261.394318 247.039112 
L 261.908538 234.797457 
L 262.412676 183.4565 
L 263.420951 283.458351 
L 263.915006 175.726372 
L 264.419143 254.873554 
L 264.933363 275.784171 
L 265.941638 355.199179 
L 266.42561 318.581777 
L 266.93983 327.381042 
L 267.454051 331.006795 
L 267.948106 323.501901 
L 268.44216 352.371488 
L 268.95638 356.368299 
L 269.460518 359.212955 
L 270.45871 362.239168 
L 270.962848 293.414103 
L 271.477068 357.004295 
L 271.981205 364.88891 
L 272.485343 383.028505 
L 272.979398 376.987989 
L 273.493618 394.177201 
L 273.987673 310.845513 
L 274.501893 298.382956 
L 274.995948 310.617031 
L 276.004223 310.137327 
L 276.538609 309.508911 
L 277.022581 331.306745 
L 277.546883 360.375578 
L 278.020773 395.910848 
L 278.534993 400.782605 
L 279.03913 395.762498 
L 279.543268 358.66467 
L 280.561626 363.934916 
L 281.065763 374.829141 
L 281.549735 356.511958 
L 282.04379 405.636314 
L 282.55801 396.546483 
L 283.072231 418.264186 
L 283.576368 362.451046 
L 284.090588 387.849007 
L 284.584643 395.020382 
L 285.078698 420.480787 
L 286.097056 433.265673 
L 286.601193 383.560186 
L 287.10533 391.815498 
L 287.609468 383.786863 
L 288.103523 412.559716 
L 288.617743 405.508898 
L 289.131963 411.967395 
L 289.615935 399.626118 
L 290.634293 334.713041 
L 291.128348 355.340311 
L 291.642568 435.217336 
L 293.15498 404.806487 
L 293.659118 414.076432 
L 294.163255 425.536989 
L 294.677476 405.224469 
L 295.181613 415.993082 
L 296.169723 410.827512 
L 296.683943 410.980555 
L 297.25866 414.391543 
L 297.692218 401.907328 
L 298.206438 405.987519 
L 299.184465 416.315773 
L 299.708768 399.53227 
L 300.212906 425.408491 
L 301.211098 368.326608 
L 301.725318 393.665733 
L 302.229455 348.970968 
L 302.733593 354.843642 
L 303.23773 355.943099 
L 303.741868 438.378184 
L 304.246006 409.527005 
L 304.760226 398.696308 
L 305.25428 418.88791 
L 305.778584 405.069982 
L 306.262555 408.535473 
L 306.766693 424.548344 
L 307.290996 416.541006 
L 310.426731 417.697854 
L 313.602797 392.06672 
L 316.315057 405.636314 
L 319.481041 416.214345 
L 322.112639 406.905057 
L 325.268539 367.902851 
L 327.658151 387.849007 
L 330.904796 397.619952 
L 334.141359 365.114143 
L 336.803205 402.484489 
L 339.959106 348.360961 
L 342.409214 354.713339 
L 345.323129 344.891138 
L 347.591748 376.918326 
L 350.172932 408.306991 
L 352.602874 410.957815 
L 355.284886 422.032516 
L 357.482926 394.24542 
L 360.457337 406.023975 
L 362.564632 375.487516 
L 365.518877 415.7646 
L 367.636255 418.522988 
L 370.570335 420.893715 
L 373.262429 403.603076 
L 376.388082 428.637559 
L 379.100342 312.395798 
L 381.217719 400.697781 
L 384.19213 398.82228 
L 386.692652 392.239615 
L 390.453518 390.167034 
L 392.95404 382.665388 
L 395.978865 332.235833 
L 398.812118 402.791658 
L 402.129343 391.954825 
L 405.275161 394.599874 
L 408.007586 409.778588 
L 411.123155 412.627575 
L 414.158063 404.285996 
L 416.517427 406.933572 
L 419.501921 410.509514 
L 422.012525 389.627773 
L 425.03735 398.362067 
L 427.648783 404.941483 
L 430.724021 417.034787 
L 433.053137 394.437446 
L 436.269534 406.867157 
L 439.304442 388.153288 
L 442.006619 386.360805 
L 444.920534 414.541337 
L 447.451304 402.31773 
L 450.385384 397.591076 
L 453.107726 432.139506 
L 455.930897 409.663445 
L 458.431418 398.882559 
L 461.163844 401.082555 
L 463.654283 404.693149 
L 466.306046 400.10907 
L 468.645244 399.035602 
L 471.387752 372.721909 
L 473.585792 408.06768 
L 476.287969 402.432873 
L 479.363207 405.831588 
L 482.367867 386.068435 
L 485.039796 402.440453 
L 487.358828 324.655861 
L 490.202164 315.741814 
L 492.7531 387.34945 
L 495.132629 395.479512 
L 497.219758 406.942596 
L 499.871521 408.886678 
L 502.019147 416.992195 
L 504.933062 405.253345 
L 507.292425 387.437522 
L 510.367664 398.861262 
L 512.858103 386.135211 
L 516.346735 395.081022 
L 519.280815 364.070995 
L 522.497212 365.362478 
L 525.592616 386.730419 
L 528.294793 392.103176 
L 530.684405 411.837453 
L 533.033686 397.456441 
L 535.987931 398.502477 
L 538.569116 364.090847 
L 541.37212 389.503606 
L 543.57016 406.17377 
L 545.979937 414.047917 
L 548.389714 382.6773 
L 551.797684 395.762137 
L 554.822509 367.061113 
L 557.726341 377.534469 
L 560.781414 385.376853 
L 563.251688 369.643718 
L 566.155519 385.074015 
L 568.414055 385.154146 
L 571.176729 310.96968 
L 573.737747 380.18385 
L 576.379428 372.137529 
L 579.011026 390.888936 
L 582.368582 382.471558 
L 585.101007 369.328969 
L 588.307321 374.880396 
L 591.443057 347.607295 
L 594.084737 384.66975 
L 597.361631 381.157335 
L 599.993228 358.060799 
L 602.594578 372.977823 
L 605.20601 404.605437 
L 608.32158 388.129105 
L 611.427067 392.130608 
L 614.07883 338.29945 
L 616.670097 332.517736 
L 619.957073 338.516021 
L 623.13314 325.417107 
L 626.35962 343.230403 
L 629.213038 312.46871 
L 632.600842 373.86468 
L 635.151778 372.721548 
L 638.216934 323.598997 
L 641.28209 329.635181 
L 643.833026 272.995824 
L 646.686444 352.812209 
L 649.086138 338.073856 
L 652.322701 340.80806 
L 655.055126 332.133323 
L 658.170696 346.486903 
L 661.074528 371.131919 
L 663.544802 363.279068 
L 666.529296 257.112895 
L 668.99957 270.10244 
L 671.873153 364.646351 
L 674.988723 345.752368 
L 678.074045 356.963147 
L 680.826635 353.64745 
L 683.942205 346.829085 
L 686.946865 342.240314 
L 689.2054 374.594523 
L 692.149564 359.642847 
L 694.640003 359.539976 
L 697.634579 343.242314 
L 700.377088 338.473429 
L 703.472492 294.32731 
L 706.03351 290.207414 
L 708.977673 314.011054 
L 712.466305 344.820031 
L 714.745006 349.480992 
L 717.759749 345.487791 
L 720.068698 321.720246 
L 722.891868 314.922816 
L 725.180653 324.528446 
L 728.255891 313.210464 
L 730.383352 328.021008 
L 733.287184 290.038128 
L 735.747374 340.889635 
L 738.449551 351.997543 
L 740.990405 333.524429 
L 743.712747 336.149626 
L 746.011614 324.271087 
L 749.167515 332.624939 
L 751.466382 340.800119 
L 753.543428 319.433982 
L 756.326267 334.019654 
L 758.635217 319.19792 
L 760.692098 338.86109 
L 762.880055 335.999831 
L 764.795777 322.559097 
L 767.22572 304.049526 
L 769.151525 267.181985 
L 771.652047 319.525303 
L 773.416529 320.41974 
L 775.140679 327.129459 
L 777.368966 308.901791 
L 779.052786 335.972399 
L 781.160081 346.945311 
L 783.337955 324.259176 
L 785.08227 321.838277 
L 787.20973 315.441864 
L 788.822971 308.308388 
L 790.405962 324.244016 
L 792.503174 336.826409 
L 794.691131 233.59549 
L 794.691131 233.59549 
" style="fill:none;stroke:#ff7f0e;stroke-linecap:round;"/>
   </g>
   <g id="line2d_78">
    <path clip-path="url(#pc35fcf5877)" d="M 169.086742 193.749741 
L 169.590879 130.43279 
L 170.115182 88.649457 
L 170.599154 188.988797 
L 171.103292 147.031485 
L 172.101484 187.333836 
L 172.615704 170.903344 
L 173.109759 140.736499 
L 173.613896 124.744562 
L 174.128117 119.217319 
L 174.622172 176.133886 
L 175.126309 188.342334 
L 175.630447 109.876266 
L 176.144667 203.300145 
L 177.142859 187.94998 
L 177.646997 201.121445 
L 178.161217 234.84438 
L 178.655272 230.154182 
L 179.159409 220.549996 
L 179.673629 227.308083 
L 180.167684 252.634575 
L 180.681904 207.116481 
L 181.175959 243.588781 
L 182.194317 206.342963 
L 182.698454 247.169415 
L 183.202592 207.108901 
L 183.706729 209.850685 
L 184.715004 170.600506 
L 185.219142 206.029657 
L 185.723279 214.032303 
L 186.217334 195.668196 
L 187.235692 202.004331 
L 188.254049 130.90347 
L 188.748104 147.378359 
L 189.262325 206.038681 
L 189.756379 185.24032 
L 190.260517 209.505616 
L 190.754572 127.03227 
L 191.258709 169.564938 
L 192.277067 241.289161 
L 192.781204 205.840158 
L 193.285342 199.803974 
L 193.789479 192.310269 
L 194.293617 244.509567 
L 194.797754 230.190638 
L 195.322057 210.103712 
L 195.806029 206.351987 
L 196.310167 192.467643 
L 197.308359 120.843403 
L 197.822579 208.165766 
L 198.326717 128.61865 
L 198.830854 185.720024 
L 199.334992 181.453944 
L 199.829047 214.117127 
L 200.353349 166.824958 
L 200.847404 188.203007 
L 201.341459 228.763077 
L 201.89601 222.431634 
L 202.379982 222.572405 
L 202.863954 202.205381 
L 203.358009 216.920995 
L 203.872229 236.314173 
L 204.366284 188.522087 
L 204.880504 192.882376 
L 205.384642 219.443321 
L 205.878697 209.239234 
L 206.897054 193.734943 
L 207.401192 215.652252 
L 207.905329 210.145943 
L 208.399384 239.072561 
L 208.923687 194.101308 
L 209.417742 213.735602 
L 209.921879 227.303391 
L 210.426017 217.906391 
L 210.930154 154.404271 
L 211.434292 159.548546 
L 212.442567 161.274614 
L 212.946704 161.531972 
L 213.450842 207.313199 
L 213.954979 167.325597 
L 214.459117 165.917888 
L 214.963254 159.475995 
L 215.467392 138.833565 
L 216.001778 143.725174 
L 216.475667 120.146768 
L 217.473859 117.290201 
L 217.977997 187.117266 
L 218.492217 226.015156 
L 218.996354 205.701192 
L 220.004629 190.031946 
L 220.508767 176.854344 
L 221.012904 159.457586 
L 222.041345 136.813683 
L 222.525317 217.452315 
L 223.04962 229.787817 
L 223.533592 168.383906 
L 224.037729 228.921895 
L 224.541867 202.430975 
L 225.046004 220.907338 
L 225.550142 230.844321 
L 226.054279 209.74637 
L 226.5685 219.087423 
L 227.556609 155.047847 
L 228.080912 141.128492 
L 228.564884 94.444526 
L 229.069022 136.396062 
L 229.583242 149.677978 
L 230.067214 102.530912 
L 230.591517 158.340443 
L 231.11582 133.452867 
L 231.599792 178.59846 
L 232.61815 154.708553 
L 233.142452 105.386035 
L 233.616342 180.351599 
L 234.120479 72.271663 
L 234.6347 145.860921 
L 235.128754 135.293718 
L 235.632892 144.094427 
L 236.126947 135.872322 
L 237.145304 139.173942 
L 237.649442 167.228863 
L 238.143497 87.355086 
L 238.6678 168.824266 
L 239.161854 159.348579 
L 239.665992 121.014494 
L 240.160046 196.437383 
L 240.664184 136.441181 
L 241.208653 156.978213 
L 241.672459 182.839274 
L 242.721065 188.230078 
L 243.194954 183.159798 
L 243.689009 198.438857 
L 244.193147 202.061362 
L 244.707367 79.782333 
L 245.201422 212.677293 
L 245.715642 215.447953 
L 246.219779 202.076882 
L 247.228054 190.230108 
L 247.732192 175.183141 
L 248.236329 222.306023 
L 248.740467 192.190794 
L 249.244604 146.722511 
L 249.768907 182.618011 
L 250.242796 202.277932 
L 250.746934 214.819177 
L 251.291402 193.892317 
L 251.765292 227.46257 
L 252.773567 225.126134 
L 253.277704 226.182999 
L 254.275897 196.621829 
L 254.790117 212.477326 
L 255.294254 251.432608 
L 255.788309 250.100338 
L 256.302529 225.683442 
L 256.806667 272.240354 
L 257.814942 263.740678 
L 258.319079 262.45858 
L 258.823217 262.611623 
L 259.337437 258.794927 
L 259.831492 287.704941 
L 260.345712 243.554129 
L 260.859932 295.188539 
L 261.333821 222.0696 
L 261.848042 297.706173 
L 263.360454 313.77066 
L 263.884757 315.467491 
L 264.368729 324.893367 
L 264.872867 340.900464 
L 265.377004 343.378753 
L 265.871059 316.371674 
L 266.385279 337.116975 
L 266.889417 317.843271 
L 267.897692 368.089102 
L 268.391747 306.032953 
L 268.895884 289.362789 
L 269.410104 292.669101 
L 269.914242 342.43992 
L 270.428462 368.971988 
L 270.962848 354.777227 
L 271.436737 334.589956 
L 271.920709 334.50405 
L 272.949149 365.888022 
L 273.453287 297.321399 
L 273.957425 342.595851 
L 274.461562 332.210567 
L 274.955617 338.308474 
L 275.459754 362.340595 
L 275.963892 333.894043 
L 276.468029 369.428952 
L 276.962084 341.56317 
L 277.970359 373.974048 
L 278.988717 269.056404 
L 279.492854 367.509054 
L 280.017157 368.169233 
L 280.491047 306.373329 
L 281.005267 257.635191 
L 281.509404 358.755629 
L 282.527762 395.833605 
L 283.021817 389.013074 
L 283.515872 386.914865 
L 284.040175 374.671766 
L 284.524147 352.247321 
L 285.038367 372.016249 
L 285.542504 376.900278 
L 286.036559 386.415309 
L 286.550779 335.999831 
L 287.044834 402.067952 
L 288.053109 357.105722 
L 288.567329 324.851136 
L 289.071467 353.104219 
L 289.585687 354.386317 
L 290.079742 319.278412 
L 290.593962 364.735867 
L 291.108182 375.817786 
L 291.592154 365.143019 
L 292.086209 344.563756 
L 293.104567 385.977836 
L 293.608704 367.863507 
L 294.112842 381.49338 
L 294.616979 370.93845 
L 295.111034 338.388605 
L 295.615171 363.638215 
L 296.129392 381.670607 
L 299.214713 361.680777 
L 302.562186 398.434618 
L 306.343217 371.936118 
L 308.803409 390.852841 
L 311.949227 346.031022 
L 314.338838 369.836105 
L 317.293084 390.799781 
L 320.257412 369.232234 
L 323.665382 368.609954 
L 326.629711 344.377866 
L 329.190729 378.904639 
L 331.933237 380.409805 
L 334.665662 382.574429 
L 337.448501 383.249407 
L 339.767534 393.544453 
L 342.469711 393.912623 
L 344.728247 405.960087 
L 347.077528 372.197808 
L 349.386477 371.212411 
L 352.028158 357.606722 
L 354.165701 379.366296 
L 356.928374 393.052477 
L 359.176828 384.798609 
L 362.040328 338.44347 
L 364.187954 335.48331 
L 366.880049 341.687698 
L 369.249495 377.450007 
L 372.112996 383.847503 
L 374.331201 389.078406 
L 377.154371 366.608481 
L 379.251583 393.302255 
L 381.610946 388.133436 
L 383.950144 356.336175 
L 386.511163 361.838152 
L 389.173009 332.245218 
L 391.754193 360.168031 
L 393.911901 362.090817 
L 396.402341 395.819889 
L 398.570132 385.095311 
L 401.352971 287.375031 
L 403.84341 344.380754 
L 406.061615 298.428436 
L 408.360482 355.839867 
L 411.153404 385.915753 
L 413.361526 358.816269 
L 415.993124 343.239426 
L 417.979426 298.193817 
L 423.131711 393.324995 
L 425.541488 398.672124 
L 428.808299 377.059458 
L 431.076918 395.639774 
L 433.668185 397.859262 
L 436.098127 380.103719 
L 438.497822 372.691589 
L 440.72611 350.277611 
L 442.924149 390.707378 
L 445.263347 414.986751 
L 447.279897 405.139645 
L 449.407357 376.605381 
L 451.413824 357.196321 
L 453.490871 354.445513 
L 455.547752 381.575316 
L 457.523971 409.880015 
L 459.752259 365.824134 
L 461.909967 394.874919 
L 463.9366 396.823694 
L 465.993481 387.823379 
L 468.362927 350.22022 
L 470.329063 378.173353 
L 472.960661 382.750212 
L 474.856218 375.69037 
L 477.578561 377.855355 
L 479.685856 386.798278 
L 481.86373 392.717875 
L 483.850031 355.681048 
L 486.491712 392.146851 
L 488.840993 364.987089 
L 491.805321 370.750755 
L 494.164685 369.700027 
L 496.776117 363.589486 
L 499.034653 297.341251 
L 501.988898 351.478134 
L 504.328097 368.2934 
L 507.423501 388.259408 
L 509.893775 346.822948 
L 512.656448 362.864335 
L 515.298128 381.281502 
L 517.98014 370.405325 
L 520.127766 375.271306 
L 522.940853 384.285337 
L 525.310299 356.580178 
L 528.083056 388.696881 
L 530.462585 377.74346 
L 532.842113 403.501649 
L 535.43338 371.489261 
L 538.125475 383.617938 
L 540.323514 357.364524 
L 543.237429 388.406315 
L 545.354806 372.378283 
L 548.278804 305.327293 
L 550.285271 332.894569 
L 552.705131 330.139069 
L 554.963667 345.445198 
L 557.494437 327.904782 
L 559.752973 374.477936 
L 562.122419 376.777555 
L 564.915341 352.621266 
L 567.909918 350.831671 
L 570.339861 312.444526 
L 573.556258 327.317514 
L 575.855125 365.932058 
L 578.809371 344.108236 
L 581.067907 276.677525 
L 584.082649 354.536473 
L 586.986481 334.155732 
L 589.991141 362.816329 
L 593.852834 359.143291 
L 596.413852 349.531164 
L 599.640332 372.261335 
L 602.695405 371.780187 
L 605.337086 383.717561 
L 608.281249 375.850994 
L 610.801937 338.705159 
L 614.048582 308.062941 
L 616.38778 277.953848 
L 619.271447 366.258719 
L 621.862713 353.658279 
L 624.474146 314.129446 
L 627.176323 385.772094 
L 630.191065 382.432214 
L 633.054566 345.694977 
L 635.373598 342.429452 
L 638.126189 370.708163 
L 640.36456 374.397805 
L 643.147399 377.112156 
L 645.869741 333.580376 
L 650.316234 372.565617 
L 652.655432 329.074985 
L 654.984547 351.228356 
L 657.233 363.92878 
L 659.844433 366.962574 
L 662.18363 366.117948 
L 665.057214 363.672866 
L 666.741034 373.259004 
L 669.614617 363.085598 
L 671.691664 383.154477 
L 674.615661 378.043049 
L 676.682625 383.905255 
L 679.092402 393.008441 
L 681.280359 358.097255 
L 683.62964 353.347861 
L 685.857928 227.392546 
L 688.156795 319.885171 
L 690.30442 335.810693 
L 692.32097 346.118733 
L 694.398017 324.455894 
L 696.424649 334.744804 
L 698.521861 376.180903 
L 700.377088 370.449361 
L 702.464217 382.299023 
L 704.964739 376.732075 
L 706.739303 381.634151 
L 709.44148 388.630466 
L 711.115216 358.654202 
L 713.908138 385.942824 
L 715.632288 386.366942 
L 717.789997 300.668859 
L 719.473816 390.330184 
L 721.157635 378.230744 
L 723.476668 367.332188 
L 724.918501 379.62979 
L 726.531741 375.899361 
L 728.709615 370.416153 
L 730.322855 395.230817 
L 731.926012 411.015206 
L 733.690493 385.075459 
L 735.535637 409.846808 
L 737.360615 377.499457 
L 739.185592 388.955683 
L 740.78875 393.819859 
L 742.139838 386.230502 
L 743.622002 346.315812 
L 745.22516 352.885843 
L 746.858565 384.60153 
L 748.481888 408.355358 
L 750.558934 404.215971 
L 752.283085 409.91611 
L 754.471041 412.329429 
L 756.054033 376.343331 
L 758.050418 421.534042 
L 759.85523 390.668034 
L 761.549132 389.549086 
L 763.283365 398.808203 
L 764.785694 425.874479 
L 766.378769 392.89799 
L 768.919622 390.357616 
L 770.421952 402.538632 
L 772.075523 366.025545 
L 776.592595 440.267402 
L 778.679724 448.041566 
L 780.111475 428.197199 
L 781.45248 396.337493 
L 782.95481 413.991609 
L 784.426892 441.019985 
L 786.030049 431.7652 
L 787.562627 409.834535 
L 789.528763 421.85962 
L 790.900017 398.143692 
L 792.513257 415.970342 
L 794.176911 416.144682 
L 795.648992 382.783419 
L 797.443722 435.71978 
L 799.399775 424.866342 
L 800.952519 429.311454 
L 802.807745 439.709011 
L 802.807745 439.709011 
" style="fill:none;stroke:#ffdead;stroke-linecap:round;"/>
   </g>
   <g id="patch_5">
    <path d="M 117.09 454.968 
L 117.09 61.344 
" style="fill:none;stroke:#262626;stroke-linecap:square;stroke-linejoin:miter;stroke-width:1.25;"/>
   </g>
   <g id="patch_6">
    <path d="M 843.048 454.968 
L 843.048 61.344 
" style="fill:none;stroke:#262626;stroke-linecap:square;stroke-linejoin:miter;stroke-width:1.25;"/>
   </g>
   <g id="patch_7">
    <path d="M 117.09 454.968 
L 843.048 454.968 
" style="fill:none;stroke:#262626;stroke-linecap:square;stroke-linejoin:miter;stroke-width:1.25;"/>
   </g>
   <g id="patch_8">
    <path d="M 117.09 61.344 
L 843.048 61.344 
" style="fill:none;stroke:#262626;stroke-linecap:square;stroke-linejoin:miter;stroke-width:1.25;"/>
   </g>
   <g id="text_16">
    <!-- 0.395 -->
    <defs>
     <path d="M 10.984375 1.515625 
L 10.984375 10.5 
Q 14.703125 8.734375 18.5 7.8125 
Q 22.3125 6.890625 25.984375 6.890625 
Q 35.75 6.890625 40.890625 13.453125 
Q 46.046875 20.015625 46.78125 33.40625 
Q 43.953125 29.203125 39.59375 26.953125 
Q 35.25 24.703125 29.984375 24.703125 
Q 19.046875 24.703125 12.671875 31.3125 
Q 6.296875 37.9375 6.296875 49.421875 
Q 6.296875 60.640625 12.9375 67.421875 
Q 19.578125 74.21875 30.609375 74.21875 
Q 43.265625 74.21875 49.921875 64.515625 
Q 56.59375 54.828125 56.59375 36.375 
Q 56.59375 19.140625 48.40625 8.859375 
Q 40.234375 -1.421875 26.421875 -1.421875 
Q 22.703125 -1.421875 18.890625 -0.6875 
Q 15.09375 0.046875 10.984375 1.515625 
z
M 30.609375 32.421875 
Q 37.25 32.421875 41.125 36.953125 
Q 45.015625 41.5 45.015625 49.421875 
Q 45.015625 57.28125 41.125 61.84375 
Q 37.25 66.40625 30.609375 66.40625 
Q 23.96875 66.40625 20.09375 61.84375 
Q 16.21875 57.28125 16.21875 49.421875 
Q 16.21875 41.5 20.09375 36.953125 
Q 23.96875 32.421875 30.609375 32.421875 
z
" id="DejaVuSans-39"/>
    </defs>
    <g style="fill:#262626;" transform="translate(147.33825 96.164585)scale(0.12 -0.12)">
     <use xlink:href="#DejaVuSans-30"/>
     <use x="63.623047" xlink:href="#DejaVuSans-2e"/>
     <use x="95.410156" xlink:href="#DejaVuSans-33"/>
     <use x="159.033203" xlink:href="#DejaVuSans-39"/>
     <use x="222.65625" xlink:href="#DejaVuSans-35"/>
    </g>
   </g>
   <g id="text_17">
    <!-- 0.402 -->
    <g style="fill:#262626;" transform="translate(244.13265 84.053077)scale(0.12 -0.12)">
     <use xlink:href="#DejaVuSans-30"/>
     <use x="63.623047" xlink:href="#DejaVuSans-2e"/>
     <use x="95.410156" xlink:href="#DejaVuSans-34"/>
     <use x="159.033203" xlink:href="#DejaVuSans-30"/>
     <use x="222.65625" xlink:href="#DejaVuSans-32"/>
    </g>
   </g>
   <g id="legend_1">
    <g id="patch_9">
     <path d="M 611.070461 112.708844 
L 833.423 112.708844 
Q 836.173 112.708844 836.173 109.958844 
L 836.173 70.969 
Q 836.173 68.219 833.423 68.219 
L 611.070461 68.219 
Q 608.320461 68.219 608.320461 70.969 
L 608.320461 109.958844 
Q 608.320461 112.708844 611.070461 112.708844 
z
" style="fill:#ffffff;opacity:0.8;stroke:#cccccc;stroke-linejoin:miter;"/>
    </g>
    <g id="line2d_79">
     <path d="M 613.820461 79.354352 
L 641.320461 79.354352 
" style="fill:none;stroke:#ff7f0e;stroke-linecap:round;"/>
    </g>
    <g id="line2d_80"/>
    <g id="text_18">
     <!-- Own Vessel no Wind Case -->
     <defs>
      <path d="M 39.40625 66.21875 
Q 28.65625 66.21875 22.328125 58.203125 
Q 16.015625 50.203125 16.015625 36.375 
Q 16.015625 22.609375 22.328125 14.59375 
Q 28.65625 6.59375 39.40625 6.59375 
Q 50.140625 6.59375 56.421875 14.59375 
Q 62.703125 22.609375 62.703125 36.375 
Q 62.703125 50.203125 56.421875 58.203125 
Q 50.140625 66.21875 39.40625 66.21875 
z
M 39.40625 74.21875 
Q 54.734375 74.21875 63.90625 63.9375 
Q 73.09375 53.65625 73.09375 36.375 
Q 73.09375 19.140625 63.90625 8.859375 
Q 54.734375 -1.421875 39.40625 -1.421875 
Q 24.03125 -1.421875 14.8125 8.828125 
Q 5.609375 19.09375 5.609375 36.375 
Q 5.609375 53.65625 14.8125 63.9375 
Q 24.03125 74.21875 39.40625 74.21875 
z
" id="DejaVuSans-4f"/>
      <path d="M 4.203125 54.6875 
L 13.1875 54.6875 
L 24.421875 12.015625 
L 35.59375 54.6875 
L 46.1875 54.6875 
L 57.421875 12.015625 
L 68.609375 54.6875 
L 77.59375 54.6875 
L 63.28125 0 
L 52.6875 0 
L 40.921875 44.828125 
L 29.109375 0 
L 18.5 0 
z
" id="DejaVuSans-77"/>
      <path d="M 28.609375 0 
L 0.78125 72.90625 
L 11.078125 72.90625 
L 34.1875 11.53125 
L 57.328125 72.90625 
L 67.578125 72.90625 
L 39.796875 0 
z
" id="DejaVuSans-56"/>
      <path d="M 3.328125 72.90625 
L 13.28125 72.90625 
L 28.609375 11.28125 
L 43.890625 72.90625 
L 54.984375 72.90625 
L 70.3125 11.28125 
L 85.59375 72.90625 
L 95.609375 72.90625 
L 77.296875 0 
L 64.890625 0 
L 49.515625 63.28125 
L 33.984375 0 
L 21.578125 0 
z
" id="DejaVuSans-57"/>
      <path d="M 45.40625 46.390625 
L 45.40625 75.984375 
L 54.390625 75.984375 
L 54.390625 0 
L 45.40625 0 
L 45.40625 8.203125 
Q 42.578125 3.328125 38.25 0.953125 
Q 33.9375 -1.421875 27.875 -1.421875 
Q 17.96875 -1.421875 11.734375 6.484375 
Q 5.515625 14.40625 5.515625 27.296875 
Q 5.515625 40.1875 11.734375 48.09375 
Q 17.96875 56 27.875 56 
Q 33.9375 56 38.25 53.625 
Q 42.578125 51.265625 45.40625 46.390625 
z
M 14.796875 27.296875 
Q 14.796875 17.390625 18.875 11.75 
Q 22.953125 6.109375 30.078125 6.109375 
Q 37.203125 6.109375 41.296875 11.75 
Q 45.40625 17.390625 45.40625 27.296875 
Q 45.40625 37.203125 41.296875 42.84375 
Q 37.203125 48.484375 30.078125 48.484375 
Q 22.953125 48.484375 18.875 42.84375 
Q 14.796875 37.203125 14.796875 27.296875 
z
" id="DejaVuSans-64"/>
     </defs>
     <g style="fill:#262626;" transform="translate(652.320461 84.166852)scale(0.1375 -0.1375)">
      <use xlink:href="#DejaVuSans-4f"/>
      <use x="78.710938" xlink:href="#DejaVuSans-77"/>
      <use x="160.498047" xlink:href="#DejaVuSans-6e"/>
      <use x="223.876953" xlink:href="#DejaVuSans-20"/>
      <use x="255.664062" xlink:href="#DejaVuSans-56"/>
      <use x="323.962891" xlink:href="#DejaVuSans-65"/>
      <use x="385.486328" xlink:href="#DejaVuSans-73"/>
      <use x="437.585938" xlink:href="#DejaVuSans-73"/>
      <use x="489.685547" xlink:href="#DejaVuSans-65"/>
      <use x="551.208984" xlink:href="#DejaVuSans-6c"/>
      <use x="578.992188" xlink:href="#DejaVuSans-20"/>
      <use x="610.779297" xlink:href="#DejaVuSans-6e"/>
      <use x="674.158203" xlink:href="#DejaVuSans-6f"/>
      <use x="735.339844" xlink:href="#DejaVuSans-20"/>
      <use x="767.126953" xlink:href="#DejaVuSans-57"/>
      <use x="865.972656" xlink:href="#DejaVuSans-69"/>
      <use x="893.755859" xlink:href="#DejaVuSans-6e"/>
      <use x="957.134766" xlink:href="#DejaVuSans-64"/>
      <use x="1020.611328" xlink:href="#DejaVuSans-20"/>
      <use x="1052.398438" xlink:href="#DejaVuSans-43"/>
      <use x="1122.222656" xlink:href="#DejaVuSans-61"/>
      <use x="1183.501953" xlink:href="#DejaVuSans-73"/>
      <use x="1235.601562" xlink:href="#DejaVuSans-65"/>
     </g>
    </g>
    <g id="line2d_81">
     <path d="M 613.820461 99.536773 
L 641.320461 99.536773 
" style="fill:none;stroke:#ffdead;stroke-linecap:round;"/>
    </g>
    <g id="line2d_82"/>
    <g id="text_19">
     <!-- Own Vessel Wind Case -->
     <g style="fill:#262626;" transform="translate(652.320461 104.349273)scale(0.1375 -0.1375)">
      <use xlink:href="#DejaVuSans-4f"/>
      <use x="78.710938" xlink:href="#DejaVuSans-77"/>
      <use x="160.498047" xlink:href="#DejaVuSans-6e"/>
      <use x="223.876953" xlink:href="#DejaVuSans-20"/>
      <use x="255.664062" xlink:href="#DejaVuSans-56"/>
      <use x="323.962891" xlink:href="#DejaVuSans-65"/>
      <use x="385.486328" xlink:href="#DejaVuSans-73"/>
      <use x="437.585938" xlink:href="#DejaVuSans-73"/>
      <use x="489.685547" xlink:href="#DejaVuSans-65"/>
      <use x="551.208984" xlink:href="#DejaVuSans-6c"/>
      <use x="578.992188" xlink:href="#DejaVuSans-20"/>
      <use x="610.779297" xlink:href="#DejaVuSans-57"/>
      <use x="709.625" xlink:href="#DejaVuSans-69"/>
      <use x="737.408203" xlink:href="#DejaVuSans-6e"/>
      <use x="800.787109" xlink:href="#DejaVuSans-64"/>
      <use x="864.263672" xlink:href="#DejaVuSans-20"/>
      <use x="896.050781" xlink:href="#DejaVuSans-43"/>
      <use x="965.875" xlink:href="#DejaVuSans-61"/>
      <use x="1027.154297" xlink:href="#DejaVuSans-73"/>
      <use x="1079.253906" xlink:href="#DejaVuSans-65"/>
     </g>
    </g>
   </g>
  </g>
 </g>
 <defs>
  <clipPath id="pc35fcf5877">
   <rect height="393.624" width="725.958" x="117.09" y="61.344"/>
  </clipPath>
 </defs>
</svg>
