<?xml version="1.0" encoding="utf-8" standalone="no"?>
<!DOCTYPE svg PUBLIC "-//W3C//DTD SVG 1.1//EN"
  "http://www.w3.org/Graphics/SVG/1.1/DTD/svg11.dtd">
<!-- Created with matplotlib (http://matplotlib.org/) -->
<svg height="511.2pt" version="1.1" viewBox="0 0 936.72 511.2" width="936.72pt" xmlns="http://www.w3.org/2000/svg" xmlns:xlink="http://www.w3.org/1999/xlink">
 <defs>
  <style type="text/css">
*{stroke-linecap:butt;stroke-linejoin:round;}
  </style>
 </defs>
 <g id="figure_1">
  <g id="patch_1">
   <path d="M 0 511.2 
L 936.72 511.2 
L 936.72 0 
L 0 0 
z
" style="fill:#ffffff;"/>
  </g>
  <g id="axes_1">
   <g id="patch_2">
    <path d="M 117.09 454.968 
L 843.048 454.968 
L 843.048 61.344 
L 117.09 61.344 
z
" style="fill:#ffffff;"/>
   </g>
   <g id="matplotlib.axis_1">
    <g id="xtick_1">
     <g id="line2d_1">
      <path clip-path="url(#p64df309740)" d="M 117.09 454.968 
L 117.09 61.344 
" style="fill:none;stroke:#cccccc;stroke-linecap:round;stroke-opacity:0.5;"/>
     </g>
     <g id="line2d_2">
      <defs>
       <path d="M 0 0 
L 0 6 
" id="m8a22de4423" style="stroke:#262626;stroke-width:1.25;"/>
      </defs>
      <g>
       <use style="fill:#262626;stroke:#262626;stroke-width:1.25;" x="117.09" xlink:href="#m8a22de4423" y="454.968"/>
      </g>
     </g>
     <g id="text_1">
      <!-- 0.0 -->
      <defs>
       <path d="M 31.78125 66.40625 
Q 24.171875 66.40625 20.328125 58.90625 
Q 16.5 51.421875 16.5 36.375 
Q 16.5 21.390625 20.328125 13.890625 
Q 24.171875 6.390625 31.78125 6.390625 
Q 39.453125 6.390625 43.28125 13.890625 
Q 47.125 21.390625 47.125 36.375 
Q 47.125 51.421875 43.28125 58.90625 
Q 39.453125 66.40625 31.78125 66.40625 
z
M 31.78125 74.21875 
Q 44.046875 74.21875 50.515625 64.515625 
Q 56.984375 54.828125 56.984375 36.375 
Q 56.984375 17.96875 50.515625 8.265625 
Q 44.046875 -1.421875 31.78125 -1.421875 
Q 19.53125 -1.421875 13.0625 8.265625 
Q 6.59375 17.96875 6.59375 36.375 
Q 6.59375 54.828125 13.0625 64.515625 
Q 19.53125 74.21875 31.78125 74.21875 
z
" id="DejaVuSans-30"/>
       <path d="M 10.6875 12.40625 
L 21 12.40625 
L 21 0 
L 10.6875 0 
z
" id="DejaVuSans-2e"/>
      </defs>
      <g style="fill:#262626;" transform="translate(106.156602 474.915852)scale(0.1375 -0.1375)">
       <use xlink:href="#DejaVuSans-30"/>
       <use x="63.623047" xlink:href="#DejaVuSans-2e"/>
       <use x="95.410156" xlink:href="#DejaVuSans-30"/>
      </g>
     </g>
    </g>
    <g id="xtick_2">
     <g id="line2d_3">
      <path clip-path="url(#p64df309740)" d="M 238.083 454.968 
L 238.083 61.344 
" style="fill:none;stroke:#cccccc;stroke-linecap:round;stroke-opacity:0.5;"/>
     </g>
     <g id="line2d_4">
      <g>
       <use style="fill:#262626;stroke:#262626;stroke-width:1.25;" x="238.083" xlink:href="#m8a22de4423" y="454.968"/>
      </g>
     </g>
     <g id="text_2">
      <!-- 0.1 -->
      <defs>
       <path d="M 12.40625 8.296875 
L 28.515625 8.296875 
L 28.515625 63.921875 
L 10.984375 60.40625 
L 10.984375 69.390625 
L 28.421875 72.90625 
L 38.28125 72.90625 
L 38.28125 8.296875 
L 54.390625 8.296875 
L 54.390625 0 
L 12.40625 0 
z
" id="DejaVuSans-31"/>
      </defs>
      <g style="fill:#262626;" transform="translate(227.149602 474.915852)scale(0.1375 -0.1375)">
       <use xlink:href="#DejaVuSans-30"/>
       <use x="63.623047" xlink:href="#DejaVuSans-2e"/>
       <use x="95.410156" xlink:href="#DejaVuSans-31"/>
      </g>
     </g>
    </g>
    <g id="xtick_3">
     <g id="line2d_5">
      <path clip-path="url(#p64df309740)" d="M 359.076 454.968 
L 359.076 61.344 
" style="fill:none;stroke:#cccccc;stroke-linecap:round;stroke-opacity:0.5;"/>
     </g>
     <g id="line2d_6">
      <g>
       <use style="fill:#262626;stroke:#262626;stroke-width:1.25;" x="359.076" xlink:href="#m8a22de4423" y="454.968"/>
      </g>
     </g>
     <g id="text_3">
      <!-- 0.2 -->
      <defs>
       <path d="M 19.1875 8.296875 
L 53.609375 8.296875 
L 53.609375 0 
L 7.328125 0 
L 7.328125 8.296875 
Q 12.9375 14.109375 22.625 23.890625 
Q 32.328125 33.6875 34.8125 36.53125 
Q 39.546875 41.84375 41.421875 45.53125 
Q 43.3125 49.21875 43.3125 52.78125 
Q 43.3125 58.59375 39.234375 62.25 
Q 35.15625 65.921875 28.609375 65.921875 
Q 23.96875 65.921875 18.8125 64.3125 
Q 13.671875 62.703125 7.8125 59.421875 
L 7.8125 69.390625 
Q 13.765625 71.78125 18.9375 73 
Q 24.125 74.21875 28.421875 74.21875 
Q 39.75 74.21875 46.484375 68.546875 
Q 53.21875 62.890625 53.21875 53.421875 
Q 53.21875 48.921875 51.53125 44.890625 
Q 49.859375 40.875 45.40625 35.40625 
Q 44.1875 33.984375 37.640625 27.21875 
Q 31.109375 20.453125 19.1875 8.296875 
z
" id="DejaVuSans-32"/>
      </defs>
      <g style="fill:#262626;" transform="translate(348.142602 474.915852)scale(0.1375 -0.1375)">
       <use xlink:href="#DejaVuSans-30"/>
       <use x="63.623047" xlink:href="#DejaVuSans-2e"/>
       <use x="95.410156" xlink:href="#DejaVuSans-32"/>
      </g>
     </g>
    </g>
    <g id="xtick_4">
     <g id="line2d_7">
      <path clip-path="url(#p64df309740)" d="M 480.069 454.968 
L 480.069 61.344 
" style="fill:none;stroke:#cccccc;stroke-linecap:round;stroke-opacity:0.5;"/>
     </g>
     <g id="line2d_8">
      <g>
       <use style="fill:#262626;stroke:#262626;stroke-width:1.25;" x="480.069" xlink:href="#m8a22de4423" y="454.968"/>
      </g>
     </g>
     <g id="text_4">
      <!-- 0.3 -->
      <defs>
       <path d="M 40.578125 39.3125 
Q 47.65625 37.796875 51.625 33 
Q 55.609375 28.21875 55.609375 21.1875 
Q 55.609375 10.40625 48.1875 4.484375 
Q 40.765625 -1.421875 27.09375 -1.421875 
Q 22.515625 -1.421875 17.65625 -0.515625 
Q 12.796875 0.390625 7.625 2.203125 
L 7.625 11.71875 
Q 11.71875 9.328125 16.59375 8.109375 
Q 21.484375 6.890625 26.8125 6.890625 
Q 36.078125 6.890625 40.9375 10.546875 
Q 45.796875 14.203125 45.796875 21.1875 
Q 45.796875 27.640625 41.28125 31.265625 
Q 36.765625 34.90625 28.71875 34.90625 
L 20.21875 34.90625 
L 20.21875 43.015625 
L 29.109375 43.015625 
Q 36.375 43.015625 40.234375 45.921875 
Q 44.09375 48.828125 44.09375 54.296875 
Q 44.09375 59.90625 40.109375 62.90625 
Q 36.140625 65.921875 28.71875 65.921875 
Q 24.65625 65.921875 20.015625 65.03125 
Q 15.375 64.15625 9.8125 62.3125 
L 9.8125 71.09375 
Q 15.4375 72.65625 20.34375 73.4375 
Q 25.25 74.21875 29.59375 74.21875 
Q 40.828125 74.21875 47.359375 69.109375 
Q 53.90625 64.015625 53.90625 55.328125 
Q 53.90625 49.265625 50.4375 45.09375 
Q 46.96875 40.921875 40.578125 39.3125 
z
" id="DejaVuSans-33"/>
      </defs>
      <g style="fill:#262626;" transform="translate(469.135602 474.915852)scale(0.1375 -0.1375)">
       <use xlink:href="#DejaVuSans-30"/>
       <use x="63.623047" xlink:href="#DejaVuSans-2e"/>
       <use x="95.410156" xlink:href="#DejaVuSans-33"/>
      </g>
     </g>
    </g>
    <g id="xtick_5">
     <g id="line2d_9">
      <path clip-path="url(#p64df309740)" d="M 601.062 454.968 
L 601.062 61.344 
" style="fill:none;stroke:#cccccc;stroke-linecap:round;stroke-opacity:0.5;"/>
     </g>
     <g id="line2d_10">
      <g>
       <use style="fill:#262626;stroke:#262626;stroke-width:1.25;" x="601.062" xlink:href="#m8a22de4423" y="454.968"/>
      </g>
     </g>
     <g id="text_5">
      <!-- 0.4 -->
      <defs>
       <path d="M 37.796875 64.3125 
L 12.890625 25.390625 
L 37.796875 25.390625 
z
M 35.203125 72.90625 
L 47.609375 72.90625 
L 47.609375 25.390625 
L 58.015625 25.390625 
L 58.015625 17.1875 
L 47.609375 17.1875 
L 47.609375 0 
L 37.796875 0 
L 37.796875 17.1875 
L 4.890625 17.1875 
L 4.890625 26.703125 
z
" id="DejaVuSans-34"/>
      </defs>
      <g style="fill:#262626;" transform="translate(590.128602 474.915852)scale(0.1375 -0.1375)">
       <use xlink:href="#DejaVuSans-30"/>
       <use x="63.623047" xlink:href="#DejaVuSans-2e"/>
       <use x="95.410156" xlink:href="#DejaVuSans-34"/>
      </g>
     </g>
    </g>
    <g id="xtick_6">
     <g id="line2d_11">
      <path clip-path="url(#p64df309740)" d="M 722.055 454.968 
L 722.055 61.344 
" style="fill:none;stroke:#cccccc;stroke-linecap:round;stroke-opacity:0.5;"/>
     </g>
     <g id="line2d_12">
      <g>
       <use style="fill:#262626;stroke:#262626;stroke-width:1.25;" x="722.055" xlink:href="#m8a22de4423" y="454.968"/>
      </g>
     </g>
     <g id="text_6">
      <!-- 0.5 -->
      <defs>
       <path d="M 10.796875 72.90625 
L 49.515625 72.90625 
L 49.515625 64.59375 
L 19.828125 64.59375 
L 19.828125 46.734375 
Q 21.96875 47.46875 24.109375 47.828125 
Q 26.265625 48.1875 28.421875 48.1875 
Q 40.625 48.1875 47.75 41.5 
Q 54.890625 34.8125 54.890625 23.390625 
Q 54.890625 11.625 47.5625 5.09375 
Q 40.234375 -1.421875 26.90625 -1.421875 
Q 22.3125 -1.421875 17.546875 -0.640625 
Q 12.796875 0.140625 7.71875 1.703125 
L 7.71875 11.625 
Q 12.109375 9.234375 16.796875 8.0625 
Q 21.484375 6.890625 26.703125 6.890625 
Q 35.15625 6.890625 40.078125 11.328125 
Q 45.015625 15.765625 45.015625 23.390625 
Q 45.015625 31 40.078125 35.4375 
Q 35.15625 39.890625 26.703125 39.890625 
Q 22.75 39.890625 18.8125 39.015625 
Q 14.890625 38.140625 10.796875 36.28125 
z
" id="DejaVuSans-35"/>
      </defs>
      <g style="fill:#262626;" transform="translate(711.121602 474.915852)scale(0.1375 -0.1375)">
       <use xlink:href="#DejaVuSans-30"/>
       <use x="63.623047" xlink:href="#DejaVuSans-2e"/>
       <use x="95.410156" xlink:href="#DejaVuSans-35"/>
      </g>
     </g>
    </g>
    <g id="xtick_7">
     <g id="line2d_13">
      <path clip-path="url(#p64df309740)" d="M 843.048 454.968 
L 843.048 61.344 
" style="fill:none;stroke:#cccccc;stroke-linecap:round;stroke-opacity:0.5;"/>
     </g>
     <g id="line2d_14">
      <g>
       <use style="fill:#262626;stroke:#262626;stroke-width:1.25;" x="843.048" xlink:href="#m8a22de4423" y="454.968"/>
      </g>
     </g>
     <g id="text_7">
      <!-- 0.6 -->
      <defs>
       <path d="M 33.015625 40.375 
Q 26.375 40.375 22.484375 35.828125 
Q 18.609375 31.296875 18.609375 23.390625 
Q 18.609375 15.53125 22.484375 10.953125 
Q 26.375 6.390625 33.015625 6.390625 
Q 39.65625 6.390625 43.53125 10.953125 
Q 47.40625 15.53125 47.40625 23.390625 
Q 47.40625 31.296875 43.53125 35.828125 
Q 39.65625 40.375 33.015625 40.375 
z
M 52.59375 71.296875 
L 52.59375 62.3125 
Q 48.875 64.0625 45.09375 64.984375 
Q 41.3125 65.921875 37.59375 65.921875 
Q 27.828125 65.921875 22.671875 59.328125 
Q 17.53125 52.734375 16.796875 39.40625 
Q 19.671875 43.65625 24.015625 45.921875 
Q 28.375 48.1875 33.59375 48.1875 
Q 44.578125 48.1875 50.953125 41.515625 
Q 57.328125 34.859375 57.328125 23.390625 
Q 57.328125 12.15625 50.6875 5.359375 
Q 44.046875 -1.421875 33.015625 -1.421875 
Q 20.359375 -1.421875 13.671875 8.265625 
Q 6.984375 17.96875 6.984375 36.375 
Q 6.984375 53.65625 15.1875 63.9375 
Q 23.390625 74.21875 37.203125 74.21875 
Q 40.921875 74.21875 44.703125 73.484375 
Q 48.484375 72.75 52.59375 71.296875 
z
" id="DejaVuSans-36"/>
      </defs>
      <g style="fill:#262626;" transform="translate(832.114602 474.915852)scale(0.1375 -0.1375)">
       <use xlink:href="#DejaVuSans-30"/>
       <use x="63.623047" xlink:href="#DejaVuSans-2e"/>
       <use x="95.410156" xlink:href="#DejaVuSans-36"/>
      </g>
     </g>
    </g>
    <g id="text_8">
     <!-- Runtime (min) -->
     <defs>
      <path d="M 44.390625 34.1875 
Q 47.5625 33.109375 50.5625 29.59375 
Q 53.5625 26.078125 56.59375 19.921875 
L 66.609375 0 
L 56 0 
L 46.6875 18.703125 
Q 43.0625 26.03125 39.671875 28.421875 
Q 36.28125 30.8125 30.421875 30.8125 
L 19.671875 30.8125 
L 19.671875 0 
L 9.8125 0 
L 9.8125 72.90625 
L 32.078125 72.90625 
Q 44.578125 72.90625 50.734375 67.671875 
Q 56.890625 62.453125 56.890625 51.90625 
Q 56.890625 45.015625 53.6875 40.46875 
Q 50.484375 35.9375 44.390625 34.1875 
z
M 19.671875 64.796875 
L 19.671875 38.921875 
L 32.078125 38.921875 
Q 39.203125 38.921875 42.84375 42.21875 
Q 46.484375 45.515625 46.484375 51.90625 
Q 46.484375 58.296875 42.84375 61.546875 
Q 39.203125 64.796875 32.078125 64.796875 
z
" id="DejaVuSans-52"/>
      <path d="M 8.5 21.578125 
L 8.5 54.6875 
L 17.484375 54.6875 
L 17.484375 21.921875 
Q 17.484375 14.15625 20.5 10.265625 
Q 23.53125 6.390625 29.59375 6.390625 
Q 36.859375 6.390625 41.078125 11.03125 
Q 45.3125 15.671875 45.3125 23.6875 
L 45.3125 54.6875 
L 54.296875 54.6875 
L 54.296875 0 
L 45.3125 0 
L 45.3125 8.40625 
Q 42.046875 3.421875 37.71875 1 
Q 33.40625 -1.421875 27.6875 -1.421875 
Q 18.265625 -1.421875 13.375 4.4375 
Q 8.5 10.296875 8.5 21.578125 
z
M 31.109375 56 
z
" id="DejaVuSans-75"/>
      <path d="M 54.890625 33.015625 
L 54.890625 0 
L 45.90625 0 
L 45.90625 32.71875 
Q 45.90625 40.484375 42.875 44.328125 
Q 39.84375 48.1875 33.796875 48.1875 
Q 26.515625 48.1875 22.3125 43.546875 
Q 18.109375 38.921875 18.109375 30.90625 
L 18.109375 0 
L 9.078125 0 
L 9.078125 54.6875 
L 18.109375 54.6875 
L 18.109375 46.1875 
Q 21.34375 51.125 25.703125 53.5625 
Q 30.078125 56 35.796875 56 
Q 45.21875 56 50.046875 50.171875 
Q 54.890625 44.34375 54.890625 33.015625 
z
" id="DejaVuSans-6e"/>
      <path d="M 18.3125 70.21875 
L 18.3125 54.6875 
L 36.8125 54.6875 
L 36.8125 47.703125 
L 18.3125 47.703125 
L 18.3125 18.015625 
Q 18.3125 11.328125 20.140625 9.421875 
Q 21.96875 7.515625 27.59375 7.515625 
L 36.8125 7.515625 
L 36.8125 0 
L 27.59375 0 
Q 17.1875 0 13.234375 3.875 
Q 9.28125 7.765625 9.28125 18.015625 
L 9.28125 47.703125 
L 2.6875 47.703125 
L 2.6875 54.6875 
L 9.28125 54.6875 
L 9.28125 70.21875 
z
" id="DejaVuSans-74"/>
      <path d="M 9.421875 54.6875 
L 18.40625 54.6875 
L 18.40625 0 
L 9.421875 0 
z
M 9.421875 75.984375 
L 18.40625 75.984375 
L 18.40625 64.59375 
L 9.421875 64.59375 
z
" id="DejaVuSans-69"/>
      <path d="M 52 44.1875 
Q 55.375 50.25 60.0625 53.125 
Q 64.75 56 71.09375 56 
Q 79.640625 56 84.28125 50.015625 
Q 88.921875 44.046875 88.921875 33.015625 
L 88.921875 0 
L 79.890625 0 
L 79.890625 32.71875 
Q 79.890625 40.578125 77.09375 44.375 
Q 74.3125 48.1875 68.609375 48.1875 
Q 61.625 48.1875 57.5625 43.546875 
Q 53.515625 38.921875 53.515625 30.90625 
L 53.515625 0 
L 44.484375 0 
L 44.484375 32.71875 
Q 44.484375 40.625 41.703125 44.40625 
Q 38.921875 48.1875 33.109375 48.1875 
Q 26.21875 48.1875 22.15625 43.53125 
Q 18.109375 38.875 18.109375 30.90625 
L 18.109375 0 
L 9.078125 0 
L 9.078125 54.6875 
L 18.109375 54.6875 
L 18.109375 46.1875 
Q 21.1875 51.21875 25.484375 53.609375 
Q 29.78125 56 35.6875 56 
Q 41.65625 56 45.828125 52.96875 
Q 50 49.953125 52 44.1875 
z
" id="DejaVuSans-6d"/>
      <path d="M 56.203125 29.59375 
L 56.203125 25.203125 
L 14.890625 25.203125 
Q 15.484375 15.921875 20.484375 11.0625 
Q 25.484375 6.203125 34.421875 6.203125 
Q 39.59375 6.203125 44.453125 7.46875 
Q 49.3125 8.734375 54.109375 11.28125 
L 54.109375 2.78125 
Q 49.265625 0.734375 44.1875 -0.34375 
Q 39.109375 -1.421875 33.890625 -1.421875 
Q 20.796875 -1.421875 13.15625 6.1875 
Q 5.515625 13.8125 5.515625 26.8125 
Q 5.515625 40.234375 12.765625 48.109375 
Q 20.015625 56 32.328125 56 
Q 43.359375 56 49.78125 48.890625 
Q 56.203125 41.796875 56.203125 29.59375 
z
M 47.21875 32.234375 
Q 47.125 39.59375 43.09375 43.984375 
Q 39.0625 48.390625 32.421875 48.390625 
Q 24.90625 48.390625 20.390625 44.140625 
Q 15.875 39.890625 15.1875 32.171875 
z
" id="DejaVuSans-65"/>
      <path id="DejaVuSans-20"/>
      <path d="M 31 75.875 
Q 24.46875 64.65625 21.28125 53.65625 
Q 18.109375 42.671875 18.109375 31.390625 
Q 18.109375 20.125 21.3125 9.0625 
Q 24.515625 -2 31 -13.1875 
L 23.1875 -13.1875 
Q 15.875 -1.703125 12.234375 9.375 
Q 8.59375 20.453125 8.59375 31.390625 
Q 8.59375 42.28125 12.203125 53.3125 
Q 15.828125 64.359375 23.1875 75.875 
z
" id="DejaVuSans-28"/>
      <path d="M 8.015625 75.875 
L 15.828125 75.875 
Q 23.140625 64.359375 26.78125 53.3125 
Q 30.421875 42.28125 30.421875 31.390625 
Q 30.421875 20.453125 26.78125 9.375 
Q 23.140625 -1.703125 15.828125 -13.1875 
L 8.015625 -13.1875 
Q 14.5 -2 17.703125 9.0625 
Q 20.90625 20.125 20.90625 31.390625 
Q 20.90625 42.671875 17.703125 53.65625 
Q 14.5 64.65625 8.015625 75.875 
z
" id="DejaVuSans-29"/>
     </defs>
     <g style="fill:#262626;" transform="translate(426.033844 493.173078)scale(0.15 -0.15)">
      <use xlink:href="#DejaVuSans-52"/>
      <use x="69.419922" xlink:href="#DejaVuSans-75"/>
      <use x="132.798828" xlink:href="#DejaVuSans-6e"/>
      <use x="196.177734" xlink:href="#DejaVuSans-74"/>
      <use x="235.386719" xlink:href="#DejaVuSans-69"/>
      <use x="263.169922" xlink:href="#DejaVuSans-6d"/>
      <use x="360.582031" xlink:href="#DejaVuSans-65"/>
      <use x="422.105469" xlink:href="#DejaVuSans-20"/>
      <use x="453.892578" xlink:href="#DejaVuSans-28"/>
      <use x="492.90625" xlink:href="#DejaVuSans-6d"/>
      <use x="590.318359" xlink:href="#DejaVuSans-69"/>
      <use x="618.101562" xlink:href="#DejaVuSans-6e"/>
      <use x="681.480469" xlink:href="#DejaVuSans-29"/>
     </g>
    </g>
   </g>
   <g id="matplotlib.axis_2">
    <g id="ytick_1">
     <g id="line2d_15">
      <path clip-path="url(#p64df309740)" d="M 117.09 454.968 
L 843.048 454.968 
" style="fill:none;stroke:#cccccc;stroke-linecap:round;stroke-opacity:0.5;"/>
     </g>
     <g id="line2d_16">
      <defs>
       <path d="M 0 0 
L -6 0 
" id="mfc6d315cca" style="stroke:#262626;stroke-width:1.25;"/>
      </defs>
      <g>
       <use style="fill:#262626;stroke:#262626;stroke-width:1.25;" x="117.09" xlink:href="#mfc6d315cca" y="454.968"/>
      </g>
     </g>
     <g id="text_9">
      <!-- 0.00 -->
      <g style="fill:#262626;" transform="translate(76.974766 460.191926)scale(0.1375 -0.1375)">
       <use xlink:href="#DejaVuSans-30"/>
       <use x="63.623047" xlink:href="#DejaVuSans-2e"/>
       <use x="95.410156" xlink:href="#DejaVuSans-30"/>
       <use x="159.033203" xlink:href="#DejaVuSans-30"/>
      </g>
     </g>
    </g>
    <g id="ytick_2">
     <g id="line2d_17">
      <path clip-path="url(#p64df309740)" d="M 117.09 411.232 
L 843.048 411.232 
" style="fill:none;stroke:#cccccc;stroke-linecap:round;stroke-opacity:0.5;"/>
     </g>
     <g id="line2d_18">
      <g>
       <use style="fill:#262626;stroke:#262626;stroke-width:1.25;" x="117.09" xlink:href="#mfc6d315cca" y="411.232"/>
      </g>
     </g>
     <g id="text_10">
      <!-- 0.05 -->
      <g style="fill:#262626;" transform="translate(76.974766 416.455926)scale(0.1375 -0.1375)">
       <use xlink:href="#DejaVuSans-30"/>
       <use x="63.623047" xlink:href="#DejaVuSans-2e"/>
       <use x="95.410156" xlink:href="#DejaVuSans-30"/>
       <use x="159.033203" xlink:href="#DejaVuSans-35"/>
      </g>
     </g>
    </g>
    <g id="ytick_3">
     <g id="line2d_19">
      <path clip-path="url(#p64df309740)" d="M 117.09 367.496 
L 843.048 367.496 
" style="fill:none;stroke:#cccccc;stroke-linecap:round;stroke-opacity:0.5;"/>
     </g>
     <g id="line2d_20">
      <g>
       <use style="fill:#262626;stroke:#262626;stroke-width:1.25;" x="117.09" xlink:href="#mfc6d315cca" y="367.496"/>
      </g>
     </g>
     <g id="text_11">
      <!-- 0.10 -->
      <g style="fill:#262626;" transform="translate(76.974766 372.719926)scale(0.1375 -0.1375)">
       <use xlink:href="#DejaVuSans-30"/>
       <use x="63.623047" xlink:href="#DejaVuSans-2e"/>
       <use x="95.410156" xlink:href="#DejaVuSans-31"/>
       <use x="159.033203" xlink:href="#DejaVuSans-30"/>
      </g>
     </g>
    </g>
    <g id="ytick_4">
     <g id="line2d_21">
      <path clip-path="url(#p64df309740)" d="M 117.09 323.76 
L 843.048 323.76 
" style="fill:none;stroke:#cccccc;stroke-linecap:round;stroke-opacity:0.5;"/>
     </g>
     <g id="line2d_22">
      <g>
       <use style="fill:#262626;stroke:#262626;stroke-width:1.25;" x="117.09" xlink:href="#mfc6d315cca" y="323.76"/>
      </g>
     </g>
     <g id="text_12">
      <!-- 0.15 -->
      <g style="fill:#262626;" transform="translate(76.974766 328.983926)scale(0.1375 -0.1375)">
       <use xlink:href="#DejaVuSans-30"/>
       <use x="63.623047" xlink:href="#DejaVuSans-2e"/>
       <use x="95.410156" xlink:href="#DejaVuSans-31"/>
       <use x="159.033203" xlink:href="#DejaVuSans-35"/>
      </g>
     </g>
    </g>
    <g id="ytick_5">
     <g id="line2d_23">
      <path clip-path="url(#p64df309740)" d="M 117.09 280.024 
L 843.048 280.024 
" style="fill:none;stroke:#cccccc;stroke-linecap:round;stroke-opacity:0.5;"/>
     </g>
     <g id="line2d_24">
      <g>
       <use style="fill:#262626;stroke:#262626;stroke-width:1.25;" x="117.09" xlink:href="#mfc6d315cca" y="280.024"/>
      </g>
     </g>
     <g id="text_13">
      <!-- 0.20 -->
      <g style="fill:#262626;" transform="translate(76.974766 285.247926)scale(0.1375 -0.1375)">
       <use xlink:href="#DejaVuSans-30"/>
       <use x="63.623047" xlink:href="#DejaVuSans-2e"/>
       <use x="95.410156" xlink:href="#DejaVuSans-32"/>
       <use x="159.033203" xlink:href="#DejaVuSans-30"/>
      </g>
     </g>
    </g>
    <g id="ytick_6">
     <g id="line2d_25">
      <path clip-path="url(#p64df309740)" d="M 117.09 236.288 
L 843.048 236.288 
" style="fill:none;stroke:#cccccc;stroke-linecap:round;stroke-opacity:0.5;"/>
     </g>
     <g id="line2d_26">
      <g>
       <use style="fill:#262626;stroke:#262626;stroke-width:1.25;" x="117.09" xlink:href="#mfc6d315cca" y="236.288"/>
      </g>
     </g>
     <g id="text_14">
      <!-- 0.25 -->
      <g style="fill:#262626;" transform="translate(76.974766 241.511926)scale(0.1375 -0.1375)">
       <use xlink:href="#DejaVuSans-30"/>
       <use x="63.623047" xlink:href="#DejaVuSans-2e"/>
       <use x="95.410156" xlink:href="#DejaVuSans-32"/>
       <use x="159.033203" xlink:href="#DejaVuSans-35"/>
      </g>
     </g>
    </g>
    <g id="ytick_7">
     <g id="line2d_27">
      <path clip-path="url(#p64df309740)" d="M 117.09 192.552 
L 843.048 192.552 
" style="fill:none;stroke:#cccccc;stroke-linecap:round;stroke-opacity:0.5;"/>
     </g>
     <g id="line2d_28">
      <g>
       <use style="fill:#262626;stroke:#262626;stroke-width:1.25;" x="117.09" xlink:href="#mfc6d315cca" y="192.552"/>
      </g>
     </g>
     <g id="text_15">
      <!-- 0.30 -->
      <g style="fill:#262626;" transform="translate(76.974766 197.775926)scale(0.1375 -0.1375)">
       <use xlink:href="#DejaVuSans-30"/>
       <use x="63.623047" xlink:href="#DejaVuSans-2e"/>
       <use x="95.410156" xlink:href="#DejaVuSans-33"/>
       <use x="159.033203" xlink:href="#DejaVuSans-30"/>
      </g>
     </g>
    </g>
    <g id="ytick_8">
     <g id="line2d_29">
      <path clip-path="url(#p64df309740)" d="M 117.09 148.816 
L 843.048 148.816 
" style="fill:none;stroke:#cccccc;stroke-linecap:round;stroke-opacity:0.5;"/>
     </g>
     <g id="line2d_30">
      <g>
       <use style="fill:#262626;stroke:#262626;stroke-width:1.25;" x="117.09" xlink:href="#mfc6d315cca" y="148.816"/>
      </g>
     </g>
     <g id="text_16">
      <!-- 0.35 -->
      <g style="fill:#262626;" transform="translate(76.974766 154.039926)scale(0.1375 -0.1375)">
       <use xlink:href="#DejaVuSans-30"/>
       <use x="63.623047" xlink:href="#DejaVuSans-2e"/>
       <use x="95.410156" xlink:href="#DejaVuSans-33"/>
       <use x="159.033203" xlink:href="#DejaVuSans-35"/>
      </g>
     </g>
    </g>
    <g id="ytick_9">
     <g id="line2d_31">
      <path clip-path="url(#p64df309740)" d="M 117.09 105.08 
L 843.048 105.08 
" style="fill:none;stroke:#cccccc;stroke-linecap:round;stroke-opacity:0.5;"/>
     </g>
     <g id="line2d_32">
      <g>
       <use style="fill:#262626;stroke:#262626;stroke-width:1.25;" x="117.09" xlink:href="#mfc6d315cca" y="105.08"/>
      </g>
     </g>
     <g id="text_17">
      <!-- 0.40 -->
      <g style="fill:#262626;" transform="translate(76.974766 110.303926)scale(0.1375 -0.1375)">
       <use xlink:href="#DejaVuSans-30"/>
       <use x="63.623047" xlink:href="#DejaVuSans-2e"/>
       <use x="95.410156" xlink:href="#DejaVuSans-34"/>
       <use x="159.033203" xlink:href="#DejaVuSans-30"/>
      </g>
     </g>
    </g>
    <g id="ytick_10">
     <g id="line2d_33">
      <path clip-path="url(#p64df309740)" d="M 117.09 61.344 
L 843.048 61.344 
" style="fill:none;stroke:#cccccc;stroke-linecap:round;stroke-opacity:0.5;"/>
     </g>
     <g id="line2d_34">
      <g>
       <use style="fill:#262626;stroke:#262626;stroke-width:1.25;" x="117.09" xlink:href="#mfc6d315cca" y="61.344"/>
      </g>
     </g>
     <g id="text_18">
      <!-- 0.45 -->
      <g style="fill:#262626;" transform="translate(76.974766 66.567926)scale(0.1375 -0.1375)">
       <use xlink:href="#DejaVuSans-30"/>
       <use x="63.623047" xlink:href="#DejaVuSans-2e"/>
       <use x="95.410156" xlink:href="#DejaVuSans-34"/>
       <use x="159.033203" xlink:href="#DejaVuSans-35"/>
      </g>
     </g>
    </g>
    <g id="ytick_11">
     <g id="line2d_35">
      <path clip-path="url(#p64df309740)" d="M 117.09 454.968 
L 843.048 454.968 
" style="fill:none;stroke:#cccccc;stroke-linecap:round;stroke-opacity:0.2;"/>
     </g>
     <g id="line2d_36">
      <defs>
       <path d="M 0 0 
L -4 0 
" id="m0278d5a494" style="stroke:#262626;"/>
      </defs>
      <g>
       <use style="fill:#262626;stroke:#262626;" x="117.09" xlink:href="#m0278d5a494" y="454.968"/>
      </g>
     </g>
    </g>
    <g id="ytick_12">
     <g id="line2d_37">
      <path clip-path="url(#p64df309740)" d="M 117.09 446.2208 
L 843.048 446.2208 
" style="fill:none;stroke:#cccccc;stroke-linecap:round;stroke-opacity:0.2;"/>
     </g>
     <g id="line2d_38">
      <g>
       <use style="fill:#262626;stroke:#262626;" x="117.09" xlink:href="#m0278d5a494" y="446.2208"/>
      </g>
     </g>
    </g>
    <g id="ytick_13">
     <g id="line2d_39">
      <path clip-path="url(#p64df309740)" d="M 117.09 437.4736 
L 843.048 437.4736 
" style="fill:none;stroke:#cccccc;stroke-linecap:round;stroke-opacity:0.2;"/>
     </g>
     <g id="line2d_40">
      <g>
       <use style="fill:#262626;stroke:#262626;" x="117.09" xlink:href="#m0278d5a494" y="437.4736"/>
      </g>
     </g>
    </g>
    <g id="ytick_14">
     <g id="line2d_41">
      <path clip-path="url(#p64df309740)" d="M 117.09 428.7264 
L 843.048 428.7264 
" style="fill:none;stroke:#cccccc;stroke-linecap:round;stroke-opacity:0.2;"/>
     </g>
     <g id="line2d_42">
      <g>
       <use style="fill:#262626;stroke:#262626;" x="117.09" xlink:href="#m0278d5a494" y="428.7264"/>
      </g>
     </g>
    </g>
    <g id="ytick_15">
     <g id="line2d_43">
      <path clip-path="url(#p64df309740)" d="M 117.09 419.9792 
L 843.048 419.9792 
" style="fill:none;stroke:#cccccc;stroke-linecap:round;stroke-opacity:0.2;"/>
     </g>
     <g id="line2d_44">
      <g>
       <use style="fill:#262626;stroke:#262626;" x="117.09" xlink:href="#m0278d5a494" y="419.9792"/>
      </g>
     </g>
    </g>
    <g id="ytick_16">
     <g id="line2d_45">
      <path clip-path="url(#p64df309740)" d="M 117.09 411.232 
L 843.048 411.232 
" style="fill:none;stroke:#cccccc;stroke-linecap:round;stroke-opacity:0.2;"/>
     </g>
     <g id="line2d_46">
      <g>
       <use style="fill:#262626;stroke:#262626;" x="117.09" xlink:href="#m0278d5a494" y="411.232"/>
      </g>
     </g>
    </g>
    <g id="ytick_17">
     <g id="line2d_47">
      <path clip-path="url(#p64df309740)" d="M 117.09 402.4848 
L 843.048 402.4848 
" style="fill:none;stroke:#cccccc;stroke-linecap:round;stroke-opacity:0.2;"/>
     </g>
     <g id="line2d_48">
      <g>
       <use style="fill:#262626;stroke:#262626;" x="117.09" xlink:href="#m0278d5a494" y="402.4848"/>
      </g>
     </g>
    </g>
    <g id="ytick_18">
     <g id="line2d_49">
      <path clip-path="url(#p64df309740)" d="M 117.09 393.7376 
L 843.048 393.7376 
" style="fill:none;stroke:#cccccc;stroke-linecap:round;stroke-opacity:0.2;"/>
     </g>
     <g id="line2d_50">
      <g>
       <use style="fill:#262626;stroke:#262626;" x="117.09" xlink:href="#m0278d5a494" y="393.7376"/>
      </g>
     </g>
    </g>
    <g id="ytick_19">
     <g id="line2d_51">
      <path clip-path="url(#p64df309740)" d="M 117.09 384.9904 
L 843.048 384.9904 
" style="fill:none;stroke:#cccccc;stroke-linecap:round;stroke-opacity:0.2;"/>
     </g>
     <g id="line2d_52">
      <g>
       <use style="fill:#262626;stroke:#262626;" x="117.09" xlink:href="#m0278d5a494" y="384.9904"/>
      </g>
     </g>
    </g>
    <g id="ytick_20">
     <g id="line2d_53">
      <path clip-path="url(#p64df309740)" d="M 117.09 376.2432 
L 843.048 376.2432 
" style="fill:none;stroke:#cccccc;stroke-linecap:round;stroke-opacity:0.2;"/>
     </g>
     <g id="line2d_54">
      <g>
       <use style="fill:#262626;stroke:#262626;" x="117.09" xlink:href="#m0278d5a494" y="376.2432"/>
      </g>
     </g>
    </g>
    <g id="ytick_21">
     <g id="line2d_55">
      <path clip-path="url(#p64df309740)" d="M 117.09 367.496 
L 843.048 367.496 
" style="fill:none;stroke:#cccccc;stroke-linecap:round;stroke-opacity:0.2;"/>
     </g>
     <g id="line2d_56">
      <g>
       <use style="fill:#262626;stroke:#262626;" x="117.09" xlink:href="#m0278d5a494" y="367.496"/>
      </g>
     </g>
    </g>
    <g id="ytick_22">
     <g id="line2d_57">
      <path clip-path="url(#p64df309740)" d="M 117.09 358.7488 
L 843.048 358.7488 
" style="fill:none;stroke:#cccccc;stroke-linecap:round;stroke-opacity:0.2;"/>
     </g>
     <g id="line2d_58">
      <g>
       <use style="fill:#262626;stroke:#262626;" x="117.09" xlink:href="#m0278d5a494" y="358.7488"/>
      </g>
     </g>
    </g>
    <g id="ytick_23">
     <g id="line2d_59">
      <path clip-path="url(#p64df309740)" d="M 117.09 350.0016 
L 843.048 350.0016 
" style="fill:none;stroke:#cccccc;stroke-linecap:round;stroke-opacity:0.2;"/>
     </g>
     <g id="line2d_60">
      <g>
       <use style="fill:#262626;stroke:#262626;" x="117.09" xlink:href="#m0278d5a494" y="350.0016"/>
      </g>
     </g>
    </g>
    <g id="ytick_24">
     <g id="line2d_61">
      <path clip-path="url(#p64df309740)" d="M 117.09 341.2544 
L 843.048 341.2544 
" style="fill:none;stroke:#cccccc;stroke-linecap:round;stroke-opacity:0.2;"/>
     </g>
     <g id="line2d_62">
      <g>
       <use style="fill:#262626;stroke:#262626;" x="117.09" xlink:href="#m0278d5a494" y="341.2544"/>
      </g>
     </g>
    </g>
    <g id="ytick_25">
     <g id="line2d_63">
      <path clip-path="url(#p64df309740)" d="M 117.09 332.5072 
L 843.048 332.5072 
" style="fill:none;stroke:#cccccc;stroke-linecap:round;stroke-opacity:0.2;"/>
     </g>
     <g id="line2d_64">
      <g>
       <use style="fill:#262626;stroke:#262626;" x="117.09" xlink:href="#m0278d5a494" y="332.5072"/>
      </g>
     </g>
    </g>
    <g id="ytick_26">
     <g id="line2d_65">
      <path clip-path="url(#p64df309740)" d="M 117.09 323.76 
L 843.048 323.76 
" style="fill:none;stroke:#cccccc;stroke-linecap:round;stroke-opacity:0.2;"/>
     </g>
     <g id="line2d_66">
      <g>
       <use style="fill:#262626;stroke:#262626;" x="117.09" xlink:href="#m0278d5a494" y="323.76"/>
      </g>
     </g>
    </g>
    <g id="ytick_27">
     <g id="line2d_67">
      <path clip-path="url(#p64df309740)" d="M 117.09 315.0128 
L 843.048 315.0128 
" style="fill:none;stroke:#cccccc;stroke-linecap:round;stroke-opacity:0.2;"/>
     </g>
     <g id="line2d_68">
      <g>
       <use style="fill:#262626;stroke:#262626;" x="117.09" xlink:href="#m0278d5a494" y="315.0128"/>
      </g>
     </g>
    </g>
    <g id="ytick_28">
     <g id="line2d_69">
      <path clip-path="url(#p64df309740)" d="M 117.09 306.2656 
L 843.048 306.2656 
" style="fill:none;stroke:#cccccc;stroke-linecap:round;stroke-opacity:0.2;"/>
     </g>
     <g id="line2d_70">
      <g>
       <use style="fill:#262626;stroke:#262626;" x="117.09" xlink:href="#m0278d5a494" y="306.2656"/>
      </g>
     </g>
    </g>
    <g id="ytick_29">
     <g id="line2d_71">
      <path clip-path="url(#p64df309740)" d="M 117.09 297.5184 
L 843.048 297.5184 
" style="fill:none;stroke:#cccccc;stroke-linecap:round;stroke-opacity:0.2;"/>
     </g>
     <g id="line2d_72">
      <g>
       <use style="fill:#262626;stroke:#262626;" x="117.09" xlink:href="#m0278d5a494" y="297.5184"/>
      </g>
     </g>
    </g>
    <g id="ytick_30">
     <g id="line2d_73">
      <path clip-path="url(#p64df309740)" d="M 117.09 288.7712 
L 843.048 288.7712 
" style="fill:none;stroke:#cccccc;stroke-linecap:round;stroke-opacity:0.2;"/>
     </g>
     <g id="line2d_74">
      <g>
       <use style="fill:#262626;stroke:#262626;" x="117.09" xlink:href="#m0278d5a494" y="288.7712"/>
      </g>
     </g>
    </g>
    <g id="ytick_31">
     <g id="line2d_75">
      <path clip-path="url(#p64df309740)" d="M 117.09 280.024 
L 843.048 280.024 
" style="fill:none;stroke:#cccccc;stroke-linecap:round;stroke-opacity:0.2;"/>
     </g>
     <g id="line2d_76">
      <g>
       <use style="fill:#262626;stroke:#262626;" x="117.09" xlink:href="#m0278d5a494" y="280.024"/>
      </g>
     </g>
    </g>
    <g id="ytick_32">
     <g id="line2d_77">
      <path clip-path="url(#p64df309740)" d="M 117.09 271.2768 
L 843.048 271.2768 
" style="fill:none;stroke:#cccccc;stroke-linecap:round;stroke-opacity:0.2;"/>
     </g>
     <g id="line2d_78">
      <g>
       <use style="fill:#262626;stroke:#262626;" x="117.09" xlink:href="#m0278d5a494" y="271.2768"/>
      </g>
     </g>
    </g>
    <g id="ytick_33">
     <g id="line2d_79">
      <path clip-path="url(#p64df309740)" d="M 117.09 262.5296 
L 843.048 262.5296 
" style="fill:none;stroke:#cccccc;stroke-linecap:round;stroke-opacity:0.2;"/>
     </g>
     <g id="line2d_80">
      <g>
       <use style="fill:#262626;stroke:#262626;" x="117.09" xlink:href="#m0278d5a494" y="262.5296"/>
      </g>
     </g>
    </g>
    <g id="ytick_34">
     <g id="line2d_81">
      <path clip-path="url(#p64df309740)" d="M 117.09 253.7824 
L 843.048 253.7824 
" style="fill:none;stroke:#cccccc;stroke-linecap:round;stroke-opacity:0.2;"/>
     </g>
     <g id="line2d_82">
      <g>
       <use style="fill:#262626;stroke:#262626;" x="117.09" xlink:href="#m0278d5a494" y="253.7824"/>
      </g>
     </g>
    </g>
    <g id="ytick_35">
     <g id="line2d_83">
      <path clip-path="url(#p64df309740)" d="M 117.09 245.0352 
L 843.048 245.0352 
" style="fill:none;stroke:#cccccc;stroke-linecap:round;stroke-opacity:0.2;"/>
     </g>
     <g id="line2d_84">
      <g>
       <use style="fill:#262626;stroke:#262626;" x="117.09" xlink:href="#m0278d5a494" y="245.0352"/>
      </g>
     </g>
    </g>
    <g id="ytick_36">
     <g id="line2d_85">
      <path clip-path="url(#p64df309740)" d="M 117.09 236.288 
L 843.048 236.288 
" style="fill:none;stroke:#cccccc;stroke-linecap:round;stroke-opacity:0.2;"/>
     </g>
     <g id="line2d_86">
      <g>
       <use style="fill:#262626;stroke:#262626;" x="117.09" xlink:href="#m0278d5a494" y="236.288"/>
      </g>
     </g>
    </g>
    <g id="ytick_37">
     <g id="line2d_87">
      <path clip-path="url(#p64df309740)" d="M 117.09 227.5408 
L 843.048 227.5408 
" style="fill:none;stroke:#cccccc;stroke-linecap:round;stroke-opacity:0.2;"/>
     </g>
     <g id="line2d_88">
      <g>
       <use style="fill:#262626;stroke:#262626;" x="117.09" xlink:href="#m0278d5a494" y="227.5408"/>
      </g>
     </g>
    </g>
    <g id="ytick_38">
     <g id="line2d_89">
      <path clip-path="url(#p64df309740)" d="M 117.09 218.7936 
L 843.048 218.7936 
" style="fill:none;stroke:#cccccc;stroke-linecap:round;stroke-opacity:0.2;"/>
     </g>
     <g id="line2d_90">
      <g>
       <use style="fill:#262626;stroke:#262626;" x="117.09" xlink:href="#m0278d5a494" y="218.7936"/>
      </g>
     </g>
    </g>
    <g id="ytick_39">
     <g id="line2d_91">
      <path clip-path="url(#p64df309740)" d="M 117.09 210.0464 
L 843.048 210.0464 
" style="fill:none;stroke:#cccccc;stroke-linecap:round;stroke-opacity:0.2;"/>
     </g>
     <g id="line2d_92">
      <g>
       <use style="fill:#262626;stroke:#262626;" x="117.09" xlink:href="#m0278d5a494" y="210.0464"/>
      </g>
     </g>
    </g>
    <g id="ytick_40">
     <g id="line2d_93">
      <path clip-path="url(#p64df309740)" d="M 117.09 201.2992 
L 843.048 201.2992 
" style="fill:none;stroke:#cccccc;stroke-linecap:round;stroke-opacity:0.2;"/>
     </g>
     <g id="line2d_94">
      <g>
       <use style="fill:#262626;stroke:#262626;" x="117.09" xlink:href="#m0278d5a494" y="201.2992"/>
      </g>
     </g>
    </g>
    <g id="ytick_41">
     <g id="line2d_95">
      <path clip-path="url(#p64df309740)" d="M 117.09 192.552 
L 843.048 192.552 
" style="fill:none;stroke:#cccccc;stroke-linecap:round;stroke-opacity:0.2;"/>
     </g>
     <g id="line2d_96">
      <g>
       <use style="fill:#262626;stroke:#262626;" x="117.09" xlink:href="#m0278d5a494" y="192.552"/>
      </g>
     </g>
    </g>
    <g id="ytick_42">
     <g id="line2d_97">
      <path clip-path="url(#p64df309740)" d="M 117.09 183.8048 
L 843.048 183.8048 
" style="fill:none;stroke:#cccccc;stroke-linecap:round;stroke-opacity:0.2;"/>
     </g>
     <g id="line2d_98">
      <g>
       <use style="fill:#262626;stroke:#262626;" x="117.09" xlink:href="#m0278d5a494" y="183.8048"/>
      </g>
     </g>
    </g>
    <g id="ytick_43">
     <g id="line2d_99">
      <path clip-path="url(#p64df309740)" d="M 117.09 175.0576 
L 843.048 175.0576 
" style="fill:none;stroke:#cccccc;stroke-linecap:round;stroke-opacity:0.2;"/>
     </g>
     <g id="line2d_100">
      <g>
       <use style="fill:#262626;stroke:#262626;" x="117.09" xlink:href="#m0278d5a494" y="175.0576"/>
      </g>
     </g>
    </g>
    <g id="ytick_44">
     <g id="line2d_101">
      <path clip-path="url(#p64df309740)" d="M 117.09 166.3104 
L 843.048 166.3104 
" style="fill:none;stroke:#cccccc;stroke-linecap:round;stroke-opacity:0.2;"/>
     </g>
     <g id="line2d_102">
      <g>
       <use style="fill:#262626;stroke:#262626;" x="117.09" xlink:href="#m0278d5a494" y="166.3104"/>
      </g>
     </g>
    </g>
    <g id="ytick_45">
     <g id="line2d_103">
      <path clip-path="url(#p64df309740)" d="M 117.09 157.5632 
L 843.048 157.5632 
" style="fill:none;stroke:#cccccc;stroke-linecap:round;stroke-opacity:0.2;"/>
     </g>
     <g id="line2d_104">
      <g>
       <use style="fill:#262626;stroke:#262626;" x="117.09" xlink:href="#m0278d5a494" y="157.5632"/>
      </g>
     </g>
    </g>
    <g id="ytick_46">
     <g id="line2d_105">
      <path clip-path="url(#p64df309740)" d="M 117.09 148.816 
L 843.048 148.816 
" style="fill:none;stroke:#cccccc;stroke-linecap:round;stroke-opacity:0.2;"/>
     </g>
     <g id="line2d_106">
      <g>
       <use style="fill:#262626;stroke:#262626;" x="117.09" xlink:href="#m0278d5a494" y="148.816"/>
      </g>
     </g>
    </g>
    <g id="ytick_47">
     <g id="line2d_107">
      <path clip-path="url(#p64df309740)" d="M 117.09 140.0688 
L 843.048 140.0688 
" style="fill:none;stroke:#cccccc;stroke-linecap:round;stroke-opacity:0.2;"/>
     </g>
     <g id="line2d_108">
      <g>
       <use style="fill:#262626;stroke:#262626;" x="117.09" xlink:href="#m0278d5a494" y="140.0688"/>
      </g>
     </g>
    </g>
    <g id="ytick_48">
     <g id="line2d_109">
      <path clip-path="url(#p64df309740)" d="M 117.09 131.3216 
L 843.048 131.3216 
" style="fill:none;stroke:#cccccc;stroke-linecap:round;stroke-opacity:0.2;"/>
     </g>
     <g id="line2d_110">
      <g>
       <use style="fill:#262626;stroke:#262626;" x="117.09" xlink:href="#m0278d5a494" y="131.3216"/>
      </g>
     </g>
    </g>
    <g id="ytick_49">
     <g id="line2d_111">
      <path clip-path="url(#p64df309740)" d="M 117.09 122.5744 
L 843.048 122.5744 
" style="fill:none;stroke:#cccccc;stroke-linecap:round;stroke-opacity:0.2;"/>
     </g>
     <g id="line2d_112">
      <g>
       <use style="fill:#262626;stroke:#262626;" x="117.09" xlink:href="#m0278d5a494" y="122.5744"/>
      </g>
     </g>
    </g>
    <g id="ytick_50">
     <g id="line2d_113">
      <path clip-path="url(#p64df309740)" d="M 117.09 113.8272 
L 843.048 113.8272 
" style="fill:none;stroke:#cccccc;stroke-linecap:round;stroke-opacity:0.2;"/>
     </g>
     <g id="line2d_114">
      <g>
       <use style="fill:#262626;stroke:#262626;" x="117.09" xlink:href="#m0278d5a494" y="113.8272"/>
      </g>
     </g>
    </g>
    <g id="ytick_51">
     <g id="line2d_115">
      <path clip-path="url(#p64df309740)" d="M 117.09 105.08 
L 843.048 105.08 
" style="fill:none;stroke:#cccccc;stroke-linecap:round;stroke-opacity:0.2;"/>
     </g>
     <g id="line2d_116">
      <g>
       <use style="fill:#262626;stroke:#262626;" x="117.09" xlink:href="#m0278d5a494" y="105.08"/>
      </g>
     </g>
    </g>
    <g id="ytick_52">
     <g id="line2d_117">
      <path clip-path="url(#p64df309740)" d="M 117.09 96.3328 
L 843.048 96.3328 
" style="fill:none;stroke:#cccccc;stroke-linecap:round;stroke-opacity:0.2;"/>
     </g>
     <g id="line2d_118">
      <g>
       <use style="fill:#262626;stroke:#262626;" x="117.09" xlink:href="#m0278d5a494" y="96.3328"/>
      </g>
     </g>
    </g>
    <g id="ytick_53">
     <g id="line2d_119">
      <path clip-path="url(#p64df309740)" d="M 117.09 87.5856 
L 843.048 87.5856 
" style="fill:none;stroke:#cccccc;stroke-linecap:round;stroke-opacity:0.2;"/>
     </g>
     <g id="line2d_120">
      <g>
       <use style="fill:#262626;stroke:#262626;" x="117.09" xlink:href="#m0278d5a494" y="87.5856"/>
      </g>
     </g>
    </g>
    <g id="ytick_54">
     <g id="line2d_121">
      <path clip-path="url(#p64df309740)" d="M 117.09 78.8384 
L 843.048 78.8384 
" style="fill:none;stroke:#cccccc;stroke-linecap:round;stroke-opacity:0.2;"/>
     </g>
     <g id="line2d_122">
      <g>
       <use style="fill:#262626;stroke:#262626;" x="117.09" xlink:href="#m0278d5a494" y="78.8384"/>
      </g>
     </g>
    </g>
    <g id="ytick_55">
     <g id="line2d_123">
      <path clip-path="url(#p64df309740)" d="M 117.09 70.0912 
L 843.048 70.0912 
" style="fill:none;stroke:#cccccc;stroke-linecap:round;stroke-opacity:0.2;"/>
     </g>
     <g id="line2d_124">
      <g>
       <use style="fill:#262626;stroke:#262626;" x="117.09" xlink:href="#m0278d5a494" y="70.0912"/>
      </g>
     </g>
    </g>
    <g id="text_19">
     <!-- Computationl Time (s) -->
     <defs>
      <path d="M 64.40625 67.28125 
L 64.40625 56.890625 
Q 59.421875 61.53125 53.78125 63.8125 
Q 48.140625 66.109375 41.796875 66.109375 
Q 29.296875 66.109375 22.65625 58.46875 
Q 16.015625 50.828125 16.015625 36.375 
Q 16.015625 21.96875 22.65625 14.328125 
Q 29.296875 6.6875 41.796875 6.6875 
Q 48.140625 6.6875 53.78125 8.984375 
Q 59.421875 11.28125 64.40625 15.921875 
L 64.40625 5.609375 
Q 59.234375 2.09375 53.4375 0.328125 
Q 47.65625 -1.421875 41.21875 -1.421875 
Q 24.65625 -1.421875 15.125 8.703125 
Q 5.609375 18.84375 5.609375 36.375 
Q 5.609375 53.953125 15.125 64.078125 
Q 24.65625 74.21875 41.21875 74.21875 
Q 47.75 74.21875 53.53125 72.484375 
Q 59.328125 70.75 64.40625 67.28125 
z
" id="DejaVuSans-43"/>
      <path d="M 30.609375 48.390625 
Q 23.390625 48.390625 19.1875 42.75 
Q 14.984375 37.109375 14.984375 27.296875 
Q 14.984375 17.484375 19.15625 11.84375 
Q 23.34375 6.203125 30.609375 6.203125 
Q 37.796875 6.203125 41.984375 11.859375 
Q 46.1875 17.53125 46.1875 27.296875 
Q 46.1875 37.015625 41.984375 42.703125 
Q 37.796875 48.390625 30.609375 48.390625 
z
M 30.609375 56 
Q 42.328125 56 49.015625 48.375 
Q 55.71875 40.765625 55.71875 27.296875 
Q 55.71875 13.875 49.015625 6.21875 
Q 42.328125 -1.421875 30.609375 -1.421875 
Q 18.84375 -1.421875 12.171875 6.21875 
Q 5.515625 13.875 5.515625 27.296875 
Q 5.515625 40.765625 12.171875 48.375 
Q 18.84375 56 30.609375 56 
z
" id="DejaVuSans-6f"/>
      <path d="M 18.109375 8.203125 
L 18.109375 -20.796875 
L 9.078125 -20.796875 
L 9.078125 54.6875 
L 18.109375 54.6875 
L 18.109375 46.390625 
Q 20.953125 51.265625 25.265625 53.625 
Q 29.59375 56 35.59375 56 
Q 45.5625 56 51.78125 48.09375 
Q 58.015625 40.1875 58.015625 27.296875 
Q 58.015625 14.40625 51.78125 6.484375 
Q 45.5625 -1.421875 35.59375 -1.421875 
Q 29.59375 -1.421875 25.265625 0.953125 
Q 20.953125 3.328125 18.109375 8.203125 
z
M 48.6875 27.296875 
Q 48.6875 37.203125 44.609375 42.84375 
Q 40.53125 48.484375 33.40625 48.484375 
Q 26.265625 48.484375 22.1875 42.84375 
Q 18.109375 37.203125 18.109375 27.296875 
Q 18.109375 17.390625 22.1875 11.75 
Q 26.265625 6.109375 33.40625 6.109375 
Q 40.53125 6.109375 44.609375 11.75 
Q 48.6875 17.390625 48.6875 27.296875 
z
" id="DejaVuSans-70"/>
      <path d="M 34.28125 27.484375 
Q 23.390625 27.484375 19.1875 25 
Q 14.984375 22.515625 14.984375 16.5 
Q 14.984375 11.71875 18.140625 8.90625 
Q 21.296875 6.109375 26.703125 6.109375 
Q 34.1875 6.109375 38.703125 11.40625 
Q 43.21875 16.703125 43.21875 25.484375 
L 43.21875 27.484375 
z
M 52.203125 31.203125 
L 52.203125 0 
L 43.21875 0 
L 43.21875 8.296875 
Q 40.140625 3.328125 35.546875 0.953125 
Q 30.953125 -1.421875 24.3125 -1.421875 
Q 15.921875 -1.421875 10.953125 3.296875 
Q 6 8.015625 6 15.921875 
Q 6 25.140625 12.171875 29.828125 
Q 18.359375 34.515625 30.609375 34.515625 
L 43.21875 34.515625 
L 43.21875 35.40625 
Q 43.21875 41.609375 39.140625 45 
Q 35.0625 48.390625 27.6875 48.390625 
Q 23 48.390625 18.546875 47.265625 
Q 14.109375 46.140625 10.015625 43.890625 
L 10.015625 52.203125 
Q 14.9375 54.109375 19.578125 55.046875 
Q 24.21875 56 28.609375 56 
Q 40.484375 56 46.34375 49.84375 
Q 52.203125 43.703125 52.203125 31.203125 
z
" id="DejaVuSans-61"/>
      <path d="M 9.421875 75.984375 
L 18.40625 75.984375 
L 18.40625 0 
L 9.421875 0 
z
" id="DejaVuSans-6c"/>
      <path d="M -0.296875 72.90625 
L 61.375 72.90625 
L 61.375 64.59375 
L 35.5 64.59375 
L 35.5 0 
L 25.59375 0 
L 25.59375 64.59375 
L -0.296875 64.59375 
z
" id="DejaVuSans-54"/>
      <path d="M 44.28125 53.078125 
L 44.28125 44.578125 
Q 40.484375 46.53125 36.375 47.5 
Q 32.28125 48.484375 27.875 48.484375 
Q 21.1875 48.484375 17.84375 46.4375 
Q 14.5 44.390625 14.5 40.28125 
Q 14.5 37.15625 16.890625 35.375 
Q 19.28125 33.59375 26.515625 31.984375 
L 29.59375 31.296875 
Q 39.15625 29.25 43.1875 25.515625 
Q 47.21875 21.78125 47.21875 15.09375 
Q 47.21875 7.46875 41.1875 3.015625 
Q 35.15625 -1.421875 24.609375 -1.421875 
Q 20.21875 -1.421875 15.453125 -0.5625 
Q 10.6875 0.296875 5.421875 2 
L 5.421875 11.28125 
Q 10.40625 8.6875 15.234375 7.390625 
Q 20.0625 6.109375 24.8125 6.109375 
Q 31.15625 6.109375 34.5625 8.28125 
Q 37.984375 10.453125 37.984375 14.40625 
Q 37.984375 18.0625 35.515625 20.015625 
Q 33.0625 21.96875 24.703125 23.78125 
L 21.578125 24.515625 
Q 13.234375 26.265625 9.515625 29.90625 
Q 5.8125 33.546875 5.8125 39.890625 
Q 5.8125 47.609375 11.28125 51.796875 
Q 16.75 56 26.8125 56 
Q 31.78125 56 36.171875 55.265625 
Q 40.578125 54.546875 44.28125 53.078125 
z
" id="DejaVuSans-73"/>
     </defs>
     <g style="fill:#262626;" transform="translate(69.855234 341.895844)rotate(-90)scale(0.15 -0.15)">
      <use xlink:href="#DejaVuSans-43"/>
      <use x="69.824219" xlink:href="#DejaVuSans-6f"/>
      <use x="131.005859" xlink:href="#DejaVuSans-6d"/>
      <use x="228.417969" xlink:href="#DejaVuSans-70"/>
      <use x="291.894531" xlink:href="#DejaVuSans-75"/>
      <use x="355.273438" xlink:href="#DejaVuSans-74"/>
      <use x="394.482422" xlink:href="#DejaVuSans-61"/>
      <use x="455.761719" xlink:href="#DejaVuSans-74"/>
      <use x="494.970703" xlink:href="#DejaVuSans-69"/>
      <use x="522.753906" xlink:href="#DejaVuSans-6f"/>
      <use x="583.935547" xlink:href="#DejaVuSans-6e"/>
      <use x="647.314453" xlink:href="#DejaVuSans-6c"/>
      <use x="675.097656" xlink:href="#DejaVuSans-20"/>
      <use x="706.884766" xlink:href="#DejaVuSans-54"/>
      <use x="767.921875" xlink:href="#DejaVuSans-69"/>
      <use x="795.705078" xlink:href="#DejaVuSans-6d"/>
      <use x="893.117188" xlink:href="#DejaVuSans-65"/>
      <use x="954.640625" xlink:href="#DejaVuSans-20"/>
      <use x="986.427734" xlink:href="#DejaVuSans-28"/>
      <use x="1025.441406" xlink:href="#DejaVuSans-73"/>
      <use x="1077.541016" xlink:href="#DejaVuSans-29"/>
     </g>
    </g>
   </g>
   <g id="patch_3">
    <path clip-path="url(#p64df309740)" d="M 338.749176 91.08448 
C 339.551369 91.08448 340.320814 90.715816 340.88805 90.059682 
C 341.455286 89.403548 341.774001 88.513514 341.774001 87.5856 
C 341.774001 86.657686 341.455286 85.767652 340.88805 85.111518 
C 340.320814 84.455384 339.551369 84.08672 338.749176 84.08672 
C 337.946983 84.08672 337.177538 84.455384 336.610302 85.111518 
C 336.043066 85.767652 335.724351 86.657686 335.724351 87.5856 
C 335.724351 88.513514 336.043066 89.403548 336.610302 90.059682 
C 337.177538 90.715816 337.946983 91.08448 338.749176 91.08448 
z
" style="fill:none;stroke:#000000;stroke-linejoin:miter;"/>
   </g>
   <g id="patch_4">
    <path clip-path="url(#p64df309740)" d="M 276.80076 86.71088 
C 277.602953 86.71088 278.372398 86.342216 278.939634 85.686082 
C 279.50687 85.029948 279.825585 84.139914 279.825585 83.212 
C 279.825585 82.284086 279.50687 81.394052 278.939634 80.737918 
C 278.372398 80.081784 277.602953 79.71312 276.80076 79.71312 
C 275.998567 79.71312 275.229122 80.081784 274.661886 80.737918 
C 274.09465 81.394052 273.775935 82.284086 273.775935 83.212 
C 273.775935 84.139914 274.09465 85.029948 274.661886 85.686082 
C 275.229122 86.342216 275.998567 86.71088 276.80076 86.71088 
z
" style="fill:none;stroke:#000000;stroke-linejoin:miter;"/>
   </g>
   <g id="line2d_125">
    <path clip-path="url(#p64df309740)" d="M 325.621436 155.436904 
L 326.62971 151.888852 
L 327.637986 144.929555 
L 328.646261 153.677789 
L 329.654535 144.378567 
L 330.662811 112.188952 
L 331.671086 156.510934 
L 332.67936 111.247768 
L 333.687636 114.115949 
L 335.704185 144.101196 
L 336.712461 136.174647 
L 338.72901 87.69669 
L 339.737286 149.991677 
L 340.725395 156.861715 
L 341.753835 136.014481 
L 342.782276 169.318585 
L 344.798826 163.912773 
L 345.786936 147.061348 
L 346.79521 156.064847 
L 347.78332 165.929864 
L 348.811761 161.766173 
L 349.820036 142.571486 
L 350.808145 164.555731 
L 351.836586 138.628232 
L 352.84486 109.485942 
L 353.893467 182.88035 
L 355.869686 169.481253 
L 356.87796 177.54628 
L 357.886236 140.031144 
L 358.894511 151.711168 
L 359.902785 165.646445 
L 360.911061 172.189269 
L 361.89917 148.658629 
L 362.947776 133.630969 
L 364.944161 179.274738 
L 365.952435 138.915822 
L 366.980876 140.741464 
L 367.968986 126.002437 
L 368.957095 165.019337 
L 369.96537 157.993721 
L 371.013976 131.560281 
L 372.002085 111.015027 
L 372.990195 143.388374 
L 373.99847 122.502767 
L 376.035186 137.918746 
L 377.043461 112.582485 
L 378.03157 156.02272 
L 379.060011 110.604601 
L 380.068286 135.017406 
L 381.07656 156.128663 
L 382.084836 139.698716 
L 383.113276 115.706973 
L 384.101385 135.633252 
L 386.138101 160.999128 
L 387.12621 152.427744 
L 388.154651 175.14942 
L 389.142761 124.469806 
L 390.151035 167.942784 
L 391.159311 163.404538 
L 392.167585 186.942269 
L 393.155695 187.287001 
L 394.184136 159.16994 
L 396.200685 140.879732 
L 397.188795 164.185764 
L 398.217236 105.729965 
L 399.22551 190.831508 
L 400.21362 133.803231 
L 402.23017 193.539524 
L 403.258611 196.547016 
L 404.287051 191.360598 
L 406.283436 165.640397 
L 407.291711 155.637946 
L 408.27982 174.247652 
L 409.308261 175.304998 
L 410.356866 174.870381 
L 411.32481 154.255054 
L 412.333086 203.52258 
L 413.341361 196.177675 
L 414.32947 137.801542 
L 416.366186 177.220734 
L 417.37446 179.353361 
L 418.402901 161.852096 
L 419.39101 180.866805 
L 420.399285 170.76279 
L 421.407561 172.561947 
L 422.39567 197.505718 
L 423.403945 215.02179 
L 425.440661 178.905397 
L 426.448935 225.817772 
L 427.457211 232.314089 
L 428.465485 217.881213 
L 429.47376 160.893185 
L 430.482036 193.975184 
L 431.490311 204.704638 
L 432.498585 206.634972 
L 433.506861 216.490396 
L 435.503245 237.414793 
L 436.531686 191.605644 
L 437.539961 171.983013 
L 438.548235 197.283404 
L 439.556511 183.427793 
L 440.564785 192.252773 
L 441.57306 166.546545 
L 442.581336 170.432239 
L 443.569445 183.332485 
L 445.606161 187.5992 
L 446.59427 173.602817 
L 447.62271 190.142252 
L 448.630986 198.041899 
L 449.659426 219.551069 
L 450.647535 186.468444 
L 451.675976 216.833251 
L 452.664086 189.204405 
L 453.67236 215.894779 
L 454.66047 225.061155 
L 455.749407 261.285786 
L 456.697185 253.975709 
L 457.685295 257.745658 
L 458.733901 240.63876 
L 459.72201 253.138591 
L 460.750451 220.190481 
L 461.738561 256.098534 
L 462.746835 243.045212 
L 463.755111 254.171745 
L 464.783551 228.72245 
L 466.779936 233.2169 
L 467.78821 227.740182 
L 468.796485 231.11055 
L 469.804761 202.211637 
L 470.79287 225.068871 
L 471.801145 236.856715 
L 472.829586 213.933579 
L 473.817695 239.066088 
L 474.846135 228.036739 
L 476.862685 229.992725 
L 477.87096 228.436528 
L 478.879236 220.972542 
L 479.907676 220.679321 
L 480.895785 174.482062 
L 481.904061 232.219616 
L 482.912336 227.729754 
L 483.92061 226.231326 
L 485.916995 209.67041 
L 486.945435 216.751291 
L 487.933545 202.886086 
L 488.961986 218.121879 
L 489.950095 214.556517 
L 490.978536 215.242227 
L 491.966645 215.144209 
L 492.995085 249.839129 
L 494.003361 233.54474 
L 495.011636 225.137901 
L 497.028186 200.654607 
L 498.036461 196.090293 
L 499.044735 222.439479 
L 500.073176 239.485898 
L 501.061286 217.154418 
L 502.06956 233.859858 
L 503.077836 165.477729 
L 504.065945 189.484279 
L 505.114551 199.820826 
L 507.110936 204.209542 
L 508.11921 178.182981 
L 509.10732 214.870384 
L 510.216423 123.368665 
L 511.144035 197.973495 
L 512.152311 152.387494 
L 513.160586 197.425218 
L 514.16886 186.436745 
L 515.096474 195.562037 
L 517.193685 202.041878 
L 518.201961 159.438552 
L 519.210235 204.637068 
L 520.21851 182.999223 
L 521.226786 184.397756 
L 522.235061 175.770481 
L 523.243335 176.267245 
L 524.251611 170.017643 
L 525.23972 204.072942 
L 527.276436 189.242987 
L 528.28471 173.234519 
L 529.292985 159.819989 
L 530.321426 184.495983 
L 531.309536 148.068016 
L 532.31781 156.828555 
L 533.30592 161.276499 
L 534.334361 168.20785 
L 535.342635 184.041137 
L 536.492069 193.001466 
L 537.359185 173.839104 
L 538.407792 189.308471 
L 539.35557 189.63214 
L 540.384011 199.5787 
L 541.392285 183.868666 
L 542.400561 156.209997 
L 543.408836 161.394538 
L 544.437276 217.567346 
L 545.40522 197.959522 
L 547.462101 197.198525 
L 548.450211 215.360266 
L 549.458486 201.536354 
L 550.446595 169.312537 
L 551.475036 184.162512 
L 552.483311 211.066232 
L 553.491585 208.585536 
L 554.499861 213.382591 
L 555.508135 183.229253 
L 557.544851 198.733657 
L 558.532961 178.901226 
L 559.541235 117.123233 
L 560.549511 196.170793 
L 561.557786 214.505839 
L 562.545895 196.124495 
L 563.574336 162.260435 
L 564.562445 194.808756 
L 565.57072 174.218664 
L 567.607436 193.494894 
L 568.61571 148.451956 
L 569.623986 194.243795 
L 570.632261 204.709852 
L 571.62037 156.978085 
L 572.648811 195.662558 
L 573.63692 211.624519 
L 574.645195 206.039355 
L 575.673636 187.997321 
L 576.742407 210.928172 
L 577.690185 213.544426 
L 578.698461 206.837891 
L 579.706736 222.493702 
L 580.71501 208.631834 
L 581.70312 214.422628 
L 582.731561 193.348909 
L 583.739835 217.773601 
L 586.784826 197.281736 
L 587.772936 197.909678 
L 588.781211 194.622313 
L 589.789485 218.61343 
L 590.817926 197.142633 
L 591.806036 205.545093 
L 592.81431 183.028003 
L 593.822586 226.612763 
L 594.83086 198.322606 
L 595.81897 194.982895 
L 597.855686 205.582632 
L 598.86396 198.675889 
L 599.85207 138.327295 
L 600.880511 217.305825 
L 601.86862 211.570296 
L 602.917226 196.535337 
L 603.905335 203.832276 
L 604.91361 201.196001 
L 605.921886 188.267601 
L 613.120969 208.081889 
L 618.323668 196.48028 
L 624.776628 214.289782 
L 624.776628 214.289782 
" style="fill:none;stroke:#ff7f0e;stroke-linecap:round;"/>
   </g>
   <g id="line2d_126">
    <path clip-path="url(#p64df309740)" d="M 230.379779 93.642853 
L 231.428385 159.88026 
L 232.416495 143.673461 
L 233.42477 150.404605 
L 234.412879 179.433861 
L 235.44132 102.923932 
L 236.429429 161.993701 
L 237.457869 155.040452 
L 238.445979 174.106673 
L 240.482694 162.645209 
L 241.511135 187.378971 
L 242.499245 132.115022 
L 243.507519 157.366404 
L 244.515795 173.345676 
L 245.524069 157.029597 
L 246.532344 155.565371 
L 247.54062 164.341342 
L 248.548895 169.232871 
L 250.565445 192.538695 
L 251.57372 117.840226 
L 252.581994 156.682362 
L 253.59027 172.336296 
L 254.598545 174.575492 
L 255.606819 186.530383 
L 256.594929 138.141894 
L 257.62337 174.551926 
L 258.631644 163.294424 
L 260.648195 211.469567 
L 261.656469 161.467947 
L 262.68491 176.33127 
L 263.652854 177.605716 
L 265.68957 187.170839 
L 266.697844 166.754677 
L 267.726285 201.977019 
L 268.714395 193.957665 
L 270.730944 211.733799 
L 271.73922 167.79659 
L 272.747495 167.694193 
L 273.755769 172.768619 
L 274.764045 207.348003 
L 275.772319 167.703786 
L 276.760429 83.267099 
L 277.78887 173.391348 
L 278.797145 154.749942 
L 280.83386 150.430882 
L 281.842135 177.124592 
L 282.830244 179.064728 
L 283.83852 164.99306 
L 284.846794 196.333461 
L 285.855069 198.555139 
L 286.863345 195.121789 
L 287.87162 188.433815 
L 288.90006 170.354241 
L 290.91661 175.537739 
L 291.904719 196.691124 
L 292.912995 153.00334 
L 293.921269 160.01248 
L 294.929544 194.200834 
L 295.93782 209.0335 
L 296.946095 163.482327 
L 297.954369 199.334697 
L 298.962645 191.909918 
L 300.979194 193.1389 
L 301.98747 182.411322 
L 302.995745 187.786477 
L 304.004019 190.198144 
L 304.992129 179.966705 
L 306.02057 194.502605 
L 307.008679 223.177536 
L 308.03712 185.192956 
L 309.06556 221.859503 
L 311.061945 196.42272 
L 312.07022 198.650655 
L 313.078494 190.385421 
L 314.08677 155.761407 
L 315.095044 208.588247 
L 316.123485 200.079844 
L 317.091429 194.823771 
L 318.119869 202.31049 
L 319.128144 224.592127 
L 321.144695 166.529235 
L 322.132804 221.825301 
L 323.161245 212.570708 
L 324.169519 224.382952 
L 325.19796 206.580749 
L 326.206235 213.211164 
L 327.194344 204.582011 
L 328.202619 204.816421 
L 329.210895 188.831727 
L 331.227444 193.391662 
L 332.23572 194.922624 
L 333.26416 191.461328 
L 334.252269 193.201048 
L 335.260545 115.590603 
L 336.248654 207.673132 
L 337.256929 195.477157 
L 338.265204 216.274339 
L 339.273479 208.934648 
L 341.290029 215.654113 
L 342.318469 207.406605 
L 343.326744 210.560708 
L 344.33502 191.540785 
L 345.323129 220.571918 
L 346.351569 190.074057 
L 348.36812 223.185461 
L 349.356229 208.395964 
L 351.392944 243.887544 
L 352.381054 212.847245 
L 353.409495 202.934053 
L 354.417769 206.606192 
L 355.426044 196.981633 
L 356.43432 221.75356 
L 357.442595 216.50708 
L 358.450869 236.19165 
L 359.438979 202.947192 
L 361.455529 227.518076 
L 362.48397 197.326991 
L 363.492245 189.475728 
L 364.500519 220.383807 
L 365.508795 228.278239 
L 366.496904 192.863198 
L 367.525344 238.411034 
L 368.53362 253.659965 
L 369.541895 232.514505 
L 371.538279 238.197479 
L 372.546554 218.677246 
L 373.574994 248.003894 
L 374.603435 238.941167 
L 375.591545 233.517837 
L 376.599819 248.321515 
L 377.608095 248.82537 
L 378.61637 250.622858 
L 379.624644 234.829822 
L 381.66136 232.394589 
L 382.649469 204.430604 
L 383.67791 246.132162 
L 384.66602 239.962642 
L 385.654129 240.886308 
L 386.68257 245.466264 
L 387.690845 222.095789 
L 388.699119 255.58863 
L 389.707395 214.964856 
L 391.74411 256.769438 
L 392.712054 207.046023 
L 393.740494 204.708809 
L 394.768935 225.821109 
L 395.757045 249.512958 
L 396.76532 247.881475 
L 397.773594 268.211715 
L 398.78187 237.843988 
L 399.790144 256.067043 
L 400.858916 258.225113 
L 402.835135 229.594604 
L 403.823244 271.775409 
L 404.83152 257.778192 
L 405.819629 214.493535 
L 406.848069 252.764036 
L 407.836179 264.313299 
L 408.844454 244.214758 
L 409.852729 260.68996 
L 411.889445 228.169794 
L 412.938051 244.946975 
L 413.92616 250.146948 
L 414.934435 265.416109 
L 415.922544 235.675699 
L 416.93082 265.682218 
L 417.939095 278.048995 
L 418.947369 245.591393 
L 419.955645 221.080988 
L 421.972194 207.313801 
L 422.98047 228.012339 
L 423.988745 236.294257 
L 425.057516 253.093127 
L 426.02546 243.5718 
L 427.0539 257.635544 
L 428.001679 231.277598 
L 430.038394 270.381047 
L 432.07511 212.86664 
L 433.06322 270.600649 
L 434.071494 195.351819 
L 436.067879 268.147898 
L 437.096319 268.71995 
L 438.104595 243.979514 
L 440.121144 278.62188 
L 442.137695 276.251298 
L 443.145969 271.078228 
L 444.134079 237.895917 
L 445.16252 255.908963 
L 446.170794 256.764224 
L 447.199235 248.651231 
L 448.187344 276.437533 
L 449.195619 267.130594 
L 450.203895 253.186557 
L 452.24061 263.08244 
L 453.22872 252.192193 
L 454.236995 242.89026 
L 455.245269 263.683271 
L 456.27371 262.663464 
L 457.241654 276.877572 
L 458.270094 252.372172 
L 459.27837 260.17234 
L 460.266479 235.051093 
L 463.31147 268.238826 
L 464.319744 217.488514 
L 465.32802 258.968592 
L 466.336295 264.747916 
L 467.344569 254.83389 
L 468.352845 262.854912 
L 469.340954 261.293711 
L 470.349229 256.943577 
L 472.385945 236.349939 
L 473.374054 257.903321 
L 474.42266 249.215358 
L 475.41077 274.714288 
L 476.419044 268.516197 
L 477.407154 255.868504 
L 478.435595 264.064708 
L 479.443869 265.969808 
L 480.452145 286.711307 
L 481.420089 266.466781 
L 483.47697 279.681937 
L 484.485245 267.386067 
L 485.493519 288.767813 
L 486.481629 243.714239 
L 487.510069 224.649061 
L 488.498179 258.233038 
L 489.52662 251.949859 
L 490.514729 237.076943 
L 492.551445 253.919609 
L 493.539554 221.555229 
L 494.567994 263.764814 
L 495.57627 264.772525 
L 496.60471 261.053044 
L 497.592819 273.680508 
L 498.601095 250.449554 
L 499.629535 261.788807 
L 500.617644 254.303757 
L 502.65436 253.198862 
L 503.642469 250.942148 
L 504.650745 264.168983 
L 505.659019 261.173795 
L 506.647129 225.305783 
L 507.67557 275.880497 
L 508.683844 262.545425 
L 509.671954 256.418866 
L 510.680229 265.82132 
L 511.688504 226.911823 
L 513.72522 230.1458 
L 514.733495 233.767054 
L 515.741769 221.832391 
L 516.729879 253.02222 
L 517.738154 250.749656 
L 518.766594 259.145234 
L 519.77487 253.854124 
L 520.762979 261.294545 
L 522.81986 252.431817 
L 523.80797 265.913916 
L 524.816244 274.864027 
L 525.82452 269.473856 
L 526.832794 238.347843 
L 527.841069 273.530978 
L 528.849345 255.830965 
L 529.85762 228.417342 
L 530.865894 247.851861 
L 532.882445 226.471784 
L 533.870554 228.397947 
L 534.898995 263.647609 
L 535.90727 250.410346 
L 536.915544 255.372573 
L 537.92382 205.553018 
L 538.932095 263.043232 
L 539.920204 246.895662 
L 540.948645 246.325487 
L 542.037582 225.459693 
L 542.965194 247.459997 
L 543.953304 256.260368 
L 545.042241 246.359481 
L 553.310096 200.746369 
L 560.085704 211.887709 
L 566.074857 250.432244 
L 572.870631 192.175818 
L 579.000943 234.263193 
L 586.038702 215.404896 
L 592.431166 245.637066 
L 599.04545 251.953404 
L 604.308645 240.492775 
L 610.943095 236.24775 
L 615.823146 243.342604 
L 622.457595 259.879119 
L 627.942612 206.593888 
L 634.193916 247.212448 
L 640.909028 245.734041 
L 646.696527 220.43803 
L 653.068824 216.403848 
L 659.239467 242.407468 
L 663.917864 228.903679 
L 670.290162 241.285263 
L 675.876005 240.10967 
L 680.877049 237.330748 
L 685.999086 255.129405 
L 690.737979 241.19079 
L 696.42465 235.623978 
L 702.575127 241.096526 
L 708.080309 249.561759 
L 713.383835 234.698644 
L 720.03845 229.421508 
L 725.341977 241.832914 
L 731.472288 181.22259 
L 731.472288 181.22259 
" style="fill:none;stroke:#ffdead;stroke-linecap:round;"/>
   </g>
   <g id="patch_5">
    <path d="M 117.09 454.968 
L 117.09 61.344 
" style="fill:none;stroke:#262626;stroke-linecap:square;stroke-linejoin:miter;stroke-width:1.25;"/>
   </g>
   <g id="patch_6">
    <path d="M 843.048 454.968 
L 843.048 61.344 
" style="fill:none;stroke:#262626;stroke-linecap:square;stroke-linejoin:miter;stroke-width:1.25;"/>
   </g>
   <g id="patch_7">
    <path d="M 117.09 454.968 
L 843.048 454.968 
" style="fill:none;stroke:#262626;stroke-linecap:square;stroke-linejoin:miter;stroke-width:1.25;"/>
   </g>
   <g id="patch_8">
    <path d="M 117.09 61.344 
L 843.048 61.344 
" style="fill:none;stroke:#262626;stroke-linecap:square;stroke-linejoin:miter;stroke-width:1.25;"/>
   </g>
   <g id="text_20">
    <!-- 0.42 -->
    <g style="fill:#262626;" transform="translate(351.81642 91.08448)scale(0.12 -0.12)">
     <use xlink:href="#DejaVuSans-30"/>
     <use x="63.623047" xlink:href="#DejaVuSans-2e"/>
     <use x="95.410156" xlink:href="#DejaVuSans-34"/>
     <use x="159.033203" xlink:href="#DejaVuSans-32"/>
    </g>
   </g>
   <g id="text_21">
    <!-- 0.425 -->
    <g style="fill:#262626;" transform="translate(225.9837 87.5856)scale(0.12 -0.12)">
     <use xlink:href="#DejaVuSans-30"/>
     <use x="63.623047" xlink:href="#DejaVuSans-2e"/>
     <use x="95.410156" xlink:href="#DejaVuSans-34"/>
     <use x="159.033203" xlink:href="#DejaVuSans-32"/>
     <use x="222.65625" xlink:href="#DejaVuSans-35"/>
    </g>
   </g>
   <g id="legend_1">
    <g id="patch_9">
     <path d="M 618.544875 112.708844 
L 833.423 112.708844 
Q 836.173 112.708844 836.173 109.958844 
L 836.173 70.969 
Q 836.173 68.219 833.423 68.219 
L 618.544875 68.219 
Q 615.794875 68.219 615.794875 70.969 
L 615.794875 109.958844 
Q 615.794875 112.708844 618.544875 112.708844 
z
" style="fill:#ffffff;opacity:0.8;stroke:#cccccc;stroke-linejoin:miter;"/>
    </g>
    <g id="line2d_127">
     <path d="M 621.294875 79.354352 
L 648.794875 79.354352 
" style="fill:none;stroke:#ff7f0e;stroke-linecap:round;"/>
    </g>
    <g id="line2d_128"/>
    <g id="text_22">
     <!-- Own Vessel ATC Case -->
     <defs>
      <path d="M 39.40625 66.21875 
Q 28.65625 66.21875 22.328125 58.203125 
Q 16.015625 50.203125 16.015625 36.375 
Q 16.015625 22.609375 22.328125 14.59375 
Q 28.65625 6.59375 39.40625 6.59375 
Q 50.140625 6.59375 56.421875 14.59375 
Q 62.703125 22.609375 62.703125 36.375 
Q 62.703125 50.203125 56.421875 58.203125 
Q 50.140625 66.21875 39.40625 66.21875 
z
M 39.40625 74.21875 
Q 54.734375 74.21875 63.90625 63.9375 
Q 73.09375 53.65625 73.09375 36.375 
Q 73.09375 19.140625 63.90625 8.859375 
Q 54.734375 -1.421875 39.40625 -1.421875 
Q 24.03125 -1.421875 14.8125 8.828125 
Q 5.609375 19.09375 5.609375 36.375 
Q 5.609375 53.65625 14.8125 63.9375 
Q 24.03125 74.21875 39.40625 74.21875 
z
" id="DejaVuSans-4f"/>
      <path d="M 4.203125 54.6875 
L 13.1875 54.6875 
L 24.421875 12.015625 
L 35.59375 54.6875 
L 46.1875 54.6875 
L 57.421875 12.015625 
L 68.609375 54.6875 
L 77.59375 54.6875 
L 63.28125 0 
L 52.6875 0 
L 40.921875 44.828125 
L 29.109375 0 
L 18.5 0 
z
" id="DejaVuSans-77"/>
      <path d="M 28.609375 0 
L 0.78125 72.90625 
L 11.078125 72.90625 
L 34.1875 11.53125 
L 57.328125 72.90625 
L 67.578125 72.90625 
L 39.796875 0 
z
" id="DejaVuSans-56"/>
      <path d="M 34.1875 63.1875 
L 20.796875 26.90625 
L 47.609375 26.90625 
z
M 28.609375 72.90625 
L 39.796875 72.90625 
L 67.578125 0 
L 57.328125 0 
L 50.6875 18.703125 
L 17.828125 18.703125 
L 11.1875 0 
L 0.78125 0 
z
" id="DejaVuSans-41"/>
     </defs>
     <g style="fill:#262626;" transform="translate(659.794875 84.166852)scale(0.1375 -0.1375)">
      <use xlink:href="#DejaVuSans-4f"/>
      <use x="78.710938" xlink:href="#DejaVuSans-77"/>
      <use x="160.498047" xlink:href="#DejaVuSans-6e"/>
      <use x="223.876953" xlink:href="#DejaVuSans-20"/>
      <use x="255.664062" xlink:href="#DejaVuSans-56"/>
      <use x="323.962891" xlink:href="#DejaVuSans-65"/>
      <use x="385.486328" xlink:href="#DejaVuSans-73"/>
      <use x="437.585938" xlink:href="#DejaVuSans-73"/>
      <use x="489.685547" xlink:href="#DejaVuSans-65"/>
      <use x="551.208984" xlink:href="#DejaVuSans-6c"/>
      <use x="578.992188" xlink:href="#DejaVuSans-20"/>
      <use x="610.779297" xlink:href="#DejaVuSans-41"/>
      <use x="679.078125" xlink:href="#DejaVuSans-54"/>
      <use x="740.083984" xlink:href="#DejaVuSans-43"/>
      <use x="809.908203" xlink:href="#DejaVuSans-20"/>
      <use x="841.695312" xlink:href="#DejaVuSans-43"/>
      <use x="911.519531" xlink:href="#DejaVuSans-61"/>
      <use x="972.798828" xlink:href="#DejaVuSans-73"/>
      <use x="1024.898438" xlink:href="#DejaVuSans-65"/>
     </g>
    </g>
    <g id="line2d_129">
     <path d="M 621.294875 99.536773 
L 648.794875 99.536773 
" style="fill:none;stroke:#ffdead;stroke-linecap:round;"/>
    </g>
    <g id="line2d_130"/>
    <g id="text_23">
     <!-- Own Vessel no ATC Case -->
     <g style="fill:#262626;" transform="translate(659.794875 104.349273)scale(0.1375 -0.1375)">
      <use xlink:href="#DejaVuSans-4f"/>
      <use x="78.710938" xlink:href="#DejaVuSans-77"/>
      <use x="160.498047" xlink:href="#DejaVuSans-6e"/>
      <use x="223.876953" xlink:href="#DejaVuSans-20"/>
      <use x="255.664062" xlink:href="#DejaVuSans-56"/>
      <use x="323.962891" xlink:href="#DejaVuSans-65"/>
      <use x="385.486328" xlink:href="#DejaVuSans-73"/>
      <use x="437.585938" xlink:href="#DejaVuSans-73"/>
      <use x="489.685547" xlink:href="#DejaVuSans-65"/>
      <use x="551.208984" xlink:href="#DejaVuSans-6c"/>
      <use x="578.992188" xlink:href="#DejaVuSans-20"/>
      <use x="610.779297" xlink:href="#DejaVuSans-6e"/>
      <use x="674.158203" xlink:href="#DejaVuSans-6f"/>
      <use x="735.339844" xlink:href="#DejaVuSans-20"/>
      <use x="767.126953" xlink:href="#DejaVuSans-41"/>
      <use x="835.425781" xlink:href="#DejaVuSans-54"/>
      <use x="896.431641" xlink:href="#DejaVuSans-43"/>
      <use x="966.255859" xlink:href="#DejaVuSans-20"/>
      <use x="998.042969" xlink:href="#DejaVuSans-43"/>
      <use x="1067.867188" xlink:href="#DejaVuSans-61"/>
      <use x="1129.146484" xlink:href="#DejaVuSans-73"/>
      <use x="1181.246094" xlink:href="#DejaVuSans-65"/>
     </g>
    </g>
   </g>
  </g>
 </g>
 <defs>
  <clipPath id="p64df309740">
   <rect height="393.624" width="725.958" x="117.09" y="61.344"/>
  </clipPath>
 </defs>
</svg>
