<?xml version="1.0" encoding="utf-8" standalone="no"?>
<!DOCTYPE svg PUBLIC "-//W3C//DTD SVG 1.1//EN"
  "http://www.w3.org/Graphics/SVG/1.1/DTD/svg11.dtd">
<!-- Created with matplotlib (http://matplotlib.org/) -->
<svg height="511.2pt" version="1.1" viewBox="0 0 936.72 511.2" width="936.72pt" xmlns="http://www.w3.org/2000/svg" xmlns:xlink="http://www.w3.org/1999/xlink">
 <defs>
  <style type="text/css">
*{stroke-linecap:butt;stroke-linejoin:round;}
  </style>
 </defs>
 <g id="figure_1">
  <g id="patch_1">
   <path d="M 0 511.2 
L 936.72 511.2 
L 936.72 0 
L 0 0 
z
" style="fill:#ffffff;"/>
  </g>
  <g id="axes_1">
   <g id="patch_2">
    <path d="M 117.09 454.968 
L 843.048 454.968 
L 843.048 61.344 
L 117.09 61.344 
z
" style="fill:#ffffff;"/>
   </g>
   <g id="matplotlib.axis_1">
    <g id="xtick_1">
     <g id="line2d_1">
      <path clip-path="url(#p715a6fd4a7)" d="M 117.09 454.968 
L 117.09 61.344 
" style="fill:none;stroke:#cccccc;stroke-linecap:round;stroke-opacity:0.5;"/>
     </g>
     <g id="line2d_2">
      <defs>
       <path d="M 0 0 
L 0 6 
" id="mb953cd3952" style="stroke:#262626;stroke-width:1.25;"/>
      </defs>
      <g>
       <use style="fill:#262626;stroke:#262626;stroke-width:1.25;" x="117.09" xlink:href="#mb953cd3952" y="454.968"/>
      </g>
     </g>
     <g id="text_1">
      <!-- 0.0 -->
      <defs>
       <path d="M 31.78125 66.40625 
Q 24.171875 66.40625 20.328125 58.90625 
Q 16.5 51.421875 16.5 36.375 
Q 16.5 21.390625 20.328125 13.890625 
Q 24.171875 6.390625 31.78125 6.390625 
Q 39.453125 6.390625 43.28125 13.890625 
Q 47.125 21.390625 47.125 36.375 
Q 47.125 51.421875 43.28125 58.90625 
Q 39.453125 66.40625 31.78125 66.40625 
z
M 31.78125 74.21875 
Q 44.046875 74.21875 50.515625 64.515625 
Q 56.984375 54.828125 56.984375 36.375 
Q 56.984375 17.96875 50.515625 8.265625 
Q 44.046875 -1.421875 31.78125 -1.421875 
Q 19.53125 -1.421875 13.0625 8.265625 
Q 6.59375 17.96875 6.59375 36.375 
Q 6.59375 54.828125 13.0625 64.515625 
Q 19.53125 74.21875 31.78125 74.21875 
z
" id="DejaVuSans-30"/>
       <path d="M 10.6875 12.40625 
L 21 12.40625 
L 21 0 
L 10.6875 0 
z
" id="DejaVuSans-2e"/>
      </defs>
      <g style="fill:#262626;" transform="translate(106.156602 474.915852)scale(0.1375 -0.1375)">
       <use xlink:href="#DejaVuSans-30"/>
       <use x="63.623047" xlink:href="#DejaVuSans-2e"/>
       <use x="95.410156" xlink:href="#DejaVuSans-30"/>
      </g>
     </g>
    </g>
    <g id="xtick_2">
     <g id="line2d_3">
      <path clip-path="url(#p715a6fd4a7)" d="M 262.2816 454.968 
L 262.2816 61.344 
" style="fill:none;stroke:#cccccc;stroke-linecap:round;stroke-opacity:0.5;"/>
     </g>
     <g id="line2d_4">
      <g>
       <use style="fill:#262626;stroke:#262626;stroke-width:1.25;" x="262.2816" xlink:href="#mb953cd3952" y="454.968"/>
      </g>
     </g>
     <g id="text_2">
      <!-- 0.2 -->
      <defs>
       <path d="M 19.1875 8.296875 
L 53.609375 8.296875 
L 53.609375 0 
L 7.328125 0 
L 7.328125 8.296875 
Q 12.9375 14.109375 22.625 23.890625 
Q 32.328125 33.6875 34.8125 36.53125 
Q 39.546875 41.84375 41.421875 45.53125 
Q 43.3125 49.21875 43.3125 52.78125 
Q 43.3125 58.59375 39.234375 62.25 
Q 35.15625 65.921875 28.609375 65.921875 
Q 23.96875 65.921875 18.8125 64.3125 
Q 13.671875 62.703125 7.8125 59.421875 
L 7.8125 69.390625 
Q 13.765625 71.78125 18.9375 73 
Q 24.125 74.21875 28.421875 74.21875 
Q 39.75 74.21875 46.484375 68.546875 
Q 53.21875 62.890625 53.21875 53.421875 
Q 53.21875 48.921875 51.53125 44.890625 
Q 49.859375 40.875 45.40625 35.40625 
Q 44.1875 33.984375 37.640625 27.21875 
Q 31.109375 20.453125 19.1875 8.296875 
z
" id="DejaVuSans-32"/>
      </defs>
      <g style="fill:#262626;" transform="translate(251.348202 474.915852)scale(0.1375 -0.1375)">
       <use xlink:href="#DejaVuSans-30"/>
       <use x="63.623047" xlink:href="#DejaVuSans-2e"/>
       <use x="95.410156" xlink:href="#DejaVuSans-32"/>
      </g>
     </g>
    </g>
    <g id="xtick_3">
     <g id="line2d_5">
      <path clip-path="url(#p715a6fd4a7)" d="M 407.4732 454.968 
L 407.4732 61.344 
" style="fill:none;stroke:#cccccc;stroke-linecap:round;stroke-opacity:0.5;"/>
     </g>
     <g id="line2d_6">
      <g>
       <use style="fill:#262626;stroke:#262626;stroke-width:1.25;" x="407.4732" xlink:href="#mb953cd3952" y="454.968"/>
      </g>
     </g>
     <g id="text_3">
      <!-- 0.4 -->
      <defs>
       <path d="M 37.796875 64.3125 
L 12.890625 25.390625 
L 37.796875 25.390625 
z
M 35.203125 72.90625 
L 47.609375 72.90625 
L 47.609375 25.390625 
L 58.015625 25.390625 
L 58.015625 17.1875 
L 47.609375 17.1875 
L 47.609375 0 
L 37.796875 0 
L 37.796875 17.1875 
L 4.890625 17.1875 
L 4.890625 26.703125 
z
" id="DejaVuSans-34"/>
      </defs>
      <g style="fill:#262626;" transform="translate(396.539802 474.915852)scale(0.1375 -0.1375)">
       <use xlink:href="#DejaVuSans-30"/>
       <use x="63.623047" xlink:href="#DejaVuSans-2e"/>
       <use x="95.410156" xlink:href="#DejaVuSans-34"/>
      </g>
     </g>
    </g>
    <g id="xtick_4">
     <g id="line2d_7">
      <path clip-path="url(#p715a6fd4a7)" d="M 552.6648 454.968 
L 552.6648 61.344 
" style="fill:none;stroke:#cccccc;stroke-linecap:round;stroke-opacity:0.5;"/>
     </g>
     <g id="line2d_8">
      <g>
       <use style="fill:#262626;stroke:#262626;stroke-width:1.25;" x="552.6648" xlink:href="#mb953cd3952" y="454.968"/>
      </g>
     </g>
     <g id="text_4">
      <!-- 0.6 -->
      <defs>
       <path d="M 33.015625 40.375 
Q 26.375 40.375 22.484375 35.828125 
Q 18.609375 31.296875 18.609375 23.390625 
Q 18.609375 15.53125 22.484375 10.953125 
Q 26.375 6.390625 33.015625 6.390625 
Q 39.65625 6.390625 43.53125 10.953125 
Q 47.40625 15.53125 47.40625 23.390625 
Q 47.40625 31.296875 43.53125 35.828125 
Q 39.65625 40.375 33.015625 40.375 
z
M 52.59375 71.296875 
L 52.59375 62.3125 
Q 48.875 64.0625 45.09375 64.984375 
Q 41.3125 65.921875 37.59375 65.921875 
Q 27.828125 65.921875 22.671875 59.328125 
Q 17.53125 52.734375 16.796875 39.40625 
Q 19.671875 43.65625 24.015625 45.921875 
Q 28.375 48.1875 33.59375 48.1875 
Q 44.578125 48.1875 50.953125 41.515625 
Q 57.328125 34.859375 57.328125 23.390625 
Q 57.328125 12.15625 50.6875 5.359375 
Q 44.046875 -1.421875 33.015625 -1.421875 
Q 20.359375 -1.421875 13.671875 8.265625 
Q 6.984375 17.96875 6.984375 36.375 
Q 6.984375 53.65625 15.1875 63.9375 
Q 23.390625 74.21875 37.203125 74.21875 
Q 40.921875 74.21875 44.703125 73.484375 
Q 48.484375 72.75 52.59375 71.296875 
z
" id="DejaVuSans-36"/>
      </defs>
      <g style="fill:#262626;" transform="translate(541.731402 474.915852)scale(0.1375 -0.1375)">
       <use xlink:href="#DejaVuSans-30"/>
       <use x="63.623047" xlink:href="#DejaVuSans-2e"/>
       <use x="95.410156" xlink:href="#DejaVuSans-36"/>
      </g>
     </g>
    </g>
    <g id="xtick_5">
     <g id="line2d_9">
      <path clip-path="url(#p715a6fd4a7)" d="M 697.8564 454.968 
L 697.8564 61.344 
" style="fill:none;stroke:#cccccc;stroke-linecap:round;stroke-opacity:0.5;"/>
     </g>
     <g id="line2d_10">
      <g>
       <use style="fill:#262626;stroke:#262626;stroke-width:1.25;" x="697.8564" xlink:href="#mb953cd3952" y="454.968"/>
      </g>
     </g>
     <g id="text_5">
      <!-- 0.8 -->
      <defs>
       <path d="M 31.78125 34.625 
Q 24.75 34.625 20.71875 30.859375 
Q 16.703125 27.09375 16.703125 20.515625 
Q 16.703125 13.921875 20.71875 10.15625 
Q 24.75 6.390625 31.78125 6.390625 
Q 38.8125 6.390625 42.859375 10.171875 
Q 46.921875 13.96875 46.921875 20.515625 
Q 46.921875 27.09375 42.890625 30.859375 
Q 38.875 34.625 31.78125 34.625 
z
M 21.921875 38.8125 
Q 15.578125 40.375 12.03125 44.71875 
Q 8.5 49.078125 8.5 55.328125 
Q 8.5 64.0625 14.71875 69.140625 
Q 20.953125 74.21875 31.78125 74.21875 
Q 42.671875 74.21875 48.875 69.140625 
Q 55.078125 64.0625 55.078125 55.328125 
Q 55.078125 49.078125 51.53125 44.71875 
Q 48 40.375 41.703125 38.8125 
Q 48.828125 37.15625 52.796875 32.3125 
Q 56.78125 27.484375 56.78125 20.515625 
Q 56.78125 9.90625 50.3125 4.234375 
Q 43.84375 -1.421875 31.78125 -1.421875 
Q 19.734375 -1.421875 13.25 4.234375 
Q 6.78125 9.90625 6.78125 20.515625 
Q 6.78125 27.484375 10.78125 32.3125 
Q 14.796875 37.15625 21.921875 38.8125 
z
M 18.3125 54.390625 
Q 18.3125 48.734375 21.84375 45.5625 
Q 25.390625 42.390625 31.78125 42.390625 
Q 38.140625 42.390625 41.71875 45.5625 
Q 45.3125 48.734375 45.3125 54.390625 
Q 45.3125 60.0625 41.71875 63.234375 
Q 38.140625 66.40625 31.78125 66.40625 
Q 25.390625 66.40625 21.84375 63.234375 
Q 18.3125 60.0625 18.3125 54.390625 
z
" id="DejaVuSans-38"/>
      </defs>
      <g style="fill:#262626;" transform="translate(686.923002 474.915852)scale(0.1375 -0.1375)">
       <use xlink:href="#DejaVuSans-30"/>
       <use x="63.623047" xlink:href="#DejaVuSans-2e"/>
       <use x="95.410156" xlink:href="#DejaVuSans-38"/>
      </g>
     </g>
    </g>
    <g id="xtick_6">
     <g id="line2d_11">
      <path clip-path="url(#p715a6fd4a7)" d="M 843.048 454.968 
L 843.048 61.344 
" style="fill:none;stroke:#cccccc;stroke-linecap:round;stroke-opacity:0.5;"/>
     </g>
     <g id="line2d_12">
      <g>
       <use style="fill:#262626;stroke:#262626;stroke-width:1.25;" x="843.048" xlink:href="#mb953cd3952" y="454.968"/>
      </g>
     </g>
     <g id="text_6">
      <!-- 1.0 -->
      <defs>
       <path d="M 12.40625 8.296875 
L 28.515625 8.296875 
L 28.515625 63.921875 
L 10.984375 60.40625 
L 10.984375 69.390625 
L 28.421875 72.90625 
L 38.28125 72.90625 
L 38.28125 8.296875 
L 54.390625 8.296875 
L 54.390625 0 
L 12.40625 0 
z
" id="DejaVuSans-31"/>
      </defs>
      <g style="fill:#262626;" transform="translate(832.114602 474.915852)scale(0.1375 -0.1375)">
       <use xlink:href="#DejaVuSans-31"/>
       <use x="63.623047" xlink:href="#DejaVuSans-2e"/>
       <use x="95.410156" xlink:href="#DejaVuSans-30"/>
      </g>
     </g>
    </g>
    <g id="text_7">
     <!-- Runtime (min) -->
     <defs>
      <path d="M 44.390625 34.1875 
Q 47.5625 33.109375 50.5625 29.59375 
Q 53.5625 26.078125 56.59375 19.921875 
L 66.609375 0 
L 56 0 
L 46.6875 18.703125 
Q 43.0625 26.03125 39.671875 28.421875 
Q 36.28125 30.8125 30.421875 30.8125 
L 19.671875 30.8125 
L 19.671875 0 
L 9.8125 0 
L 9.8125 72.90625 
L 32.078125 72.90625 
Q 44.578125 72.90625 50.734375 67.671875 
Q 56.890625 62.453125 56.890625 51.90625 
Q 56.890625 45.015625 53.6875 40.46875 
Q 50.484375 35.9375 44.390625 34.1875 
z
M 19.671875 64.796875 
L 19.671875 38.921875 
L 32.078125 38.921875 
Q 39.203125 38.921875 42.84375 42.21875 
Q 46.484375 45.515625 46.484375 51.90625 
Q 46.484375 58.296875 42.84375 61.546875 
Q 39.203125 64.796875 32.078125 64.796875 
z
" id="DejaVuSans-52"/>
      <path d="M 8.5 21.578125 
L 8.5 54.6875 
L 17.484375 54.6875 
L 17.484375 21.921875 
Q 17.484375 14.15625 20.5 10.265625 
Q 23.53125 6.390625 29.59375 6.390625 
Q 36.859375 6.390625 41.078125 11.03125 
Q 45.3125 15.671875 45.3125 23.6875 
L 45.3125 54.6875 
L 54.296875 54.6875 
L 54.296875 0 
L 45.3125 0 
L 45.3125 8.40625 
Q 42.046875 3.421875 37.71875 1 
Q 33.40625 -1.421875 27.6875 -1.421875 
Q 18.265625 -1.421875 13.375 4.4375 
Q 8.5 10.296875 8.5 21.578125 
z
M 31.109375 56 
z
" id="DejaVuSans-75"/>
      <path d="M 54.890625 33.015625 
L 54.890625 0 
L 45.90625 0 
L 45.90625 32.71875 
Q 45.90625 40.484375 42.875 44.328125 
Q 39.84375 48.1875 33.796875 48.1875 
Q 26.515625 48.1875 22.3125 43.546875 
Q 18.109375 38.921875 18.109375 30.90625 
L 18.109375 0 
L 9.078125 0 
L 9.078125 54.6875 
L 18.109375 54.6875 
L 18.109375 46.1875 
Q 21.34375 51.125 25.703125 53.5625 
Q 30.078125 56 35.796875 56 
Q 45.21875 56 50.046875 50.171875 
Q 54.890625 44.34375 54.890625 33.015625 
z
" id="DejaVuSans-6e"/>
      <path d="M 18.3125 70.21875 
L 18.3125 54.6875 
L 36.8125 54.6875 
L 36.8125 47.703125 
L 18.3125 47.703125 
L 18.3125 18.015625 
Q 18.3125 11.328125 20.140625 9.421875 
Q 21.96875 7.515625 27.59375 7.515625 
L 36.8125 7.515625 
L 36.8125 0 
L 27.59375 0 
Q 17.1875 0 13.234375 3.875 
Q 9.28125 7.765625 9.28125 18.015625 
L 9.28125 47.703125 
L 2.6875 47.703125 
L 2.6875 54.6875 
L 9.28125 54.6875 
L 9.28125 70.21875 
z
" id="DejaVuSans-74"/>
      <path d="M 9.421875 54.6875 
L 18.40625 54.6875 
L 18.40625 0 
L 9.421875 0 
z
M 9.421875 75.984375 
L 18.40625 75.984375 
L 18.40625 64.59375 
L 9.421875 64.59375 
z
" id="DejaVuSans-69"/>
      <path d="M 52 44.1875 
Q 55.375 50.25 60.0625 53.125 
Q 64.75 56 71.09375 56 
Q 79.640625 56 84.28125 50.015625 
Q 88.921875 44.046875 88.921875 33.015625 
L 88.921875 0 
L 79.890625 0 
L 79.890625 32.71875 
Q 79.890625 40.578125 77.09375 44.375 
Q 74.3125 48.1875 68.609375 48.1875 
Q 61.625 48.1875 57.5625 43.546875 
Q 53.515625 38.921875 53.515625 30.90625 
L 53.515625 0 
L 44.484375 0 
L 44.484375 32.71875 
Q 44.484375 40.625 41.703125 44.40625 
Q 38.921875 48.1875 33.109375 48.1875 
Q 26.21875 48.1875 22.15625 43.53125 
Q 18.109375 38.875 18.109375 30.90625 
L 18.109375 0 
L 9.078125 0 
L 9.078125 54.6875 
L 18.109375 54.6875 
L 18.109375 46.1875 
Q 21.1875 51.21875 25.484375 53.609375 
Q 29.78125 56 35.6875 56 
Q 41.65625 56 45.828125 52.96875 
Q 50 49.953125 52 44.1875 
z
" id="DejaVuSans-6d"/>
      <path d="M 56.203125 29.59375 
L 56.203125 25.203125 
L 14.890625 25.203125 
Q 15.484375 15.921875 20.484375 11.0625 
Q 25.484375 6.203125 34.421875 6.203125 
Q 39.59375 6.203125 44.453125 7.46875 
Q 49.3125 8.734375 54.109375 11.28125 
L 54.109375 2.78125 
Q 49.265625 0.734375 44.1875 -0.34375 
Q 39.109375 -1.421875 33.890625 -1.421875 
Q 20.796875 -1.421875 13.15625 6.1875 
Q 5.515625 13.8125 5.515625 26.8125 
Q 5.515625 40.234375 12.765625 48.109375 
Q 20.015625 56 32.328125 56 
Q 43.359375 56 49.78125 48.890625 
Q 56.203125 41.796875 56.203125 29.59375 
z
M 47.21875 32.234375 
Q 47.125 39.59375 43.09375 43.984375 
Q 39.0625 48.390625 32.421875 48.390625 
Q 24.90625 48.390625 20.390625 44.140625 
Q 15.875 39.890625 15.1875 32.171875 
z
" id="DejaVuSans-65"/>
      <path id="DejaVuSans-20"/>
      <path d="M 31 75.875 
Q 24.46875 64.65625 21.28125 53.65625 
Q 18.109375 42.671875 18.109375 31.390625 
Q 18.109375 20.125 21.3125 9.0625 
Q 24.515625 -2 31 -13.1875 
L 23.1875 -13.1875 
Q 15.875 -1.703125 12.234375 9.375 
Q 8.59375 20.453125 8.59375 31.390625 
Q 8.59375 42.28125 12.203125 53.3125 
Q 15.828125 64.359375 23.1875 75.875 
z
" id="DejaVuSans-28"/>
      <path d="M 8.015625 75.875 
L 15.828125 75.875 
Q 23.140625 64.359375 26.78125 53.3125 
Q 30.421875 42.28125 30.421875 31.390625 
Q 30.421875 20.453125 26.78125 9.375 
Q 23.140625 -1.703125 15.828125 -13.1875 
L 8.015625 -13.1875 
Q 14.5 -2 17.703125 9.0625 
Q 20.90625 20.125 20.90625 31.390625 
Q 20.90625 42.671875 17.703125 53.65625 
Q 14.5 64.65625 8.015625 75.875 
z
" id="DejaVuSans-29"/>
     </defs>
     <g style="fill:#262626;" transform="translate(426.033844 493.173078)scale(0.15 -0.15)">
      <use xlink:href="#DejaVuSans-52"/>
      <use x="69.419922" xlink:href="#DejaVuSans-75"/>
      <use x="132.798828" xlink:href="#DejaVuSans-6e"/>
      <use x="196.177734" xlink:href="#DejaVuSans-74"/>
      <use x="235.386719" xlink:href="#DejaVuSans-69"/>
      <use x="263.169922" xlink:href="#DejaVuSans-6d"/>
      <use x="360.582031" xlink:href="#DejaVuSans-65"/>
      <use x="422.105469" xlink:href="#DejaVuSans-20"/>
      <use x="453.892578" xlink:href="#DejaVuSans-28"/>
      <use x="492.90625" xlink:href="#DejaVuSans-6d"/>
      <use x="590.318359" xlink:href="#DejaVuSans-69"/>
      <use x="618.101562" xlink:href="#DejaVuSans-6e"/>
      <use x="681.480469" xlink:href="#DejaVuSans-29"/>
     </g>
    </g>
   </g>
   <g id="matplotlib.axis_2">
    <g id="ytick_1">
     <g id="line2d_13">
      <path clip-path="url(#p715a6fd4a7)" d="M 117.09 450.443586 
L 843.048 450.443586 
" style="fill:none;stroke:#cccccc;stroke-linecap:round;stroke-opacity:0.5;"/>
     </g>
     <g id="line2d_14">
      <defs>
       <path d="M 0 0 
L -6 0 
" id="ma965535a94" style="stroke:#262626;stroke-width:1.25;"/>
      </defs>
      <g>
       <use style="fill:#262626;stroke:#262626;stroke-width:1.25;" x="117.09" xlink:href="#ma965535a94" y="450.443586"/>
      </g>
     </g>
     <g id="text_8">
      <!-- 0.00 -->
      <g style="fill:#262626;" transform="translate(76.974766 455.667512)scale(0.1375 -0.1375)">
       <use xlink:href="#DejaVuSans-30"/>
       <use x="63.623047" xlink:href="#DejaVuSans-2e"/>
       <use x="95.410156" xlink:href="#DejaVuSans-30"/>
       <use x="159.033203" xlink:href="#DejaVuSans-30"/>
      </g>
     </g>
    </g>
    <g id="ytick_2">
     <g id="line2d_15">
      <path clip-path="url(#p715a6fd4a7)" d="M 117.09 405.199448 
L 843.048 405.199448 
" style="fill:none;stroke:#cccccc;stroke-linecap:round;stroke-opacity:0.5;"/>
     </g>
     <g id="line2d_16">
      <g>
       <use style="fill:#262626;stroke:#262626;stroke-width:1.25;" x="117.09" xlink:href="#ma965535a94" y="405.199448"/>
      </g>
     </g>
     <g id="text_9">
      <!-- 0.05 -->
      <defs>
       <path d="M 10.796875 72.90625 
L 49.515625 72.90625 
L 49.515625 64.59375 
L 19.828125 64.59375 
L 19.828125 46.734375 
Q 21.96875 47.46875 24.109375 47.828125 
Q 26.265625 48.1875 28.421875 48.1875 
Q 40.625 48.1875 47.75 41.5 
Q 54.890625 34.8125 54.890625 23.390625 
Q 54.890625 11.625 47.5625 5.09375 
Q 40.234375 -1.421875 26.90625 -1.421875 
Q 22.3125 -1.421875 17.546875 -0.640625 
Q 12.796875 0.140625 7.71875 1.703125 
L 7.71875 11.625 
Q 12.109375 9.234375 16.796875 8.0625 
Q 21.484375 6.890625 26.703125 6.890625 
Q 35.15625 6.890625 40.078125 11.328125 
Q 45.015625 15.765625 45.015625 23.390625 
Q 45.015625 31 40.078125 35.4375 
Q 35.15625 39.890625 26.703125 39.890625 
Q 22.75 39.890625 18.8125 39.015625 
Q 14.890625 38.140625 10.796875 36.28125 
z
" id="DejaVuSans-35"/>
      </defs>
      <g style="fill:#262626;" transform="translate(76.974766 410.423374)scale(0.1375 -0.1375)">
       <use xlink:href="#DejaVuSans-30"/>
       <use x="63.623047" xlink:href="#DejaVuSans-2e"/>
       <use x="95.410156" xlink:href="#DejaVuSans-30"/>
       <use x="159.033203" xlink:href="#DejaVuSans-35"/>
      </g>
     </g>
    </g>
    <g id="ytick_3">
     <g id="line2d_17">
      <path clip-path="url(#p715a6fd4a7)" d="M 117.09 359.95531 
L 843.048 359.95531 
" style="fill:none;stroke:#cccccc;stroke-linecap:round;stroke-opacity:0.5;"/>
     </g>
     <g id="line2d_18">
      <g>
       <use style="fill:#262626;stroke:#262626;stroke-width:1.25;" x="117.09" xlink:href="#ma965535a94" y="359.95531"/>
      </g>
     </g>
     <g id="text_10">
      <!-- 0.10 -->
      <g style="fill:#262626;" transform="translate(76.974766 365.179236)scale(0.1375 -0.1375)">
       <use xlink:href="#DejaVuSans-30"/>
       <use x="63.623047" xlink:href="#DejaVuSans-2e"/>
       <use x="95.410156" xlink:href="#DejaVuSans-31"/>
       <use x="159.033203" xlink:href="#DejaVuSans-30"/>
      </g>
     </g>
    </g>
    <g id="ytick_4">
     <g id="line2d_19">
      <path clip-path="url(#p715a6fd4a7)" d="M 117.09 314.711172 
L 843.048 314.711172 
" style="fill:none;stroke:#cccccc;stroke-linecap:round;stroke-opacity:0.5;"/>
     </g>
     <g id="line2d_20">
      <g>
       <use style="fill:#262626;stroke:#262626;stroke-width:1.25;" x="117.09" xlink:href="#ma965535a94" y="314.711172"/>
      </g>
     </g>
     <g id="text_11">
      <!-- 0.15 -->
      <g style="fill:#262626;" transform="translate(76.974766 319.935098)scale(0.1375 -0.1375)">
       <use xlink:href="#DejaVuSans-30"/>
       <use x="63.623047" xlink:href="#DejaVuSans-2e"/>
       <use x="95.410156" xlink:href="#DejaVuSans-31"/>
       <use x="159.033203" xlink:href="#DejaVuSans-35"/>
      </g>
     </g>
    </g>
    <g id="ytick_5">
     <g id="line2d_21">
      <path clip-path="url(#p715a6fd4a7)" d="M 117.09 269.467034 
L 843.048 269.467034 
" style="fill:none;stroke:#cccccc;stroke-linecap:round;stroke-opacity:0.5;"/>
     </g>
     <g id="line2d_22">
      <g>
       <use style="fill:#262626;stroke:#262626;stroke-width:1.25;" x="117.09" xlink:href="#ma965535a94" y="269.467034"/>
      </g>
     </g>
     <g id="text_12">
      <!-- 0.20 -->
      <g style="fill:#262626;" transform="translate(76.974766 274.69096)scale(0.1375 -0.1375)">
       <use xlink:href="#DejaVuSans-30"/>
       <use x="63.623047" xlink:href="#DejaVuSans-2e"/>
       <use x="95.410156" xlink:href="#DejaVuSans-32"/>
       <use x="159.033203" xlink:href="#DejaVuSans-30"/>
      </g>
     </g>
    </g>
    <g id="ytick_6">
     <g id="line2d_23">
      <path clip-path="url(#p715a6fd4a7)" d="M 117.09 224.222897 
L 843.048 224.222897 
" style="fill:none;stroke:#cccccc;stroke-linecap:round;stroke-opacity:0.5;"/>
     </g>
     <g id="line2d_24">
      <g>
       <use style="fill:#262626;stroke:#262626;stroke-width:1.25;" x="117.09" xlink:href="#ma965535a94" y="224.222897"/>
      </g>
     </g>
     <g id="text_13">
      <!-- 0.25 -->
      <g style="fill:#262626;" transform="translate(76.974766 229.446822)scale(0.1375 -0.1375)">
       <use xlink:href="#DejaVuSans-30"/>
       <use x="63.623047" xlink:href="#DejaVuSans-2e"/>
       <use x="95.410156" xlink:href="#DejaVuSans-32"/>
       <use x="159.033203" xlink:href="#DejaVuSans-35"/>
      </g>
     </g>
    </g>
    <g id="ytick_7">
     <g id="line2d_25">
      <path clip-path="url(#p715a6fd4a7)" d="M 117.09 178.978759 
L 843.048 178.978759 
" style="fill:none;stroke:#cccccc;stroke-linecap:round;stroke-opacity:0.5;"/>
     </g>
     <g id="line2d_26">
      <g>
       <use style="fill:#262626;stroke:#262626;stroke-width:1.25;" x="117.09" xlink:href="#ma965535a94" y="178.978759"/>
      </g>
     </g>
     <g id="text_14">
      <!-- 0.30 -->
      <defs>
       <path d="M 40.578125 39.3125 
Q 47.65625 37.796875 51.625 33 
Q 55.609375 28.21875 55.609375 21.1875 
Q 55.609375 10.40625 48.1875 4.484375 
Q 40.765625 -1.421875 27.09375 -1.421875 
Q 22.515625 -1.421875 17.65625 -0.515625 
Q 12.796875 0.390625 7.625 2.203125 
L 7.625 11.71875 
Q 11.71875 9.328125 16.59375 8.109375 
Q 21.484375 6.890625 26.8125 6.890625 
Q 36.078125 6.890625 40.9375 10.546875 
Q 45.796875 14.203125 45.796875 21.1875 
Q 45.796875 27.640625 41.28125 31.265625 
Q 36.765625 34.90625 28.71875 34.90625 
L 20.21875 34.90625 
L 20.21875 43.015625 
L 29.109375 43.015625 
Q 36.375 43.015625 40.234375 45.921875 
Q 44.09375 48.828125 44.09375 54.296875 
Q 44.09375 59.90625 40.109375 62.90625 
Q 36.140625 65.921875 28.71875 65.921875 
Q 24.65625 65.921875 20.015625 65.03125 
Q 15.375 64.15625 9.8125 62.3125 
L 9.8125 71.09375 
Q 15.4375 72.65625 20.34375 73.4375 
Q 25.25 74.21875 29.59375 74.21875 
Q 40.828125 74.21875 47.359375 69.109375 
Q 53.90625 64.015625 53.90625 55.328125 
Q 53.90625 49.265625 50.4375 45.09375 
Q 46.96875 40.921875 40.578125 39.3125 
z
" id="DejaVuSans-33"/>
      </defs>
      <g style="fill:#262626;" transform="translate(76.974766 184.202684)scale(0.1375 -0.1375)">
       <use xlink:href="#DejaVuSans-30"/>
       <use x="63.623047" xlink:href="#DejaVuSans-2e"/>
       <use x="95.410156" xlink:href="#DejaVuSans-33"/>
       <use x="159.033203" xlink:href="#DejaVuSans-30"/>
      </g>
     </g>
    </g>
    <g id="ytick_8">
     <g id="line2d_27">
      <path clip-path="url(#p715a6fd4a7)" d="M 117.09 133.734621 
L 843.048 133.734621 
" style="fill:none;stroke:#cccccc;stroke-linecap:round;stroke-opacity:0.5;"/>
     </g>
     <g id="line2d_28">
      <g>
       <use style="fill:#262626;stroke:#262626;stroke-width:1.25;" x="117.09" xlink:href="#ma965535a94" y="133.734621"/>
      </g>
     </g>
     <g id="text_15">
      <!-- 0.35 -->
      <g style="fill:#262626;" transform="translate(76.974766 138.958546)scale(0.1375 -0.1375)">
       <use xlink:href="#DejaVuSans-30"/>
       <use x="63.623047" xlink:href="#DejaVuSans-2e"/>
       <use x="95.410156" xlink:href="#DejaVuSans-33"/>
       <use x="159.033203" xlink:href="#DejaVuSans-35"/>
      </g>
     </g>
    </g>
    <g id="ytick_9">
     <g id="line2d_29">
      <path clip-path="url(#p715a6fd4a7)" d="M 117.09 88.490483 
L 843.048 88.490483 
" style="fill:none;stroke:#cccccc;stroke-linecap:round;stroke-opacity:0.5;"/>
     </g>
     <g id="line2d_30">
      <g>
       <use style="fill:#262626;stroke:#262626;stroke-width:1.25;" x="117.09" xlink:href="#ma965535a94" y="88.490483"/>
      </g>
     </g>
     <g id="text_16">
      <!-- 0.40 -->
      <g style="fill:#262626;" transform="translate(76.974766 93.714409)scale(0.1375 -0.1375)">
       <use xlink:href="#DejaVuSans-30"/>
       <use x="63.623047" xlink:href="#DejaVuSans-2e"/>
       <use x="95.410156" xlink:href="#DejaVuSans-34"/>
       <use x="159.033203" xlink:href="#DejaVuSans-30"/>
      </g>
     </g>
    </g>
    <g id="ytick_10">
     <g id="line2d_31">
      <path clip-path="url(#p715a6fd4a7)" d="M 117.09 450.443586 
L 843.048 450.443586 
" style="fill:none;stroke:#cccccc;stroke-linecap:round;stroke-opacity:0.2;"/>
     </g>
     <g id="line2d_32">
      <defs>
       <path d="M 0 0 
L -4 0 
" id="ma1ccff4f24" style="stroke:#262626;"/>
      </defs>
      <g>
       <use style="fill:#262626;stroke:#262626;" x="117.09" xlink:href="#ma1ccff4f24" y="450.443586"/>
      </g>
     </g>
    </g>
    <g id="ytick_11">
     <g id="line2d_33">
      <path clip-path="url(#p715a6fd4a7)" d="M 117.09 441.394759 
L 843.048 441.394759 
" style="fill:none;stroke:#cccccc;stroke-linecap:round;stroke-opacity:0.2;"/>
     </g>
     <g id="line2d_34">
      <g>
       <use style="fill:#262626;stroke:#262626;" x="117.09" xlink:href="#ma1ccff4f24" y="441.394759"/>
      </g>
     </g>
    </g>
    <g id="ytick_12">
     <g id="line2d_35">
      <path clip-path="url(#p715a6fd4a7)" d="M 117.09 432.345931 
L 843.048 432.345931 
" style="fill:none;stroke:#cccccc;stroke-linecap:round;stroke-opacity:0.2;"/>
     </g>
     <g id="line2d_36">
      <g>
       <use style="fill:#262626;stroke:#262626;" x="117.09" xlink:href="#ma1ccff4f24" y="432.345931"/>
      </g>
     </g>
    </g>
    <g id="ytick_13">
     <g id="line2d_37">
      <path clip-path="url(#p715a6fd4a7)" d="M 117.09 423.297103 
L 843.048 423.297103 
" style="fill:none;stroke:#cccccc;stroke-linecap:round;stroke-opacity:0.2;"/>
     </g>
     <g id="line2d_38">
      <g>
       <use style="fill:#262626;stroke:#262626;" x="117.09" xlink:href="#ma1ccff4f24" y="423.297103"/>
      </g>
     </g>
    </g>
    <g id="ytick_14">
     <g id="line2d_39">
      <path clip-path="url(#p715a6fd4a7)" d="M 117.09 414.248276 
L 843.048 414.248276 
" style="fill:none;stroke:#cccccc;stroke-linecap:round;stroke-opacity:0.2;"/>
     </g>
     <g id="line2d_40">
      <g>
       <use style="fill:#262626;stroke:#262626;" x="117.09" xlink:href="#ma1ccff4f24" y="414.248276"/>
      </g>
     </g>
    </g>
    <g id="ytick_15">
     <g id="line2d_41">
      <path clip-path="url(#p715a6fd4a7)" d="M 117.09 405.199448 
L 843.048 405.199448 
" style="fill:none;stroke:#cccccc;stroke-linecap:round;stroke-opacity:0.2;"/>
     </g>
     <g id="line2d_42">
      <g>
       <use style="fill:#262626;stroke:#262626;" x="117.09" xlink:href="#ma1ccff4f24" y="405.199448"/>
      </g>
     </g>
    </g>
    <g id="ytick_16">
     <g id="line2d_43">
      <path clip-path="url(#p715a6fd4a7)" d="M 117.09 396.150621 
L 843.048 396.150621 
" style="fill:none;stroke:#cccccc;stroke-linecap:round;stroke-opacity:0.2;"/>
     </g>
     <g id="line2d_44">
      <g>
       <use style="fill:#262626;stroke:#262626;" x="117.09" xlink:href="#ma1ccff4f24" y="396.150621"/>
      </g>
     </g>
    </g>
    <g id="ytick_17">
     <g id="line2d_45">
      <path clip-path="url(#p715a6fd4a7)" d="M 117.09 387.101793 
L 843.048 387.101793 
" style="fill:none;stroke:#cccccc;stroke-linecap:round;stroke-opacity:0.2;"/>
     </g>
     <g id="line2d_46">
      <g>
       <use style="fill:#262626;stroke:#262626;" x="117.09" xlink:href="#ma1ccff4f24" y="387.101793"/>
      </g>
     </g>
    </g>
    <g id="ytick_18">
     <g id="line2d_47">
      <path clip-path="url(#p715a6fd4a7)" d="M 117.09 378.052966 
L 843.048 378.052966 
" style="fill:none;stroke:#cccccc;stroke-linecap:round;stroke-opacity:0.2;"/>
     </g>
     <g id="line2d_48">
      <g>
       <use style="fill:#262626;stroke:#262626;" x="117.09" xlink:href="#ma1ccff4f24" y="378.052966"/>
      </g>
     </g>
    </g>
    <g id="ytick_19">
     <g id="line2d_49">
      <path clip-path="url(#p715a6fd4a7)" d="M 117.09 369.004138 
L 843.048 369.004138 
" style="fill:none;stroke:#cccccc;stroke-linecap:round;stroke-opacity:0.2;"/>
     </g>
     <g id="line2d_50">
      <g>
       <use style="fill:#262626;stroke:#262626;" x="117.09" xlink:href="#ma1ccff4f24" y="369.004138"/>
      </g>
     </g>
    </g>
    <g id="ytick_20">
     <g id="line2d_51">
      <path clip-path="url(#p715a6fd4a7)" d="M 117.09 359.95531 
L 843.048 359.95531 
" style="fill:none;stroke:#cccccc;stroke-linecap:round;stroke-opacity:0.2;"/>
     </g>
     <g id="line2d_52">
      <g>
       <use style="fill:#262626;stroke:#262626;" x="117.09" xlink:href="#ma1ccff4f24" y="359.95531"/>
      </g>
     </g>
    </g>
    <g id="ytick_21">
     <g id="line2d_53">
      <path clip-path="url(#p715a6fd4a7)" d="M 117.09 350.906483 
L 843.048 350.906483 
" style="fill:none;stroke:#cccccc;stroke-linecap:round;stroke-opacity:0.2;"/>
     </g>
     <g id="line2d_54">
      <g>
       <use style="fill:#262626;stroke:#262626;" x="117.09" xlink:href="#ma1ccff4f24" y="350.906483"/>
      </g>
     </g>
    </g>
    <g id="ytick_22">
     <g id="line2d_55">
      <path clip-path="url(#p715a6fd4a7)" d="M 117.09 341.857655 
L 843.048 341.857655 
" style="fill:none;stroke:#cccccc;stroke-linecap:round;stroke-opacity:0.2;"/>
     </g>
     <g id="line2d_56">
      <g>
       <use style="fill:#262626;stroke:#262626;" x="117.09" xlink:href="#ma1ccff4f24" y="341.857655"/>
      </g>
     </g>
    </g>
    <g id="ytick_23">
     <g id="line2d_57">
      <path clip-path="url(#p715a6fd4a7)" d="M 117.09 332.808828 
L 843.048 332.808828 
" style="fill:none;stroke:#cccccc;stroke-linecap:round;stroke-opacity:0.2;"/>
     </g>
     <g id="line2d_58">
      <g>
       <use style="fill:#262626;stroke:#262626;" x="117.09" xlink:href="#ma1ccff4f24" y="332.808828"/>
      </g>
     </g>
    </g>
    <g id="ytick_24">
     <g id="line2d_59">
      <path clip-path="url(#p715a6fd4a7)" d="M 117.09 323.76 
L 843.048 323.76 
" style="fill:none;stroke:#cccccc;stroke-linecap:round;stroke-opacity:0.2;"/>
     </g>
     <g id="line2d_60">
      <g>
       <use style="fill:#262626;stroke:#262626;" x="117.09" xlink:href="#ma1ccff4f24" y="323.76"/>
      </g>
     </g>
    </g>
    <g id="ytick_25">
     <g id="line2d_61">
      <path clip-path="url(#p715a6fd4a7)" d="M 117.09 314.711172 
L 843.048 314.711172 
" style="fill:none;stroke:#cccccc;stroke-linecap:round;stroke-opacity:0.2;"/>
     </g>
     <g id="line2d_62">
      <g>
       <use style="fill:#262626;stroke:#262626;" x="117.09" xlink:href="#ma1ccff4f24" y="314.711172"/>
      </g>
     </g>
    </g>
    <g id="ytick_26">
     <g id="line2d_63">
      <path clip-path="url(#p715a6fd4a7)" d="M 117.09 305.662345 
L 843.048 305.662345 
" style="fill:none;stroke:#cccccc;stroke-linecap:round;stroke-opacity:0.2;"/>
     </g>
     <g id="line2d_64">
      <g>
       <use style="fill:#262626;stroke:#262626;" x="117.09" xlink:href="#ma1ccff4f24" y="305.662345"/>
      </g>
     </g>
    </g>
    <g id="ytick_27">
     <g id="line2d_65">
      <path clip-path="url(#p715a6fd4a7)" d="M 117.09 296.613517 
L 843.048 296.613517 
" style="fill:none;stroke:#cccccc;stroke-linecap:round;stroke-opacity:0.2;"/>
     </g>
     <g id="line2d_66">
      <g>
       <use style="fill:#262626;stroke:#262626;" x="117.09" xlink:href="#ma1ccff4f24" y="296.613517"/>
      </g>
     </g>
    </g>
    <g id="ytick_28">
     <g id="line2d_67">
      <path clip-path="url(#p715a6fd4a7)" d="M 117.09 287.56469 
L 843.048 287.56469 
" style="fill:none;stroke:#cccccc;stroke-linecap:round;stroke-opacity:0.2;"/>
     </g>
     <g id="line2d_68">
      <g>
       <use style="fill:#262626;stroke:#262626;" x="117.09" xlink:href="#ma1ccff4f24" y="287.56469"/>
      </g>
     </g>
    </g>
    <g id="ytick_29">
     <g id="line2d_69">
      <path clip-path="url(#p715a6fd4a7)" d="M 117.09 278.515862 
L 843.048 278.515862 
" style="fill:none;stroke:#cccccc;stroke-linecap:round;stroke-opacity:0.2;"/>
     </g>
     <g id="line2d_70">
      <g>
       <use style="fill:#262626;stroke:#262626;" x="117.09" xlink:href="#ma1ccff4f24" y="278.515862"/>
      </g>
     </g>
    </g>
    <g id="ytick_30">
     <g id="line2d_71">
      <path clip-path="url(#p715a6fd4a7)" d="M 117.09 269.467034 
L 843.048 269.467034 
" style="fill:none;stroke:#cccccc;stroke-linecap:round;stroke-opacity:0.2;"/>
     </g>
     <g id="line2d_72">
      <g>
       <use style="fill:#262626;stroke:#262626;" x="117.09" xlink:href="#ma1ccff4f24" y="269.467034"/>
      </g>
     </g>
    </g>
    <g id="ytick_31">
     <g id="line2d_73">
      <path clip-path="url(#p715a6fd4a7)" d="M 117.09 260.418207 
L 843.048 260.418207 
" style="fill:none;stroke:#cccccc;stroke-linecap:round;stroke-opacity:0.2;"/>
     </g>
     <g id="line2d_74">
      <g>
       <use style="fill:#262626;stroke:#262626;" x="117.09" xlink:href="#ma1ccff4f24" y="260.418207"/>
      </g>
     </g>
    </g>
    <g id="ytick_32">
     <g id="line2d_75">
      <path clip-path="url(#p715a6fd4a7)" d="M 117.09 251.369379 
L 843.048 251.369379 
" style="fill:none;stroke:#cccccc;stroke-linecap:round;stroke-opacity:0.2;"/>
     </g>
     <g id="line2d_76">
      <g>
       <use style="fill:#262626;stroke:#262626;" x="117.09" xlink:href="#ma1ccff4f24" y="251.369379"/>
      </g>
     </g>
    </g>
    <g id="ytick_33">
     <g id="line2d_77">
      <path clip-path="url(#p715a6fd4a7)" d="M 117.09 242.320552 
L 843.048 242.320552 
" style="fill:none;stroke:#cccccc;stroke-linecap:round;stroke-opacity:0.2;"/>
     </g>
     <g id="line2d_78">
      <g>
       <use style="fill:#262626;stroke:#262626;" x="117.09" xlink:href="#ma1ccff4f24" y="242.320552"/>
      </g>
     </g>
    </g>
    <g id="ytick_34">
     <g id="line2d_79">
      <path clip-path="url(#p715a6fd4a7)" d="M 117.09 233.271724 
L 843.048 233.271724 
" style="fill:none;stroke:#cccccc;stroke-linecap:round;stroke-opacity:0.2;"/>
     </g>
     <g id="line2d_80">
      <g>
       <use style="fill:#262626;stroke:#262626;" x="117.09" xlink:href="#ma1ccff4f24" y="233.271724"/>
      </g>
     </g>
    </g>
    <g id="ytick_35">
     <g id="line2d_81">
      <path clip-path="url(#p715a6fd4a7)" d="M 117.09 224.222897 
L 843.048 224.222897 
" style="fill:none;stroke:#cccccc;stroke-linecap:round;stroke-opacity:0.2;"/>
     </g>
     <g id="line2d_82">
      <g>
       <use style="fill:#262626;stroke:#262626;" x="117.09" xlink:href="#ma1ccff4f24" y="224.222897"/>
      </g>
     </g>
    </g>
    <g id="ytick_36">
     <g id="line2d_83">
      <path clip-path="url(#p715a6fd4a7)" d="M 117.09 215.174069 
L 843.048 215.174069 
" style="fill:none;stroke:#cccccc;stroke-linecap:round;stroke-opacity:0.2;"/>
     </g>
     <g id="line2d_84">
      <g>
       <use style="fill:#262626;stroke:#262626;" x="117.09" xlink:href="#ma1ccff4f24" y="215.174069"/>
      </g>
     </g>
    </g>
    <g id="ytick_37">
     <g id="line2d_85">
      <path clip-path="url(#p715a6fd4a7)" d="M 117.09 206.125241 
L 843.048 206.125241 
" style="fill:none;stroke:#cccccc;stroke-linecap:round;stroke-opacity:0.2;"/>
     </g>
     <g id="line2d_86">
      <g>
       <use style="fill:#262626;stroke:#262626;" x="117.09" xlink:href="#ma1ccff4f24" y="206.125241"/>
      </g>
     </g>
    </g>
    <g id="ytick_38">
     <g id="line2d_87">
      <path clip-path="url(#p715a6fd4a7)" d="M 117.09 197.076414 
L 843.048 197.076414 
" style="fill:none;stroke:#cccccc;stroke-linecap:round;stroke-opacity:0.2;"/>
     </g>
     <g id="line2d_88">
      <g>
       <use style="fill:#262626;stroke:#262626;" x="117.09" xlink:href="#ma1ccff4f24" y="197.076414"/>
      </g>
     </g>
    </g>
    <g id="ytick_39">
     <g id="line2d_89">
      <path clip-path="url(#p715a6fd4a7)" d="M 117.09 188.027586 
L 843.048 188.027586 
" style="fill:none;stroke:#cccccc;stroke-linecap:round;stroke-opacity:0.2;"/>
     </g>
     <g id="line2d_90">
      <g>
       <use style="fill:#262626;stroke:#262626;" x="117.09" xlink:href="#ma1ccff4f24" y="188.027586"/>
      </g>
     </g>
    </g>
    <g id="ytick_40">
     <g id="line2d_91">
      <path clip-path="url(#p715a6fd4a7)" d="M 117.09 178.978759 
L 843.048 178.978759 
" style="fill:none;stroke:#cccccc;stroke-linecap:round;stroke-opacity:0.2;"/>
     </g>
     <g id="line2d_92">
      <g>
       <use style="fill:#262626;stroke:#262626;" x="117.09" xlink:href="#ma1ccff4f24" y="178.978759"/>
      </g>
     </g>
    </g>
    <g id="ytick_41">
     <g id="line2d_93">
      <path clip-path="url(#p715a6fd4a7)" d="M 117.09 169.929931 
L 843.048 169.929931 
" style="fill:none;stroke:#cccccc;stroke-linecap:round;stroke-opacity:0.2;"/>
     </g>
     <g id="line2d_94">
      <g>
       <use style="fill:#262626;stroke:#262626;" x="117.09" xlink:href="#ma1ccff4f24" y="169.929931"/>
      </g>
     </g>
    </g>
    <g id="ytick_42">
     <g id="line2d_95">
      <path clip-path="url(#p715a6fd4a7)" d="M 117.09 160.881103 
L 843.048 160.881103 
" style="fill:none;stroke:#cccccc;stroke-linecap:round;stroke-opacity:0.2;"/>
     </g>
     <g id="line2d_96">
      <g>
       <use style="fill:#262626;stroke:#262626;" x="117.09" xlink:href="#ma1ccff4f24" y="160.881103"/>
      </g>
     </g>
    </g>
    <g id="ytick_43">
     <g id="line2d_97">
      <path clip-path="url(#p715a6fd4a7)" d="M 117.09 151.832276 
L 843.048 151.832276 
" style="fill:none;stroke:#cccccc;stroke-linecap:round;stroke-opacity:0.2;"/>
     </g>
     <g id="line2d_98">
      <g>
       <use style="fill:#262626;stroke:#262626;" x="117.09" xlink:href="#ma1ccff4f24" y="151.832276"/>
      </g>
     </g>
    </g>
    <g id="ytick_44">
     <g id="line2d_99">
      <path clip-path="url(#p715a6fd4a7)" d="M 117.09 142.783448 
L 843.048 142.783448 
" style="fill:none;stroke:#cccccc;stroke-linecap:round;stroke-opacity:0.2;"/>
     </g>
     <g id="line2d_100">
      <g>
       <use style="fill:#262626;stroke:#262626;" x="117.09" xlink:href="#ma1ccff4f24" y="142.783448"/>
      </g>
     </g>
    </g>
    <g id="ytick_45">
     <g id="line2d_101">
      <path clip-path="url(#p715a6fd4a7)" d="M 117.09 133.734621 
L 843.048 133.734621 
" style="fill:none;stroke:#cccccc;stroke-linecap:round;stroke-opacity:0.2;"/>
     </g>
     <g id="line2d_102">
      <g>
       <use style="fill:#262626;stroke:#262626;" x="117.09" xlink:href="#ma1ccff4f24" y="133.734621"/>
      </g>
     </g>
    </g>
    <g id="ytick_46">
     <g id="line2d_103">
      <path clip-path="url(#p715a6fd4a7)" d="M 117.09 124.685793 
L 843.048 124.685793 
" style="fill:none;stroke:#cccccc;stroke-linecap:round;stroke-opacity:0.2;"/>
     </g>
     <g id="line2d_104">
      <g>
       <use style="fill:#262626;stroke:#262626;" x="117.09" xlink:href="#ma1ccff4f24" y="124.685793"/>
      </g>
     </g>
    </g>
    <g id="ytick_47">
     <g id="line2d_105">
      <path clip-path="url(#p715a6fd4a7)" d="M 117.09 115.636966 
L 843.048 115.636966 
" style="fill:none;stroke:#cccccc;stroke-linecap:round;stroke-opacity:0.2;"/>
     </g>
     <g id="line2d_106">
      <g>
       <use style="fill:#262626;stroke:#262626;" x="117.09" xlink:href="#ma1ccff4f24" y="115.636966"/>
      </g>
     </g>
    </g>
    <g id="ytick_48">
     <g id="line2d_107">
      <path clip-path="url(#p715a6fd4a7)" d="M 117.09 106.588138 
L 843.048 106.588138 
" style="fill:none;stroke:#cccccc;stroke-linecap:round;stroke-opacity:0.2;"/>
     </g>
     <g id="line2d_108">
      <g>
       <use style="fill:#262626;stroke:#262626;" x="117.09" xlink:href="#ma1ccff4f24" y="106.588138"/>
      </g>
     </g>
    </g>
    <g id="ytick_49">
     <g id="line2d_109">
      <path clip-path="url(#p715a6fd4a7)" d="M 117.09 97.53931 
L 843.048 97.53931 
" style="fill:none;stroke:#cccccc;stroke-linecap:round;stroke-opacity:0.2;"/>
     </g>
     <g id="line2d_110">
      <g>
       <use style="fill:#262626;stroke:#262626;" x="117.09" xlink:href="#ma1ccff4f24" y="97.53931"/>
      </g>
     </g>
    </g>
    <g id="ytick_50">
     <g id="line2d_111">
      <path clip-path="url(#p715a6fd4a7)" d="M 117.09 88.490483 
L 843.048 88.490483 
" style="fill:none;stroke:#cccccc;stroke-linecap:round;stroke-opacity:0.2;"/>
     </g>
     <g id="line2d_112">
      <g>
       <use style="fill:#262626;stroke:#262626;" x="117.09" xlink:href="#ma1ccff4f24" y="88.490483"/>
      </g>
     </g>
    </g>
    <g id="ytick_51">
     <g id="line2d_113">
      <path clip-path="url(#p715a6fd4a7)" d="M 117.09 79.441655 
L 843.048 79.441655 
" style="fill:none;stroke:#cccccc;stroke-linecap:round;stroke-opacity:0.2;"/>
     </g>
     <g id="line2d_114">
      <g>
       <use style="fill:#262626;stroke:#262626;" x="117.09" xlink:href="#ma1ccff4f24" y="79.441655"/>
      </g>
     </g>
    </g>
    <g id="ytick_52">
     <g id="line2d_115">
      <path clip-path="url(#p715a6fd4a7)" d="M 117.09 70.392828 
L 843.048 70.392828 
" style="fill:none;stroke:#cccccc;stroke-linecap:round;stroke-opacity:0.2;"/>
     </g>
     <g id="line2d_116">
      <g>
       <use style="fill:#262626;stroke:#262626;" x="117.09" xlink:href="#ma1ccff4f24" y="70.392828"/>
      </g>
     </g>
    </g>
    <g id="text_17">
     <!-- Computationl Time (s) -->
     <defs>
      <path d="M 64.40625 67.28125 
L 64.40625 56.890625 
Q 59.421875 61.53125 53.78125 63.8125 
Q 48.140625 66.109375 41.796875 66.109375 
Q 29.296875 66.109375 22.65625 58.46875 
Q 16.015625 50.828125 16.015625 36.375 
Q 16.015625 21.96875 22.65625 14.328125 
Q 29.296875 6.6875 41.796875 6.6875 
Q 48.140625 6.6875 53.78125 8.984375 
Q 59.421875 11.28125 64.40625 15.921875 
L 64.40625 5.609375 
Q 59.234375 2.09375 53.4375 0.328125 
Q 47.65625 -1.421875 41.21875 -1.421875 
Q 24.65625 -1.421875 15.125 8.703125 
Q 5.609375 18.84375 5.609375 36.375 
Q 5.609375 53.953125 15.125 64.078125 
Q 24.65625 74.21875 41.21875 74.21875 
Q 47.75 74.21875 53.53125 72.484375 
Q 59.328125 70.75 64.40625 67.28125 
z
" id="DejaVuSans-43"/>
      <path d="M 30.609375 48.390625 
Q 23.390625 48.390625 19.1875 42.75 
Q 14.984375 37.109375 14.984375 27.296875 
Q 14.984375 17.484375 19.15625 11.84375 
Q 23.34375 6.203125 30.609375 6.203125 
Q 37.796875 6.203125 41.984375 11.859375 
Q 46.1875 17.53125 46.1875 27.296875 
Q 46.1875 37.015625 41.984375 42.703125 
Q 37.796875 48.390625 30.609375 48.390625 
z
M 30.609375 56 
Q 42.328125 56 49.015625 48.375 
Q 55.71875 40.765625 55.71875 27.296875 
Q 55.71875 13.875 49.015625 6.21875 
Q 42.328125 -1.421875 30.609375 -1.421875 
Q 18.84375 -1.421875 12.171875 6.21875 
Q 5.515625 13.875 5.515625 27.296875 
Q 5.515625 40.765625 12.171875 48.375 
Q 18.84375 56 30.609375 56 
z
" id="DejaVuSans-6f"/>
      <path d="M 18.109375 8.203125 
L 18.109375 -20.796875 
L 9.078125 -20.796875 
L 9.078125 54.6875 
L 18.109375 54.6875 
L 18.109375 46.390625 
Q 20.953125 51.265625 25.265625 53.625 
Q 29.59375 56 35.59375 56 
Q 45.5625 56 51.78125 48.09375 
Q 58.015625 40.1875 58.015625 27.296875 
Q 58.015625 14.40625 51.78125 6.484375 
Q 45.5625 -1.421875 35.59375 -1.421875 
Q 29.59375 -1.421875 25.265625 0.953125 
Q 20.953125 3.328125 18.109375 8.203125 
z
M 48.6875 27.296875 
Q 48.6875 37.203125 44.609375 42.84375 
Q 40.53125 48.484375 33.40625 48.484375 
Q 26.265625 48.484375 22.1875 42.84375 
Q 18.109375 37.203125 18.109375 27.296875 
Q 18.109375 17.390625 22.1875 11.75 
Q 26.265625 6.109375 33.40625 6.109375 
Q 40.53125 6.109375 44.609375 11.75 
Q 48.6875 17.390625 48.6875 27.296875 
z
" id="DejaVuSans-70"/>
      <path d="M 34.28125 27.484375 
Q 23.390625 27.484375 19.1875 25 
Q 14.984375 22.515625 14.984375 16.5 
Q 14.984375 11.71875 18.140625 8.90625 
Q 21.296875 6.109375 26.703125 6.109375 
Q 34.1875 6.109375 38.703125 11.40625 
Q 43.21875 16.703125 43.21875 25.484375 
L 43.21875 27.484375 
z
M 52.203125 31.203125 
L 52.203125 0 
L 43.21875 0 
L 43.21875 8.296875 
Q 40.140625 3.328125 35.546875 0.953125 
Q 30.953125 -1.421875 24.3125 -1.421875 
Q 15.921875 -1.421875 10.953125 3.296875 
Q 6 8.015625 6 15.921875 
Q 6 25.140625 12.171875 29.828125 
Q 18.359375 34.515625 30.609375 34.515625 
L 43.21875 34.515625 
L 43.21875 35.40625 
Q 43.21875 41.609375 39.140625 45 
Q 35.0625 48.390625 27.6875 48.390625 
Q 23 48.390625 18.546875 47.265625 
Q 14.109375 46.140625 10.015625 43.890625 
L 10.015625 52.203125 
Q 14.9375 54.109375 19.578125 55.046875 
Q 24.21875 56 28.609375 56 
Q 40.484375 56 46.34375 49.84375 
Q 52.203125 43.703125 52.203125 31.203125 
z
" id="DejaVuSans-61"/>
      <path d="M 9.421875 75.984375 
L 18.40625 75.984375 
L 18.40625 0 
L 9.421875 0 
z
" id="DejaVuSans-6c"/>
      <path d="M -0.296875 72.90625 
L 61.375 72.90625 
L 61.375 64.59375 
L 35.5 64.59375 
L 35.5 0 
L 25.59375 0 
L 25.59375 64.59375 
L -0.296875 64.59375 
z
" id="DejaVuSans-54"/>
      <path d="M 44.28125 53.078125 
L 44.28125 44.578125 
Q 40.484375 46.53125 36.375 47.5 
Q 32.28125 48.484375 27.875 48.484375 
Q 21.1875 48.484375 17.84375 46.4375 
Q 14.5 44.390625 14.5 40.28125 
Q 14.5 37.15625 16.890625 35.375 
Q 19.28125 33.59375 26.515625 31.984375 
L 29.59375 31.296875 
Q 39.15625 29.25 43.1875 25.515625 
Q 47.21875 21.78125 47.21875 15.09375 
Q 47.21875 7.46875 41.1875 3.015625 
Q 35.15625 -1.421875 24.609375 -1.421875 
Q 20.21875 -1.421875 15.453125 -0.5625 
Q 10.6875 0.296875 5.421875 2 
L 5.421875 11.28125 
Q 10.40625 8.6875 15.234375 7.390625 
Q 20.0625 6.109375 24.8125 6.109375 
Q 31.15625 6.109375 34.5625 8.28125 
Q 37.984375 10.453125 37.984375 14.40625 
Q 37.984375 18.0625 35.515625 20.015625 
Q 33.0625 21.96875 24.703125 23.78125 
L 21.578125 24.515625 
Q 13.234375 26.265625 9.515625 29.90625 
Q 5.8125 33.546875 5.8125 39.890625 
Q 5.8125 47.609375 11.28125 51.796875 
Q 16.75 56 26.8125 56 
Q 31.78125 56 36.171875 55.265625 
Q 40.578125 54.546875 44.28125 53.078125 
z
" id="DejaVuSans-73"/>
     </defs>
     <g style="fill:#262626;" transform="translate(69.855234 341.895844)rotate(-90)scale(0.15 -0.15)">
      <use xlink:href="#DejaVuSans-43"/>
      <use x="69.824219" xlink:href="#DejaVuSans-6f"/>
      <use x="131.005859" xlink:href="#DejaVuSans-6d"/>
      <use x="228.417969" xlink:href="#DejaVuSans-70"/>
      <use x="291.894531" xlink:href="#DejaVuSans-75"/>
      <use x="355.273438" xlink:href="#DejaVuSans-74"/>
      <use x="394.482422" xlink:href="#DejaVuSans-61"/>
      <use x="455.761719" xlink:href="#DejaVuSans-74"/>
      <use x="494.970703" xlink:href="#DejaVuSans-69"/>
      <use x="522.753906" xlink:href="#DejaVuSans-6f"/>
      <use x="583.935547" xlink:href="#DejaVuSans-6e"/>
      <use x="647.314453" xlink:href="#DejaVuSans-6c"/>
      <use x="675.097656" xlink:href="#DejaVuSans-20"/>
      <use x="706.884766" xlink:href="#DejaVuSans-54"/>
      <use x="767.921875" xlink:href="#DejaVuSans-69"/>
      <use x="795.705078" xlink:href="#DejaVuSans-6d"/>
      <use x="893.117188" xlink:href="#DejaVuSans-65"/>
      <use x="954.640625" xlink:href="#DejaVuSans-20"/>
      <use x="986.427734" xlink:href="#DejaVuSans-28"/>
      <use x="1025.441406" xlink:href="#DejaVuSans-73"/>
      <use x="1077.541016" xlink:href="#DejaVuSans-29"/>
     </g>
    </g>
   </g>
   <g id="patch_3">
    <path clip-path="url(#p715a6fd4a7)" d="M 190.702141 102.335189 
C 191.761036 102.335189 192.776704 101.953812 193.525455 101.275053 
C 194.274207 100.596293 194.69491 99.675569 194.69491 98.715658 
C 194.69491 97.755747 194.274207 96.835022 193.525455 96.156263 
C 192.776704 95.477504 191.761036 95.096127 190.702141 95.096127 
C 189.643246 95.096127 188.627579 95.477504 187.878827 96.156263 
C 187.130076 96.835022 186.709372 97.755747 186.709372 98.715658 
C 186.709372 99.675569 187.130076 100.596293 187.878827 101.275053 
C 188.627579 101.953812 189.643246 102.335189 190.702141 102.335189 
z
" style="fill:none;stroke:#000000;stroke-linejoin:miter;"/>
   </g>
   <g id="patch_4">
    <path clip-path="url(#p715a6fd4a7)" d="M 193.605973 91.847598 
C 194.664868 91.847598 195.680536 91.466221 196.429287 90.787462 
C 197.178039 90.108702 197.598742 89.187978 197.598742 88.228067 
C 197.598742 87.268156 197.178039 86.347431 196.429287 85.668672 
C 195.680536 84.989912 194.664868 84.608536 193.605973 84.608536 
C 192.547078 84.608536 191.531411 84.989912 190.782659 85.668672 
C 190.033908 86.347431 189.613204 87.268156 189.613204 88.228067 
C 189.613204 89.187978 190.033908 90.108702 190.782659 90.787462 
C 191.531411 91.466221 192.547078 91.847598 193.605973 91.847598 
z
" style="fill:none;stroke:#000000;stroke-linejoin:miter;"/>
   </g>
   <g id="line2d_117">
    <path clip-path="url(#p715a6fd4a7)" d="M 183.962831 133.301931 
L 184.555697 162.740634 
L 185.765627 129.738539 
L 186.370592 130.428263 
L 186.987656 125.585959 
L 187.580522 142.921169 
L 188.197586 150.195303 
L 188.790452 138.874302 
L 190.012481 159.504737 
L 191.210312 98.749953 
L 191.815277 107.35262 
L 192.420242 148.98737 
L 193.025207 130.957691 
L 193.642271 146.352311 
L 194.235137 166.591824 
L 194.840102 123.129533 
L 195.445067 143.092898 
L 196.062131 138.102596 
L 196.654997 142.528305 
L 197.864927 155.545892 
L 198.469892 124.729252 
L 199.074857 138.783043 
L 199.679822 148.876048 
L 200.284787 176.69389 
L 200.889752 164.938602 
L 201.494717 165.701246 
L 202.099682 177.723837 
L 202.704647 178.535454 
L 203.358009 161.09561 
L 203.914577 170.371604 
L 204.507443 149.632435 
L 205.124507 154.757791 
L 205.729472 154.445614 
L 206.334437 164.021056 
L 206.951501 167.539358 
L 207.544367 149.315728 
L 208.149332 163.473722 
L 208.754297 152.979655 
L 209.964227 173.810945 
L 210.557093 107.300411 
L 211.174157 143.082974 
L 211.767023 153.086447 
L 212.384087 173.541269 
L 212.989052 187.244913 
L 213.606116 198.333346 
L 214.198982 132.032512 
L 214.803947 181.581068 
L 216.013877 200.303276 
L 216.618842 182.080724 
L 217.211708 152.736299 
L 217.828772 178.74537 
L 218.433737 167.667724 
L 219.050801 179.157867 
L 219.619468 167.5879 
L 220.236532 197.885252 
L 220.853597 156.721464 
L 222.051427 190.95393 
L 222.656393 176.845772 
L 223.261357 186.379792 
L 223.878422 206.196022 
L 224.471288 187.92989 
L 225.088352 200.519664 
L 225.693317 172.961358 
L 226.298282 203.527307 
L 227.508212 199.168479 
L 228.113177 163.582024 
L 228.718142 187.910905 
L 229.335206 182.922976 
L 229.928072 209.067964 
L 230.520938 161.935274 
L 231.138002 180.62663 
L 231.742967 176.04602 
L 232.347932 191.715064 
L 232.940797 191.133858 
L 234.174926 199.686904 
L 234.767792 214.389644 
L 235.372757 217.298694 
L 235.965622 212.751739 
L 236.582687 175.156521 
L 237.187652 203.53529 
L 237.792617 214.648533 
L 238.42178 173.205576 
L 239.002547 172.730515 
L 239.680108 169.767098 
L 240.224576 208.534868 
L 240.817442 203.281147 
L 241.422407 192.028966 
L 242.027372 212.995095 
L 242.632337 190.67433 
L 243.249401 205.560449 
L 243.866465 211.961696 
L 244.447232 215.582906 
L 245.657162 210.836823 
L 246.298425 184.167369 
L 246.867092 183.618093 
L 247.459957 217.305813 
L 248.064923 213.835837 
L 248.681987 220.726384 
L 249.286952 213.318059 
L 249.891917 203.148898 
L 250.508981 215.073542 
L 251.706812 233.969421 
L 252.323876 206.794703 
L 252.916742 193.894693 
L 253.521707 219.315655 
L 254.102473 218.447082 
L 254.719537 219.671412 
L 255.324503 240.054824 
L 255.941567 234.522365 
L 256.57073 232.220195 
L 257.163596 210.829704 
L 258.373526 224.137895 
L 258.978491 215.821084 
L 259.571357 236.941036 
L 260.176322 219.206274 
L 260.769188 217.43008 
L 261.398351 260.186467 
L 262.003316 200.995588 
L 262.584083 191.930373 
L 263.201147 225.240978 
L 264.411077 254.910955 
L 265.016042 259.058142 
L 265.621007 249.240207 
L 266.238071 234.93141 
L 266.843036 193.510459 
L 267.435902 257.517105 
L 268.052966 245.016217 
L 268.645832 239.191429 
L 269.855762 229.057649 
L 270.460727 252.38916 
L 271.065692 194.944488 
L 271.658558 187.588804 
L 272.263523 206.555014 
L 272.880587 245.647906 
L 273.485552 242.754821 
L 274.090517 242.293351 
L 274.695482 253.228824 
L 275.300447 248.852952 
L 276.498277 253.142959 
L 277.115342 256.027846 
L 277.720307 268.875214 
L 278.337371 269.466128 
L 278.930237 253.033578 
L 279.535202 251.51692 
L 280.164365 260.979099 
L 280.745132 242.014614 
L 281.350097 247.143637 
L 282.560027 236.924856 
L 283.152893 239.795935 
L 283.782056 236.927444 
L 284.374922 249.631992 
L 284.979887 273.385277 
L 285.596951 257.74428 
L 286.177718 208.328836 
L 286.806881 259.138829 
L 288.004712 269.168406 
L 288.609677 238.538166 
L 289.214642 252.211821 
L 289.819607 245.507458 
L 290.412472 268.85364 
L 291.017437 241.118858 
L 291.634502 244.111399 
L 292.251566 206.694383 
L 292.844432 260.805643 
L 294.054362 250.629146 
L 294.659327 208.278784 
L 295.264292 213.712649 
L 295.869257 204.772348 
L 296.462122 204.691013 
L 297.079187 260.456143 
L 297.696251 251.907843 
L 298.289117 254.20613 
L 298.894082 236.065128 
L 299.499047 212.145507 
L 300.721076 252.865301 
L 301.313942 252.369312 
L 301.906807 264.64583 
L 302.511773 244.188203 
L 303.116737 233.893481 
L 304.338767 253.99794 
L 304.931632 226.12681 
L 305.548697 205.924404 
L 306.758627 200.057115 
L 307.375691 253.720282 
L 307.980656 260.08248 
L 308.585621 241.489716 
L 309.178487 250.495387 
L 309.783452 247.545347 
L 310.388417 253.810677 
L 310.981282 251.539357 
L 311.610446 230.689082 
L 312.796177 265.228546 
L 313.413242 218.57178 
L 314.030306 250.760317 
L 314.635271 248.194079 
L 315.216038 262.95097 
L 315.821002 229.433254 
L 316.450166 255.186888 
L 317.043032 246.768895 
L 317.635897 250.997632 
L 318.857927 192.428087 
L 319.462892 185.286633 
L 320.067857 219.189015 
L 324.230016 243.219958 
L 327.920303 267.710645 
L 331.441199 258.537991 
L 335.615457 223.935098 
L 339.293644 258.395818 
L 343.225917 257.919893 
L 347.15819 255.132737 
L 350.412901 239.765084 
L 354.260479 210.281506 
L 358.108056 212.308176 
L 361.919335 243.696098 
L 365.81531 268.325075 
L 368.949029 259.822943 
L 372.917599 239.59508 
L 376.765177 239.377829 
L 379.947292 247.094664 
L 384.290941 249.642132 
L 388.090121 235.847877 
L 391.538422 252.619787 
L 395.410198 265.928194 
L 398.507619 263.639615 
L 402.330998 251.854339 
L 405.646206 272.312829 
L 409.638975 255.459369 
L 413.18407 254.854 
L 416.027405 220.570835 
L 418.943336 233.755838 
L 422.016559 250.579526 
L 425.610051 255.721925 
L 428.550181 261.293217 
L 431.284622 228.76532 
L 434.551433 263.008789 
L 438.326415 259.595768 
L 441.387538 249.525201 
L 444.932633 254.068703 
L 448.598721 248.08664 
L 451.938127 231.605765 
L 455.664712 227.836987 
L 458.943622 244.67513 
L 462.60971 248.718977 
L 466.554082 235.306799 
L 470.55895 258.135203 
L 474.406528 245.67401 
L 477.31036 216.845422 
L 480.855454 191.149391 
L 483.5294 242.093359 
L 487.15919 242.192816 
L 490.655887 217.395561 
L 493.354031 239.326267 
L 496.923325 243.95132 
L 500.214335 242.51427 
L 503.832025 242.74576 
L 506.893148 237.401643 
L 510.49874 201.656187 
L 513.584061 251.351231 
L 516.826673 238.661354 
L 520.081385 227.131299 
L 523.578083 234.920407 
L 527.219972 245.054187 
L 529.954414 241.047232 
L 533.330119 246.333746 
L 536.161355 230.210353 
L 539.391868 244.257887 
L 542.513487 238.637622 
L 545.453617 238.510982 
L 548.127562 246.382503 
L 551.878346 232.092692 
L 554.757979 449.584938 
L 564.631008 449.570483 
L 571.15253 449.372217 
L 574.044263 449.753215 
L 577.601457 449.360567 
L 580.384296 449.549556 
L 583.505916 449.233711 
L 589.156289 449.770259 
L 595.339031 449.348701 
L 597.722593 449.396812 
L 601.497575 449.603707 
L 607.958601 449.664546 
L 610.523653 449.724953 
L 613.923556 449.211059 
L 616.79109 449.415797 
L 620.021603 449.338562 
L 625.841366 449.516116 
L 628.382219 449.377611 
L 631.540137 449.676196 
L 634.189883 449.468006 
L 637.589787 449.499936 
L 640.542016 449.364019 
L 643.639437 449.602844 
L 649.168817 449.243636 
L 651.600776 449.718697 
L 654.879686 449.651817 
L 657.553632 449.806503 
L 662.974118 449.33964 
L 668.866477 449.747606 
L 672.121189 449.757746 
L 674.770936 449.030268 
L 677.698966 449.660878 
L 680.082528 449.226592 
L 682.417693 222.87279 
L 685.539313 224.560315 
L 687.886577 267.662535 
L 691.044494 271.342642 
L 693.415957 279.544678 
L 696.501278 265.741578 
L 699.151025 256.964377 
L 701.788673 247.795175 
L 704.450518 261.581879 
L 706.821981 260.243638 
L 709.544324 245.905716 
L 711.734297 219.586194 
L 714.396143 277.966534 
L 716.549819 251.875266 
L 718.679295 251.313261 
L 721.740418 246.175392 
L 723.894094 267.450246 
L 726.761628 270.67514 
L 729.084693 270.942012 
L 731.940128 264.084688 
L 734.093804 263.456019 
L 736.961338 263.408988 
L 740.615326 256.49924 
L 743.301371 263.118385 
L 745.999515 254.75368 
L 748.237885 275.980208 
L 751.105419 241.285194 
L 753.355889 224.2997 
L 756.017735 262.756372 
L 758.159311 237.353533 
L 760.373483 261.860616 
L 762.902237 249.14075 
L 764.765529 249.857226 
L 766.882906 262.488422 
L 769.76254 249.758632 
L 771.698428 262.536532 
L 774.662756 257.505455 
L 776.804332 260.58192 
L 778.982206 268.499825 
L 781.801343 264.350913 
L 784.305898 272.002594 
L 787.076638 276.552353 
L 788.927831 266.029376 
L 790.960514 248.219537 
L 794.408814 258.446517 
L 796.538291 254.039578 
L 799.13964 237.619541 
L 801.535302 258.883392 
L 803.725275 272.52555 
L 806.592809 254.952809 
L 808.601293 258.663768 
L 810.936458 262.154671 
L 810.936458 262.154671 
" style="fill:none;stroke:#ff7f0e;stroke-linecap:round;"/>
   </g>
   <g id="line2d_118">
    <path clip-path="url(#p715a6fd4a7)" d="M 187.302238 112.381108 
L 187.919302 131.724002 
L 188.524267 162.39588 
L 189.129232 149.445172 
L 189.734197 103.668845 
L 190.932028 151.17714 
L 191.549092 106.863967 
L 192.154057 116.597116 
L 192.759022 101.756949 
L 193.388186 117.489204 
L 193.968952 88.23086 
L 194.573917 168.616121 
L 195.178882 153.539718 
L 195.771748 135.939794 
L 196.437209 150.247728 
L 197.017976 113.264351 
L 197.610842 147.929377 
L 198.191608 131.09598 
L 198.820771 135.479188 
L 199.413637 153.60293 
L 200.018602 162.479156 
L 200.623567 104.117801 
L 201.228532 124.512001 
L 202.438462 133.803313 
L 203.043427 155.098014 
L 203.648392 90.714685 
L 204.241258 145.6093 
L 204.846223 119.41577 
L 205.463287 142.354417 
L 206.068252 148.008338 
L 206.673217 142.23425 
L 207.278182 163.801001 
L 207.883147 167.841396 
L 209.080978 138.221901 
L 209.673844 148.564734 
L 210.303007 146.986805 
L 210.907972 167.313046 
L 211.525036 133.205279 
L 212.117902 181.828307 
L 212.722867 148.479732 
L 213.327832 162.560706 
L 214.537762 199.62736 
L 215.142727 150.401552 
L 215.735593 180.419303 
L 216.352657 172.459113 
L 216.957622 174.092487 
L 217.550488 163.420218 
L 218.167552 111.3188 
L 218.760418 177.472068 
L 219.377482 174.355907 
L 219.982447 177.606906 
L 221.192377 171.290876 
L 222.426506 195.644783 
L 223.007272 173.895084 
L 223.600138 174.96559 
L 224.822167 190.892444 
L 225.427132 175.106685 
L 226.092594 189.026501 
L 227.242027 205.309974 
L 227.859091 180.964049 
L 228.439858 209.152966 
L 229.649788 159.734501 
L 230.266852 186.76079 
L 230.871817 142.287538 
L 231.476782 216.134987 
L 232.686712 178.124468 
L 233.291677 185.373577 
L 233.884543 185.665043 
L 234.501607 193.204323 
L 235.106572 185.59428 
L 235.711537 210.597135 
L 236.304403 180.017594 
L 236.921467 192.155822 
L 237.526432 198.348664 
L 238.119298 185.478427 
L 239.341327 202.623353 
L 239.946292 188.428467 
L 240.551257 203.881985 
L 241.156222 186.74612 
L 241.773287 196.124375 
L 242.366152 207.95582 
L 242.971117 207.309676 
L 243.576082 214.180591 
L 244.181047 198.506154 
L 245.390977 232.658148 
L 245.995942 206.063773 
L 246.600907 211.088593 
L 247.193773 200.853415 
L 247.859234 241.983116 
L 248.415802 215.520773 
L 249.008668 225.57667 
L 249.625732 210.357447 
L 250.230697 224.012118 
L 251.440627 237.637879 
L 252.033493 211.960833 
L 252.650557 206.036589 
L 253.267621 233.399434 
L 253.848388 218.499507 
L 254.465452 242.672624 
L 255.070417 241.183149 
L 255.663283 238.369888 
L 256.280347 220.774279 
L 256.957908 236.480429 
L 257.478178 230.623065 
L 258.083143 248.818649 
L 258.700207 244.492398 
L 259.305172 199.561127 
L 259.910137 260.461752 
L 260.515102 260.524964 
L 261.120067 254.462214 
L 261.725032 226.709526 
L 262.317898 254.913976 
L 263.539927 256.414885 
L 264.144892 202.324768 
L 264.749857 210.148178 
L 265.342723 174.552878 
L 265.959787 249.096308 
L 266.564752 243.90774 
L 267.157618 252.618062 
L 267.774682 238.32113 
L 268.367548 245.42332 
L 269.601676 246.911931 
L 270.182443 255.550843 
L 270.787408 255.460447 
L 271.404472 239.1554 
L 272.009437 255.317411 
L 272.626502 244.073213 
L 273.219367 249.788404 
L 273.836432 236.279359 
L 274.985865 253.579187 
L 275.639227 269.257938 
L 276.244192 251.710655 
L 278.107484 270.287022 
L 278.664052 251.503328 
L 279.256918 248.002286 
L 279.873982 273.411597 
L 280.478947 260.865187 
L 281.688877 245.534858 
L 282.33014 235.073367 
L 282.886708 267.212931 
L 283.503772 253.507561 
L 284.108737 213.216661 
L 284.701603 266.530542 
L 285.318667 239.983198 
L 285.935731 240.290844 
L 286.516498 254.838682 
L 287.738527 281.023151 
L 288.331393 226.7078 
L 288.948457 258.867211 
L 289.553422 269.739256 
L 290.146288 260.619027 
L 290.775452 265.109889 
L 291.392516 266.53421 
L 291.997481 265.34893 
L 292.578247 273.564342 
L 293.800277 253.752859 
L 294.405241 251.656289 
L 294.986008 272.539141 
L 295.603072 205.968631 
L 296.208037 262.360919 
L 296.813002 268.918578 
L 297.430067 253.014378 
L 298.035032 261.476166 
L 299.220763 264.660285 
L 299.837827 275.064604 
L 300.442792 269.671729 
L 301.047757 248.596005 
L 302.257687 257.042259 
L 302.862652 254.675798 
L 303.455518 254.97352 
L 304.060483 264.15804 
L 305.270413 229.868403 
L 305.887477 258.718782 
L 306.480343 264.465687 
L 307.097407 258.921578 
L 307.702372 258.889864 
L 308.319437 268.859897 
L 308.900203 248.261175 
L 309.517267 193.683052 
L 310.134332 220.860359 
L 311.320063 263.111266 
L 311.961326 292.711775 
L 312.542092 281.180857 
L 313.147057 252.077846 
L 313.739923 261.027209 
L 314.344888 239.441257 
L 314.961952 259.215633 
L 315.566917 266.450071 
L 316.183981 228.265017 
L 316.776847 266.479843 
L 317.986777 271.588803 
L 318.579643 268.744907 
L 319.208807 261.39893 
L 319.801672 273.057566 
L 320.394538 238.330839 
L 321.011602 231.095537 
L 321.616567 258.899788 
L 322.221532 249.384969 
L 324.024328 253.075216 
L 324.629293 272.643991 
L 325.246357 270.875779 
L 329.469013 248.918969 
L 333.183498 218.046236 
L 336.08733 260.086147 
L 339.971205 235.798041 
L 343.625194 262.67137 
L 347.303381 251.001084 
L 351.586533 277.839031 
L 354.962238 263.750721 
L 358.471035 270.633502 
L 361.883038 267.039259 
L 366.045197 258.68189 
L 368.840135 266.877238 
L 371.792364 267.637293 
L 375.361658 272.971702 
L 378.374384 263.654933 
L 381.834783 254.872985 
L 384.895906 241.974918 
L 388.888675 252.077846 
L 392.203883 245.045126 
L 395.736879 245.303152 
L 398.459221 249.10731 
L 402.040614 251.564815 
L 405.839795 242.564969 
L 408.985612 251.229985 
L 412.470211 253.414577 
L 416.245192 268.128751 
L 420.044373 273.248497 
L 423.928248 246.594145 
L 426.819981 213.215151 
L 430.026295 260.315048 
L 432.978524 241.648286 
L 436.426825 266.433028 
L 439.475848 242.589348 
L 443.456518 261.897723 
L 446.372449 245.135737 
L 449.941743 259.079716 
L 453.256951 239.06932 
L 459.536488 248.352433 
L 462.706504 258.811982 
L 466.227401 269.103252 
L 468.744055 238.276688 
L 472.168157 235.177355 
L 474.793705 252.025421 
L 478.314601 278.713213 
L 481.049043 261.093226 
L 484.690933 249.950642 
L 488.078737 263.837881 
L 491.345548 259.999204 
L 493.886401 234.672305 
L 497.044318 264.273893 
L 499.76666 262.795205 
L 502.985074 270.238049 
L 505.538026 264.823169 
L 508.720142 251.921219 
L 511.587677 286.532956 
L 514.97548 238.271078 
L 517.564731 249.515276 
L 520.831542 233.948495 
L 523.432891 449.71244 
L 526.494014 449.629164 
L 529.301052 449.441038 
L 532.156487 449.711577 
L 534.782035 449.672528 
L 538.423924 449.778457 
L 550.728912 449.213 
L 553.281864 449.725816 
L 556.500278 449.364019 
L 562.041758 449.666272 
L 564.473717 449.699064 
L 567.099265 449.478146 
L 570.402374 449.36143 
L 572.991624 449.713519 
L 576.258435 449.658937 
L 578.654096 449.776731 
L 582.054 449.422916 
L 584.631151 449.536827 
L 588.043153 449.30167 
L 593.693526 449.37308 
L 596.355372 449.650091 
L 599.235006 449.742213 
L 604.256215 449.647287 
L 606.784969 449.328853 
L 609.229028 449.473615 
L 612.193356 449.397675 
L 614.165542 449.688062 
L 617.14197 449.586664 
L 619.440837 449.756667 
L 629.822036 449.770259 
L 635.085232 449.320655 
L 637.517191 449.165106 
L 640.082243 449.670802 
L 647.184532 449.610179 
L 649.555994 449.417307 
L 653.96014 449.480735 
L 656.077517 449.464338 
L 661.231819 449.735093 
L 663.083012 449.738761 
L 665.648063 449.611905 
L 667.922732 306.108419 
L 670.657174 302.100817 
L 672.714055 291.432216 
L 675.375901 295.342087 
L 677.868356 287.324941 
L 680.91738 274.685547 
L 683.542928 297.740047 
L 685.684504 277.150386 
L 687.65669 286.022729 
L 690.233841 288.595223 
L 692.32702 295.019123 
L 694.976767 276.586655 
L 697.033648 244.934019 
L 699.054231 281.084852 
L 701.595084 289.703916 
L 703.579369 293.061706 
L 705.587853 269.757594 
L 708.249699 275.620352 
L 710.633261 290.238737 
L 713.343504 276.681797 
L 715.243094 293.392221 
L 717.178982 284.125288 
L 719.247962 287.813594 
L 721.123354 298.948843 
L 722.889852 293.368706 
L 725.128222 293.250048 
L 727.2335 291.480973 
L 727.2335 291.480973 
" style="fill:none;stroke:#ffdead;stroke-linecap:round;"/>
   </g>
   <g id="patch_5">
    <path d="M 117.09 454.968 
L 117.09 61.344 
" style="fill:none;stroke:#262626;stroke-linecap:square;stroke-linejoin:miter;stroke-width:1.25;"/>
   </g>
   <g id="patch_6">
    <path d="M 843.048 454.968 
L 843.048 61.344 
" style="fill:none;stroke:#262626;stroke-linecap:square;stroke-linejoin:miter;stroke-width:1.25;"/>
   </g>
   <g id="patch_7">
    <path d="M 117.09 454.968 
L 843.048 454.968 
" style="fill:none;stroke:#262626;stroke-linecap:square;stroke-linejoin:miter;stroke-width:1.25;"/>
   </g>
   <g id="patch_8">
    <path d="M 117.09 61.344 
L 843.048 61.344 
" style="fill:none;stroke:#262626;stroke-linecap:square;stroke-linejoin:miter;stroke-width:1.25;"/>
   </g>
   <g id="text_18">
    <!-- 0.388 -->
    <g style="fill:#262626;" transform="translate(142.49853 102.063724)scale(0.12 -0.12)">
     <use xlink:href="#DejaVuSans-30"/>
     <use x="63.623047" xlink:href="#DejaVuSans-2e"/>
     <use x="95.410156" xlink:href="#DejaVuSans-33"/>
     <use x="159.033203" xlink:href="#DejaVuSans-38"/>
     <use x="222.65625" xlink:href="#DejaVuSans-38"/>
    </g>
   </g>
   <g id="text_19">
    <!-- 0.4 -->
    <g style="fill:#262626;" transform="translate(207.83475 88.490483)scale(0.12 -0.12)">
     <use xlink:href="#DejaVuSans-30"/>
     <use x="63.623047" xlink:href="#DejaVuSans-2e"/>
     <use x="95.410156" xlink:href="#DejaVuSans-34"/>
    </g>
   </g>
   <g id="legend_1">
    <g id="patch_9">
     <path d="M 611.070461 112.708844 
L 833.423 112.708844 
Q 836.173 112.708844 836.173 109.958844 
L 836.173 70.969 
Q 836.173 68.219 833.423 68.219 
L 611.070461 68.219 
Q 608.320461 68.219 608.320461 70.969 
L 608.320461 109.958844 
Q 608.320461 112.708844 611.070461 112.708844 
z
" style="fill:#ffffff;opacity:0.8;stroke:#cccccc;stroke-linejoin:miter;"/>
    </g>
    <g id="line2d_119">
     <path d="M 613.820461 79.354352 
L 641.320461 79.354352 
" style="fill:none;stroke:#ff7f0e;stroke-linecap:round;"/>
    </g>
    <g id="line2d_120"/>
    <g id="text_20">
     <!-- Own Vessel no Wind Case -->
     <defs>
      <path d="M 39.40625 66.21875 
Q 28.65625 66.21875 22.328125 58.203125 
Q 16.015625 50.203125 16.015625 36.375 
Q 16.015625 22.609375 22.328125 14.59375 
Q 28.65625 6.59375 39.40625 6.59375 
Q 50.140625 6.59375 56.421875 14.59375 
Q 62.703125 22.609375 62.703125 36.375 
Q 62.703125 50.203125 56.421875 58.203125 
Q 50.140625 66.21875 39.40625 66.21875 
z
M 39.40625 74.21875 
Q 54.734375 74.21875 63.90625 63.9375 
Q 73.09375 53.65625 73.09375 36.375 
Q 73.09375 19.140625 63.90625 8.859375 
Q 54.734375 -1.421875 39.40625 -1.421875 
Q 24.03125 -1.421875 14.8125 8.828125 
Q 5.609375 19.09375 5.609375 36.375 
Q 5.609375 53.65625 14.8125 63.9375 
Q 24.03125 74.21875 39.40625 74.21875 
z
" id="DejaVuSans-4f"/>
      <path d="M 4.203125 54.6875 
L 13.1875 54.6875 
L 24.421875 12.015625 
L 35.59375 54.6875 
L 46.1875 54.6875 
L 57.421875 12.015625 
L 68.609375 54.6875 
L 77.59375 54.6875 
L 63.28125 0 
L 52.6875 0 
L 40.921875 44.828125 
L 29.109375 0 
L 18.5 0 
z
" id="DejaVuSans-77"/>
      <path d="M 28.609375 0 
L 0.78125 72.90625 
L 11.078125 72.90625 
L 34.1875 11.53125 
L 57.328125 72.90625 
L 67.578125 72.90625 
L 39.796875 0 
z
" id="DejaVuSans-56"/>
      <path d="M 3.328125 72.90625 
L 13.28125 72.90625 
L 28.609375 11.28125 
L 43.890625 72.90625 
L 54.984375 72.90625 
L 70.3125 11.28125 
L 85.59375 72.90625 
L 95.609375 72.90625 
L 77.296875 0 
L 64.890625 0 
L 49.515625 63.28125 
L 33.984375 0 
L 21.578125 0 
z
" id="DejaVuSans-57"/>
      <path d="M 45.40625 46.390625 
L 45.40625 75.984375 
L 54.390625 75.984375 
L 54.390625 0 
L 45.40625 0 
L 45.40625 8.203125 
Q 42.578125 3.328125 38.25 0.953125 
Q 33.9375 -1.421875 27.875 -1.421875 
Q 17.96875 -1.421875 11.734375 6.484375 
Q 5.515625 14.40625 5.515625 27.296875 
Q 5.515625 40.1875 11.734375 48.09375 
Q 17.96875 56 27.875 56 
Q 33.9375 56 38.25 53.625 
Q 42.578125 51.265625 45.40625 46.390625 
z
M 14.796875 27.296875 
Q 14.796875 17.390625 18.875 11.75 
Q 22.953125 6.109375 30.078125 6.109375 
Q 37.203125 6.109375 41.296875 11.75 
Q 45.40625 17.390625 45.40625 27.296875 
Q 45.40625 37.203125 41.296875 42.84375 
Q 37.203125 48.484375 30.078125 48.484375 
Q 22.953125 48.484375 18.875 42.84375 
Q 14.796875 37.203125 14.796875 27.296875 
z
" id="DejaVuSans-64"/>
     </defs>
     <g style="fill:#262626;" transform="translate(652.320461 84.166852)scale(0.1375 -0.1375)">
      <use xlink:href="#DejaVuSans-4f"/>
      <use x="78.710938" xlink:href="#DejaVuSans-77"/>
      <use x="160.498047" xlink:href="#DejaVuSans-6e"/>
      <use x="223.876953" xlink:href="#DejaVuSans-20"/>
      <use x="255.664062" xlink:href="#DejaVuSans-56"/>
      <use x="323.962891" xlink:href="#DejaVuSans-65"/>
      <use x="385.486328" xlink:href="#DejaVuSans-73"/>
      <use x="437.585938" xlink:href="#DejaVuSans-73"/>
      <use x="489.685547" xlink:href="#DejaVuSans-65"/>
      <use x="551.208984" xlink:href="#DejaVuSans-6c"/>
      <use x="578.992188" xlink:href="#DejaVuSans-20"/>
      <use x="610.779297" xlink:href="#DejaVuSans-6e"/>
      <use x="674.158203" xlink:href="#DejaVuSans-6f"/>
      <use x="735.339844" xlink:href="#DejaVuSans-20"/>
      <use x="767.126953" xlink:href="#DejaVuSans-57"/>
      <use x="865.972656" xlink:href="#DejaVuSans-69"/>
      <use x="893.755859" xlink:href="#DejaVuSans-6e"/>
      <use x="957.134766" xlink:href="#DejaVuSans-64"/>
      <use x="1020.611328" xlink:href="#DejaVuSans-20"/>
      <use x="1052.398438" xlink:href="#DejaVuSans-43"/>
      <use x="1122.222656" xlink:href="#DejaVuSans-61"/>
      <use x="1183.501953" xlink:href="#DejaVuSans-73"/>
      <use x="1235.601562" xlink:href="#DejaVuSans-65"/>
     </g>
    </g>
    <g id="line2d_121">
     <path d="M 613.820461 99.536773 
L 641.320461 99.536773 
" style="fill:none;stroke:#ffdead;stroke-linecap:round;"/>
    </g>
    <g id="line2d_122"/>
    <g id="text_21">
     <!-- Own Vessel Wind Case -->
     <g style="fill:#262626;" transform="translate(652.320461 104.349273)scale(0.1375 -0.1375)">
      <use xlink:href="#DejaVuSans-4f"/>
      <use x="78.710938" xlink:href="#DejaVuSans-77"/>
      <use x="160.498047" xlink:href="#DejaVuSans-6e"/>
      <use x="223.876953" xlink:href="#DejaVuSans-20"/>
      <use x="255.664062" xlink:href="#DejaVuSans-56"/>
      <use x="323.962891" xlink:href="#DejaVuSans-65"/>
      <use x="385.486328" xlink:href="#DejaVuSans-73"/>
      <use x="437.585938" xlink:href="#DejaVuSans-73"/>
      <use x="489.685547" xlink:href="#DejaVuSans-65"/>
      <use x="551.208984" xlink:href="#DejaVuSans-6c"/>
      <use x="578.992188" xlink:href="#DejaVuSans-20"/>
      <use x="610.779297" xlink:href="#DejaVuSans-57"/>
      <use x="709.625" xlink:href="#DejaVuSans-69"/>
      <use x="737.408203" xlink:href="#DejaVuSans-6e"/>
      <use x="800.787109" xlink:href="#DejaVuSans-64"/>
      <use x="864.263672" xlink:href="#DejaVuSans-20"/>
      <use x="896.050781" xlink:href="#DejaVuSans-43"/>
      <use x="965.875" xlink:href="#DejaVuSans-61"/>
      <use x="1027.154297" xlink:href="#DejaVuSans-73"/>
      <use x="1079.253906" xlink:href="#DejaVuSans-65"/>
     </g>
    </g>
   </g>
  </g>
 </g>
 <defs>
  <clipPath id="p715a6fd4a7">
   <rect height="393.624" width="725.958" x="117.09" y="61.344"/>
  </clipPath>
 </defs>
</svg>
