<?xml version="1.0" encoding="utf-8" standalone="no"?>
<!DOCTYPE svg PUBLIC "-//W3C//DTD SVG 1.1//EN"
  "http://www.w3.org/Graphics/SVG/1.1/DTD/svg11.dtd">
<!-- Created with matplotlib (http://matplotlib.org/) -->
<svg height="511.2pt" version="1.1" viewBox="0 0 936.72 511.2" width="936.72pt" xmlns="http://www.w3.org/2000/svg" xmlns:xlink="http://www.w3.org/1999/xlink">
 <defs>
  <style type="text/css">
*{stroke-linecap:butt;stroke-linejoin:round;}
  </style>
 </defs>
 <g id="figure_1">
  <g id="patch_1">
   <path d="M 0 511.2 
L 936.72 511.2 
L 936.72 0 
L 0 0 
z
" style="fill:#ffffff;"/>
  </g>
  <g id="axes_1">
   <g id="patch_2">
    <path d="M 117.09 454.968 
L 843.048 454.968 
L 843.048 61.344 
L 117.09 61.344 
z
" style="fill:#ffffff;"/>
   </g>
   <g id="matplotlib.axis_1">
    <g id="xtick_1">
     <g id="line2d_1">
      <path clip-path="url(#p568589b255)" d="M 117.09 454.968 
L 117.09 61.344 
" style="fill:none;stroke:#cccccc;stroke-linecap:round;stroke-opacity:0.5;"/>
     </g>
     <g id="line2d_2">
      <defs>
       <path d="M 0 0 
L 0 6 
" id="mc1607bd739" style="stroke:#262626;stroke-width:1.25;"/>
      </defs>
      <g>
       <use style="fill:#262626;stroke:#262626;stroke-width:1.25;" x="117.09" xlink:href="#mc1607bd739" y="454.968"/>
      </g>
     </g>
     <g id="text_1">
      <!-- 0.0 -->
      <defs>
       <path d="M 31.78125 66.40625 
Q 24.171875 66.40625 20.328125 58.90625 
Q 16.5 51.421875 16.5 36.375 
Q 16.5 21.390625 20.328125 13.890625 
Q 24.171875 6.390625 31.78125 6.390625 
Q 39.453125 6.390625 43.28125 13.890625 
Q 47.125 21.390625 47.125 36.375 
Q 47.125 51.421875 43.28125 58.90625 
Q 39.453125 66.40625 31.78125 66.40625 
z
M 31.78125 74.21875 
Q 44.046875 74.21875 50.515625 64.515625 
Q 56.984375 54.828125 56.984375 36.375 
Q 56.984375 17.96875 50.515625 8.265625 
Q 44.046875 -1.421875 31.78125 -1.421875 
Q 19.53125 -1.421875 13.0625 8.265625 
Q 6.59375 17.96875 6.59375 36.375 
Q 6.59375 54.828125 13.0625 64.515625 
Q 19.53125 74.21875 31.78125 74.21875 
z
" id="DejaVuSans-30"/>
       <path d="M 10.6875 12.40625 
L 21 12.40625 
L 21 0 
L 10.6875 0 
z
" id="DejaVuSans-2e"/>
      </defs>
      <g style="fill:#262626;" transform="translate(106.156602 474.915852)scale(0.1375 -0.1375)">
       <use xlink:href="#DejaVuSans-30"/>
       <use x="63.623047" xlink:href="#DejaVuSans-2e"/>
       <use x="95.410156" xlink:href="#DejaVuSans-30"/>
      </g>
     </g>
    </g>
    <g id="xtick_2">
     <g id="line2d_3">
      <path clip-path="url(#p568589b255)" d="M 228.775846 454.968 
L 228.775846 61.344 
" style="fill:none;stroke:#cccccc;stroke-linecap:round;stroke-opacity:0.5;"/>
     </g>
     <g id="line2d_4">
      <g>
       <use style="fill:#262626;stroke:#262626;stroke-width:1.25;" x="228.775846" xlink:href="#mc1607bd739" y="454.968"/>
      </g>
     </g>
     <g id="text_2">
      <!-- 0.2 -->
      <defs>
       <path d="M 19.1875 8.296875 
L 53.609375 8.296875 
L 53.609375 0 
L 7.328125 0 
L 7.328125 8.296875 
Q 12.9375 14.109375 22.625 23.890625 
Q 32.328125 33.6875 34.8125 36.53125 
Q 39.546875 41.84375 41.421875 45.53125 
Q 43.3125 49.21875 43.3125 52.78125 
Q 43.3125 58.59375 39.234375 62.25 
Q 35.15625 65.921875 28.609375 65.921875 
Q 23.96875 65.921875 18.8125 64.3125 
Q 13.671875 62.703125 7.8125 59.421875 
L 7.8125 69.390625 
Q 13.765625 71.78125 18.9375 73 
Q 24.125 74.21875 28.421875 74.21875 
Q 39.75 74.21875 46.484375 68.546875 
Q 53.21875 62.890625 53.21875 53.421875 
Q 53.21875 48.921875 51.53125 44.890625 
Q 49.859375 40.875 45.40625 35.40625 
Q 44.1875 33.984375 37.640625 27.21875 
Q 31.109375 20.453125 19.1875 8.296875 
z
" id="DejaVuSans-32"/>
      </defs>
      <g style="fill:#262626;" transform="translate(217.842448 474.915852)scale(0.1375 -0.1375)">
       <use xlink:href="#DejaVuSans-30"/>
       <use x="63.623047" xlink:href="#DejaVuSans-2e"/>
       <use x="95.410156" xlink:href="#DejaVuSans-32"/>
      </g>
     </g>
    </g>
    <g id="xtick_3">
     <g id="line2d_5">
      <path clip-path="url(#p568589b255)" d="M 340.461692 454.968 
L 340.461692 61.344 
" style="fill:none;stroke:#cccccc;stroke-linecap:round;stroke-opacity:0.5;"/>
     </g>
     <g id="line2d_6">
      <g>
       <use style="fill:#262626;stroke:#262626;stroke-width:1.25;" x="340.461692" xlink:href="#mc1607bd739" y="454.968"/>
      </g>
     </g>
     <g id="text_3">
      <!-- 0.4 -->
      <defs>
       <path d="M 37.796875 64.3125 
L 12.890625 25.390625 
L 37.796875 25.390625 
z
M 35.203125 72.90625 
L 47.609375 72.90625 
L 47.609375 25.390625 
L 58.015625 25.390625 
L 58.015625 17.1875 
L 47.609375 17.1875 
L 47.609375 0 
L 37.796875 0 
L 37.796875 17.1875 
L 4.890625 17.1875 
L 4.890625 26.703125 
z
" id="DejaVuSans-34"/>
      </defs>
      <g style="fill:#262626;" transform="translate(329.528294 474.915852)scale(0.1375 -0.1375)">
       <use xlink:href="#DejaVuSans-30"/>
       <use x="63.623047" xlink:href="#DejaVuSans-2e"/>
       <use x="95.410156" xlink:href="#DejaVuSans-34"/>
      </g>
     </g>
    </g>
    <g id="xtick_4">
     <g id="line2d_7">
      <path clip-path="url(#p568589b255)" d="M 452.147538 454.968 
L 452.147538 61.344 
" style="fill:none;stroke:#cccccc;stroke-linecap:round;stroke-opacity:0.5;"/>
     </g>
     <g id="line2d_8">
      <g>
       <use style="fill:#262626;stroke:#262626;stroke-width:1.25;" x="452.147538" xlink:href="#mc1607bd739" y="454.968"/>
      </g>
     </g>
     <g id="text_4">
      <!-- 0.6 -->
      <defs>
       <path d="M 33.015625 40.375 
Q 26.375 40.375 22.484375 35.828125 
Q 18.609375 31.296875 18.609375 23.390625 
Q 18.609375 15.53125 22.484375 10.953125 
Q 26.375 6.390625 33.015625 6.390625 
Q 39.65625 6.390625 43.53125 10.953125 
Q 47.40625 15.53125 47.40625 23.390625 
Q 47.40625 31.296875 43.53125 35.828125 
Q 39.65625 40.375 33.015625 40.375 
z
M 52.59375 71.296875 
L 52.59375 62.3125 
Q 48.875 64.0625 45.09375 64.984375 
Q 41.3125 65.921875 37.59375 65.921875 
Q 27.828125 65.921875 22.671875 59.328125 
Q 17.53125 52.734375 16.796875 39.40625 
Q 19.671875 43.65625 24.015625 45.921875 
Q 28.375 48.1875 33.59375 48.1875 
Q 44.578125 48.1875 50.953125 41.515625 
Q 57.328125 34.859375 57.328125 23.390625 
Q 57.328125 12.15625 50.6875 5.359375 
Q 44.046875 -1.421875 33.015625 -1.421875 
Q 20.359375 -1.421875 13.671875 8.265625 
Q 6.984375 17.96875 6.984375 36.375 
Q 6.984375 53.65625 15.1875 63.9375 
Q 23.390625 74.21875 37.203125 74.21875 
Q 40.921875 74.21875 44.703125 73.484375 
Q 48.484375 72.75 52.59375 71.296875 
z
" id="DejaVuSans-36"/>
      </defs>
      <g style="fill:#262626;" transform="translate(441.21414 474.915852)scale(0.1375 -0.1375)">
       <use xlink:href="#DejaVuSans-30"/>
       <use x="63.623047" xlink:href="#DejaVuSans-2e"/>
       <use x="95.410156" xlink:href="#DejaVuSans-36"/>
      </g>
     </g>
    </g>
    <g id="xtick_5">
     <g id="line2d_9">
      <path clip-path="url(#p568589b255)" d="M 563.833385 454.968 
L 563.833385 61.344 
" style="fill:none;stroke:#cccccc;stroke-linecap:round;stroke-opacity:0.5;"/>
     </g>
     <g id="line2d_10">
      <g>
       <use style="fill:#262626;stroke:#262626;stroke-width:1.25;" x="563.833385" xlink:href="#mc1607bd739" y="454.968"/>
      </g>
     </g>
     <g id="text_5">
      <!-- 0.8 -->
      <defs>
       <path d="M 31.78125 34.625 
Q 24.75 34.625 20.71875 30.859375 
Q 16.703125 27.09375 16.703125 20.515625 
Q 16.703125 13.921875 20.71875 10.15625 
Q 24.75 6.390625 31.78125 6.390625 
Q 38.8125 6.390625 42.859375 10.171875 
Q 46.921875 13.96875 46.921875 20.515625 
Q 46.921875 27.09375 42.890625 30.859375 
Q 38.875 34.625 31.78125 34.625 
z
M 21.921875 38.8125 
Q 15.578125 40.375 12.03125 44.71875 
Q 8.5 49.078125 8.5 55.328125 
Q 8.5 64.0625 14.71875 69.140625 
Q 20.953125 74.21875 31.78125 74.21875 
Q 42.671875 74.21875 48.875 69.140625 
Q 55.078125 64.0625 55.078125 55.328125 
Q 55.078125 49.078125 51.53125 44.71875 
Q 48 40.375 41.703125 38.8125 
Q 48.828125 37.15625 52.796875 32.3125 
Q 56.78125 27.484375 56.78125 20.515625 
Q 56.78125 9.90625 50.3125 4.234375 
Q 43.84375 -1.421875 31.78125 -1.421875 
Q 19.734375 -1.421875 13.25 4.234375 
Q 6.78125 9.90625 6.78125 20.515625 
Q 6.78125 27.484375 10.78125 32.3125 
Q 14.796875 37.15625 21.921875 38.8125 
z
M 18.3125 54.390625 
Q 18.3125 48.734375 21.84375 45.5625 
Q 25.390625 42.390625 31.78125 42.390625 
Q 38.140625 42.390625 41.71875 45.5625 
Q 45.3125 48.734375 45.3125 54.390625 
Q 45.3125 60.0625 41.71875 63.234375 
Q 38.140625 66.40625 31.78125 66.40625 
Q 25.390625 66.40625 21.84375 63.234375 
Q 18.3125 60.0625 18.3125 54.390625 
z
" id="DejaVuSans-38"/>
      </defs>
      <g style="fill:#262626;" transform="translate(552.899986 474.915852)scale(0.1375 -0.1375)">
       <use xlink:href="#DejaVuSans-30"/>
       <use x="63.623047" xlink:href="#DejaVuSans-2e"/>
       <use x="95.410156" xlink:href="#DejaVuSans-38"/>
      </g>
     </g>
    </g>
    <g id="xtick_6">
     <g id="line2d_11">
      <path clip-path="url(#p568589b255)" d="M 675.519231 454.968 
L 675.519231 61.344 
" style="fill:none;stroke:#cccccc;stroke-linecap:round;stroke-opacity:0.5;"/>
     </g>
     <g id="line2d_12">
      <g>
       <use style="fill:#262626;stroke:#262626;stroke-width:1.25;" x="675.519231" xlink:href="#mc1607bd739" y="454.968"/>
      </g>
     </g>
     <g id="text_6">
      <!-- 1.0 -->
      <defs>
       <path d="M 12.40625 8.296875 
L 28.515625 8.296875 
L 28.515625 63.921875 
L 10.984375 60.40625 
L 10.984375 69.390625 
L 28.421875 72.90625 
L 38.28125 72.90625 
L 38.28125 8.296875 
L 54.390625 8.296875 
L 54.390625 0 
L 12.40625 0 
z
" id="DejaVuSans-31"/>
      </defs>
      <g style="fill:#262626;" transform="translate(664.585832 474.915852)scale(0.1375 -0.1375)">
       <use xlink:href="#DejaVuSans-31"/>
       <use x="63.623047" xlink:href="#DejaVuSans-2e"/>
       <use x="95.410156" xlink:href="#DejaVuSans-30"/>
      </g>
     </g>
    </g>
    <g id="xtick_7">
     <g id="line2d_13">
      <path clip-path="url(#p568589b255)" d="M 787.205077 454.968 
L 787.205077 61.344 
" style="fill:none;stroke:#cccccc;stroke-linecap:round;stroke-opacity:0.5;"/>
     </g>
     <g id="line2d_14">
      <g>
       <use style="fill:#262626;stroke:#262626;stroke-width:1.25;" x="787.205077" xlink:href="#mc1607bd739" y="454.968"/>
      </g>
     </g>
     <g id="text_7">
      <!-- 1.2 -->
      <g style="fill:#262626;" transform="translate(776.271678 474.915852)scale(0.1375 -0.1375)">
       <use xlink:href="#DejaVuSans-31"/>
       <use x="63.623047" xlink:href="#DejaVuSans-2e"/>
       <use x="95.410156" xlink:href="#DejaVuSans-32"/>
      </g>
     </g>
    </g>
    <g id="text_8">
     <!-- Runtime (min) -->
     <defs>
      <path d="M 44.390625 34.1875 
Q 47.5625 33.109375 50.5625 29.59375 
Q 53.5625 26.078125 56.59375 19.921875 
L 66.609375 0 
L 56 0 
L 46.6875 18.703125 
Q 43.0625 26.03125 39.671875 28.421875 
Q 36.28125 30.8125 30.421875 30.8125 
L 19.671875 30.8125 
L 19.671875 0 
L 9.8125 0 
L 9.8125 72.90625 
L 32.078125 72.90625 
Q 44.578125 72.90625 50.734375 67.671875 
Q 56.890625 62.453125 56.890625 51.90625 
Q 56.890625 45.015625 53.6875 40.46875 
Q 50.484375 35.9375 44.390625 34.1875 
z
M 19.671875 64.796875 
L 19.671875 38.921875 
L 32.078125 38.921875 
Q 39.203125 38.921875 42.84375 42.21875 
Q 46.484375 45.515625 46.484375 51.90625 
Q 46.484375 58.296875 42.84375 61.546875 
Q 39.203125 64.796875 32.078125 64.796875 
z
" id="DejaVuSans-52"/>
      <path d="M 8.5 21.578125 
L 8.5 54.6875 
L 17.484375 54.6875 
L 17.484375 21.921875 
Q 17.484375 14.15625 20.5 10.265625 
Q 23.53125 6.390625 29.59375 6.390625 
Q 36.859375 6.390625 41.078125 11.03125 
Q 45.3125 15.671875 45.3125 23.6875 
L 45.3125 54.6875 
L 54.296875 54.6875 
L 54.296875 0 
L 45.3125 0 
L 45.3125 8.40625 
Q 42.046875 3.421875 37.71875 1 
Q 33.40625 -1.421875 27.6875 -1.421875 
Q 18.265625 -1.421875 13.375 4.4375 
Q 8.5 10.296875 8.5 21.578125 
z
M 31.109375 56 
z
" id="DejaVuSans-75"/>
      <path d="M 54.890625 33.015625 
L 54.890625 0 
L 45.90625 0 
L 45.90625 32.71875 
Q 45.90625 40.484375 42.875 44.328125 
Q 39.84375 48.1875 33.796875 48.1875 
Q 26.515625 48.1875 22.3125 43.546875 
Q 18.109375 38.921875 18.109375 30.90625 
L 18.109375 0 
L 9.078125 0 
L 9.078125 54.6875 
L 18.109375 54.6875 
L 18.109375 46.1875 
Q 21.34375 51.125 25.703125 53.5625 
Q 30.078125 56 35.796875 56 
Q 45.21875 56 50.046875 50.171875 
Q 54.890625 44.34375 54.890625 33.015625 
z
" id="DejaVuSans-6e"/>
      <path d="M 18.3125 70.21875 
L 18.3125 54.6875 
L 36.8125 54.6875 
L 36.8125 47.703125 
L 18.3125 47.703125 
L 18.3125 18.015625 
Q 18.3125 11.328125 20.140625 9.421875 
Q 21.96875 7.515625 27.59375 7.515625 
L 36.8125 7.515625 
L 36.8125 0 
L 27.59375 0 
Q 17.1875 0 13.234375 3.875 
Q 9.28125 7.765625 9.28125 18.015625 
L 9.28125 47.703125 
L 2.6875 47.703125 
L 2.6875 54.6875 
L 9.28125 54.6875 
L 9.28125 70.21875 
z
" id="DejaVuSans-74"/>
      <path d="M 9.421875 54.6875 
L 18.40625 54.6875 
L 18.40625 0 
L 9.421875 0 
z
M 9.421875 75.984375 
L 18.40625 75.984375 
L 18.40625 64.59375 
L 9.421875 64.59375 
z
" id="DejaVuSans-69"/>
      <path d="M 52 44.1875 
Q 55.375 50.25 60.0625 53.125 
Q 64.75 56 71.09375 56 
Q 79.640625 56 84.28125 50.015625 
Q 88.921875 44.046875 88.921875 33.015625 
L 88.921875 0 
L 79.890625 0 
L 79.890625 32.71875 
Q 79.890625 40.578125 77.09375 44.375 
Q 74.3125 48.1875 68.609375 48.1875 
Q 61.625 48.1875 57.5625 43.546875 
Q 53.515625 38.921875 53.515625 30.90625 
L 53.515625 0 
L 44.484375 0 
L 44.484375 32.71875 
Q 44.484375 40.625 41.703125 44.40625 
Q 38.921875 48.1875 33.109375 48.1875 
Q 26.21875 48.1875 22.15625 43.53125 
Q 18.109375 38.875 18.109375 30.90625 
L 18.109375 0 
L 9.078125 0 
L 9.078125 54.6875 
L 18.109375 54.6875 
L 18.109375 46.1875 
Q 21.1875 51.21875 25.484375 53.609375 
Q 29.78125 56 35.6875 56 
Q 41.65625 56 45.828125 52.96875 
Q 50 49.953125 52 44.1875 
z
" id="DejaVuSans-6d"/>
      <path d="M 56.203125 29.59375 
L 56.203125 25.203125 
L 14.890625 25.203125 
Q 15.484375 15.921875 20.484375 11.0625 
Q 25.484375 6.203125 34.421875 6.203125 
Q 39.59375 6.203125 44.453125 7.46875 
Q 49.3125 8.734375 54.109375 11.28125 
L 54.109375 2.78125 
Q 49.265625 0.734375 44.1875 -0.34375 
Q 39.109375 -1.421875 33.890625 -1.421875 
Q 20.796875 -1.421875 13.15625 6.1875 
Q 5.515625 13.8125 5.515625 26.8125 
Q 5.515625 40.234375 12.765625 48.109375 
Q 20.015625 56 32.328125 56 
Q 43.359375 56 49.78125 48.890625 
Q 56.203125 41.796875 56.203125 29.59375 
z
M 47.21875 32.234375 
Q 47.125 39.59375 43.09375 43.984375 
Q 39.0625 48.390625 32.421875 48.390625 
Q 24.90625 48.390625 20.390625 44.140625 
Q 15.875 39.890625 15.1875 32.171875 
z
" id="DejaVuSans-65"/>
      <path id="DejaVuSans-20"/>
      <path d="M 31 75.875 
Q 24.46875 64.65625 21.28125 53.65625 
Q 18.109375 42.671875 18.109375 31.390625 
Q 18.109375 20.125 21.3125 9.0625 
Q 24.515625 -2 31 -13.1875 
L 23.1875 -13.1875 
Q 15.875 -1.703125 12.234375 9.375 
Q 8.59375 20.453125 8.59375 31.390625 
Q 8.59375 42.28125 12.203125 53.3125 
Q 15.828125 64.359375 23.1875 75.875 
z
" id="DejaVuSans-28"/>
      <path d="M 8.015625 75.875 
L 15.828125 75.875 
Q 23.140625 64.359375 26.78125 53.3125 
Q 30.421875 42.28125 30.421875 31.390625 
Q 30.421875 20.453125 26.78125 9.375 
Q 23.140625 -1.703125 15.828125 -13.1875 
L 8.015625 -13.1875 
Q 14.5 -2 17.703125 9.0625 
Q 20.90625 20.125 20.90625 31.390625 
Q 20.90625 42.671875 17.703125 53.65625 
Q 14.5 64.65625 8.015625 75.875 
z
" id="DejaVuSans-29"/>
     </defs>
     <g style="fill:#262626;" transform="translate(426.033844 493.173078)scale(0.15 -0.15)">
      <use xlink:href="#DejaVuSans-52"/>
      <use x="69.419922" xlink:href="#DejaVuSans-75"/>
      <use x="132.798828" xlink:href="#DejaVuSans-6e"/>
      <use x="196.177734" xlink:href="#DejaVuSans-74"/>
      <use x="235.386719" xlink:href="#DejaVuSans-69"/>
      <use x="263.169922" xlink:href="#DejaVuSans-6d"/>
      <use x="360.582031" xlink:href="#DejaVuSans-65"/>
      <use x="422.105469" xlink:href="#DejaVuSans-20"/>
      <use x="453.892578" xlink:href="#DejaVuSans-28"/>
      <use x="492.90625" xlink:href="#DejaVuSans-6d"/>
      <use x="590.318359" xlink:href="#DejaVuSans-69"/>
      <use x="618.101562" xlink:href="#DejaVuSans-6e"/>
      <use x="681.480469" xlink:href="#DejaVuSans-29"/>
     </g>
    </g>
   </g>
   <g id="matplotlib.axis_2">
    <g id="ytick_1">
     <g id="line2d_15">
      <path clip-path="url(#p568589b255)" d="M 117.09 454.968 
L 843.048 454.968 
" style="fill:none;stroke:#cccccc;stroke-linecap:round;stroke-opacity:0.5;"/>
     </g>
     <g id="line2d_16">
      <defs>
       <path d="M 0 0 
L -6 0 
" id="mfb26d5591d" style="stroke:#262626;stroke-width:1.25;"/>
      </defs>
      <g>
       <use style="fill:#262626;stroke:#262626;stroke-width:1.25;" x="117.09" xlink:href="#mfb26d5591d" y="454.968"/>
      </g>
     </g>
     <g id="text_9">
      <!-- 0.05 -->
      <defs>
       <path d="M 10.796875 72.90625 
L 49.515625 72.90625 
L 49.515625 64.59375 
L 19.828125 64.59375 
L 19.828125 46.734375 
Q 21.96875 47.46875 24.109375 47.828125 
Q 26.265625 48.1875 28.421875 48.1875 
Q 40.625 48.1875 47.75 41.5 
Q 54.890625 34.8125 54.890625 23.390625 
Q 54.890625 11.625 47.5625 5.09375 
Q 40.234375 -1.421875 26.90625 -1.421875 
Q 22.3125 -1.421875 17.546875 -0.640625 
Q 12.796875 0.140625 7.71875 1.703125 
L 7.71875 11.625 
Q 12.109375 9.234375 16.796875 8.0625 
Q 21.484375 6.890625 26.703125 6.890625 
Q 35.15625 6.890625 40.078125 11.328125 
Q 45.015625 15.765625 45.015625 23.390625 
Q 45.015625 31 40.078125 35.4375 
Q 35.15625 39.890625 26.703125 39.890625 
Q 22.75 39.890625 18.8125 39.015625 
Q 14.890625 38.140625 10.796875 36.28125 
z
" id="DejaVuSans-35"/>
      </defs>
      <g style="fill:#262626;" transform="translate(76.974766 460.191926)scale(0.1375 -0.1375)">
       <use xlink:href="#DejaVuSans-30"/>
       <use x="63.623047" xlink:href="#DejaVuSans-2e"/>
       <use x="95.410156" xlink:href="#DejaVuSans-30"/>
       <use x="159.033203" xlink:href="#DejaVuSans-35"/>
      </g>
     </g>
    </g>
    <g id="ytick_2">
     <g id="line2d_17">
      <path clip-path="url(#p568589b255)" d="M 117.09 400.298 
L 843.048 400.298 
" style="fill:none;stroke:#cccccc;stroke-linecap:round;stroke-opacity:0.5;"/>
     </g>
     <g id="line2d_18">
      <g>
       <use style="fill:#262626;stroke:#262626;stroke-width:1.25;" x="117.09" xlink:href="#mfb26d5591d" y="400.298"/>
      </g>
     </g>
     <g id="text_10">
      <!-- 0.10 -->
      <g style="fill:#262626;" transform="translate(76.974766 405.521926)scale(0.1375 -0.1375)">
       <use xlink:href="#DejaVuSans-30"/>
       <use x="63.623047" xlink:href="#DejaVuSans-2e"/>
       <use x="95.410156" xlink:href="#DejaVuSans-31"/>
       <use x="159.033203" xlink:href="#DejaVuSans-30"/>
      </g>
     </g>
    </g>
    <g id="ytick_3">
     <g id="line2d_19">
      <path clip-path="url(#p568589b255)" d="M 117.09 345.628 
L 843.048 345.628 
" style="fill:none;stroke:#cccccc;stroke-linecap:round;stroke-opacity:0.5;"/>
     </g>
     <g id="line2d_20">
      <g>
       <use style="fill:#262626;stroke:#262626;stroke-width:1.25;" x="117.09" xlink:href="#mfb26d5591d" y="345.628"/>
      </g>
     </g>
     <g id="text_11">
      <!-- 0.15 -->
      <g style="fill:#262626;" transform="translate(76.974766 350.851926)scale(0.1375 -0.1375)">
       <use xlink:href="#DejaVuSans-30"/>
       <use x="63.623047" xlink:href="#DejaVuSans-2e"/>
       <use x="95.410156" xlink:href="#DejaVuSans-31"/>
       <use x="159.033203" xlink:href="#DejaVuSans-35"/>
      </g>
     </g>
    </g>
    <g id="ytick_4">
     <g id="line2d_21">
      <path clip-path="url(#p568589b255)" d="M 117.09 290.958 
L 843.048 290.958 
" style="fill:none;stroke:#cccccc;stroke-linecap:round;stroke-opacity:0.5;"/>
     </g>
     <g id="line2d_22">
      <g>
       <use style="fill:#262626;stroke:#262626;stroke-width:1.25;" x="117.09" xlink:href="#mfb26d5591d" y="290.958"/>
      </g>
     </g>
     <g id="text_12">
      <!-- 0.20 -->
      <g style="fill:#262626;" transform="translate(76.974766 296.181926)scale(0.1375 -0.1375)">
       <use xlink:href="#DejaVuSans-30"/>
       <use x="63.623047" xlink:href="#DejaVuSans-2e"/>
       <use x="95.410156" xlink:href="#DejaVuSans-32"/>
       <use x="159.033203" xlink:href="#DejaVuSans-30"/>
      </g>
     </g>
    </g>
    <g id="ytick_5">
     <g id="line2d_23">
      <path clip-path="url(#p568589b255)" d="M 117.09 236.288 
L 843.048 236.288 
" style="fill:none;stroke:#cccccc;stroke-linecap:round;stroke-opacity:0.5;"/>
     </g>
     <g id="line2d_24">
      <g>
       <use style="fill:#262626;stroke:#262626;stroke-width:1.25;" x="117.09" xlink:href="#mfb26d5591d" y="236.288"/>
      </g>
     </g>
     <g id="text_13">
      <!-- 0.25 -->
      <g style="fill:#262626;" transform="translate(76.974766 241.511926)scale(0.1375 -0.1375)">
       <use xlink:href="#DejaVuSans-30"/>
       <use x="63.623047" xlink:href="#DejaVuSans-2e"/>
       <use x="95.410156" xlink:href="#DejaVuSans-32"/>
       <use x="159.033203" xlink:href="#DejaVuSans-35"/>
      </g>
     </g>
    </g>
    <g id="ytick_6">
     <g id="line2d_25">
      <path clip-path="url(#p568589b255)" d="M 117.09 181.618 
L 843.048 181.618 
" style="fill:none;stroke:#cccccc;stroke-linecap:round;stroke-opacity:0.5;"/>
     </g>
     <g id="line2d_26">
      <g>
       <use style="fill:#262626;stroke:#262626;stroke-width:1.25;" x="117.09" xlink:href="#mfb26d5591d" y="181.618"/>
      </g>
     </g>
     <g id="text_14">
      <!-- 0.30 -->
      <defs>
       <path d="M 40.578125 39.3125 
Q 47.65625 37.796875 51.625 33 
Q 55.609375 28.21875 55.609375 21.1875 
Q 55.609375 10.40625 48.1875 4.484375 
Q 40.765625 -1.421875 27.09375 -1.421875 
Q 22.515625 -1.421875 17.65625 -0.515625 
Q 12.796875 0.390625 7.625 2.203125 
L 7.625 11.71875 
Q 11.71875 9.328125 16.59375 8.109375 
Q 21.484375 6.890625 26.8125 6.890625 
Q 36.078125 6.890625 40.9375 10.546875 
Q 45.796875 14.203125 45.796875 21.1875 
Q 45.796875 27.640625 41.28125 31.265625 
Q 36.765625 34.90625 28.71875 34.90625 
L 20.21875 34.90625 
L 20.21875 43.015625 
L 29.109375 43.015625 
Q 36.375 43.015625 40.234375 45.921875 
Q 44.09375 48.828125 44.09375 54.296875 
Q 44.09375 59.90625 40.109375 62.90625 
Q 36.140625 65.921875 28.71875 65.921875 
Q 24.65625 65.921875 20.015625 65.03125 
Q 15.375 64.15625 9.8125 62.3125 
L 9.8125 71.09375 
Q 15.4375 72.65625 20.34375 73.4375 
Q 25.25 74.21875 29.59375 74.21875 
Q 40.828125 74.21875 47.359375 69.109375 
Q 53.90625 64.015625 53.90625 55.328125 
Q 53.90625 49.265625 50.4375 45.09375 
Q 46.96875 40.921875 40.578125 39.3125 
z
" id="DejaVuSans-33"/>
      </defs>
      <g style="fill:#262626;" transform="translate(76.974766 186.841926)scale(0.1375 -0.1375)">
       <use xlink:href="#DejaVuSans-30"/>
       <use x="63.623047" xlink:href="#DejaVuSans-2e"/>
       <use x="95.410156" xlink:href="#DejaVuSans-33"/>
       <use x="159.033203" xlink:href="#DejaVuSans-30"/>
      </g>
     </g>
    </g>
    <g id="ytick_7">
     <g id="line2d_27">
      <path clip-path="url(#p568589b255)" d="M 117.09 126.948 
L 843.048 126.948 
" style="fill:none;stroke:#cccccc;stroke-linecap:round;stroke-opacity:0.5;"/>
     </g>
     <g id="line2d_28">
      <g>
       <use style="fill:#262626;stroke:#262626;stroke-width:1.25;" x="117.09" xlink:href="#mfb26d5591d" y="126.948"/>
      </g>
     </g>
     <g id="text_15">
      <!-- 0.35 -->
      <g style="fill:#262626;" transform="translate(76.974766 132.171926)scale(0.1375 -0.1375)">
       <use xlink:href="#DejaVuSans-30"/>
       <use x="63.623047" xlink:href="#DejaVuSans-2e"/>
       <use x="95.410156" xlink:href="#DejaVuSans-33"/>
       <use x="159.033203" xlink:href="#DejaVuSans-35"/>
      </g>
     </g>
    </g>
    <g id="ytick_8">
     <g id="line2d_29">
      <path clip-path="url(#p568589b255)" d="M 117.09 72.278 
L 843.048 72.278 
" style="fill:none;stroke:#cccccc;stroke-linecap:round;stroke-opacity:0.5;"/>
     </g>
     <g id="line2d_30">
      <g>
       <use style="fill:#262626;stroke:#262626;stroke-width:1.25;" x="117.09" xlink:href="#mfb26d5591d" y="72.278"/>
      </g>
     </g>
     <g id="text_16">
      <!-- 0.40 -->
      <g style="fill:#262626;" transform="translate(76.974766 77.501926)scale(0.1375 -0.1375)">
       <use xlink:href="#DejaVuSans-30"/>
       <use x="63.623047" xlink:href="#DejaVuSans-2e"/>
       <use x="95.410156" xlink:href="#DejaVuSans-34"/>
       <use x="159.033203" xlink:href="#DejaVuSans-30"/>
      </g>
     </g>
    </g>
    <g id="ytick_9">
     <g id="line2d_31">
      <path clip-path="url(#p568589b255)" d="M 117.09 454.968 
L 843.048 454.968 
" style="fill:none;stroke:#cccccc;stroke-linecap:round;stroke-opacity:0.2;"/>
     </g>
     <g id="line2d_32">
      <defs>
       <path d="M 0 0 
L -4 0 
" id="m34d6791429" style="stroke:#262626;"/>
      </defs>
      <g>
       <use style="fill:#262626;stroke:#262626;" x="117.09" xlink:href="#m34d6791429" y="454.968"/>
      </g>
     </g>
    </g>
    <g id="ytick_10">
     <g id="line2d_33">
      <path clip-path="url(#p568589b255)" d="M 117.09 444.034 
L 843.048 444.034 
" style="fill:none;stroke:#cccccc;stroke-linecap:round;stroke-opacity:0.2;"/>
     </g>
     <g id="line2d_34">
      <g>
       <use style="fill:#262626;stroke:#262626;" x="117.09" xlink:href="#m34d6791429" y="444.034"/>
      </g>
     </g>
    </g>
    <g id="ytick_11">
     <g id="line2d_35">
      <path clip-path="url(#p568589b255)" d="M 117.09 433.1 
L 843.048 433.1 
" style="fill:none;stroke:#cccccc;stroke-linecap:round;stroke-opacity:0.2;"/>
     </g>
     <g id="line2d_36">
      <g>
       <use style="fill:#262626;stroke:#262626;" x="117.09" xlink:href="#m34d6791429" y="433.1"/>
      </g>
     </g>
    </g>
    <g id="ytick_12">
     <g id="line2d_37">
      <path clip-path="url(#p568589b255)" d="M 117.09 422.166 
L 843.048 422.166 
" style="fill:none;stroke:#cccccc;stroke-linecap:round;stroke-opacity:0.2;"/>
     </g>
     <g id="line2d_38">
      <g>
       <use style="fill:#262626;stroke:#262626;" x="117.09" xlink:href="#m34d6791429" y="422.166"/>
      </g>
     </g>
    </g>
    <g id="ytick_13">
     <g id="line2d_39">
      <path clip-path="url(#p568589b255)" d="M 117.09 411.232 
L 843.048 411.232 
" style="fill:none;stroke:#cccccc;stroke-linecap:round;stroke-opacity:0.2;"/>
     </g>
     <g id="line2d_40">
      <g>
       <use style="fill:#262626;stroke:#262626;" x="117.09" xlink:href="#m34d6791429" y="411.232"/>
      </g>
     </g>
    </g>
    <g id="ytick_14">
     <g id="line2d_41">
      <path clip-path="url(#p568589b255)" d="M 117.09 400.298 
L 843.048 400.298 
" style="fill:none;stroke:#cccccc;stroke-linecap:round;stroke-opacity:0.2;"/>
     </g>
     <g id="line2d_42">
      <g>
       <use style="fill:#262626;stroke:#262626;" x="117.09" xlink:href="#m34d6791429" y="400.298"/>
      </g>
     </g>
    </g>
    <g id="ytick_15">
     <g id="line2d_43">
      <path clip-path="url(#p568589b255)" d="M 117.09 389.364 
L 843.048 389.364 
" style="fill:none;stroke:#cccccc;stroke-linecap:round;stroke-opacity:0.2;"/>
     </g>
     <g id="line2d_44">
      <g>
       <use style="fill:#262626;stroke:#262626;" x="117.09" xlink:href="#m34d6791429" y="389.364"/>
      </g>
     </g>
    </g>
    <g id="ytick_16">
     <g id="line2d_45">
      <path clip-path="url(#p568589b255)" d="M 117.09 378.43 
L 843.048 378.43 
" style="fill:none;stroke:#cccccc;stroke-linecap:round;stroke-opacity:0.2;"/>
     </g>
     <g id="line2d_46">
      <g>
       <use style="fill:#262626;stroke:#262626;" x="117.09" xlink:href="#m34d6791429" y="378.43"/>
      </g>
     </g>
    </g>
    <g id="ytick_17">
     <g id="line2d_47">
      <path clip-path="url(#p568589b255)" d="M 117.09 367.496 
L 843.048 367.496 
" style="fill:none;stroke:#cccccc;stroke-linecap:round;stroke-opacity:0.2;"/>
     </g>
     <g id="line2d_48">
      <g>
       <use style="fill:#262626;stroke:#262626;" x="117.09" xlink:href="#m34d6791429" y="367.496"/>
      </g>
     </g>
    </g>
    <g id="ytick_18">
     <g id="line2d_49">
      <path clip-path="url(#p568589b255)" d="M 117.09 356.562 
L 843.048 356.562 
" style="fill:none;stroke:#cccccc;stroke-linecap:round;stroke-opacity:0.2;"/>
     </g>
     <g id="line2d_50">
      <g>
       <use style="fill:#262626;stroke:#262626;" x="117.09" xlink:href="#m34d6791429" y="356.562"/>
      </g>
     </g>
    </g>
    <g id="ytick_19">
     <g id="line2d_51">
      <path clip-path="url(#p568589b255)" d="M 117.09 345.628 
L 843.048 345.628 
" style="fill:none;stroke:#cccccc;stroke-linecap:round;stroke-opacity:0.2;"/>
     </g>
     <g id="line2d_52">
      <g>
       <use style="fill:#262626;stroke:#262626;" x="117.09" xlink:href="#m34d6791429" y="345.628"/>
      </g>
     </g>
    </g>
    <g id="ytick_20">
     <g id="line2d_53">
      <path clip-path="url(#p568589b255)" d="M 117.09 334.694 
L 843.048 334.694 
" style="fill:none;stroke:#cccccc;stroke-linecap:round;stroke-opacity:0.2;"/>
     </g>
     <g id="line2d_54">
      <g>
       <use style="fill:#262626;stroke:#262626;" x="117.09" xlink:href="#m34d6791429" y="334.694"/>
      </g>
     </g>
    </g>
    <g id="ytick_21">
     <g id="line2d_55">
      <path clip-path="url(#p568589b255)" d="M 117.09 323.76 
L 843.048 323.76 
" style="fill:none;stroke:#cccccc;stroke-linecap:round;stroke-opacity:0.2;"/>
     </g>
     <g id="line2d_56">
      <g>
       <use style="fill:#262626;stroke:#262626;" x="117.09" xlink:href="#m34d6791429" y="323.76"/>
      </g>
     </g>
    </g>
    <g id="ytick_22">
     <g id="line2d_57">
      <path clip-path="url(#p568589b255)" d="M 117.09 312.826 
L 843.048 312.826 
" style="fill:none;stroke:#cccccc;stroke-linecap:round;stroke-opacity:0.2;"/>
     </g>
     <g id="line2d_58">
      <g>
       <use style="fill:#262626;stroke:#262626;" x="117.09" xlink:href="#m34d6791429" y="312.826"/>
      </g>
     </g>
    </g>
    <g id="ytick_23">
     <g id="line2d_59">
      <path clip-path="url(#p568589b255)" d="M 117.09 301.892 
L 843.048 301.892 
" style="fill:none;stroke:#cccccc;stroke-linecap:round;stroke-opacity:0.2;"/>
     </g>
     <g id="line2d_60">
      <g>
       <use style="fill:#262626;stroke:#262626;" x="117.09" xlink:href="#m34d6791429" y="301.892"/>
      </g>
     </g>
    </g>
    <g id="ytick_24">
     <g id="line2d_61">
      <path clip-path="url(#p568589b255)" d="M 117.09 290.958 
L 843.048 290.958 
" style="fill:none;stroke:#cccccc;stroke-linecap:round;stroke-opacity:0.2;"/>
     </g>
     <g id="line2d_62">
      <g>
       <use style="fill:#262626;stroke:#262626;" x="117.09" xlink:href="#m34d6791429" y="290.958"/>
      </g>
     </g>
    </g>
    <g id="ytick_25">
     <g id="line2d_63">
      <path clip-path="url(#p568589b255)" d="M 117.09 280.024 
L 843.048 280.024 
" style="fill:none;stroke:#cccccc;stroke-linecap:round;stroke-opacity:0.2;"/>
     </g>
     <g id="line2d_64">
      <g>
       <use style="fill:#262626;stroke:#262626;" x="117.09" xlink:href="#m34d6791429" y="280.024"/>
      </g>
     </g>
    </g>
    <g id="ytick_26">
     <g id="line2d_65">
      <path clip-path="url(#p568589b255)" d="M 117.09 269.09 
L 843.048 269.09 
" style="fill:none;stroke:#cccccc;stroke-linecap:round;stroke-opacity:0.2;"/>
     </g>
     <g id="line2d_66">
      <g>
       <use style="fill:#262626;stroke:#262626;" x="117.09" xlink:href="#m34d6791429" y="269.09"/>
      </g>
     </g>
    </g>
    <g id="ytick_27">
     <g id="line2d_67">
      <path clip-path="url(#p568589b255)" d="M 117.09 258.156 
L 843.048 258.156 
" style="fill:none;stroke:#cccccc;stroke-linecap:round;stroke-opacity:0.2;"/>
     </g>
     <g id="line2d_68">
      <g>
       <use style="fill:#262626;stroke:#262626;" x="117.09" xlink:href="#m34d6791429" y="258.156"/>
      </g>
     </g>
    </g>
    <g id="ytick_28">
     <g id="line2d_69">
      <path clip-path="url(#p568589b255)" d="M 117.09 247.222 
L 843.048 247.222 
" style="fill:none;stroke:#cccccc;stroke-linecap:round;stroke-opacity:0.2;"/>
     </g>
     <g id="line2d_70">
      <g>
       <use style="fill:#262626;stroke:#262626;" x="117.09" xlink:href="#m34d6791429" y="247.222"/>
      </g>
     </g>
    </g>
    <g id="ytick_29">
     <g id="line2d_71">
      <path clip-path="url(#p568589b255)" d="M 117.09 236.288 
L 843.048 236.288 
" style="fill:none;stroke:#cccccc;stroke-linecap:round;stroke-opacity:0.2;"/>
     </g>
     <g id="line2d_72">
      <g>
       <use style="fill:#262626;stroke:#262626;" x="117.09" xlink:href="#m34d6791429" y="236.288"/>
      </g>
     </g>
    </g>
    <g id="ytick_30">
     <g id="line2d_73">
      <path clip-path="url(#p568589b255)" d="M 117.09 225.354 
L 843.048 225.354 
" style="fill:none;stroke:#cccccc;stroke-linecap:round;stroke-opacity:0.2;"/>
     </g>
     <g id="line2d_74">
      <g>
       <use style="fill:#262626;stroke:#262626;" x="117.09" xlink:href="#m34d6791429" y="225.354"/>
      </g>
     </g>
    </g>
    <g id="ytick_31">
     <g id="line2d_75">
      <path clip-path="url(#p568589b255)" d="M 117.09 214.42 
L 843.048 214.42 
" style="fill:none;stroke:#cccccc;stroke-linecap:round;stroke-opacity:0.2;"/>
     </g>
     <g id="line2d_76">
      <g>
       <use style="fill:#262626;stroke:#262626;" x="117.09" xlink:href="#m34d6791429" y="214.42"/>
      </g>
     </g>
    </g>
    <g id="ytick_32">
     <g id="line2d_77">
      <path clip-path="url(#p568589b255)" d="M 117.09 203.486 
L 843.048 203.486 
" style="fill:none;stroke:#cccccc;stroke-linecap:round;stroke-opacity:0.2;"/>
     </g>
     <g id="line2d_78">
      <g>
       <use style="fill:#262626;stroke:#262626;" x="117.09" xlink:href="#m34d6791429" y="203.486"/>
      </g>
     </g>
    </g>
    <g id="ytick_33">
     <g id="line2d_79">
      <path clip-path="url(#p568589b255)" d="M 117.09 192.552 
L 843.048 192.552 
" style="fill:none;stroke:#cccccc;stroke-linecap:round;stroke-opacity:0.2;"/>
     </g>
     <g id="line2d_80">
      <g>
       <use style="fill:#262626;stroke:#262626;" x="117.09" xlink:href="#m34d6791429" y="192.552"/>
      </g>
     </g>
    </g>
    <g id="ytick_34">
     <g id="line2d_81">
      <path clip-path="url(#p568589b255)" d="M 117.09 181.618 
L 843.048 181.618 
" style="fill:none;stroke:#cccccc;stroke-linecap:round;stroke-opacity:0.2;"/>
     </g>
     <g id="line2d_82">
      <g>
       <use style="fill:#262626;stroke:#262626;" x="117.09" xlink:href="#m34d6791429" y="181.618"/>
      </g>
     </g>
    </g>
    <g id="ytick_35">
     <g id="line2d_83">
      <path clip-path="url(#p568589b255)" d="M 117.09 170.684 
L 843.048 170.684 
" style="fill:none;stroke:#cccccc;stroke-linecap:round;stroke-opacity:0.2;"/>
     </g>
     <g id="line2d_84">
      <g>
       <use style="fill:#262626;stroke:#262626;" x="117.09" xlink:href="#m34d6791429" y="170.684"/>
      </g>
     </g>
    </g>
    <g id="ytick_36">
     <g id="line2d_85">
      <path clip-path="url(#p568589b255)" d="M 117.09 159.75 
L 843.048 159.75 
" style="fill:none;stroke:#cccccc;stroke-linecap:round;stroke-opacity:0.2;"/>
     </g>
     <g id="line2d_86">
      <g>
       <use style="fill:#262626;stroke:#262626;" x="117.09" xlink:href="#m34d6791429" y="159.75"/>
      </g>
     </g>
    </g>
    <g id="ytick_37">
     <g id="line2d_87">
      <path clip-path="url(#p568589b255)" d="M 117.09 148.816 
L 843.048 148.816 
" style="fill:none;stroke:#cccccc;stroke-linecap:round;stroke-opacity:0.2;"/>
     </g>
     <g id="line2d_88">
      <g>
       <use style="fill:#262626;stroke:#262626;" x="117.09" xlink:href="#m34d6791429" y="148.816"/>
      </g>
     </g>
    </g>
    <g id="ytick_38">
     <g id="line2d_89">
      <path clip-path="url(#p568589b255)" d="M 117.09 137.882 
L 843.048 137.882 
" style="fill:none;stroke:#cccccc;stroke-linecap:round;stroke-opacity:0.2;"/>
     </g>
     <g id="line2d_90">
      <g>
       <use style="fill:#262626;stroke:#262626;" x="117.09" xlink:href="#m34d6791429" y="137.882"/>
      </g>
     </g>
    </g>
    <g id="ytick_39">
     <g id="line2d_91">
      <path clip-path="url(#p568589b255)" d="M 117.09 126.948 
L 843.048 126.948 
" style="fill:none;stroke:#cccccc;stroke-linecap:round;stroke-opacity:0.2;"/>
     </g>
     <g id="line2d_92">
      <g>
       <use style="fill:#262626;stroke:#262626;" x="117.09" xlink:href="#m34d6791429" y="126.948"/>
      </g>
     </g>
    </g>
    <g id="ytick_40">
     <g id="line2d_93">
      <path clip-path="url(#p568589b255)" d="M 117.09 116.014 
L 843.048 116.014 
" style="fill:none;stroke:#cccccc;stroke-linecap:round;stroke-opacity:0.2;"/>
     </g>
     <g id="line2d_94">
      <g>
       <use style="fill:#262626;stroke:#262626;" x="117.09" xlink:href="#m34d6791429" y="116.014"/>
      </g>
     </g>
    </g>
    <g id="ytick_41">
     <g id="line2d_95">
      <path clip-path="url(#p568589b255)" d="M 117.09 105.08 
L 843.048 105.08 
" style="fill:none;stroke:#cccccc;stroke-linecap:round;stroke-opacity:0.2;"/>
     </g>
     <g id="line2d_96">
      <g>
       <use style="fill:#262626;stroke:#262626;" x="117.09" xlink:href="#m34d6791429" y="105.08"/>
      </g>
     </g>
    </g>
    <g id="ytick_42">
     <g id="line2d_97">
      <path clip-path="url(#p568589b255)" d="M 117.09 94.146 
L 843.048 94.146 
" style="fill:none;stroke:#cccccc;stroke-linecap:round;stroke-opacity:0.2;"/>
     </g>
     <g id="line2d_98">
      <g>
       <use style="fill:#262626;stroke:#262626;" x="117.09" xlink:href="#m34d6791429" y="94.146"/>
      </g>
     </g>
    </g>
    <g id="ytick_43">
     <g id="line2d_99">
      <path clip-path="url(#p568589b255)" d="M 117.09 83.212 
L 843.048 83.212 
" style="fill:none;stroke:#cccccc;stroke-linecap:round;stroke-opacity:0.2;"/>
     </g>
     <g id="line2d_100">
      <g>
       <use style="fill:#262626;stroke:#262626;" x="117.09" xlink:href="#m34d6791429" y="83.212"/>
      </g>
     </g>
    </g>
    <g id="text_17">
     <!-- Computationl Time (s) -->
     <defs>
      <path d="M 64.40625 67.28125 
L 64.40625 56.890625 
Q 59.421875 61.53125 53.78125 63.8125 
Q 48.140625 66.109375 41.796875 66.109375 
Q 29.296875 66.109375 22.65625 58.46875 
Q 16.015625 50.828125 16.015625 36.375 
Q 16.015625 21.96875 22.65625 14.328125 
Q 29.296875 6.6875 41.796875 6.6875 
Q 48.140625 6.6875 53.78125 8.984375 
Q 59.421875 11.28125 64.40625 15.921875 
L 64.40625 5.609375 
Q 59.234375 2.09375 53.4375 0.328125 
Q 47.65625 -1.421875 41.21875 -1.421875 
Q 24.65625 -1.421875 15.125 8.703125 
Q 5.609375 18.84375 5.609375 36.375 
Q 5.609375 53.953125 15.125 64.078125 
Q 24.65625 74.21875 41.21875 74.21875 
Q 47.75 74.21875 53.53125 72.484375 
Q 59.328125 70.75 64.40625 67.28125 
z
" id="DejaVuSans-43"/>
      <path d="M 30.609375 48.390625 
Q 23.390625 48.390625 19.1875 42.75 
Q 14.984375 37.109375 14.984375 27.296875 
Q 14.984375 17.484375 19.15625 11.84375 
Q 23.34375 6.203125 30.609375 6.203125 
Q 37.796875 6.203125 41.984375 11.859375 
Q 46.1875 17.53125 46.1875 27.296875 
Q 46.1875 37.015625 41.984375 42.703125 
Q 37.796875 48.390625 30.609375 48.390625 
z
M 30.609375 56 
Q 42.328125 56 49.015625 48.375 
Q 55.71875 40.765625 55.71875 27.296875 
Q 55.71875 13.875 49.015625 6.21875 
Q 42.328125 -1.421875 30.609375 -1.421875 
Q 18.84375 -1.421875 12.171875 6.21875 
Q 5.515625 13.875 5.515625 27.296875 
Q 5.515625 40.765625 12.171875 48.375 
Q 18.84375 56 30.609375 56 
z
" id="DejaVuSans-6f"/>
      <path d="M 18.109375 8.203125 
L 18.109375 -20.796875 
L 9.078125 -20.796875 
L 9.078125 54.6875 
L 18.109375 54.6875 
L 18.109375 46.390625 
Q 20.953125 51.265625 25.265625 53.625 
Q 29.59375 56 35.59375 56 
Q 45.5625 56 51.78125 48.09375 
Q 58.015625 40.1875 58.015625 27.296875 
Q 58.015625 14.40625 51.78125 6.484375 
Q 45.5625 -1.421875 35.59375 -1.421875 
Q 29.59375 -1.421875 25.265625 0.953125 
Q 20.953125 3.328125 18.109375 8.203125 
z
M 48.6875 27.296875 
Q 48.6875 37.203125 44.609375 42.84375 
Q 40.53125 48.484375 33.40625 48.484375 
Q 26.265625 48.484375 22.1875 42.84375 
Q 18.109375 37.203125 18.109375 27.296875 
Q 18.109375 17.390625 22.1875 11.75 
Q 26.265625 6.109375 33.40625 6.109375 
Q 40.53125 6.109375 44.609375 11.75 
Q 48.6875 17.390625 48.6875 27.296875 
z
" id="DejaVuSans-70"/>
      <path d="M 34.28125 27.484375 
Q 23.390625 27.484375 19.1875 25 
Q 14.984375 22.515625 14.984375 16.5 
Q 14.984375 11.71875 18.140625 8.90625 
Q 21.296875 6.109375 26.703125 6.109375 
Q 34.1875 6.109375 38.703125 11.40625 
Q 43.21875 16.703125 43.21875 25.484375 
L 43.21875 27.484375 
z
M 52.203125 31.203125 
L 52.203125 0 
L 43.21875 0 
L 43.21875 8.296875 
Q 40.140625 3.328125 35.546875 0.953125 
Q 30.953125 -1.421875 24.3125 -1.421875 
Q 15.921875 -1.421875 10.953125 3.296875 
Q 6 8.015625 6 15.921875 
Q 6 25.140625 12.171875 29.828125 
Q 18.359375 34.515625 30.609375 34.515625 
L 43.21875 34.515625 
L 43.21875 35.40625 
Q 43.21875 41.609375 39.140625 45 
Q 35.0625 48.390625 27.6875 48.390625 
Q 23 48.390625 18.546875 47.265625 
Q 14.109375 46.140625 10.015625 43.890625 
L 10.015625 52.203125 
Q 14.9375 54.109375 19.578125 55.046875 
Q 24.21875 56 28.609375 56 
Q 40.484375 56 46.34375 49.84375 
Q 52.203125 43.703125 52.203125 31.203125 
z
" id="DejaVuSans-61"/>
      <path d="M 9.421875 75.984375 
L 18.40625 75.984375 
L 18.40625 0 
L 9.421875 0 
z
" id="DejaVuSans-6c"/>
      <path d="M -0.296875 72.90625 
L 61.375 72.90625 
L 61.375 64.59375 
L 35.5 64.59375 
L 35.5 0 
L 25.59375 0 
L 25.59375 64.59375 
L -0.296875 64.59375 
z
" id="DejaVuSans-54"/>
      <path d="M 44.28125 53.078125 
L 44.28125 44.578125 
Q 40.484375 46.53125 36.375 47.5 
Q 32.28125 48.484375 27.875 48.484375 
Q 21.1875 48.484375 17.84375 46.4375 
Q 14.5 44.390625 14.5 40.28125 
Q 14.5 37.15625 16.890625 35.375 
Q 19.28125 33.59375 26.515625 31.984375 
L 29.59375 31.296875 
Q 39.15625 29.25 43.1875 25.515625 
Q 47.21875 21.78125 47.21875 15.09375 
Q 47.21875 7.46875 41.1875 3.015625 
Q 35.15625 -1.421875 24.609375 -1.421875 
Q 20.21875 -1.421875 15.453125 -0.5625 
Q 10.6875 0.296875 5.421875 2 
L 5.421875 11.28125 
Q 10.40625 8.6875 15.234375 7.390625 
Q 20.0625 6.109375 24.8125 6.109375 
Q 31.15625 6.109375 34.5625 8.28125 
Q 37.984375 10.453125 37.984375 14.40625 
Q 37.984375 18.0625 35.515625 20.015625 
Q 33.0625 21.96875 24.703125 23.78125 
L 21.578125 24.515625 
Q 13.234375 26.265625 9.515625 29.90625 
Q 5.8125 33.546875 5.8125 39.890625 
Q 5.8125 47.609375 11.28125 51.796875 
Q 16.75 56 26.8125 56 
Q 31.78125 56 36.171875 55.265625 
Q 40.578125 54.546875 44.28125 53.078125 
z
" id="DejaVuSans-73"/>
     </defs>
     <g style="fill:#262626;" transform="translate(69.855234 341.895844)rotate(-90)scale(0.15 -0.15)">
      <use xlink:href="#DejaVuSans-43"/>
      <use x="69.824219" xlink:href="#DejaVuSans-6f"/>
      <use x="131.005859" xlink:href="#DejaVuSans-6d"/>
      <use x="228.417969" xlink:href="#DejaVuSans-70"/>
      <use x="291.894531" xlink:href="#DejaVuSans-75"/>
      <use x="355.273438" xlink:href="#DejaVuSans-74"/>
      <use x="394.482422" xlink:href="#DejaVuSans-61"/>
      <use x="455.761719" xlink:href="#DejaVuSans-74"/>
      <use x="494.970703" xlink:href="#DejaVuSans-69"/>
      <use x="522.753906" xlink:href="#DejaVuSans-6f"/>
      <use x="583.935547" xlink:href="#DejaVuSans-6e"/>
      <use x="647.314453" xlink:href="#DejaVuSans-6c"/>
      <use x="675.097656" xlink:href="#DejaVuSans-20"/>
      <use x="706.884766" xlink:href="#DejaVuSans-54"/>
      <use x="767.921875" xlink:href="#DejaVuSans-69"/>
      <use x="795.705078" xlink:href="#DejaVuSans-6d"/>
      <use x="893.117188" xlink:href="#DejaVuSans-65"/>
      <use x="954.640625" xlink:href="#DejaVuSans-20"/>
      <use x="986.427734" xlink:href="#DejaVuSans-28"/>
      <use x="1025.441406" xlink:href="#DejaVuSans-73"/>
      <use x="1077.541016" xlink:href="#DejaVuSans-29"/>
     </g>
    </g>
   </g>
   <g id="patch_3">
    <path clip-path="url(#p568589b255)" d="M 184.659937 81.5719 
C 185.622568 81.5719 186.545903 81.168674 187.226586 80.451027 
C 187.907269 79.73338 188.289727 78.759906 188.289727 77.745 
C 188.289727 76.730094 187.907269 75.75662 187.226586 75.038973 
C 186.545903 74.321326 185.622568 73.9181 184.659937 73.9181 
C 183.697305 73.9181 182.773971 74.321326 182.093288 75.038973 
C 181.412604 75.75662 181.030147 76.730094 181.030147 77.745 
C 181.030147 78.759906 181.412604 79.73338 182.093288 80.451027 
C 182.773971 81.168674 183.697305 81.5719 184.659937 81.5719 
z
" style="fill:none;stroke:#000000;stroke-linejoin:miter;"/>
   </g>
   <g id="patch_4">
    <path clip-path="url(#p568589b255)" d="M 176.283498 87.0389 
C 177.24613 87.0389 178.169464 86.635674 178.850148 85.918027 
C 179.530831 85.20038 179.913288 84.226906 179.913288 83.212 
C 179.913288 82.197094 179.530831 81.22362 178.850148 80.505973 
C 178.169464 79.788326 177.24613 79.3851 176.283498 79.3851 
C 175.320867 79.3851 174.397533 79.788326 173.716849 80.505973 
C 173.036166 81.22362 172.653708 82.197094 172.653708 83.212 
C 172.653708 84.226906 173.036166 85.20038 173.716849 85.918027 
C 174.397533 86.635674 175.320867 87.0389 176.283498 87.0389 
z
" style="fill:none;stroke:#000000;stroke-linejoin:miter;"/>
   </g>
   <g id="line2d_101">
    <path clip-path="url(#p568589b255)" d="M 170.271077 156.744353 
L 170.71782 143.013194 
L 171.183178 142.768409 
L 171.629922 146.926364 
L 172.113894 141.819248 
L 172.579251 143.679249 
L 173.044609 158.409621 
L 173.509967 138.467075 
L 173.975324 129.190533 
L 174.449989 148.051749 
L 174.961883 149.818685 
L 175.371397 168.277401 
L 176.76747 205.541547 
L 177.242135 171.307365 
L 177.707493 203.281392 
L 178.163544 194.849214 
L 178.628901 172.6718 
L 179.084952 201.065293 
L 180.024974 172.511999 
L 180.490332 202.989423 
L 181.41174 148.515511 
L 181.914327 151.247771 
L 182.342456 191.322903 
L 182.81712 201.525405 
L 183.282478 169.543557 
L 183.747836 160.759192 
L 184.669244 77.345909 
L 185.17183 166.159581 
L 185.609267 164.984144 
L 186.074624 121.811009 
L 186.539982 125.886327 
L 186.996033 146.156817 
L 187.480005 132.628211 
L 187.936055 152.27983 
L 188.392106 157.393724 
L 189.322821 174.989828 
L 189.788179 157.945859 
L 190.262844 171.535727 
L 190.718894 171.664767 
L 191.202866 151.560334 
L 191.668224 163.628312 
L 192.124274 183.488741 
L 192.580325 116.069641 
L 193.045683 115.467454 
L 193.976398 200.526193 
L 194.441756 172.876179 
L 194.91642 160.777701 
L 195.372471 168.044608 
L 195.856443 135.870113 
L 196.312494 185.726999 
L 196.768544 166.582676 
L 197.243209 193.184989 
L 197.708567 177.762754 
L 198.639282 197.282987 
L 199.10464 179.975725 
L 199.569997 192.49834 
L 200.035355 201.068421 
L 200.956763 97.053316 
L 201.450042 113.533158 
L 201.896786 199.294968 
L 202.827501 178.64935 
L 203.292859 179.676196 
L 203.748909 165.219284 
L 204.223574 225.309172 
L 204.688932 214.934877 
L 205.172904 197.859366 
L 205.61034 205.121581 
L 207.01572 159.16822 
L 207.946436 170.832654 
L 208.402486 111.154911 
L 208.867844 119.734898 
L 209.333202 140.917271 
L 209.798559 152.446148 
L 210.263917 142.416481 
L 210.729275 179.679585 
L 211.20394 184.593011 
L 211.65999 163.006052 
L 212.60932 144.709222 
L 213.06537 181.754652 
L 213.530728 202.03948 
L 213.996086 180.997096 
L 214.461444 184.205891 
L 214.926801 130.182186 
L 215.392159 127.88397 
L 215.848209 185.59483 
L 216.313567 172.651206 
L 217.244283 170.218215 
L 217.718947 176.14441 
L 218.65897 205.531902 
L 219.105713 158.415095 
L 219.580378 219.068068 
L 220.036429 157.438562 
L 220.520401 120.527647 
L 220.976451 122.939522 
L 221.907167 124.620171 
L 222.828575 153.230034 
L 223.331161 138.330475 
L 223.768597 150.371863 
L 224.233955 153.202661 
L 224.717927 142.054387 
L 225.183285 152.119247 
L 225.630028 158.210456 
L 226.570051 132.676177 
L 227.026101 157.265727 
L 227.491459 77.8433 
L 227.947509 144.395355 
L 228.412867 145.848424 
L 228.878225 120.047462 
L 229.343583 117.069114 
L 229.836862 128.829742 
L 230.292912 143.974346 
L 231.223628 152.365335 
L 231.688985 141.755901 
L 232.135729 171.189013 
L 232.610394 166.025067 
L 233.075751 133.800519 
L 233.531802 140.959763 
L 233.997159 138.471507 
L 234.471824 166.238309 
L 235.40254 165.040974 
L 235.867897 169.797206 
L 236.333255 170.421551 
L 236.80792 172.011219 
L 237.26397 94.828353 
L 237.720021 157.175008 
L 238.185379 132.772631 
L 238.660044 167.465101 
L 239.125401 168.629589 
L 239.590759 179.485894 
L 240.512167 180.800277 
L 240.996139 188.68788 
L 241.45219 154.311623 
L 241.917547 143.737121 
L 242.392212 160.613989 
L 242.848263 119.740112 
L 243.31362 181.289847 
L 243.778978 126.315939 
L 244.244336 199.42062 
L 245.184358 184.960579 
L 245.640409 196.030126 
L 246.087152 184.518976 
L 246.561817 192.412053 
L 247.027175 171.107157 
L 247.492533 221.595948 
L 247.967197 189.176668 
L 248.423248 165.980229 
L 248.897913 199.511599 
L 249.819321 165.330858 
L 250.293986 195.457136 
L 250.768651 186.615941 
L 251.234008 149.536361 
L 252.164724 221.759921 
L 252.620774 143.953491 
L 253.086132 201.115345 
L 253.560797 216.217457 
L 254.491512 273.57274 
L 254.938256 247.126839 
L 255.41292 253.481863 
L 255.887585 256.100463 
L 256.343636 250.680262 
L 256.799686 271.530519 
L 257.274351 274.417105 
L 257.739709 276.471578 
L 258.661117 278.657177 
L 259.126475 228.950186 
L 259.60114 274.876435 
L 260.066497 280.570879 
L 260.531855 293.671698 
L 260.987906 289.309103 
L 261.46257 301.723534 
L 261.918621 241.539537 
L 262.393286 232.538801 
L 262.849336 241.374522 
L 263.780052 241.028069 
L 264.273331 240.574214 
L 264.720074 256.317094 
L 265.204046 277.311251 
L 265.641483 302.975613 
L 266.116147 306.494104 
L 266.581505 302.86847 
L 267.046863 276.075595 
L 267.986885 279.881884 
L 268.452243 287.749935 
L 268.898986 274.520858 
L 269.355037 309.99956 
L 269.829702 303.434682 
L 270.304367 319.11969 
L 270.769724 278.8102 
L 271.244389 297.153171 
L 271.70044 302.332498 
L 272.15649 320.720568 
L 273.096513 329.954097 
L 273.56187 294.05569 
L 274.027228 300.017859 
L 274.492586 294.219401 
L 274.948636 314.999795 
L 275.423301 309.907537 
L 275.897966 314.572008 
L 276.344709 305.658863 
L 277.284732 258.777196 
L 277.740783 273.674669 
L 278.215447 331.363631 
L 279.61152 309.400241 
L 280.542236 324.37227 
L 281.016901 309.702116 
L 281.482258 317.479448 
L 282.394359 313.748759 
L 282.869024 313.85929 
L 283.399532 316.322781 
L 283.79974 307.306404 
L 284.274405 310.253208 
L 285.177198 317.712502 
L 285.66117 305.591084 
L 286.126528 324.279465 
L 287.047936 283.053661 
L 287.522601 301.35414 
L 287.987959 269.074588 
L 288.453317 273.315964 
L 288.918674 274.110016 
L 289.384032 333.646466 
L 289.84939 312.809504 
L 290.324055 304.987333 
L 290.780105 319.570157 
L 291.264077 309.590542 
L 291.71082 312.093397 
L 292.176178 323.658249 
L 292.66015 317.875171 
L 295.554675 318.710672 
L 298.486428 300.199298 
L 300.990053 309.99956 
L 303.912499 317.639249 
L 306.341666 310.915874 
L 309.254805 282.747615 
L 311.460601 297.153171 
L 314.457504 304.209965 
L 317.445101 280.733548 
L 319.902189 307.723242 
L 322.815329 268.634027 
L 325.076967 273.221856 
L 327.766734 266.128044 
L 329.860844 289.258791 
L 332.243475 311.928382 
L 334.4865 313.842866 
L 336.962202 321.841261 
L 338.991162 301.772804 
L 341.736772 310.279538 
L 343.681968 288.225428 
L 346.408964 317.314434 
L 348.363466 319.306603 
L 351.071848 321.018794 
L 353.556858 308.531111 
L 356.442075 326.61157 
L 358.9457 242.659187 
L 360.900202 306.432842 
L 363.645813 305.078313 
L 365.953987 300.324167 
L 369.425555 298.827303 
L 371.733729 293.409447 
L 374.525875 256.988102 
L 377.141186 307.945087 
L 380.203239 300.118485 
L 383.107071 302.028798 
L 385.62931 312.991202 
L 388.50522 315.048804 
L 391.306674 309.02433 
L 393.484548 310.936469 
L 396.239465 313.519093 
L 398.556947 298.437836 
L 401.349093 304.745937 
L 403.759646 309.497738 
L 406.598328 318.231791 
L 408.74828 301.911489 
L 411.717262 310.888502 
L 414.518715 297.37293 
L 417.013033 296.078359 
L 419.7028 316.430966 
L 422.038896 307.602805 
L 424.747278 304.18911 
L 427.260209 329.140754 
L 429.866212 312.908043 
L 432.174386 305.121848 
L 434.696625 306.710734 
L 436.995492 309.318385 
L 439.443273 306.007662 
L 441.602533 305.232379 
L 444.134079 286.228045 
L 446.163039 311.755547 
L 448.657356 307.685964 
L 451.496038 310.140592 
L 454.26957 295.867203 
L 456.735965 307.691438 
L 458.876611 251.513678 
L 461.501228 245.075755 
L 463.855938 296.792381 
L 466.052426 302.664092 
L 467.979007 310.942986 
L 470.426789 312.347045 
L 472.409212 318.20103 
L 475.09898 309.722971 
L 477.276854 296.855988 
L 480.115536 305.106467 
L 482.414403 295.91543 
L 485.634678 302.376294 
L 488.34306 279.980163 
L 491.312042 280.912901 
L 494.169338 296.345303 
L 496.663655 300.225627 
L 498.869451 314.47816 
L 501.038018 304.091874 
L 503.765014 304.847345 
L 506.147645 279.994501 
L 508.735034 298.34816 
L 510.763993 310.387723 
L 512.988403 316.074607 
L 515.212813 293.41805 
L 518.358631 302.86821 
L 521.150777 282.139693 
L 523.831237 289.703783 
L 526.651305 295.367727 
L 528.931558 284.004908 
L 531.612018 295.149011 
L 533.69682 295.206883 
L 536.246981 241.629213 
L 538.610998 291.617225 
L 541.049472 285.805993 
L 543.478639 299.348676 
L 546.577921 293.269458 
L 549.10016 283.777589 
L 552.059835 287.786953 
L 554.95436 268.089713 
L 557.392834 294.857041 
L 560.417659 292.320297 
L 562.846826 275.639466 
L 565.248072 286.412872 
L 567.658625 309.255038 
L 570.534535 297.355464 
L 573.401139 300.245439 
L 575.84892 261.367381 
L 578.240859 257.191698 
L 581.274991 261.523793 
L 584.206744 252.063466 
L 587.185034 264.928624 
L 589.818958 242.711846 
L 592.946162 287.05338 
L 595.300872 286.227785 
L 598.130247 250.750386 
L 600.959621 255.109853 
L 603.314331 214.203651 
L 605.948256 271.848818 
L 608.163358 261.204451 
L 611.150955 263.179154 
L 613.673193 256.914067 
L 616.549104 267.280541 
L 619.229564 285.07972 
L 621.509817 279.408216 
L 624.264735 202.732646 
L 626.544987 212.113985 
L 629.197526 280.395698 
L 632.073437 266.750043 
L 634.921426 274.846717 
L 637.462279 272.452047 
L 640.338189 267.527672 
L 643.111721 264.21356 
L 645.196524 287.580489 
L 647.914212 276.782056 
L 650.213079 276.707761 
L 652.977304 264.937227 
L 655.50885 261.493032 
L 658.366146 229.609724 
L 660.730163 226.634244 
L 663.447852 243.825761 
L 666.668127 266.076689 
L 668.771544 269.442939 
L 671.554383 266.55896 
L 673.685721 249.393511 
L 676.291724 244.484256 
L 678.404449 251.421655 
L 681.24313 243.247557 
L 683.20694 253.944061 
L 685.8874 226.511982 
L 688.158346 263.23807 
L 690.652663 271.260448 
L 692.998066 257.918754 
L 695.510997 259.81473 
L 697.633028 251.235785 
L 700.546168 257.269122 
L 702.668199 263.173419 
L 704.585472 247.742321 
L 707.154247 258.276416 
L 709.285585 247.571831 
L 711.184244 261.77301 
L 713.203897 259.706545 
L 714.972256 249.999348 
L 717.21528 236.631325 
L 718.992946 210.004767 
L 721.30112 247.808274 
L 722.929872 248.454256 
L 724.521396 253.300165 
L 726.578277 240.135738 
L 728.132572 259.686732 
L 730.077767 267.611613 
L 732.088112 251.227183 
L 733.698249 249.478756 
L 735.662059 244.859124 
L 737.151204 239.707169 
L 738.612427 251.216234 
L 740.548315 260.303518 
L 742.567967 185.747854 
L 742.567967 185.747854 
" style="fill:none;stroke:#ff7f0e;stroke-linecap:round;"/>
   </g>
   <g id="line2d_102">
    <path clip-path="url(#p568589b255)" d="M 152.298963 159.104873 
L 152.745706 160.772487 
L 153.220371 149.267593 
L 154.151087 90.809083 
L 154.635059 159.553254 
L 155.081802 164.888993 
L 155.54716 145.024132 
L 156.012517 171.308147 
L 156.468568 154.042334 
L 156.943233 160.025358 
L 157.399283 145.897694 
L 157.873948 154.23837 
L 158.329999 153.604119 
L 159.279328 178.411082 
L 159.735379 144.047599 
L 160.191429 148.480319 
L 161.131452 172.863144 
L 161.59681 178.492938 
L 162.071475 104.233675 
L 162.527525 181.864141 
L 163.45824 174.430133 
L 164.845006 91.846617 
L 165.310364 189.715769 
L 166.241079 185.211099 
L 166.706437 159.170566 
L 167.181102 189.998874 
L 167.655767 187.649043 
L 168.605097 181.199128 
L 169.042533 176.474439 
L 169.498583 188.710821 
L 169.973248 129.273692 
L 170.429299 139.46316 
L 171.387936 169.713004 
L 171.825372 164.799317 
L 172.290729 188.394868 
L 173.230752 145.493108 
L 173.686803 172.271646 
L 174.15216 172.898337 
L 174.617518 136.784081 
L 175.082876 163.785767 
L 175.55754 170.668682 
L 176.022898 164.519339 
L 176.478949 83.128987 
L 176.944306 200.778798 
L 177.875022 198.724325 
L 178.377608 142.255638 
L 178.805737 183.284363 
L 179.736453 180.588078 
L 180.192503 164.319393 
L 180.667168 185.42408 
L 181.141833 188.566661 
L 181.597883 180.450175 
L 182.528599 175.03258 
L 183.003264 150.474573 
L 183.468621 186.365421 
L 183.924672 162.758921 
L 184.390029 194.182377 
L 184.855387 196.684971 
L 185.330052 136.360204 
L 185.79541 169.261494 
L 186.25146 189.820825 
L 187.191483 182.985876 
L 187.647533 161.76414 
L 188.112891 185.388888 
L 188.578249 191.054135 
L 189.043606 186.619069 
L 189.508964 170.278434 
L 189.983629 181.292194 
L 190.448987 158.992256 
L 190.905037 191.041883 
L 191.835753 195.348951 
L 192.310417 189.587771 
L 192.766468 214.941655 
L 193.231826 219.556856 
L 193.70649 184.927733 
L 194.162541 184.559382 
L 194.627899 186.941799 
L 195.093256 180.871184 
L 195.558614 178.496327 
L 196.489329 151.865598 
L 196.954687 189.31014 
L 197.429352 176.612343 
L 197.885403 201.868991 
L 198.360067 180.558621 
L 198.825425 221.457002 
L 199.281476 222.6327 
L 199.746833 221.899909 
L 200.230805 194.246767 
L 200.686856 202.224307 
L 201.142906 170.558151 
L 201.617571 205.250881 
L 202.073622 169.205707 
L 202.538979 220.900436 
L 203.004337 184.816159 
L 203.469695 204.015226 
L 203.935053 213.170288 
L 204.409717 202.520447 
L 204.865768 227.04665 
L 205.368354 222.867579 
L 205.796483 223.49401 
L 206.261841 208.100189 
L 206.727199 220.447883 
L 207.192556 184.630289 
L 207.667221 188.615931 
L 208.123272 206.042327 
L 208.588629 187.137575 
L 209.053987 203.523049 
L 209.99401 212.259448 
L 210.915418 141.468363 
L 211.390083 139.987922 
L 211.85544 139.818476 
L 212.330105 197.468075 
L 212.786156 208.402064 
L 213.242206 198.853365 
L 213.716871 204.491761 
L 214.172922 166.130124 
L 215.112944 225.985915 
L 215.568995 231.440006 
L 216.034353 216.973188 
L 216.509017 227.456711 
L 216.974375 222.636871 
L 217.439733 236.541648 
L 218.361141 215.200517 
L 219.766521 232.957464 
L 220.250493 224.904586 
L 220.687929 223.78624 
L 221.153287 262.621545 
L 221.627952 270.574841 
L 222.09331 258.917967 
L 222.558667 234.687383 
L 223.024025 246.067147 
L 223.489383 244.117991 
L 224.420098 194.44906 
L 224.885456 242.021808 
L 225.350814 247.729547 
L 225.825478 243.617994 
L 226.281529 234.590928 
L 226.746887 250.156802 
L 227.202937 260.841315 
L 227.677602 256.277469 
L 229.073675 244.294997 
L 229.539033 228.350085 
L 230.00439 251.907315 
L 230.469748 253.757409 
L 230.935106 254.146615 
L 231.400464 251.500383 
L 231.856514 253.515492 
L 232.340486 267.12074 
L 232.796537 259.782926 
L 234.19261 268.329024 
L 234.667275 252.652879 
L 235.123325 216.644983 
L 235.588683 192.095058 
L 236.035426 249.580684 
L 236.519398 215.669754 
L 236.984756 195.363289 
L 237.450114 240.908675 
L 238.371522 238.928497 
L 238.846187 261.396838 
L 239.311544 257.401551 
L 239.776902 261.116861 
L 240.251567 274.749481 
L 240.707617 280.599033 
L 241.200897 258.378866 
L 242.150226 250.276979 
L 242.569048 250.26603 
L 243.043713 214.64734 
L 243.499764 246.395612 
L 243.965121 264.873619 
L 244.477015 266.378304 
L 244.886529 257.35567 
L 245.370501 238.968904 
L 245.817245 264.614757 
L 246.301217 240.273381 
L 246.74796 253.857774 
L 247.678676 258.31578 
L 248.15334 267.174181 
L 248.600084 261.134587 
L 249.084056 256.602285 
L 249.549414 246.982418 
L 250.014771 259.649715 
L 250.480129 255.996449 
L 250.945487 260.067335 
L 251.410844 253.692759 
L 252.350867 252.182861 
L 252.816225 255.643479 
L 253.272275 198.191742 
L 253.737633 244.854692 
L 254.659041 263.269874 
L 255.124399 264.371797 
L 255.608371 279.989026 
L 256.064421 231.487973 
L 256.995137 185.000986 
L 257.469801 265.265432 
L 257.925852 244.366165 
L 258.39121 270.444758 
L 258.893796 253.584574 
L 259.321925 243.446462 
L 259.777976 236.301034 
L 260.243333 258.678656 
L 260.708691 263.406473 
L 261.667328 267.275849 
L 262.104764 268.224228 
L 263.044787 252.62655 
L 263.500837 189.043196 
L 266.162683 184.486129 
L 268.880372 194.773876 
L 271.114089 249.696429 
L 274.44605 247.024128 
L 276.763531 250.470409 
L 279.537063 508.402605 
L 282.068609 508.663813 
L 284.144104 508.741498 
L 286.926943 508.517307 
L 289.002439 508.846555 
L 291.701513 508.95474 
L 293.860773 508.753489 
L 296.113104 508.43102 
L 298.114142 508.760007 
L 300.915596 508.566316 
L 303.251691 508.568662 
L 306.006609 508.904427 
L 308.119333 508.477943 
L 317.984916 508.803541 
L 320.200018 508.568662 
L 322.796714 508.776169 
L 325.728468 508.443011 
L 327.74812 508.481332 
L 330.335509 508.840037 
L 335.277608 508.860632 
L 337.883611 508.501927 
L 339.91257 508.494106 
L 342.611645 508.778515 
L 344.798826 508.434148 
L 347.376908 508.910944 
L 349.889839 508.971163 
L 352.812285 508.617672 
L 355.176303 508.844208 
L 357.80092 508.925021 
L 359.932258 508.350207 
L 361.989139 508.771998 
L 374.125668 508.556671 
L 376.40592 507.431546 
L 378.69548 508.933885 
L 382.092591 508.410165 
L 386.550718 508.763135 
L 389.426629 508.214389 
L 391.48351 508.827785 
L 394.042977 508.219863 
L 396.332537 508.953436 
L 399.143297 508.768609 
L 403.759646 508.805887 
L 405.853755 508.683625 
L 408.450451 508.758703 
L 410.767932 508.579611 
L 413.318093 508.845512 
L 415.663495 508.974552 
L 418.111277 508.889047 
L 420.028551 508.93597 
L 425.194021 508.910944 
L 427.71626 508.599163 
L 429.689376 508.815533 
L 432.006858 508.57518 
L 434.09166 508.828828 
L 441.472233 508.973248 
L 443.650107 508.456046 
L 448.461906 508.408861 
L 450.379179 508.836649 
L 468.193072 508.524867 
L 470.594317 508.155213 
L 472.697734 508.797024 
L 474.847687 508.742541 
L 477.267547 508.945876 
L 479.464035 508.501927 
L 481.781516 508.756618 
L 483.670869 508.758964 
L 485.485764 508.60568 
L 487.505416 508.313971 
L 489.506454 508.800413 
L 491.749478 508.422156 
L 496.505434 508.789464 
L 498.4134 508.865845 
L 500.982175 508.266787 
L 503.039056 508.879141 
L 507.338961 508.626535 
L 509.191084 508.92841 
L 511.033901 508.917461 
L 512.895332 508.650779 
L 515.268656 508.762092 
L 517.102165 507.172424 
L 519.643018 508.695356 
L 521.653363 508.583 
L 524.063916 289.088302 
L 526.185947 310.090279 
L 528.605807 297.947224 
L 530.467238 307.682575 
L 532.682341 304.676855 
L 535.213887 309.207854 
L 537.75474 269.850914 
L 540.323514 254.988373 
L 542.03603 297.928454 
L 543.813697 304.995154 
L 545.814735 306.500621 
L 547.75993 311.367384 
L 550.077411 300.75039 
L 552.301821 288.819273 
L 554.023644 304.5194 
L 556.313204 305.302504 
L 558.035028 258.913796 
L 559.961609 294.044741 
L 562.074333 301.687559 
L 564.038142 298.788982 
L 566.504538 293.871906 
L 568.375276 309.970102 
L 570.041256 292.452726 
L 571.809615 292.037191 
L 573.596589 294.205324 
L 575.644163 266.406719 
L 577.105386 296.152916 
L 578.687602 307.161201 
L 580.949241 313.664557 
L 582.52215 319.658791 
L 584.727945 316.517514 
L 586.849976 304.880191 
L 589.065079 294.535615 
L 590.749674 304.957876 
L 592.508726 304.567367 
L 594.807593 315.315487 
L 596.464266 312.356951 
L 598.521147 302.46597 
L 600.094056 293.435516 
L 601.890337 287.86568 
L 604.077518 306.182583 
L 605.808648 316.072261 
L 607.99583 311.336623 
L 609.59666 274.312048 
L 611.216105 310.487044 
L 613.468436 307.849936 
L 615.125109 293.199594 
L 617.144762 281.051847 
L 618.717671 309.921875 
L 620.346423 314.457305 
L 622.319539 309.600448 
L 623.901756 313.599906 
L 626.321616 312.746157 
L 628.406418 325.101672 
L 630.16547 309.272504 
L 632.119972 284.7914 
L 634.167546 292.392508 
L 636.326806 315.352765 
L 640.058975 294.291872 
L 641.594655 308.326472 
L 643.037264 310.274063 
L 644.898695 310.555084 
L 646.369225 314.957042 
L 647.932827 320.958575 
L 649.999015 315.167156 
L 651.74876 314.847554 
L 653.917327 311.659353 
L 655.8346 298.543154 
L 657.481967 298.580171 
L 659.46439 296.942015 
L 660.981456 314.259444 
L 663.066259 317.46094 
L 664.853232 320.857168 
L 666.360991 299.994919 
L 668.613323 325.640512 
L 670.363068 312.066025 
L 672.401334 313.360596 
L 673.909093 311.966442 
L 675.565766 322.691622 
L 677.669183 320.4896 
L 679.335164 297.605724 
L 680.91738 315.613973 
L 683.030104 324.937439 
L 684.668163 301.636204 
L 686.883266 307.180753 
L 688.474789 274.669711 
L 690.084926 244.071067 
L 692.672315 302.269412 
L 694.48721 324.002616 
L 696.525477 309.574119 
L 698.126307 317.116312 
L 699.689909 305.852292 
L 701.597876 316.23519 
L 703.422078 322.250018 
L 706.19561 324.63035 
L 707.79644 316.462509 
L 710.058079 313.651522 
L 711.519302 306.502706 
L 713.110825 305.905994 
L 715.167706 309.832199 
L 718.965025 314.019091 
L 720.537934 326.355836 
L 722.175993 328.141281 
L 724.195646 319.937465 
L 725.68479 328.674646 
L 727.304235 336.628203 
L 729.956773 321.886881 
L 732.171876 324.234627 
L 734.787186 317.270638 
L 736.564853 326.812821 
L 738.752034 328.629026 
L 740.362172 324.852195 
L 740.836837 330.804719 
L 741.302194 327.114435 
L 741.767552 314.880661 
L 742.242217 278.518492 
L 742.698267 319.959102 
L 743.154318 327.926996 
L 743.628983 313.5595 
L 744.09434 322.338652 
L 744.559698 320.202062 
L 745.490413 325.944733 
L 745.965078 304.78504 
L 746.411822 310.355919 
L 746.895794 337.382631 
L 747.342537 330.963216 
L 747.817202 332.240321 
L 748.291867 331.858676 
L 748.747917 329.884233 
L 749.213275 326.678306 
L 750.14399 339.660252 
L 750.609348 331.377708 
L 751.065398 328.151969 
L 751.540063 330.547942 
L 752.005421 328.602697 
L 752.470779 338.492375 
L 752.945444 341.321088 
L 753.401494 337.522619 
L 753.866852 345.116428 
L 754.806874 344.934729 
L 755.262925 335.039577 
L 755.718976 352.357788 
L 756.184333 346.638318 
L 756.668305 344.749902 
L 757.115049 350.022294 
L 757.589714 333.021078 
L 758.055071 349.839553 
L 758.520429 376.220282 
L 759.460451 369.629336 
L 759.925809 364.388748 
L 760.391167 376.634514 
L 760.856525 371.697887 
L 761.777933 352.744908 
L 762.252598 373.467168 
L 762.708648 364.881707 
L 763.174006 362.97374 
L 764.104721 362.840268 
L 764.570079 394.708717 
L 765.044744 393.204032 
L 765.491487 381.905863 
L 765.966152 387.496554 
L 766.43151 389.584916 
L 766.906174 386.801041 
L 767.362225 364.852249 
L 767.818275 383.188443 
L 768.767605 393.151374 
L 769.223656 403.163574 
L 769.679706 395.559078 
L 770.145064 402.448771 
L 770.619729 387.074502 
L 771.085086 385.449641 
L 771.550444 395.412832 
L 772.015802 377.979398 
L 772.481159 389.35864 
L 773.402568 397.473823 
L 773.877232 397.079925 
L 774.34259 398.384663 
L 774.807948 392.551272 
L 775.263999 404.895839 
L 775.738664 408.787112 
L 776.660072 396.848174 
L 777.637323 407.502447 
L 778.065452 408.951344 
L 778.540117 408.753222 
L 778.98686 398.460001 
L 779.461525 409.897898 
L 779.917575 391.66989 
L 780.39224 386.40193 
L 780.857598 393.369047 
L 781.332263 411.745647 
L 781.788313 406.881491 
L 782.719029 414.786559 
L 783.175079 415.057674 
L 783.649744 411.494606 
L 784.115102 398.121108 
L 784.58046 392.002266 
L 785.055124 415.101469 
L 785.055124 415.101469 
" style="fill:none;stroke:#ffdead;stroke-linecap:round;"/>
   </g>
   <g id="patch_5">
    <path d="M 117.09 454.968 
L 117.09 61.344 
" style="fill:none;stroke:#262626;stroke-linecap:square;stroke-linejoin:miter;stroke-width:1.25;"/>
   </g>
   <g id="patch_6">
    <path d="M 843.048 454.968 
L 843.048 61.344 
" style="fill:none;stroke:#262626;stroke-linecap:square;stroke-linejoin:miter;stroke-width:1.25;"/>
   </g>
   <g id="patch_7">
    <path d="M 117.09 454.968 
L 843.048 454.968 
" style="fill:none;stroke:#262626;stroke-linecap:square;stroke-linejoin:miter;stroke-width:1.25;"/>
   </g>
   <g id="patch_8">
    <path d="M 117.09 61.344 
L 843.048 61.344 
" style="fill:none;stroke:#262626;stroke-linecap:square;stroke-linejoin:miter;stroke-width:1.25;"/>
   </g>
   <g id="text_18">
    <!-- 0.395 -->
    <defs>
     <path d="M 10.984375 1.515625 
L 10.984375 10.5 
Q 14.703125 8.734375 18.5 7.8125 
Q 22.3125 6.890625 25.984375 6.890625 
Q 35.75 6.890625 40.890625 13.453125 
Q 46.046875 20.015625 46.78125 33.40625 
Q 43.953125 29.203125 39.59375 26.953125 
Q 35.25 24.703125 29.984375 24.703125 
Q 19.046875 24.703125 12.671875 31.3125 
Q 6.296875 37.9375 6.296875 49.421875 
Q 6.296875 60.640625 12.9375 67.421875 
Q 19.578125 74.21875 30.609375 74.21875 
Q 43.265625 74.21875 49.921875 64.515625 
Q 56.59375 54.828125 56.59375 36.375 
Q 56.59375 19.140625 48.40625 8.859375 
Q 40.234375 -1.421875 26.421875 -1.421875 
Q 22.703125 -1.421875 18.890625 -0.6875 
Q 15.09375 0.046875 10.984375 1.515625 
z
M 30.609375 32.421875 
Q 37.25 32.421875 41.125 36.953125 
Q 45.015625 41.5 45.015625 49.421875 
Q 45.015625 57.28125 41.125 61.84375 
Q 37.25 66.40625 30.609375 66.40625 
Q 23.96875 66.40625 20.09375 61.84375 
Q 16.21875 57.28125 16.21875 49.421875 
Q 16.21875 41.5 20.09375 36.953125 
Q 23.96875 32.421875 30.609375 32.421875 
z
" id="DejaVuSans-39"/>
    </defs>
    <g style="fill:#262626;" transform="translate(195.270092 83.212)scale(0.12 -0.12)">
     <use xlink:href="#DejaVuSans-30"/>
     <use x="63.623047" xlink:href="#DejaVuSans-2e"/>
     <use x="95.410156" xlink:href="#DejaVuSans-33"/>
     <use x="159.033203" xlink:href="#DejaVuSans-39"/>
     <use x="222.65625" xlink:href="#DejaVuSans-35"/>
    </g>
   </g>
   <g id="text_19">
    <!-- 0.39 -->
    <g style="fill:#262626;" transform="translate(142.219315 94.146)scale(0.12 -0.12)">
     <use xlink:href="#DejaVuSans-30"/>
     <use x="63.623047" xlink:href="#DejaVuSans-2e"/>
     <use x="95.410156" xlink:href="#DejaVuSans-33"/>
     <use x="159.033203" xlink:href="#DejaVuSans-39"/>
    </g>
   </g>
   <g id="legend_1">
    <g id="patch_9">
     <path d="M 618.544875 112.708844 
L 833.423 112.708844 
Q 836.173 112.708844 836.173 109.958844 
L 836.173 70.969 
Q 836.173 68.219 833.423 68.219 
L 618.544875 68.219 
Q 615.794875 68.219 615.794875 70.969 
L 615.794875 109.958844 
Q 615.794875 112.708844 618.544875 112.708844 
z
" style="fill:#ffffff;opacity:0.8;stroke:#cccccc;stroke-linejoin:miter;"/>
    </g>
    <g id="line2d_103">
     <path d="M 621.294875 79.354352 
L 648.794875 79.354352 
" style="fill:none;stroke:#ff7f0e;stroke-linecap:round;"/>
    </g>
    <g id="line2d_104"/>
    <g id="text_20">
     <!-- Own Vessel ATC Case -->
     <defs>
      <path d="M 39.40625 66.21875 
Q 28.65625 66.21875 22.328125 58.203125 
Q 16.015625 50.203125 16.015625 36.375 
Q 16.015625 22.609375 22.328125 14.59375 
Q 28.65625 6.59375 39.40625 6.59375 
Q 50.140625 6.59375 56.421875 14.59375 
Q 62.703125 22.609375 62.703125 36.375 
Q 62.703125 50.203125 56.421875 58.203125 
Q 50.140625 66.21875 39.40625 66.21875 
z
M 39.40625 74.21875 
Q 54.734375 74.21875 63.90625 63.9375 
Q 73.09375 53.65625 73.09375 36.375 
Q 73.09375 19.140625 63.90625 8.859375 
Q 54.734375 -1.421875 39.40625 -1.421875 
Q 24.03125 -1.421875 14.8125 8.828125 
Q 5.609375 19.09375 5.609375 36.375 
Q 5.609375 53.65625 14.8125 63.9375 
Q 24.03125 74.21875 39.40625 74.21875 
z
" id="DejaVuSans-4f"/>
      <path d="M 4.203125 54.6875 
L 13.1875 54.6875 
L 24.421875 12.015625 
L 35.59375 54.6875 
L 46.1875 54.6875 
L 57.421875 12.015625 
L 68.609375 54.6875 
L 77.59375 54.6875 
L 63.28125 0 
L 52.6875 0 
L 40.921875 44.828125 
L 29.109375 0 
L 18.5 0 
z
" id="DejaVuSans-77"/>
      <path d="M 28.609375 0 
L 0.78125 72.90625 
L 11.078125 72.90625 
L 34.1875 11.53125 
L 57.328125 72.90625 
L 67.578125 72.90625 
L 39.796875 0 
z
" id="DejaVuSans-56"/>
      <path d="M 34.1875 63.1875 
L 20.796875 26.90625 
L 47.609375 26.90625 
z
M 28.609375 72.90625 
L 39.796875 72.90625 
L 67.578125 0 
L 57.328125 0 
L 50.6875 18.703125 
L 17.828125 18.703125 
L 11.1875 0 
L 0.78125 0 
z
" id="DejaVuSans-41"/>
     </defs>
     <g style="fill:#262626;" transform="translate(659.794875 84.166852)scale(0.1375 -0.1375)">
      <use xlink:href="#DejaVuSans-4f"/>
      <use x="78.710938" xlink:href="#DejaVuSans-77"/>
      <use x="160.498047" xlink:href="#DejaVuSans-6e"/>
      <use x="223.876953" xlink:href="#DejaVuSans-20"/>
      <use x="255.664062" xlink:href="#DejaVuSans-56"/>
      <use x="323.962891" xlink:href="#DejaVuSans-65"/>
      <use x="385.486328" xlink:href="#DejaVuSans-73"/>
      <use x="437.585938" xlink:href="#DejaVuSans-73"/>
      <use x="489.685547" xlink:href="#DejaVuSans-65"/>
      <use x="551.208984" xlink:href="#DejaVuSans-6c"/>
      <use x="578.992188" xlink:href="#DejaVuSans-20"/>
      <use x="610.779297" xlink:href="#DejaVuSans-41"/>
      <use x="679.078125" xlink:href="#DejaVuSans-54"/>
      <use x="740.083984" xlink:href="#DejaVuSans-43"/>
      <use x="809.908203" xlink:href="#DejaVuSans-20"/>
      <use x="841.695312" xlink:href="#DejaVuSans-43"/>
      <use x="911.519531" xlink:href="#DejaVuSans-61"/>
      <use x="972.798828" xlink:href="#DejaVuSans-73"/>
      <use x="1024.898438" xlink:href="#DejaVuSans-65"/>
     </g>
    </g>
    <g id="line2d_105">
     <path d="M 621.294875 99.536773 
L 648.794875 99.536773 
" style="fill:none;stroke:#ffdead;stroke-linecap:round;"/>
    </g>
    <g id="line2d_106"/>
    <g id="text_21">
     <!-- Own Vessel no ATC Case -->
     <g style="fill:#262626;" transform="translate(659.794875 104.349273)scale(0.1375 -0.1375)">
      <use xlink:href="#DejaVuSans-4f"/>
      <use x="78.710938" xlink:href="#DejaVuSans-77"/>
      <use x="160.498047" xlink:href="#DejaVuSans-6e"/>
      <use x="223.876953" xlink:href="#DejaVuSans-20"/>
      <use x="255.664062" xlink:href="#DejaVuSans-56"/>
      <use x="323.962891" xlink:href="#DejaVuSans-65"/>
      <use x="385.486328" xlink:href="#DejaVuSans-73"/>
      <use x="437.585938" xlink:href="#DejaVuSans-73"/>
      <use x="489.685547" xlink:href="#DejaVuSans-65"/>
      <use x="551.208984" xlink:href="#DejaVuSans-6c"/>
      <use x="578.992188" xlink:href="#DejaVuSans-20"/>
      <use x="610.779297" xlink:href="#DejaVuSans-6e"/>
      <use x="674.158203" xlink:href="#DejaVuSans-6f"/>
      <use x="735.339844" xlink:href="#DejaVuSans-20"/>
      <use x="767.126953" xlink:href="#DejaVuSans-41"/>
      <use x="835.425781" xlink:href="#DejaVuSans-54"/>
      <use x="896.431641" xlink:href="#DejaVuSans-43"/>
      <use x="966.255859" xlink:href="#DejaVuSans-20"/>
      <use x="998.042969" xlink:href="#DejaVuSans-43"/>
      <use x="1067.867188" xlink:href="#DejaVuSans-61"/>
      <use x="1129.146484" xlink:href="#DejaVuSans-73"/>
      <use x="1181.246094" xlink:href="#DejaVuSans-65"/>
     </g>
    </g>
   </g>
  </g>
 </g>
 <defs>
  <clipPath id="p568589b255">
   <rect height="393.624" width="725.958" x="117.09" y="61.344"/>
  </clipPath>
 </defs>
</svg>
